<svg version="1.1" viewBox="0.0 0.0 960.0 540.0" fill="none" stroke="none" stroke-linecap="square" stroke-miterlimit="10" xmlns:xlink="http://www.w3.org/1999/xlink" xmlns="http://www.w3.org/2000/svg"><clipPath id="g3ffa094804_0_161.0"><path d="m0 0l960.0 0l0 540.0l-960.0 0l0 -540.0z" clip-rule="nonzero"/></clipPath><g clip-path="url(#g3ffa094804_0_161.0)"><path fill="#ffffff" d="m0 0l960.0 0l0 540.0l-960.0 0z" fill-rule="evenodd"/><path fill="#5e2b97" d="m8.472441 278.33072l943.0552 0l0 253.19687l-943.0552 0z" fill-rule="evenodd"/><path fill="#000000" fill-opacity="0.0" d="m51.010498 27.766405l859.1811 0l0 154.70866l-859.1811 0z" fill-rule="evenodd"/><path fill="#000000" d="m61.744873 140.07881q0 -3.640625 1.3125 -7.1875q1.328125 -3.5625 3.84375 -6.359375q2.515625 -2.8125 6.15625 -4.546875q3.640625 -1.734375 8.296875 -1.734375q5.484375 0 9.484375 2.40625q4.0 2.40625 5.96875 6.28125l-5.9375 4.078125q-0.78125 -1.671875 -1.90625 -2.8125q-1.125 -1.15625 -2.421875 -1.828125q-1.28125 -0.671875 -2.6875 -0.984375q-1.390625 -0.3125 -2.734375 -0.3125q-2.90625 0 -5.0625 1.1875q-2.15625 1.171875 -3.59375 3.046875q-1.421875 1.875 -2.15625 4.265625q-0.71875 2.375 -0.71875 4.71875q0 2.640625 0.828125 5.078125q0.84375 2.421875 2.390625 4.28125q1.546875 1.84375 3.6875 2.96875q2.15625 1.109375 4.734375 1.109375q1.34375 0 2.796875 -0.328125q1.46875 -0.34375 2.78125 -1.0625q1.3125 -0.734375 2.4375 -1.875q1.125 -1.15625 1.796875 -2.78125l6.328125 3.640625q-0.953125 2.25 -2.71875 3.953125q-1.765625 1.703125 -3.984375 2.890625q-2.203125 1.171875 -4.734375 1.796875q-2.515625 0.609375 -4.921875 0.609375q-4.25 0 -7.78125 -1.796875q-3.53125 -1.796875 -6.078125 -4.671875q-2.546875 -2.890625 -3.984375 -6.5625q-1.421875 -3.671875 -1.421875 -7.46875zm53.650375 20.71875q-3.578125 0 -6.4375 -1.234375q-2.859375 -1.234375 -4.84375 -3.328125q-1.984375 -2.109375 -3.0625 -4.84375q-1.0625 -2.75 -1.0625 -5.765625q0 -3.09375 1.0625 -5.828125q1.078125 -2.75 3.0625 -4.84375q1.984375 -2.109375 4.84375 -3.328125q2.859375 -1.234375 6.4375 -1.234375q3.578125 0 6.40625 1.234375q2.828125 1.21875 4.8125 3.328125q2.0 2.09375 3.0625 4.84375q1.0625 2.734375 1.0625 5.828125q0 3.015625 -1.0625 5.765625q-1.0625 2.734375 -3.03125 4.84375q-1.953125 2.09375 -4.8125 3.328125q-2.859375 1.234375 -6.4375 1.234375zm-7.671875 -15.171875q0 1.953125 0.578125 3.546875q0.59375 1.59375 1.625 2.78125q1.046875 1.171875 2.4375 1.8125q1.40625 0.640625 3.03125 0.640625q1.625 0 3.015625 -0.640625q1.40625 -0.640625 2.4375 -1.8125q1.046875 -1.1875 1.625 -2.8125q0.59375 -1.625 0.59375 -3.578125q0 -1.90625 -0.59375 -3.53125q-0.578125 -1.625 -1.625 -2.796875q-1.03125 -1.171875 -2.4375 -1.8125q-1.390625 -0.65625 -3.015625 -0.65625q-1.625 0 -3.03125 0.671875q-1.390625 0.671875 -2.4375 1.859375q-1.03125 1.171875 -1.625 2.796875q-0.578125 1.625 -0.578125 3.53125zm55.326614 14.609375l-7.5 0l0 -16.46875q0 -3.515625 -1.234375 -5.140625q-1.234375 -1.625 -3.421875 -1.625q-1.109375 0 -2.296875 0.453125q-1.171875 0.4375 -2.21875 1.25q-1.03125 0.8125 -1.875 1.9375q-0.828125 1.109375 -1.21875 2.453125l0 17.140625l-7.5 0l0 -29.34375l6.765625 0l0 5.4375q1.625 -2.8125 4.703125 -4.375q3.078125 -1.5625 6.953125 -1.5625q2.734375 0 4.46875 1.015625q1.75 1.0 2.6875 2.625q0.953125 1.625 1.3125 3.703125q0.375 2.0625 0.375 4.1875l0 18.3125zm4.69899 -14.671875q0 -3.078125 1.0625 -5.8125q1.078125 -2.75 3.09375 -4.828125q2.015625 -2.078125 4.859375 -3.296875q2.859375 -1.234375 6.453125 -1.234375q4.8125 0 8.1875 2.078125q3.390625 2.0625 5.078125 5.421875l-7.34375 2.234375q-0.9375 -1.625 -2.515625 -2.484375q-1.5625 -0.875 -3.46875 -0.875q-1.625 0 -3.03125 0.65625q-1.390625 0.640625 -2.4375 1.796875q-1.03125 1.140625 -1.625 2.765625q-0.578125 1.625 -0.578125 3.578125q0 1.953125 0.609375 3.578125q0.625 1.625 1.65625 2.8125q1.03125 1.171875 2.4375 1.8125q1.40625 0.640625 2.96875 0.640625q2.015625 0 3.71875 -1.0q1.71875 -1.015625 2.390625 -2.46875l7.328125 2.234375q-1.515625 3.359375 -4.984375 5.5q-3.46875 2.125 -8.34375 2.125q-3.578125 0 -6.4375 -1.234375q-2.859375 -1.234375 -4.875 -3.328125q-2.015625 -2.109375 -3.109375 -4.875q-1.09375 -2.765625 -1.09375 -5.796875zm47.05275 15.234375q-3.53125 0 -6.390625 -1.203125q-2.859375 -1.203125 -4.875 -3.265625q-2.015625 -2.078125 -3.109375 -4.828125q-1.09375 -2.75 -1.09375 -5.765625q0 -3.140625 1.0625 -5.90625q1.078125 -2.78125 3.09375 -4.875q2.015625 -2.109375 4.890625 -3.328125q2.890625 -1.234375 6.46875 -1.234375q3.578125 0 6.40625 1.234375q2.828125 1.21875 4.8125 3.296875q2.0 2.078125 3.03125 4.828125q1.046875 2.734375 1.046875 5.703125q0 0.71875 -0.03125 1.390625q-0.03125 0.671875 -0.140625 1.125l-22.6875 0q0.171875 1.734375 0.84375 3.078125q0.671875 1.34375 1.734375 2.296875q1.0625 0.953125 2.40625 1.46875q1.34375 0.5 2.796875 0.5q2.25 0 4.234375 -1.09375q1.984375 -1.09375 2.71875 -2.890625l6.4375 1.796875q-1.625 3.359375 -5.1875 5.515625q-3.546875 2.15625 -8.46875 2.15625zm7.609375 -17.703125q-0.28125 -3.296875 -2.4375 -5.28125q-2.15625 -2.0 -5.234375 -2.0q-1.515625 0 -2.828125 0.53125q-1.3125 0.53125 -2.328125 1.484375q-1.0 0.953125 -1.65625 2.296875q-0.640625 1.34375 -0.75 2.96875l15.234375 0zm29.903366 17.703125q-3.46875 0 -6.046875 -1.53125q-2.578125 -1.546875 -4.03125 -4.1875l0 17.078125l-7.5 0l0 -41.265625l6.546875 0l0 5.046875q1.625 -2.578125 4.203125 -4.0625q2.578125 -1.484375 5.9375 -1.484375q2.96875 0 5.4843903 1.203125q2.515625 1.203125 4.328125 3.25q1.828125 2.03125 2.859375 4.8125q1.046875 2.765625 1.046875 5.84375q0 3.203125 -0.953125 6.0q-0.953125 2.796875 -2.671875 4.875q-1.703125 2.0625 -4.0625 3.25q-2.3437653 1.171875 -5.1406403 1.171875zm-2.515625 -6.390625q1.671875 0 3.09375 -0.71875q1.4375 -0.734375 2.4375 -1.96875q1.0156403 -1.234375 1.5781403 -2.84375q0.5625 -1.625 0.5625 -3.375q0 -1.84375 -0.625 -3.4375q-0.609375 -1.59375 -1.7031403 -2.765625q-1.09375 -1.1875 -2.578125 -1.859375q-1.484375 -0.671875 -3.21875 -0.671875q-1.0625 0 -2.1875 0.375q-1.109375 0.359375 -2.0625 1.03125q-0.953125 0.671875 -1.71875 1.578125q-0.75 0.890625 -1.140625 1.953125l0 6.890625q1.0 2.515625 3.078125 4.171875q2.078125 1.640625 4.484375 1.640625zm38.019638 4.3125q-1.515625 0.671875 -3.703125 1.34375q-2.171875 0.671875 -4.578125 0.671875q-1.578125 0 -2.953125 -0.390625q-1.359375 -0.390625 -2.40625 -1.25q-1.03125 -0.875 -1.65625 -2.25q-0.609375 -1.375 -0.609375 -3.328125l0 -16.859375l-3.859375 0l0 -5.765625l3.859375 0l0 -9.515625l7.5 0l0 9.515625l6.171875 0l0 5.765625l-6.171875 0l0 14.34375q0 1.5625 0.8125 2.203125q0.8125 0.640625 2.0 0.640625q1.171875 0 2.28125 -0.390625q1.125 -0.390625 1.796875 -0.671875l1.515625 5.9375zm12.878998 2.078125q-4.53125 0 -6.890625 -2.90625q-2.34375 -2.921875 -2.34375 -8.625l0 -18.375l7.5 0l0 16.75q0 6.765625 4.875 6.765625q2.1875 0 4.2187195 -1.3125q2.046875 -1.3125 3.34375 -4.0l0 -18.203125l7.5 0l0 20.71875q0 1.171875 0.421875 1.6875q0.421875 0.5 1.375 0.546875l0 6.390625q-1.125 0.21875 -1.890625 0.28125q-0.75 0.0625 -1.359375 0.0625q-2.015625 0 -3.28125 -0.921875q-1.265625 -0.9375 -1.484375 -2.5625l-0.171875 -2.34375q-1.953125 3.015625 -5.03125 4.53125q-3.0780945 1.515625 -6.7812195 1.515625zm33.654877 0q-2.125 0 -3.984375 -0.703125q-1.84375 -0.703125 -3.1875 -1.953125q-1.34375 -1.265625 -2.09375 -2.9375q-0.75 -1.6875 -0.75 -3.703125q0 -2.078125 0.921875 -3.84375q0.921875 -1.765625 2.5625 -2.984375q1.65625 -1.234375 3.953125 -1.9375q2.296875 -0.703125 5.046875 -0.703125q1.953125 0 3.828125 0.34375q1.875 0.328125 3.34375 0.953125l0 -1.6875q0 -2.90625 -1.65625 -4.46875q-1.65625 -1.578125 -4.90625 -1.578125q-2.34375 0 -4.59375 0.84375q-2.234375 0.84375 -4.59375 2.453125l-2.28125 -4.75q5.65625 -3.75 12.203125 -3.75q6.328125 0 9.828125 3.109375q3.5 3.109375 3.5 8.984375l0 9.125q0 1.171875 0.421875 1.6875q0.421875 0.5 1.375 0.546875l0 6.390625q-1.90625 0.390625 -3.3125 0.390625q-2.125 0 -3.28125 -0.953125q-1.140625 -0.953125 -1.421875 -2.515625l-0.171875 -1.625q-1.953125 2.578125 -4.765625 3.921875q-2.796875 1.34375 -5.984375 1.34375zm2.125 -5.484375q1.90625 0 3.609375 -0.671875q1.71875 -0.671875 2.671875 -1.796875q1.234375 -0.953125 1.234375 -2.125l0 -3.359375q-1.34375 -0.515625 -2.921875 -0.8125q-1.5625 -0.3125 -3.015625 -0.3125q-2.921875 0 -4.765625 1.3125q-1.84375 1.3125 -1.84375 3.328125q0 1.90625 1.453125 3.171875q1.453125 1.265625 3.578125 1.265625zm21.956482 -35.953125l7.5 0l0 31.46875q0 1.625 0.78125 2.53125q0.796875 0.890625 2.25 0.890625q0.671875 0 1.484375 -0.21875q0.8125 -0.234375 1.53125 -0.578125l1.015625 5.71875q-1.515625 0.71875 -3.53125 1.109375q-2.015625 0.40625 -3.640625 0.40625q-3.53125 0 -5.46875 -1.875q-1.921875 -1.875 -1.921875 -5.359375l0 -34.09375zm76.83264 40.875l-7.5 0l0 -16.46875q0 -3.515625 -1.203125 -5.140625q-1.203125 -1.625 -3.34375 -1.625q-2.234375 0 -4.203125 1.703125q-1.953125 1.703125 -2.796875 4.453125l0 17.078125l-7.5 0l0 -16.46875q0 -3.515625 -1.203125 -5.140625q-1.203125 -1.625 -3.328125 -1.625q-2.1875 0 -4.171875 1.6875q-1.984375 1.671875 -2.828125 4.40625l0 17.140625l-7.5 0l0 -29.34375l6.765625 0l0 5.4375q1.625 -2.859375 4.453125 -4.390625q2.828125 -1.546875 6.46875 -1.546875q3.703125 0 5.71875 1.796875q2.015625 1.78125 2.578125 4.421875q1.78125 -3.03125 4.53125 -4.625q2.75 -1.59375 6.265625 -1.59375q2.6875 0 4.421875 1.015625q1.75 1.0 2.6875 2.625q0.953125 1.625 1.3125 3.703125q0.375 2.0625 0.375 4.1875l0 18.3125zm20.167236 0.5625q-3.53125 0 -6.390625 -1.203125q-2.859375 -1.203125 -4.875 -3.265625q-2.015625 -2.078125 -3.109375 -4.828125q-1.09375 -2.75 -1.09375 -5.765625q0 -3.140625 1.0625 -5.90625q1.078125 -2.78125 3.09375 -4.875q2.015625 -2.109375 4.890625 -3.328125q2.890625 -1.234375 6.46875 -1.234375q3.578125 0 6.40625 1.234375q2.828125 1.21875 4.8125 3.296875q2.0 2.078125 3.03125 4.828125q1.046875 2.734375 1.046875 5.703125q0 0.71875 -0.03125 1.390625q-0.03125 0.671875 -0.140625 1.125l-22.6875 0q0.171875 1.734375 0.84375 3.078125q0.671875 1.34375 1.734375 2.296875q1.0625 0.953125 2.40625 1.46875q1.34375 0.5 2.796875 0.5q2.25 0 4.234375 -1.09375q1.984375 -1.09375 2.71875 -2.890625l6.4375 1.796875q-1.625 3.359375 -5.1875 5.515625q-3.546875 2.15625 -8.46875 2.15625zm7.609375 -17.703125q-0.28125 -3.296875 -2.4375 -5.28125q-2.15625 -2.0 -5.234375 -2.0q-1.515625 0 -2.828125 0.53125q-1.3125 0.53125 -2.328125 1.484375q-1.0 0.953125 -1.65625 2.296875q-0.640625 1.34375 -0.75 2.96875l15.234375 0zm29.903381 15.625q-1.515625 0.671875 -3.703125 1.34375q-2.171875 0.671875 -4.578125 0.671875q-1.578125 0 -2.953125 -0.390625q-1.359375 -0.390625 -2.40625 -1.25q-1.03125 -0.875 -1.65625 -2.25q-0.609375 -1.375 -0.609375 -3.328125l0 -16.859375l-3.859375 0l0 -5.765625l3.859375 0l0 -9.515625l7.5 0l0 9.515625l6.171875 0l0 5.765625l-6.171875 0l0 14.34375q0 1.5625 0.8125 2.203125q0.8125 0.640625 2.0 0.640625q1.171875 0 2.28125 -0.390625q1.125 -0.390625 1.796875 -0.671875l1.515625 5.9375zm11.925873 2.078125q-2.125 0 -3.984375 -0.703125q-1.84375 -0.703125 -3.1875 -1.953125q-1.34375 -1.265625 -2.09375 -2.9375q-0.75 -1.6875 -0.75 -3.703125q0 -2.078125 0.921875 -3.84375q0.921875 -1.765625 2.5625 -2.984375q1.65625 -1.234375 3.953125 -1.9375q2.296875 -0.703125 5.046875 -0.703125q1.953125 0 3.828125 0.34375q1.8750305 0.328125 3.3437805 0.953125l0 -1.6875q0 -2.90625 -1.65625 -4.46875q-1.6562805 -1.578125 -4.9062805 -1.578125q-2.34375 0 -4.59375 0.84375q-2.234375 0.84375 -4.59375 2.453125l-2.28125 -4.75q5.65625 -3.75 12.203125 -3.75q6.3281555 0 9.8281555 3.109375q3.5 3.109375 3.5 8.984375l0 9.125q0 1.171875 0.421875 1.6875q0.421875 0.5 1.375 0.546875l0 6.390625q-1.90625 0.390625 -3.3125 0.390625q-2.125 0 -3.28125 -0.953125q-1.140625 -0.953125 -1.421875 -2.515625l-0.171875 -1.625q-1.953125 2.578125 -4.7656555 3.921875q-2.796875 1.34375 -5.984375 1.34375zm2.125 -5.484375q1.90625 0 3.609375 -0.671875q1.7187805 -0.671875 2.6719055 -1.796875q1.234375 -0.953125 1.234375 -2.125l0 -3.359375q-1.34375 -0.515625 -2.9219055 -0.8125q-1.5625 -0.3125 -3.015625 -0.3125q-2.921875 0 -4.765625 1.3125q-1.84375 1.3125 -1.84375 3.328125q0 1.90625 1.453125 3.171875q1.453125 1.265625 3.578125 1.265625zm39.597137 5.484375q-3.46875 0 -6.046875 -1.53125q-2.578125 -1.546875 -4.03125 -4.1875l0 17.078125l-7.5 0l0 -41.265625l6.546875 0l0 5.046875q1.625 -2.578125 4.203125 -4.0625q2.578125 -1.484375 5.9375 -1.484375q2.96875 0 5.484375 1.203125q2.515625 1.203125 4.328125 3.25q1.828125 2.03125 2.859375 4.8125q1.046875 2.765625 1.046875 5.84375q0 3.203125 -0.953125 6.0q-0.953125 2.796875 -2.671875 4.875q-1.703125 2.0625 -4.0625 3.25q-2.34375 1.171875 -5.140625 1.171875zm-2.515625 -6.390625q1.671875 0 3.09375 -0.71875q1.4375 -0.734375 2.4375 -1.96875q1.015625 -1.234375 1.578125 -2.84375q0.5625 -1.625 0.5625 -3.375q0 -1.84375 -0.625 -3.4375q-0.609375 -1.59375 -1.703125 -2.765625q-1.09375 -1.1875 -2.578125 -1.859375q-1.484375 -0.671875 -3.21875 -0.671875q-1.0625 0 -2.1875 0.375q-1.109375 0.359375 -2.0625 1.03125q-0.953125 0.671875 -1.71875 1.578125q-0.75 0.890625 -1.140625 1.953125l0 6.890625q1.0 2.515625 3.078125 4.171875q2.078125 1.640625 4.484375 1.640625zm47.707153 5.828125l-7.5 0l0 -16.46875q0 -3.46875 -1.296875 -5.109375q-1.28125 -1.65625 -3.640625 -1.65625q-1.0 0 -2.125 0.453125q-1.109375 0.4375 -2.125 1.25q-1.015625 0.8125 -1.859375 1.9375q-0.828125 1.109375 -1.21875 2.453125l0 17.140625l-7.5 0l0 -40.875l7.5 0l0 16.96875q1.625 -2.859375 4.390625 -4.390625q2.78125 -1.546875 6.140625 -1.546875q2.84375 0 4.640625 0.984375q1.796875 0.96875 2.796875 2.59375q1.015625 1.625 1.40625 3.703125q0.390625 2.0625 0.390625 4.25l0 18.3125zm20.105225 0.5625q-3.578125 0 -6.4375 -1.234375q-2.859375 -1.234375 -4.84375 -3.328125q-1.984375 -2.109375 -3.0625 -4.84375q-1.0625 -2.75 -1.0625 -5.765625q0 -3.09375 1.0625 -5.828125q1.078125 -2.75 3.0625 -4.84375q1.984375 -2.109375 4.84375 -3.328125q2.859375 -1.234375 6.4375 -1.234375q3.578125 0 6.40625 1.234375q2.828125 1.21875 4.8125 3.328125q2.0 2.09375 3.0625 4.84375q1.0625 2.734375 1.0625 5.828125q0 3.015625 -1.0625 5.765625q-1.0625 2.734375 -3.03125 4.84375q-1.953125 2.09375 -4.8125 3.328125q-2.859375 1.234375 -6.4375 1.234375zm-7.671875 -15.171875q0 1.953125 0.578125 3.546875q0.59375 1.59375 1.625 2.78125q1.046875 1.171875 2.4375 1.8125q1.40625 0.640625 3.03125 0.640625q1.625 0 3.015625 -0.640625q1.40625 -0.640625 2.4375 -1.8125q1.046875 -1.1875 1.625 -2.8125q0.59375 -1.625 0.59375 -3.578125q0 -1.90625 -0.59375 -3.53125q-0.578125 -1.625 -1.625 -2.796875q-1.03125 -1.171875 -2.4375 -1.8125q-1.390625 -0.65625 -3.015625 -0.65625q-1.625 0 -3.03125 0.671875q-1.390625 0.671875 -2.4375 1.859375q-1.03125 1.171875 -1.625 2.796875q-0.578125 1.625 -0.578125 3.53125zm45.529724 -8.234375q-3.421875 0.046875 -6.109375 1.3125q-2.6875 1.265625 -3.859375 3.78125l0 17.75l-7.5 0l0 -29.34375l6.875 0l0 6.265625q0.796875 -1.5 1.859375 -2.703125q1.0625 -1.203125 2.296875 -2.09375q1.234375 -0.90625 2.484375 -1.375q1.265625 -0.484375 2.4375 -0.484375q0.609375 0 0.921875 0q0.3125 0 0.59375 0.046875l0 6.84375z" fill-rule="nonzero"/><path fill="#000000" fill-opacity="0.0" d="m51.010498 328.2756l859.1811 0l0 175.27557l-859.1811 0z" fill-rule="evenodd"/><path fill="#ffffff" d="m71.05737 347.26935l4.875 0l10.796875 28.40625l-5.671875 0l-2.640625 -7.078125l-9.921875 0l-2.609375 7.078125l-5.671875 0l10.84375 -28.40625zm6.359375 17.453125l-3.921875 -11.171875l-4.078125 11.171875l8.0 0zm29.71434 11.078125q-2.125 0 -3.84375 -0.84375q-1.71875 -0.84375 -2.984375 -2.296875q-1.25 -1.46875 -1.9375 -3.375q-0.671875 -1.921875 -0.671875 -4.09375q0 -2.28125 0.71875 -4.234375q0.71875 -1.96875 2.0 -3.4375q1.28125 -1.484375 3.078125 -2.3125q1.796875 -0.84375 3.953125 -0.84375q2.453125 0 4.28125 1.09375q1.84375 1.09375 3.046875 2.9375l0 -3.671875l4.671875 0l0 19.953125q0 2.3125 -0.875 4.15625q-0.875 1.84375 -2.421875 3.125q-1.53125 1.28125 -3.671875 1.953125q-2.140625 0.6875 -4.671875 0.6875q-3.4375 0 -5.78125 -1.140625q-2.328125 -1.140625 -4.015625 -3.21875l2.921875 -2.84375q1.203125 1.484375 3.015625 2.3125q1.828125 0.84375 3.859375 0.84375q1.25 0 2.390625 -0.34375q1.140625 -0.328125 2.015625 -1.046875q0.875 -0.71875 1.375 -1.84375q0.5 -1.125 0.5 -2.640625l0 -2.640625q-1.03125 1.796875 -2.921875 2.78125q-1.875 0.984375 -4.03125 0.984375zm1.796875 -4.28125q0.875 0 1.671875 -0.28125q0.8125 -0.28125 1.484375 -0.765625q0.6875 -0.484375 1.203125 -1.109375q0.515625 -0.640625 0.796875 -1.375l0 -5.0q-0.71875 -1.828125 -2.265625 -2.953125q-1.53125 -1.125 -3.203125 -1.125q-1.25 0 -2.25 0.546875q-1.0 0.53125 -1.71875 1.4375q-0.71875 0.90625 -1.09375 2.0625q-0.375 1.15625 -0.375 2.40625q0 1.265625 0.4375 2.390625q0.4375 1.125 1.21875 1.96875q0.78125 0.828125 1.8125 1.3125q1.046875 0.484375 2.28125 0.484375zm27.844345 -12.15625q-2.4375 0.03125 -4.359375 0.9375q-1.921875 0.890625 -2.765625 2.6875l0 12.6875l-5.359375 0l0 -20.953125l4.921875 0l0 4.46875q0.5625 -1.078125 1.3125 -1.9375q0.765625 -0.859375 1.640625 -1.5q0.890625 -0.640625 1.78125 -0.96875q0.90625 -0.34375 1.75 -0.34375q0.4375 0 0.65625 0q0.21875 0 0.421875 0.03125l0 4.890625zm12.683105 16.71875q-2.5625 0 -4.609375 -0.875q-2.03125 -0.890625 -3.453125 -2.390625q-1.421875 -1.5 -2.1875 -3.453125q-0.75 -1.96875 -0.75 -4.125q0 -2.203125 0.75 -4.15625q0.765625 -1.96875 2.1875 -3.46875q1.421875 -1.5 3.453125 -2.375q2.046875 -0.875 4.609375 -0.875q2.5625 0 4.578125 0.875q2.015625 0.875 3.4375 2.375q1.421875 1.5 2.171875 3.46875q0.765625 1.953125 0.765625 4.15625q0 2.15625 -0.765625 4.125q-0.75 1.953125 -2.15625 3.453125q-1.390625 1.5 -3.4375 2.390625q-2.03125 0.875 -4.59375 0.875zm-5.484375 -10.84375q0 1.390625 0.421875 2.53125q0.421875 1.140625 1.15625 1.984375q0.734375 0.84375 1.734375 1.3125q1.0 0.453125 2.171875 0.453125q1.15625 0 2.15625 -0.453125q1.0 -0.46875 1.734375 -1.3125q0.75 -0.84375 1.15625 -2.0q0.421875 -1.15625 0.421875 -2.5625q0 -1.359375 -0.421875 -2.515625q-0.40625 -1.15625 -1.15625 -2.0q-0.734375 -0.84375 -1.734375 -1.296875q-1.0 -0.46875 -2.15625 -0.46875q-1.171875 0 -2.171875 0.484375q-1.0 0.484375 -1.734375 1.328125q-0.734375 0.828125 -1.15625 2.0q-0.421875 1.15625 -0.421875 2.515625zm26.4431 10.84375q-3.25 0 -4.9375 -2.078125q-1.671875 -2.09375 -1.671875 -6.171875l0 -13.109375l5.359375 0l0 11.953125q0 4.84375 3.484375 4.84375q1.5625 0 3.015625 -0.9375q1.46875 -0.953125 2.390625 -2.859375l0 -13.0l5.359375 0l0 14.796875q0 0.84375 0.296875 1.203125q0.296875 0.359375 0.984375 0.390625l0 4.5625q-0.8125 0.15625 -1.359375 0.1875q-0.53125 0.046875 -0.96875 0.046875q-1.4375 0 -2.34375 -0.65625q-0.890625 -0.65625 -1.046875 -1.8125l-0.125 -1.6875q-1.40625 2.15625 -3.609375 3.25q-2.1875 1.078125 -4.828125 1.078125zm37.798096 -0.40625l-5.359375 0l0 -11.765625q0 -2.515625 -0.890625 -3.671875q-0.875 -1.15625 -2.4375 -1.15625q-0.796875 0 -1.640625 0.328125q-0.828125 0.3125 -1.578125 0.890625q-0.734375 0.578125 -1.34375 1.375q-0.59375 0.796875 -0.875 1.765625l0 12.234375l-5.359375 0l0 -20.953125l4.84375 0l0 3.875q1.15625 -2.0 3.359375 -3.109375q2.203125 -1.125 4.953125 -1.125q1.96875 0 3.203125 0.71875q1.25 0.71875 1.921875 1.875q0.6875 1.15625 0.9375 2.640625q0.265625 1.484375 0.265625 3.0l0 13.078125zm13.363098 0.40625q-2.171875 0 -4.015625 -0.84375q-1.828125 -0.84375 -3.15625 -2.3125q-1.3125 -1.484375 -2.0625 -3.46875q-0.734375 -1.984375 -0.734375 -4.265625q0 -2.28125 0.703125 -4.234375q0.703125 -1.96875 1.9375 -3.4375q1.25 -1.484375 2.96875 -2.3125q1.71875 -0.84375 3.75 -0.84375q2.328125 0 4.1875 1.125q1.859375 1.109375 2.890625 2.90625l0 -11.921875l5.359375 0l0 23.046875q0 0.84375 0.28125 1.203125q0.28125 0.359375 0.96875 0.390625l0 4.5625q-1.40625 0.28125 -2.28125 0.28125q-1.4375 0 -2.359375 -0.71875q-0.921875 -0.71875 -1.046875 -1.875l-0.109375 -1.328125q-1.171875 2.0 -3.15625 3.03125q-1.96875 1.015625 -4.125 1.015625zm1.390625 -4.5625q0.765625 0 1.5625 -0.265625q0.796875 -0.265625 1.46875 -0.734375q0.6875 -0.484375 1.21875 -1.125q0.546875 -0.640625 0.828125 -1.40625l0 -5.0q-0.3125 -0.875 -0.890625 -1.609375q-0.578125 -0.75 -1.328125 -1.28125q-0.734375 -0.546875 -1.5625 -0.859375q-0.8125 -0.328125 -1.609375 -0.328125q-1.203125 0 -2.234375 0.53125q-1.015625 0.515625 -1.734375 1.421875q-0.71875 0.890625 -1.125 2.0625q-0.390625 1.15625 -0.390625 2.390625q0 1.3125 0.4375 2.4375q0.4375 1.125 1.203125 1.96875q0.765625 0.828125 1.8125 1.3125q1.0625 0.484375 2.34375 0.484375zm25.440598 4.5625q-2.515625 0 -4.5625 -0.859375q-2.03125 -0.859375 -3.46875 -2.34375q-1.4375 -1.484375 -2.21875 -3.4375q-0.78125 -1.96875 -0.78125 -4.125q0 -2.234375 0.75 -4.21875q0.765625 -1.984375 2.203125 -3.484375q1.4375 -1.5 3.5 -2.375q2.0625 -0.875 4.625 -0.875q2.5625 0 4.578125 0.875q2.015625 0.875 3.4375 2.359375q1.421875 1.484375 2.15625 3.4375q0.75 1.953125 0.75 4.078125q0 0.515625 -0.03125 1.0q-0.015625 0.484375 -0.09375 0.796875l-16.203125 0q0.125 1.25 0.59375 2.21875q0.484375 0.953125 1.25 1.640625q0.765625 0.671875 1.71875 1.03125q0.953125 0.359375 2.0 0.359375q1.59375 0 3.015625 -0.78125q1.421875 -0.78125 1.9375 -2.0625l4.609375 1.28125q-1.15625 2.390625 -3.703125 3.9375q-2.53125 1.546875 -6.0625 1.546875zm5.4375 -12.640625q-0.1875 -2.359375 -1.734375 -3.78125q-1.546875 -1.421875 -3.734375 -1.421875q-1.078125 0 -2.03125 0.375q-0.9375 0.375 -1.65625 1.0625q-0.71875 0.6875 -1.1875 1.640625q-0.453125 0.953125 -0.53125 2.125l10.875 0zm17.491241 12.640625q-2.171875 0 -4.015625 -0.84375q-1.828125 -0.84375 -3.15625 -2.3125q-1.3125 -1.484375 -2.0625 -3.46875q-0.734375 -1.984375 -0.734375 -4.265625q0 -2.28125 0.703125 -4.234375q0.703125 -1.96875 1.9375 -3.4375q1.25 -1.484375 2.96875 -2.3125q1.71875 -0.84375 3.75 -0.84375q2.328125 0 4.1875 1.125q1.859375 1.109375 2.890625 2.90625l0 -11.921875l5.359375 0l0 23.046875q0 0.84375 0.28125 1.203125q0.28125 0.359375 0.96875 0.390625l0 4.5625q-1.40625 0.28125 -2.28125 0.28125q-1.4375 0 -2.359375 -0.71875q-0.921875 -0.71875 -1.046875 -1.875l-0.109375 -1.328125q-1.171875 2.0 -3.15625 3.03125q-1.96875 1.015625 -4.125 1.015625zm1.390625 -4.5625q0.765625 0 1.5625 -0.265625q0.796875 -0.265625 1.46875 -0.734375q0.6875 -0.484375 1.21875 -1.125q0.546875 -0.640625 0.828125 -1.40625l0 -5.0q-0.3125 -0.875 -0.890625 -1.609375q-0.578125 -0.75 -1.328125 -1.28125q-0.734375 -0.546875 -1.5625 -0.859375q-0.8125 -0.328125 -1.609375 -0.328125q-1.203125 0 -2.234375 0.53125q-1.015625 0.515625 -1.734375 1.421875q-0.71875 0.890625 -1.125 2.0625q-0.390625 1.15625 -0.390625 2.390625q0 1.3125 0.4375 2.4375q0.4375 1.125 1.203125 1.96875q0.765625 0.828125 1.8125 1.3125q1.0625 0.484375 2.34375 0.484375z" fill-rule="nonzero"/><path fill="#ffffff" d="m254.96362 423.6756l0 -28.40625l5.53125 0l0 28.40625l-5.53125 0zm30.408752 0l-5.359375 0l0 -11.765625q0 -2.515625 -0.890625 -3.671875q-0.875 -1.15625 -2.4375 -1.15625q-0.796875 0 -1.640625 0.328125q-0.828125 0.3125 -1.578125 0.890625q-0.734375 0.578125 -1.34375 1.375q-0.59375 0.796875 -0.875 1.765625l0 12.234375l-5.359375 0l0 -20.953125l4.84375 0l0 3.875q1.15625 -2.0 3.359375 -3.109375q2.203125 -1.125 4.953125 -1.125q1.96875 0 3.203125 0.71875q1.25 0.71875 1.921875 1.875q0.6875 1.15625 0.9375 2.640625q0.265625 1.484375 0.265625 3.0l0 13.078125zm5.956848 0l0 -15.765625l-2.765625 0l0 -4.078125l2.765625 0l0 -1.28125q0 -3.921875 1.875 -6.1875q1.890625 -2.28125 5.125 -2.28125q2.5625 0 5.15625 1.234375l-1.078125 4.046875q-0.59375 -0.328125 -1.421875 -0.546875q-0.8125 -0.21875 -1.5 -0.21875q-2.796875 0 -2.796875 3.765625l0 1.46875l5.125 0l0 4.078125l-5.125 0l0 15.765625l-5.359375 0zm23.237488 0.40625q-2.515625 0 -4.5625 -0.859375q-2.03125 -0.859375 -3.46875 -2.34375q-1.4375 -1.484375 -2.21875 -3.4375q-0.78125 -1.96875 -0.78125 -4.125q0 -2.234375 0.75 -4.21875q0.765625 -1.984375 2.203125 -3.484375q1.4375 -1.5 3.5 -2.375q2.0625 -0.875 4.625 -0.875q2.5625 0 4.578125 0.875q2.015625 0.875 3.4375 2.359375q1.421875 1.484375 2.15625 3.4375q0.75 1.953125 0.75 4.078125q0 0.515625 -0.03125 1.0q-0.015625 0.484375 -0.09375 0.796875l-16.203125 0q0.125 1.25 0.59375 2.21875q0.484375 0.953125 1.25 1.640625q0.765625 0.671875 1.71875 1.03125q0.953125 0.359375 2.0 0.359375q1.59375 0 3.015625 -0.78125q1.421875 -0.78125 1.9375 -2.0625l4.609375 1.28125q-1.15625 2.390625 -3.703125 3.9375q-2.53125 1.546875 -6.0625 1.546875zm5.4375 -12.640625q-0.1875 -2.359375 -1.734375 -3.78125q-1.546875 -1.421875 -3.734375 -1.421875q-1.078125 0 -2.03125 0.375q-0.9375 0.375 -1.65625 1.0625q-0.71875 0.6875 -1.1875 1.640625q-0.453125 0.953125 -0.53125 2.125l10.875 0zm21.288086 -4.078125q-2.4375 0.03125 -4.359375 0.9375q-1.921875 0.890625 -2.765625 2.6875l0 12.6875l-5.359375 0l0 -20.953125l4.921875 0l0 4.46875q0.5625 -1.078125 1.3125 -1.9375q0.765625 -0.859375 1.640625 -1.5q0.890625 -0.640625 1.78125 -0.96875q0.90625 -0.34375 1.75 -0.34375q0.4375 0 0.65625 0q0.21875 0 0.421875 0.03125l0 4.890625zm12.714355 16.71875q-2.515625 0 -4.5625 -0.859375q-2.03125 -0.859375 -3.46875 -2.34375q-1.4375 -1.484375 -2.21875 -3.4375q-0.78125 -1.96875 -0.78125 -4.125q0 -2.234375 0.75 -4.21875q0.765625 -1.984375 2.203125 -3.484375q1.4375 -1.5 3.5 -2.375q2.0625 -0.875 4.625 -0.875q2.5625 0 4.578125 0.875q2.015625 0.875 3.4375 2.359375q1.421875 1.484375 2.15625 3.4375q0.75 1.953125 0.75 4.078125q0 0.515625 -0.03125 1.0q-0.015625 0.484375 -0.09375 0.796875l-16.203125 0q0.125 1.25 0.59375 2.21875q0.484375 0.953125 1.25 1.640625q0.765625 0.671875 1.71875 1.03125q0.953125 0.359375 2.0 0.359375q1.59375 0 3.015625 -0.78125q1.421875 -0.78125 1.9375 -2.0625l4.609375 1.28125q-1.15625 2.390625 -3.703125 3.9375q-2.53125 1.546875 -6.0625 1.546875zm5.4375 -12.640625q-0.1875 -2.359375 -1.734375 -3.78125q-1.546875 -1.421875 -3.734375 -1.421875q-1.078125 0 -2.03125 0.375q-0.9375 0.375 -1.65625 1.0625q-0.71875 0.6875 -1.1875 1.640625q-0.453125 0.953125 -0.53125 2.125l10.875 0zm28.288086 12.234375l-5.359375 0l0 -11.765625q0 -2.515625 -0.890625 -3.671875q-0.875 -1.15625 -2.4375 -1.15625q-0.796875 0 -1.640625 0.328125q-0.828125 0.3125 -1.578125 0.890625q-0.734375 0.578125 -1.34375 1.375q-0.59375 0.796875 -0.875 1.765625l0 12.234375l-5.359375 0l0 -20.953125l4.84375 0l0 3.875q1.15625 -2.0 3.359375 -3.109375q2.203125 -1.125 4.953125 -1.125q1.96875 0 3.203125 0.71875q1.25 0.71875 1.921875 1.875q0.6875 1.15625 0.9375 2.640625q0.265625 1.484375 0.265625 3.0l0 13.078125zm3.3630981 -10.484375q0 -2.203125 0.75 -4.15625q0.765625 -1.953125 2.203125 -3.4375q1.4375 -1.484375 3.46875 -2.359375q2.046875 -0.875 4.609375 -0.875q3.4375 0 5.859375 1.484375q2.421875 1.46875 3.625 3.875l-5.234375 1.59375q-0.6875 -1.15625 -1.8125 -1.78125q-1.109375 -0.625 -2.46875 -0.625q-1.171875 0 -2.171875 0.46875q-1.0 0.453125 -1.734375 1.28125q-0.734375 0.8125 -1.15625 1.984375q-0.421875 1.15625 -0.421875 2.546875q0 1.40625 0.4375 2.5625q0.4375 1.15625 1.171875 2.0q0.75 0.84375 1.75 1.3125q1.0 0.453125 2.125 0.453125q1.4375 0 2.65625 -0.71875q1.21875 -0.71875 1.703125 -1.765625l5.234375 1.59375q-1.078125 2.40625 -3.5625 3.9375q-2.46875 1.515625 -5.953125 1.515625q-2.5625 0 -4.609375 -0.875q-2.03125 -0.890625 -3.46875 -2.390625q-1.4375 -1.5 -2.21875 -3.46875q-0.78125 -1.984375 -0.78125 -4.15625zm33.591248 10.890625q-2.515625 0 -4.5625 -0.859375q-2.03125 -0.859375 -3.46875 -2.34375q-1.4375 -1.484375 -2.21875 -3.4375q-0.78125 -1.96875 -0.78125 -4.125q0 -2.234375 0.75 -4.21875q0.765625 -1.984375 2.203125 -3.484375q1.4375 -1.5 3.5 -2.375q2.0625 -0.875 4.625 -0.875q2.5625 0 4.578125 0.875q2.015625 0.875 3.4375 2.359375q1.421875 1.484375 2.15625 3.4375q0.75 1.953125 0.75 4.078125q0 0.515625 -0.03125 1.0q-0.015625 0.484375 -0.09375 0.796875l-16.203125 0q0.125 1.25 0.59375 2.21875q0.484375 0.953125 1.25 1.640625q0.765625 0.671875 1.71875 1.03125q0.953125 0.359375 2.0 0.359375q1.59375 0 3.015625 -0.78125q1.421875 -0.78125 1.9375 -2.0625l4.609375 1.28125q-1.15625 2.390625 -3.703125 3.9375q-2.53125 1.546875 -6.0625 1.546875zm5.4375 -12.640625q-0.1875 -2.359375 -1.734375 -3.78125q-1.546875 -1.421875 -3.734375 -1.421875q-1.078125 0 -2.03125 0.375q-0.9375 0.375 -1.65625 1.0625q-0.71875 0.6875 -1.1875 1.640625q-0.453125 0.953125 -0.53125 2.125l10.875 0zm8.678711 3.671875l0 -4.84375l12.125 0l0 4.84375l-12.125 0zm29.407501 8.96875q-2.484375 0 -4.328125 -1.09375q-1.828125 -1.109375 -2.875 -3.0l0 12.203125l-5.359375 0l0 -29.46875l4.6875 0l0 3.59375q1.15625 -1.84375 2.984375 -2.890625q1.84375 -1.0625 4.25 -1.0625q2.125 0 3.921875 0.859375q1.796875 0.859375 3.09375 2.3125q1.3125 1.453125 2.046875 3.4375q0.734375 1.984375 0.734375 4.1875q0 2.28125 -0.6875 4.28125q-0.671875 2.0 -1.890625 3.484375q-1.21875 1.46875 -2.90625 2.3125q-1.671875 0.84375 -3.671875 0.84375zm-1.796875 -4.5625q1.203125 0 2.21875 -0.515625q1.015625 -0.53125 1.734375 -1.40625q0.71875 -0.875 1.125 -2.03125q0.40625 -1.171875 0.40625 -2.40625q0 -1.328125 -0.453125 -2.46875q-0.4375 -1.140625 -1.21875 -1.96875q-0.78125 -0.84375 -1.84375 -1.328125q-1.046875 -0.484375 -2.296875 -0.484375q-0.75 0 -1.5625 0.265625q-0.796875 0.265625 -1.484375 0.75q-0.671875 0.46875 -1.21875 1.109375q-0.53125 0.640625 -0.8125 1.40625l0 4.921875q0.71875 1.796875 2.203125 2.984375q1.484375 1.171875 3.203125 1.171875zm27.078705 -12.15625q-2.4375 0.03125 -4.359375 0.9375q-1.921875 0.890625 -2.765625 2.6875l0 12.6875l-5.359375 0l0 -20.953125l4.921875 0l0 4.46875q0.5625 -1.078125 1.3125 -1.9375q0.765625 -0.859375 1.640625 -1.5q0.890625 -0.640625 1.78125 -0.96875q0.90625 -0.34375 1.75 -0.34375q0.4375 0 0.65625 0q0.21875 0 0.421875 0.03125l0 4.890625zm12.714355 16.71875q-2.515625 0 -4.5625 -0.859375q-2.03125 -0.859375 -3.46875 -2.34375q-1.4375 -1.484375 -2.21875 -3.4375q-0.78125 -1.96875 -0.78125 -4.125q0 -2.234375 0.75 -4.21875q0.765625 -1.984375 2.203125 -3.484375q1.4375 -1.5 3.5 -2.375q2.0625 -0.875 4.625 -0.875q2.5625 0 4.578125 0.875q2.015625 0.875 3.4375 2.359375q1.421875 1.484375 2.15625 3.4375q0.75 1.953125 0.75 4.078125q0 0.515625 -0.03125 1.0q-0.015625 0.484375 -0.09375 0.796875l-16.203125 0q0.125 1.25 0.59375 2.21875q0.484375 0.953125 1.25 1.640625q0.765625 0.671875 1.71875 1.03125q0.953125 0.359375 2.0 0.359375q1.59375 0 3.015625 -0.78125q1.421875 -0.78125 1.9375 -2.0625l4.609375 1.28125q-1.15625 2.390625 -3.703125 3.9375q-2.53125 1.546875 -6.0625 1.546875zm5.4375 -12.640625q-0.1875 -2.359375 -1.734375 -3.78125q-1.546875 -1.421875 -3.734375 -1.421875q-1.078125 0 -2.03125 0.375q-0.9375 0.375 -1.65625 1.0625q-0.71875 0.6875 -1.1875 1.640625q-0.453125 0.953125 -0.53125 2.125l10.875 0zm16.725647 12.640625q-2.640625 0 -5.15625 -0.84375q-2.515625 -0.84375 -4.328125 -2.40625l2.0 -3.359375q1.921875 1.359375 3.734375 2.0625q1.828125 0.703125 3.625 0.703125q1.609375 0 2.53125 -0.59375q0.921875 -0.609375 0.921875 -1.734375q0 -1.109375 -1.09375 -1.625q-1.078125 -0.53125 -3.515625 -1.203125q-2.03125 -0.5625 -3.484375 -1.078125q-1.4375 -0.53125 -2.3125 -1.1875q-0.875 -0.65625 -1.28125 -1.515625q-0.40625 -0.859375 -0.40625 -2.0625q0 -1.609375 0.625 -2.875q0.625 -1.28125 1.734375 -2.1875q1.125 -0.90625 2.625 -1.375q1.5 -0.484375 3.265625 -0.484375q2.359375 0 4.40625 0.6875q2.0625 0.671875 3.796875 2.1875l-2.171875 3.25q-1.59375 -1.203125 -3.09375 -1.765625q-1.5 -0.5625 -2.984375 -0.5625q-1.359375 0 -2.28125 0.5625q-0.921875 0.5625 -0.921875 1.796875q0 0.5625 0.21875 0.921875q0.234375 0.359375 0.703125 0.640625q0.484375 0.28125 1.265625 0.546875q0.78125 0.25 1.9375 0.53125q2.15625 0.5625 3.6875 1.125q1.546875 0.5625 2.53125 1.28125q0.984375 0.71875 1.4375 1.65625q0.46875 0.9375 0.46875 2.265625q0 3.078125 -2.28125 4.859375q-2.28125 1.78125 -6.203125 1.78125zm21.676819 0q-2.515625 0 -4.5625 -0.859375q-2.03125 -0.859375 -3.46875 -2.34375q-1.4375 -1.484375 -2.21875 -3.4375q-0.78125 -1.96875 -0.78125 -4.125q0 -2.234375 0.75 -4.21875q0.765625 -1.984375 2.203125 -3.484375q1.4375 -1.5 3.5 -2.375q2.0625 -0.875 4.625 -0.875q2.5625 0 4.578125 0.875q2.015625 0.875 3.4375 2.359375q1.421875 1.484375 2.15625 3.4375q0.75 1.953125 0.75 4.078125q0 0.515625 -0.03125 1.0q-0.015625 0.484375 -0.09375 0.796875l-16.203125 0q0.125 1.25 0.59375 2.21875q0.484375 0.953125 1.25 1.640625q0.765625 0.671875 1.71875 1.03125q0.953125 0.359375 2.0 0.359375q1.59375 0 3.015625 -0.78125q1.421875 -0.78125 1.9375 -2.0625l4.609375 1.28125q-1.15625 2.390625 -3.703125 3.9375q-2.53125 1.546875 -6.0625 1.546875zm5.4375 -12.640625q-0.1875 -2.359375 -1.734375 -3.78125q-1.546875 -1.421875 -3.734375 -1.421875q-1.078125 0 -2.03125 0.375q-0.9375 0.375 -1.65625 1.0625q-0.71875 0.6875 -1.1875 1.640625q-0.453125 0.953125 -0.53125 2.125l10.875 0zm21.288086 -4.078125q-2.4375 0.03125 -4.359375 0.9375q-1.921875 0.890625 -2.765625 2.6875l0 12.6875l-5.359375 0l0 -20.953125l4.921875 0l0 4.46875q0.5625 -1.078125 1.3125 -1.9375q0.765625 -0.859375 1.640625 -1.5q0.890625 -0.640625 1.78125 -0.96875q0.90625 -0.34375 1.75 -0.34375q0.4375 0 0.65625 0q0.21875 0 0.421875 0.03125l0 4.890625zm8.63623 16.3125l-7.71875 -20.953125l5.515625 0l5.328125 16.59375l5.359375 -16.59375l5.03125 0l-7.71875 20.953125l-5.796875 0zm16.319336 0l0 -20.953125l5.359375 0l0 20.953125l-5.359375 0zm0 -23.875l0 -5.328125l5.359375 0l0 5.328125l-5.359375 0zm29.684387 23.875l-5.359375 0l0 -11.765625q0 -2.515625 -0.890625 -3.671875q-0.875 -1.15625 -2.4375 -1.15625q-0.796875 0 -1.640625 0.328125q-0.828125 0.3125 -1.578125 0.890625q-0.734375 0.578125 -1.34375 1.375q-0.59375 0.796875 -0.875 1.765625l0 12.234375l-5.359375 0l0 -20.953125l4.84375 0l0 3.875q1.15625 -2.0 3.359375 -3.109375q2.203125 -1.125 4.953125 -1.125q1.96875 0 3.203125 0.71875q1.25 0.71875 1.921875 1.875q0.6875 1.15625 0.9375 2.640625q0.265625 1.484375 0.265625 3.0l0 13.078125zm12.878723 0.125q-2.125 0 -3.84375 -0.84375q-1.71875 -0.84375 -2.984375 -2.296875q-1.25 -1.46875 -1.9375 -3.375q-0.671875 -1.921875 -0.671875 -4.09375q0 -2.28125 0.71875 -4.234375q0.71875 -1.96875 2.0 -3.4375q1.28125 -1.484375 3.078125 -2.3125q1.796875 -0.84375 3.953125 -0.84375q2.453125 0 4.28125 1.09375q1.84375 1.09375 3.046875 2.9375l0 -3.671875l4.671875 0l0 19.953125q0 2.3125 -0.875 4.15625q-0.875 1.84375 -2.421875 3.125q-1.53125 1.28125 -3.671875 1.953125q-2.140625 0.6875 -4.671875 0.6875q-3.4375 0 -5.78125 -1.140625q-2.328125 -1.140625 -4.015625 -3.21875l2.921875 -2.84375q1.203125 1.484375 3.015625 2.3125q1.828125 0.84375 3.859375 0.84375q1.25 0 2.390625 -0.34375q1.140625 -0.328125 2.015625 -1.046875q0.875 -0.71875 1.375 -1.84375q0.5 -1.125 0.5 -2.640625l0 -2.640625q-1.03125 1.796875 -2.921875 2.78125q-1.875 0.984375 -4.03125 0.984375zm1.796875 -4.28125q0.875 0 1.671875 -0.28125q0.8125 -0.28125 1.484375 -0.765625q0.6875 -0.484375 1.203125 -1.109375q0.515625 -0.640625 0.796875 -1.375l0 -5.0q-0.71875 -1.828125 -2.265625 -2.953125q-1.53125 -1.125 -3.203125 -1.125q-1.25 0 -2.25 0.546875q-1.0 0.53125 -1.71875 1.4375q-0.71875 0.90625 -1.09375 2.0625q-0.375 1.15625 -0.375 2.40625q0 1.265625 0.4375 2.390625q0.4375 1.125 1.21875 1.96875q0.78125 0.828125 1.8125 1.3125q1.046875 0.484375 2.28125 0.484375z" fill-rule="nonzero"/><path fill="#ffffff" d="m445.1355 461.19122q0 -2.203125 0.75 -4.15625q0.765625 -1.953125 2.203125 -3.4375q1.4375 -1.484375 3.46875 -2.359375q2.046875 -0.875 4.609375 -0.875q3.4375 0 5.859375 1.484375q2.421875 1.46875 3.625 3.875l-5.234375 1.59375q-0.6875 -1.15625 -1.8125 -1.78125q-1.109375 -0.625 -2.46875 -0.625q-1.171875 0 -2.171875 0.46875q-1.0 0.453125 -1.734375 1.28125q-0.734375 0.8125 -1.15625 1.984375q-0.421875 1.15625 -0.421875 2.546875q0 1.40625 0.4375 2.5625q0.4375 1.15625 1.171875 2.0q0.75 0.84375 1.75 1.3125q1.0 0.453125 2.125 0.453125q1.4375 0 2.65625 -0.71875q1.21875 -0.71875 1.703125 -1.765625l5.234375 1.59375q-1.078125 2.40625 -3.5625 3.9375q-2.46875 1.515625 -5.953125 1.515625q-2.5625 0 -4.609375 -0.875q-2.03125 -0.890625 -3.46875 -2.390625q-1.4375 -1.5 -2.21875 -3.46875q-0.78125 -1.984375 -0.78125 -4.15625zm36.356873 -5.828125q-2.4375 0.03125 -4.359375 0.9375q-1.921875 0.890625 -2.765625 2.6875l0 12.6875l-5.359375 0l0 -20.953125l4.921875 0l0 4.46875q0.5625 -1.078125 1.3125 -1.9375q0.765625 -0.859375 1.640625 -1.5q0.890625 -0.640625 1.78125 -0.96875q0.90625 -0.34375 1.75 -0.34375q0.4375 0 0.65625 0q0.21875 0 0.421875 0.03125l0 4.890625zm12.683105 16.71875q-2.5625 0 -4.609375 -0.875q-2.03125 -0.890625 -3.453125 -2.390625q-1.421875 -1.5 -2.1875 -3.453125q-0.75 -1.96875 -0.75 -4.125q0 -2.203125 0.75 -4.15625q0.765625 -1.96875 2.1875 -3.46875q1.421875 -1.5 3.453125 -2.375q2.046875 -0.875 4.609375 -0.875q2.5625 0 4.578125 0.875q2.015625 0.875 3.4375 2.375q1.421875 1.5 2.171875 3.46875q0.765625 1.953125 0.765625 4.15625q0 2.15625 -0.765625 4.125q-0.75 1.953125 -2.15625 3.453125q-1.390625 1.5 -3.4375 2.390625q-2.03125 0.875 -4.59375 0.875zm-5.484375 -10.84375q0 1.390625 0.421875 2.53125q0.421875 1.140625 1.15625 1.984375q0.734375 0.84375 1.734375 1.3125q1.0 0.453125 2.171875 0.453125q1.15625 0 2.15625 -0.453125q1.0 -0.46875 1.734375 -1.3125q0.75 -0.84375 1.15625 -2.0q0.421875 -1.15625 0.421875 -2.5625q0 -1.359375 -0.421875 -2.515625q-0.40625 -1.15625 -1.15625 -2.0q-0.734375 -0.84375 -1.734375 -1.296875q-1.0 -0.46875 -2.15625 -0.46875q-1.171875 0 -2.171875 0.484375q-1.0 0.484375 -1.734375 1.328125q-0.734375 0.828125 -1.15625 2.0q-0.421875 1.15625 -0.421875 2.515625zm27.95874 10.84375q-2.640625 0 -5.1562805 -0.84375q-2.515625 -0.84375 -4.328125 -2.40625l2.0 -3.359375q1.921875 1.359375 3.7344055 2.0625q1.828125 0.703125 3.625 0.703125q1.609375 0 2.53125 -0.59375q0.921875 -0.609375 0.921875 -1.734375q0 -1.109375 -1.09375 -1.625q-1.078125 -0.53125 -3.515625 -1.203125q-2.03125 -0.5625 -3.4844055 -1.078125q-1.4375 -0.53125 -2.3125 -1.1875q-0.875 -0.65625 -1.28125 -1.515625q-0.40625 -0.859375 -0.40625 -2.0625q0 -1.609375 0.625 -2.875q0.625 -1.28125 1.734375 -2.1875q1.125 -0.90625 2.6250305 -1.375q1.5 -0.484375 3.265625 -0.484375q2.359375 0 4.40625 0.6875q2.0625 0.671875 3.796875 2.1875l-2.171875 3.25q-1.59375 -1.203125 -3.09375 -1.765625q-1.5 -0.5625 -2.984375 -0.5625q-1.359375 0 -2.28125 0.5625q-0.921875 0.5625 -0.921875 1.796875q0 0.5625 0.21875 0.921875q0.234375 0.359375 0.703125 0.640625q0.484375 0.28125 1.265625 0.546875q0.78125 0.25 1.9375 0.53125q2.15625 0.5625 3.6875 1.125q1.546875 0.5625 2.53125 1.28125q0.984375 0.71875 1.4375 1.65625q0.46875 0.9375 0.46875 2.265625q0 3.078125 -2.28125 4.859375q-2.28125 1.78125 -6.203125 1.78125zm19.879944 0q-2.640625 0 -5.15625 -0.84375q-2.515625 -0.84375 -4.328125 -2.40625l2.0 -3.359375q1.921875 1.359375 3.734375 2.0625q1.828125 0.703125 3.625 0.703125q1.609375 0 2.53125 -0.59375q0.921875 -0.609375 0.921875 -1.734375q0 -1.109375 -1.09375 -1.625q-1.078125 -0.53125 -3.515625 -1.203125q-2.03125 -0.5625 -3.484375 -1.078125q-1.4375 -0.53125 -2.3125 -1.1875q-0.875 -0.65625 -1.28125 -1.515625q-0.40625 -0.859375 -0.40625 -2.0625q0 -1.609375 0.625 -2.875q0.625 -1.28125 1.734375 -2.1875q1.125 -0.90625 2.625 -1.375q1.5 -0.484375 3.265625 -0.484375q2.359375 0 4.40625 0.6875q2.0625 0.671875 3.796875 2.1875l-2.171875 3.25q-1.59375 -1.203125 -3.09375 -1.765625q-1.5 -0.5625 -2.984375 -0.5625q-1.359375 0 -2.28125 0.5625q-0.921875 0.5625 -0.921875 1.796875q0 0.5625 0.21875 0.921875q0.234375 0.359375 0.703125 0.640625q0.484375 0.28125 1.265625 0.546875q0.78125 0.25 1.9375 0.53125q2.15625 0.5625 3.6875 1.125q1.546875 0.5625 2.53125 1.28125q0.984375 0.71875 1.4375 1.65625q0.46875 0.9375 0.46875 2.265625q0 3.078125 -2.28125 4.859375q-2.28125 1.78125 -6.203125 1.78125zm11.83313 -8.96875l0 -4.84375l12.125 0l0 4.84375l-12.125 0zm25.53247 8.96875q-2.171875 0 -4.015625 -0.84375q-1.828125 -0.84375 -3.15625 -2.3125q-1.3125 -1.484375 -2.0625 -3.46875q-0.734375 -1.984375 -0.734375 -4.265625q0 -2.28125 0.703125 -4.234375q0.703125 -1.96875 1.9375 -3.4375q1.25 -1.484375 2.96875 -2.3125q1.71875 -0.84375 3.75 -0.84375q2.328125 0 4.1875 1.125q1.859375 1.109375 2.890625 2.90625l0 -11.921875l5.359375 0l0 23.046875q0 0.84375 0.28125 1.203125q0.28125 0.359375 0.96875 0.390625l0 4.5625q-1.40625 0.28125 -2.28125 0.28125q-1.4375 0 -2.359375 -0.71875q-0.921875 -0.71875 -1.046875 -1.875l-0.109375 -1.328125q-1.171875 2.0 -3.15625 3.03125q-1.96875 1.015625 -4.125 1.015625zm1.390625 -4.5625q0.765625 0 1.5625 -0.265625q0.796875 -0.265625 1.46875 -0.734375q0.6875 -0.484375 1.21875 -1.125q0.546875 -0.640625 0.828125 -1.40625l0 -5.0q-0.3125 -0.875 -0.890625 -1.609375q-0.578125 -0.75 -1.328125 -1.28125q-0.734375 -0.546875 -1.5625 -0.859375q-0.8125 -0.328125 -1.609375 -0.328125q-1.203125 0 -2.234375 0.53125q-1.015625 0.515625 -1.734375 1.421875q-0.71875 0.890625 -1.125 2.0625q-0.390625 1.15625 -0.390625 2.390625q0 1.3125 0.4375 2.4375q0.4375 1.125 1.203125 1.96875q0.765625 0.828125 1.8125 1.3125q1.0625 0.484375 2.34375 0.484375zm25.409302 4.5625q-2.5625 0 -4.609375 -0.875q-2.03125 -0.890625 -3.453125 -2.390625q-1.421875 -1.5 -2.1875 -3.453125q-0.75 -1.96875 -0.75 -4.125q0 -2.203125 0.75 -4.15625q0.765625 -1.96875 2.1875 -3.46875q1.421875 -1.5 3.453125 -2.375q2.046875 -0.875 4.609375 -0.875q2.5625 0 4.578125 0.875q2.015625 0.875 3.4375 2.375q1.421875 1.5 2.171875 3.46875q0.765625 1.953125 0.765625 4.15625q0 2.15625 -0.765625 4.125q-0.75 1.953125 -2.15625 3.453125q-1.390625 1.5 -3.4375 2.390625q-2.03125 0.875 -4.59375 0.875zm-5.484375 -10.84375q0 1.390625 0.421875 2.53125q0.421875 1.140625 1.15625 1.984375q0.734375 0.84375 1.734375 1.3125q1.0 0.453125 2.171875 0.453125q1.15625 0 2.15625 -0.453125q1.0 -0.46875 1.734375 -1.3125q0.75 -0.84375 1.15625 -2.0q0.421875 -1.15625 0.421875 -2.5625q0 -1.359375 -0.421875 -2.515625q-0.40625 -1.15625 -1.15625 -2.0q-0.734375 -0.84375 -1.734375 -1.296875q-1.0 -0.46875 -2.15625 -0.46875q-1.171875 0 -2.171875 0.484375q-1.0 0.484375 -1.734375 1.328125q-0.734375 0.828125 -1.15625 2.0q-0.421875 1.15625 -0.421875 2.515625zm52.599365 10.4375l-5.359375 0l0 -11.765625q0 -2.515625 -0.859375 -3.671875q-0.859375 -1.15625 -2.375 -1.15625q-1.609375 0 -3.015625 1.21875q-1.390625 1.21875 -1.984375 3.171875l0 12.203125l-5.359375 0l0 -11.765625q0 -2.515625 -0.875 -3.671875q-0.859375 -1.15625 -2.375 -1.15625q-1.5625 0 -2.984375 1.203125q-1.40625 1.1875 -2.015625 3.15625l0 12.234375l-5.359375 0l0 -20.953125l4.84375 0l0 3.875q1.15625 -2.046875 3.171875 -3.140625q2.03125 -1.09375 4.625 -1.09375q2.640625 0 4.078125 1.28125q1.4375 1.265625 1.84375 3.15625q1.28125 -2.171875 3.234375 -3.296875q1.96875 -1.140625 4.484375 -1.140625q1.921875 0 3.15625 0.71875q1.25 0.71875 1.921875 1.875q0.6875 1.15625 0.9375 2.640625q0.265625 1.484375 0.265625 3.0l0 13.078125zm10.39624 0.40625q-1.515625 0 -2.84375 -0.5q-1.3125 -0.5 -2.28125 -1.40625q-0.953125 -0.90625 -1.5 -2.09375q-0.53125 -1.203125 -0.53125 -2.640625q0 -1.484375 0.65625 -2.734375q0.65625 -1.265625 1.84375 -2.140625q1.1875 -0.890625 2.8125 -1.390625q1.640625 -0.5 3.609375 -0.5q1.390625 0 2.734375 0.25q1.34375 0.234375 2.390625 0.671875l0 -1.203125q0 -2.078125 -1.1875 -3.1875q-1.171875 -1.125 -3.5 -1.125q-1.671875 0 -3.28125 0.59375q-1.59375 0.59375 -3.28125 1.765625l-1.640625 -3.40625q4.046875 -2.671875 8.71875 -2.671875q4.53125 0 7.03125 2.21875q2.5 2.21875 2.5 6.40625l0 6.53125q0 0.84375 0.296875 1.203125q0.296875 0.359375 0.984375 0.390625l0 4.5625q-1.375 0.28125 -2.375 0.28125q-1.515625 0 -2.34375 -0.671875q-0.8125 -0.6875 -1.015625 -1.8125l-0.109375 -1.15625q-1.40625 1.84375 -3.40625 2.8125q-2.0 0.953125 -4.28125 0.953125zm1.53125 -3.921875q1.359375 0 2.578125 -0.484375q1.21875 -0.484375 1.890625 -1.28125q0.890625 -0.671875 0.890625 -1.515625l0 -2.40625q-0.96875 -0.359375 -2.09375 -0.578125q-1.109375 -0.21875 -2.15625 -0.21875q-2.078125 0 -3.40625 0.9375q-1.3125 0.9375 -1.3125 2.375q0 1.375 1.03125 2.28125q1.046875 0.890625 2.578125 0.890625zm15.709961 3.515625l0 -20.953125l5.359375 0l0 20.953125l-5.359375 0zm0 -23.875l0 -5.328125l5.359375 0l0 5.328125l-5.359375 0zm29.684387 23.875l-5.359375 0l0 -11.765625q0 -2.515625 -0.890625 -3.671875q-0.875 -1.15625 -2.4375 -1.15625q-0.796875 0 -1.640625 0.328125q-0.828125 0.3125 -1.578125 0.890625q-0.734375 0.578125 -1.34375 1.375q-0.59375 0.796875 -0.875 1.765625l0 12.234375l-5.359375 0l0 -20.953125l4.84375 0l0 3.875q1.15625 -2.0 3.359375 -3.109375q2.203125 -1.125 4.953125 -1.125q1.96875 0 3.203125 0.71875q1.25 0.71875 1.921875 1.875q0.6875 1.15625 0.9375 2.640625q0.265625 1.484375 0.265625 3.0l0 13.078125zm46.838074 0l-5.359375 0l0 -11.765625q0 -2.515625 -0.859375 -3.671875q-0.859375 -1.15625 -2.375 -1.15625q-1.609375 0 -3.015625 1.21875q-1.390625 1.21875 -1.984375 3.171875l0 12.203125l-5.359375 0l0 -11.765625q0 -2.515625 -0.875 -3.671875q-0.859375 -1.15625 -2.375 -1.15625q-1.5625 0 -2.984375 1.203125q-1.40625 1.1875 -2.015625 3.15625l0 12.234375l-5.359375 0l0 -20.953125l4.84375 0l0 3.875q1.15625 -2.046875 3.171875 -3.140625q2.03125 -1.09375 4.625 -1.09375q2.640625 0 4.078125 1.28125q1.4375 1.265625 1.84375 3.15625q1.28125 -2.171875 3.234375 -3.296875q1.96875 -1.140625 4.484375 -1.140625q1.921875 0 3.15625 0.71875q1.25 0.71875 1.921875 1.875q0.6875 1.15625 0.9375 2.640625q0.265625 1.484375 0.265625 3.0l0 13.078125zm10.39624 0.40625q-1.515625 0 -2.84375 -0.5q-1.3125 -0.5 -2.28125 -1.40625q-0.953125 -0.90625 -1.5 -2.09375q-0.53125 -1.203125 -0.53125 -2.640625q0 -1.484375 0.65625 -2.734375q0.65625 -1.265625 1.84375 -2.140625q1.1875 -0.890625 2.8125 -1.390625q1.640625 -0.5 3.609375 -0.5q1.390625 0 2.734375 0.25q1.34375 0.234375 2.390625 0.671875l0 -1.203125q0 -2.078125 -1.1875 -3.1875q-1.171875 -1.125 -3.5 -1.125q-1.671875 0 -3.28125 0.59375q-1.59375 0.59375 -3.28125 1.765625l-1.640625 -3.40625q4.046875 -2.671875 8.71875 -2.671875q4.53125 0 7.03125 2.21875q2.5 2.21875 2.5 6.40625l0 6.53125q0 0.84375 0.296875 1.203125q0.296875 0.359375 0.984375 0.390625l0 4.5625q-1.375 0.28125 -2.375 0.28125q-1.515625 0 -2.34375 -0.671875q-0.8125 -0.6875 -1.015625 -1.8125l-0.109375 -1.15625q-1.40625 1.84375 -3.40625 2.8125q-2.0 0.953125 -4.28125 0.953125zm1.53125 -3.921875q1.359375 0 2.578125 -0.484375q1.21875 -0.484375 1.890625 -1.28125q0.890625 -0.671875 0.890625 -1.515625l0 -2.40625q-0.96875 -0.359375 -2.09375 -0.578125q-1.109375 -0.21875 -2.15625 -0.21875q-2.078125 0 -3.40625 0.9375q-1.3125 0.9375 -1.3125 2.375q0 1.375 1.03125 2.28125q1.046875 0.890625 2.578125 0.890625zm28.27246 3.921875q-2.484375 0 -4.328125 -1.09375q-1.828125 -1.109375 -2.875 -3.0l0 12.203125l-5.359375 0l0 -29.46875l4.6875 0l0 3.59375q1.15625 -1.84375 2.984375 -2.890625q1.84375 -1.0625 4.25 -1.0625q2.125 0 3.921875 0.859375q1.796875 0.859375 3.09375 2.3125q1.3125 1.453125 2.046875 3.4375q0.734375 1.984375 0.734375 4.1875q0 2.28125 -0.6875 4.28125q-0.671875 2.0 -1.890625 3.484375q-1.21875 1.46875 -2.90625 2.3125q-1.671875 0.84375 -3.671875 0.84375zm-1.796875 -4.5625q1.203125 0 2.21875 -0.515625q1.015625 -0.53125 1.734375 -1.40625q0.71875 -0.875 1.125 -2.03125q0.40625 -1.171875 0.40625 -2.40625q0 -1.328125 -0.453125 -2.46875q-0.4375 -1.140625 -1.21875 -1.96875q-0.78125 -0.84375 -1.84375 -1.328125q-1.046875 -0.484375 -2.296875 -0.484375q-0.75 0 -1.5625 0.265625q-0.796875 0.265625 -1.484375 0.75q-0.671875 0.46875 -1.21875 1.109375q-0.53125 0.640625 -0.8125 1.40625l0 4.921875q0.71875 1.796875 2.203125 2.984375q1.484375 1.171875 3.203125 1.171875zm27.15686 4.5625q-2.484375 0 -4.328125 -1.09375q-1.828125 -1.109375 -2.875 -3.0l0 12.203125l-5.359375 0l0 -29.46875l4.6875 0l0 3.59375q1.15625 -1.84375 2.984375 -2.890625q1.84375 -1.0625 4.25 -1.0625q2.125 0 3.921875 0.859375q1.796875 0.859375 3.09375 2.3125q1.3125 1.453125 2.046875 3.4375q0.734375 1.984375 0.734375 4.1875q0 2.28125 -0.6875 4.28125q-0.671875 2.0 -1.890625 3.484375q-1.21875 1.46875 -2.90625 2.3125q-1.671875 0.84375 -3.671875 0.84375zm-1.796875 -4.5625q1.203125 0 2.21875 -0.515625q1.015625 -0.53125 1.734375 -1.40625q0.71875 -0.875 1.125 -2.03125q0.40625 -1.171875 0.40625 -2.40625q0 -1.328125 -0.453125 -2.46875q-0.4375 -1.140625 -1.21875 -1.96875q-0.78125 -0.84375 -1.84375 -1.328125q-1.046875 -0.484375 -2.296875 -0.484375q-0.75 0 -1.5625 0.265625q-0.796875 0.265625 -1.484375 0.75q-0.671875 0.46875 -1.21875 1.109375q-0.53125 0.640625 -0.8125 1.40625l0 4.921875q0.71875 1.796875 2.203125 2.984375q1.484375 1.171875 3.203125 1.171875zm14.59436 4.15625l0 -20.953125l5.359375 0l0 20.953125l-5.359375 0zm0 -23.875l0 -5.328125l5.359375 0l0 5.328125l-5.359375 0zm29.684387 23.875l-5.359375 0l0 -11.765625q0 -2.515625 -0.890625 -3.671875q-0.875 -1.15625 -2.4375 -1.15625q-0.796875 0 -1.640625 0.328125q-0.828125 0.3125 -1.578125 0.890625q-0.734375 0.578125 -1.34375 1.375q-0.59375 0.796875 -0.875 1.765625l0 12.234375l-5.359375 0l0 -20.953125l4.84375 0l0 3.875q1.15625 -2.0 3.359375 -3.109375q2.203125 -1.125 4.953125 -1.125q1.96875 0 3.203125 0.71875q1.25 0.71875 1.921875 1.875q0.6875 1.15625 0.9375 2.640625q0.265625 1.484375 0.265625 3.0l0 13.078125zm12.878723 0.125q-2.125 0 -3.84375 -0.84375q-1.71875 -0.84375 -2.984375 -2.296875q-1.25 -1.46875 -1.9375 -3.375q-0.671875 -1.921875 -0.671875 -4.09375q0 -2.28125 0.71875 -4.234375q0.71875 -1.96875 2.0 -3.4375q1.28125 -1.484375 3.078125 -2.3125q1.796875 -0.84375 3.953125 -0.84375q2.453125 0 4.28125 1.09375q1.84375 1.09375 3.046875 2.9375l0 -3.671875l4.671875 0l0 19.953125q0 2.3125 -0.875 4.15625q-0.875 1.84375 -2.421875 3.125q-1.53125 1.28125 -3.671875 1.953125q-2.140625 0.6875 -4.671875 0.6875q-3.4375 0 -5.78125 -1.140625q-2.328125 -1.140625 -4.015625 -3.21875l2.921875 -2.84375q1.203125 1.484375 3.015625 2.3125q1.828125 0.84375 3.859375 0.84375q1.25 0 2.390625 -0.34375q1.140625 -0.328125 2.015625 -1.046875q0.875 -0.71875 1.375 -1.84375q0.5 -1.125 0.5 -2.640625l0 -2.640625q-1.03125 1.796875 -2.921875 2.78125q-1.875 0.984375 -4.03125 0.984375zm1.796875 -4.28125q0.875 0 1.671875 -0.28125q0.8125 -0.28125 1.484375 -0.765625q0.6875 -0.484375 1.203125 -1.109375q0.515625 -0.640625 0.796875 -1.375l0 -5.0q-0.71875 -1.828125 -2.265625 -2.953125q-1.53125 -1.125 -3.203125 -1.125q-1.25 0 -2.25 0.546875q-1.0 0.53125 -1.71875 1.4375q-0.71875 0.90625 -1.09375 2.0625q-0.375 1.15625 -0.375 2.40625q0 1.265625 0.4375 2.390625q0.4375 1.125 1.21875 1.96875q0.78125 0.828125 1.8125 1.3125q1.046875 0.484375 2.28125 0.484375z" fill-rule="nonzero"/></g></svg>