<svg version="1.1" viewBox="0.0 0.0 960.0 540.0" fill="none" stroke="none" stroke-linecap="square" stroke-miterlimit="10" xmlns:xlink="http://www.w3.org/1999/xlink" xmlns="http://www.w3.org/2000/svg"><clipPath id="g3ffa094804_0_134.0"><path d="m0 0l960.0 0l0 540.0l-960.0 0l0 -540.0z" clip-rule="nonzero"/></clipPath><g clip-path="url(#g3ffa094804_0_134.0)"><path fill="#ffffff" d="m0 0l960.0 0l0 540.0l-960.0 0z" fill-rule="evenodd"/><path fill="#000000" fill-opacity="0.0" d="m32.72441 46.721786l894.55115 0l0 65.448814l-894.55115 0z" fill-rule="evenodd"/><path fill="#000000" d="m42.958786 79.71553q0 -2.59375 0.9375 -5.125q0.953125 -2.546875 2.75 -4.546875q1.796875 -2.0 4.390625 -3.234375q2.609375 -1.25 5.921875 -1.25q3.921875 0 6.78125 1.71875q2.859375 1.71875 4.265625 4.484375l-4.234375 2.921875q-0.5625 -1.203125 -1.375 -2.015625q-0.796875 -0.828125 -1.71875 -1.296875q-0.90625 -0.484375 -1.90625 -0.703125q-1.0 -0.234375 -1.96875 -0.234375q-2.078125 0 -3.625 0.84375q-1.53125 0.84375 -2.5625 2.1875q-1.015625 1.34375 -1.53125 3.046875q-0.515625 1.6875 -0.515625 3.375q0 1.875 0.59375 3.625q0.609375 1.734375 1.703125 3.0625q1.09375 1.3125 2.625 2.109375q1.546875 0.796875 3.390625 0.796875q0.96875 0 2.0 -0.234375q1.046875 -0.25 1.984375 -0.765625q0.9375 -0.515625 1.734375 -1.328125q0.8125 -0.828125 1.28125 -1.984375l4.53125 2.59375q-0.6875 1.59375 -1.953125 2.828125q-1.25 1.21875 -2.84375 2.0625q-1.578125 0.828125 -3.375 1.265625q-1.796875 0.4375 -3.515625 0.4375q-3.046875 0 -5.5625 -1.265625q-2.515625 -1.28125 -4.34375 -3.34375q-1.8125 -2.0625 -2.84375 -4.6875q-1.015625 -2.625 -1.015625 -5.34375zm38.330597 14.8125q-2.5625 0 -4.609375 -0.875q-2.03125 -0.890625 -3.453125 -2.390625q-1.421875 -1.5 -2.1875 -3.453125q-0.75 -1.96875 -0.75 -4.125q0 -2.203125 0.75 -4.15625q0.765625 -1.96875 2.1875 -3.46875q1.421875 -1.5 3.453125 -2.375q2.046875 -0.875 4.609375 -0.875q2.5625 0 4.578125 0.875q2.015625 0.875 3.4375 2.375q1.421875 1.5 2.171875 3.46875q0.765625 1.953125 0.765625 4.15625q0 2.15625 -0.765625 4.125q-0.75 1.953125 -2.15625 3.453125q-1.390625 1.5 -3.4375 2.390625q-2.03125 0.875 -4.59375 0.875zm-5.484375 -10.84375q0 1.390625 0.421875 2.53125q0.421875 1.140625 1.15625 1.984375q0.734375 0.84375 1.734375 1.3125q1.0 0.453125 2.171875 0.453125q1.15625 0 2.15625 -0.453125q1.0 -0.46875 1.734375 -1.3125q0.75 -0.84375 1.15625 -2.0q0.421875 -1.15625 0.421875 -2.5625q0 -1.359375 -0.421875 -2.515625q-0.40625 -1.15625 -1.15625 -2.0q-0.734375 -0.84375 -1.734375 -1.296875q-1.0 -0.46875 -2.15625 -0.46875q-1.171875 0 -2.171875 0.484375q-1.0 0.484375 -1.734375 1.328125q-0.734375 0.828125 -1.15625 2.0q-0.421875 1.15625 -0.421875 2.515625zm39.521225 10.4375l-5.359375 0l0 -11.765625q0 -2.515625 -0.890625 -3.671875q-0.875 -1.15625 -2.4375 -1.15625q-0.796875 0 -1.640625 0.328125q-0.828125 0.3125 -1.578125 0.890625q-0.734375 0.578125 -1.34375 1.375q-0.59375 0.796875 -0.875 1.765625l0 12.234375l-5.359375 0l0 -20.953125l4.84375 0l0 3.875q1.15625 -2.0 3.359375 -3.109375q2.203125 -1.125 4.953125 -1.125q1.96875 0 3.203125 0.71875q1.25 0.71875 1.921875 1.875q0.6875 1.15625 0.9375 2.640625q0.265625 1.484375 0.265625 3.0l0 13.078125zm2.9568481 7.84375q-1.515625 0 -2.875 -0.46875q-1.359375 -0.453125 -2.4375 -1.421875l2.3125 -3.640625q0.4375 0.453125 1.078125 0.671875q0.640625 0.21875 1.28125 0.21875q1.046875 0 1.796875 -0.75q0.765625 -0.734375 0.765625 -1.890625l0 -21.515625l5.359375 0l0 21.109375q0 1.6875 -0.5625 3.109375q-0.5625 1.421875 -1.546875 2.4375q-0.96875 1.015625 -2.3125 1.578125q-1.34375 0.5625 -2.859375 0.5625zm1.921875 -31.71875l0 -5.328125l5.359375 0l0 5.328125l-5.359375 0zm19.955612 24.28125q-2.515625 0 -4.5625 -0.859375q-2.03125 -0.859375 -3.46875 -2.34375q-1.4375 -1.484375 -2.21875 -3.4375q-0.78125 -1.96875 -0.78125 -4.125q0 -2.234375 0.75 -4.21875q0.765625 -1.984375 2.203125 -3.484375q1.4375 -1.5 3.5 -2.375q2.0625 -0.875 4.625 -0.875q2.5625 0 4.578125 0.875q2.015625 0.875 3.4375 2.359375q1.421875 1.484375 2.15625 3.4375q0.75 1.953125 0.75 4.078125q0 0.515625 -0.03125 1.0q-0.015625 0.484375 -0.09375 0.796875l-16.203125 0q0.125 1.25 0.59375 2.21875q0.484375 0.953125 1.25 1.640625q0.765625 0.671875 1.71875 1.03125q0.953125 0.359375 2.0 0.359375q1.59375 0 3.015625 -0.78125q1.421875 -0.78125 1.9375 -2.0625l4.609375 1.28125q-1.15625 2.390625 -3.703125 3.9375q-2.53125 1.546875 -6.0625 1.546875zm5.4375 -12.640625q-0.1875 -2.359375 -1.734375 -3.78125q-1.546875 -1.421875 -3.734375 -1.421875q-1.078125 0 -2.03125 0.375q-0.9375 0.375 -1.65625 1.0625q-0.71875 0.6875 -1.1875 1.640625q-0.453125 0.953125 -0.53125 2.125l10.875 0zm7.491226 1.75q0 -2.203125 0.75 -4.15625q0.765625 -1.953125 2.203125 -3.4375q1.4375 -1.484375 3.46875 -2.359375q2.046875 -0.875 4.609375 -0.875q3.4375 0 5.859375 1.484375q2.421875 1.46875 3.625 3.875l-5.234375 1.59375q-0.6875 -1.15625 -1.8125 -1.78125q-1.109375 -0.625 -2.46875 -0.625q-1.171875 0 -2.171875 0.46875q-1.0 0.453125 -1.734375 1.28125q-0.734375 0.8125 -1.15625 1.984375q-0.421875 1.15625 -0.421875 2.546875q0 1.40625 0.4375 2.5625q0.4375 1.15625 1.171875 2.0q0.75 0.84375 1.75 1.3125q1.0 0.453125 2.125 0.453125q1.4375 0 2.65625 -0.71875q1.21875 -0.71875 1.703125 -1.765625l5.234375 1.59375q-1.078125 2.40625 -3.5625 3.9375q-2.46875 1.515625 -5.953125 1.515625q-2.5625 0 -4.609375 -0.875q-2.03125 -0.890625 -3.46875 -2.390625q-1.4375 -1.5 -2.21875 -3.46875q-0.78125 -1.984375 -0.78125 -4.15625zm36.434982 9.40625q-1.078125 0.484375 -2.640625 0.96875q-1.5625 0.46875 -3.28125 0.46875q-1.125 0 -2.109375 -0.28125q-0.96875 -0.28125 -1.71875 -0.890625q-0.734375 -0.625 -1.171875 -1.609375q-0.4375 -0.984375 -0.4375 -2.375l0 -12.046875l-2.765625 0l0 -4.109375l2.765625 0l0 -6.8125l5.359375 0l0 6.8125l4.40625 0l0 4.109375l-4.40625 0l0 10.25q0 1.109375 0.578125 1.578125q0.578125 0.453125 1.421875 0.453125q0.84375 0 1.640625 -0.28125q0.796875 -0.28125 1.28125 -0.46875l1.078125 4.234375zm2.7974854 1.078125l0 -20.953125l5.359375 0l0 20.953125l-5.359375 0zm0 -23.875l0 -5.328125l5.359375 0l0 5.328125l-5.359375 0zm15.840622 23.875l-7.71875 -20.953125l5.515625 0l5.328125 16.59375l5.359375 -16.59375l5.03125 0l-7.71875 20.953125l-5.796875 0zm26.038101 0.40625q-2.515625 0 -4.5625 -0.859375q-2.03125 -0.859375 -3.46875 -2.34375q-1.4375 -1.484375 -2.21875 -3.4375q-0.78125 -1.96875 -0.78125 -4.125q0 -2.234375 0.75 -4.21875q0.765625 -1.984375 2.203125 -3.484375q1.4375 -1.5 3.5 -2.375q2.0625 -0.875 4.625 -0.875q2.5625 0 4.578125 0.875q2.015625 0.875 3.4375 2.359375q1.421875 1.484375 2.15625 3.4375q0.75 1.953125 0.75 4.078125q0 0.515625 -0.03125 1.0q-0.015625 0.484375 -0.09375 0.796875l-16.203125 0q0.125 1.25 0.59375 2.21875q0.484375 0.953125 1.25 1.640625q0.765625 0.671875 1.71875 1.03125q0.953125 0.359375 2.0 0.359375q1.59375 0 3.015625 -0.78125q1.421875 -0.78125 1.9375 -2.0625l4.609375 1.28125q-1.15625 2.390625 -3.703125 3.9375q-2.53125 1.546875 -6.0625 1.546875zm5.4375 -12.640625q-0.1875 -2.359375 -1.734375 -3.78125q-1.546875 -1.421875 -3.734375 -1.421875q-1.078125 0 -2.03125 0.375q-0.9375 0.375 -1.65625 1.0625q-0.71875 0.6875 -1.1875 1.640625q-0.453125 0.953125 -0.53125 2.125l10.875 0zm33.209976 -16.171875l-19.84375 28.40625l-5.921875 0l19.796875 -28.40625l5.96875 0zm3.5137024 28.40625l0 -20.953125l5.359375 0l0 20.953125l-5.359375 0zm0 -23.875l0 -5.328125l5.359375 0l0 5.328125l-5.359375 0zm29.684387 23.875l-5.359375 0l0 -11.765625q0 -2.515625 -0.890625 -3.671875q-0.875 -1.15625 -2.4375 -1.15625q-0.796875 0 -1.640625 0.328125q-0.828125 0.3125 -1.578125 0.890625q-0.734375 0.578125 -1.34375 1.375q-0.59375 0.796875 -0.875 1.765625l0 12.234375l-5.359375 0l0 -20.953125l4.84375 0l0 3.875q1.15625 -2.0 3.359375 -3.109375q2.203125 -1.125 4.953125 -1.125q1.96875 0 3.203125 0.71875q1.25 0.71875 1.921875 1.875q0.6875 1.15625 0.9375 2.640625q0.265625 1.484375 0.265625 3.0l0 13.078125zm17.238098 -1.078125q-1.078125 0.484375 -2.640625 0.96875q-1.5625 0.46875 -3.28125 0.46875q-1.125 0 -2.109375 -0.28125q-0.96875 -0.28125 -1.71875 -0.890625q-0.734375 -0.625 -1.171875 -1.609375q-0.4375 -0.984375 -0.4375 -2.375l0 -12.046875l-2.765625 0l0 -4.109375l2.765625 0l0 -6.8125l5.359375 0l0 6.8125l4.40625 0l0 4.109375l-4.40625 0l0 10.25q0 1.109375 0.578125 1.578125q0.578125 0.453125 1.421875 0.453125q0.84375 0 1.640625 -0.28125q0.796875 -0.28125 1.28125 -0.46875l1.078125 4.234375zm12.516235 1.484375q-2.515625 0 -4.5625 -0.859375q-2.03125 -0.859375 -3.46875 -2.34375q-1.4375 -1.484375 -2.21875 -3.4375q-0.78125 -1.96875 -0.78125 -4.125q0 -2.234375 0.75 -4.21875q0.765625 -1.984375 2.203125 -3.484375q1.4375 -1.5 3.5 -2.375q2.0625 -0.875 4.625 -0.875q2.5625 0 4.578125 0.875q2.015625 0.875 3.4375 2.359375q1.421875 1.484375 2.15625 3.4375q0.75 1.953125 0.75 4.078125q0 0.515625 -0.03125 1.0q-0.015625 0.484375 -0.09375 0.796875l-16.203125 0q0.125 1.25 0.59375 2.21875q0.484375 0.953125 1.25 1.640625q0.765625 0.671875 1.71875 1.03125q0.953125 0.359375 2.0 0.359375q1.59375 0 3.015625 -0.78125q1.421875 -0.78125 1.9375 -2.0625l4.609375 1.28125q-1.15625 2.390625 -3.703125 3.9375q-2.53125 1.546875 -6.0625 1.546875zm5.4375 -12.640625q-0.1875 -2.359375 -1.734375 -3.78125q-1.546875 -1.421875 -3.734375 -1.421875q-1.078125 0 -2.03125 0.375q-0.9375 0.375 -1.65625 1.0625q-0.71875 0.6875 -1.1875 1.640625q-0.453125 0.953125 -0.53125 2.125l10.875 0zm21.288086 -4.078125q-2.4375 0.03125 -4.359375 0.9375q-1.921875 0.890625 -2.765625 2.6875l0 12.6875l-5.359375 0l0 -20.953125l4.921875 0l0 4.46875q0.5625 -1.078125 1.3125 -1.9375q0.765625 -0.859375 1.640625 -1.5q0.890625 -0.640625 1.78125 -0.96875q0.90625 -0.34375 1.75 -0.34375q0.4375 0 0.65625 0q0.21875 0 0.421875 0.03125l0 4.890625zm10.91748 16.71875q-2.640625 0 -5.15625 -0.84375q-2.515625 -0.84375 -4.328125 -2.40625l2.0 -3.359375q1.921875 1.359375 3.734375 2.0625q1.828125 0.703125 3.625 0.703125q1.609375 0 2.53125 -0.59375q0.921875 -0.609375 0.921875 -1.734375q0 -1.109375 -1.09375 -1.625q-1.078125 -0.53125 -3.515625 -1.203125q-2.03125 -0.5625 -3.484375 -1.078125q-1.4375 -0.53125 -2.3125 -1.1875q-0.875 -0.65625 -1.28125 -1.515625q-0.40625 -0.859375 -0.40625 -2.0625q0 -1.609375 0.625 -2.875q0.625 -1.28125 1.734375 -2.1875q1.125 -0.90625 2.625 -1.375q1.5 -0.484375 3.265625 -0.484375q2.359375 0 4.40625 0.6875q2.0625 0.671875 3.796875 2.1875l-2.171875 3.25q-1.59375 -1.203125 -3.09375 -1.765625q-1.5 -0.5625 -2.984375 -0.5625q-1.359375 0 -2.28125 0.5625q-0.921875 0.5625 -0.921875 1.796875q0 0.5625 0.21875 0.921875q0.234375 0.359375 0.703125 0.640625q0.484375 0.28125 1.265625 0.546875q0.78125 0.25 1.9375 0.53125q2.15625 0.5625 3.6875 1.125q1.546875 0.5625 2.53125 1.28125q0.984375 0.71875 1.4375 1.65625q0.46875 0.9375 0.46875 2.265625q0 3.078125 -2.28125 4.859375q-2.28125 1.78125 -6.203125 1.78125zm18.36435 0q-3.25 0 -4.9375 -2.078125q-1.671875 -2.09375 -1.671875 -6.171875l0 -13.109375l5.359375 0l0 11.953125q0 4.84375 3.484375 4.84375q1.5625 0 3.015625 -0.9375q1.46875 -0.953125 2.390625 -2.859375l0 -13.0l5.359375 0l0 14.796875q0 0.84375 0.296875 1.203125q0.296875 0.359375 0.984375 0.390625l0 4.5625q-0.8125 0.15625 -1.359375 0.1875q-0.53125 0.046875 -0.96875 0.046875q-1.4375 0 -2.34375 -0.65625q-0.890625 -0.65625 -1.046875 -1.8125l-0.125 -1.6875q-1.40625 2.15625 -3.609375 3.25q-2.1875 1.078125 -4.828125 1.078125zm30.235596 0q-2.40625 0 -4.28125 -1.078125q-1.875 -1.09375 -2.953125 -2.96875l0 3.640625l-4.6875 0l0 -29.203125l5.359375 0l0 11.921875q1.125 -1.921875 2.9375 -2.96875q1.828125 -1.0625 4.265625 -1.0625q2.046875 0 3.71875 0.875q1.6875 0.875 2.90625 2.359375q1.21875 1.484375 1.875 3.484375q0.65625 2.0 0.65625 4.1875q0 2.28125 -0.734375 4.25q-0.734375 1.953125 -2.0625 3.421875q-1.3125 1.453125 -3.125 2.296875q-1.796875 0.84375 -3.875 0.84375zm-1.484375 -4.5625q1.28125 0 2.359375 -0.5q1.078125 -0.5 1.84375 -1.34375q0.765625 -0.84375 1.1875 -1.953125q0.421875 -1.125 0.421875 -2.40625q0 -1.28125 -0.40625 -2.4375q-0.40625 -1.15625 -1.140625 -2.03125q-0.734375 -0.890625 -1.734375 -1.40625q-1.0 -0.53125 -2.203125 -0.53125q-1.796875 0 -3.21875 1.1875q-1.421875 1.171875 -2.1875 2.890625l0 5.0q0.28125 0.8125 0.8125 1.453125q0.546875 0.640625 1.21875 1.09375q0.6875 0.453125 1.484375 0.71875q0.8125 0.265625 1.5625 0.265625zm13.203705 12.0q-1.515625 0 -2.875 -0.46875q-1.359375 -0.453125 -2.4375 -1.421875l2.3125 -3.640625q0.4375 0.453125 1.078125 0.671875q0.640625 0.21875 1.28125 0.21875q1.046875 0 1.796875 -0.75q0.765625 -0.734375 0.765625 -1.890625l0 -21.515625l5.359375 0l0 21.109375q0 1.6875 -0.5625 3.109375q-0.5625 1.421875 -1.546875 2.4375q-0.96875 1.015625 -2.3125 1.578125q-1.34375 0.5625 -2.859375 0.5625zm1.921875 -31.71875l0 -5.328125l5.359375 0l0 5.328125l-5.359375 0zm19.955627 24.28125q-2.515625 0 -4.5625 -0.859375q-2.03125 -0.859375 -3.46875 -2.34375q-1.4375 -1.484375 -2.21875 -3.4375q-0.78125 -1.96875 -0.78125 -4.125q0 -2.234375 0.75 -4.21875q0.765625 -1.984375 2.203125 -3.484375q1.4375 -1.5 3.5 -2.375q2.0625 -0.875 4.625 -0.875q2.5625 0 4.578125 0.875q2.015625 0.875 3.4375 2.359375q1.421875 1.484375 2.15625 3.4375q0.75 1.953125 0.75 4.078125q0 0.515625 -0.03125 1.0q-0.015625 0.484375 -0.09375 0.796875l-16.203125 0q0.125 1.25 0.59375 2.21875q0.484375 0.953125 1.25 1.640625q0.765625 0.671875 1.71875 1.03125q0.953125 0.359375 2.0 0.359375q1.59375 0 3.015625 -0.78125q1.421875 -0.78125 1.9375 -2.0625l4.609375 1.28125q-1.15625 2.390625 -3.703125 3.9375q-2.53125 1.546875 -6.0625 1.546875zm5.4375 -12.640625q-0.1875 -2.359375 -1.734375 -3.78125q-1.546875 -1.421875 -3.734375 -1.421875q-1.078125 0 -2.03125 0.375q-0.9375 0.375 -1.65625 1.0625q-0.71875 0.6875 -1.1875 1.640625q-0.453125 0.953125 -0.53125 2.125l10.875 0zm7.491211 1.75q0 -2.203125 0.75 -4.15625q0.765625 -1.953125 2.203125 -3.4375q1.4375 -1.484375 3.46875 -2.359375q2.046875 -0.875 4.609375 -0.875q3.4375 0 5.859375 1.484375q2.421875 1.46875 3.625 3.875l-5.234375 1.59375q-0.6875 -1.15625 -1.8125 -1.78125q-1.109375 -0.625 -2.46875 -0.625q-1.171875 0 -2.171875 0.46875q-1.0 0.453125 -1.734375 1.28125q-0.734375 0.8125 -1.15625 1.984375q-0.421875 1.15625 -0.421875 2.546875q0 1.40625 0.4375 2.5625q0.4375 1.15625 1.171875 2.0q0.75 0.84375 1.75 1.3125q1.0 0.453125 2.125 0.453125q1.4375 0 2.65625 -0.71875q1.21875 -0.71875 1.703125 -1.765625l5.234375 1.59375q-1.078125 2.40625 -3.5625 3.9375q-2.46875 1.515625 -5.953125 1.515625q-2.5625 0 -4.609375 -0.875q-2.03125 -0.890625 -3.46875 -2.390625q-1.4375 -1.5 -2.21875 -3.46875q-0.78125 -1.984375 -0.78125 -4.15625zm36.434998 9.40625q-1.078125 0.484375 -2.640625 0.96875q-1.5625 0.46875 -3.28125 0.46875q-1.125 0 -2.109375 -0.28125q-0.96875 -0.28125 -1.71875 -0.890625q-0.734375 -0.625 -1.171875 -1.609375q-0.4375 -0.984375 -0.4375 -2.375l0 -12.046875l-2.765625 0l0 -4.109375l2.765625 0l0 -6.8125l5.359375 0l0 6.8125l4.40625 0l0 4.109375l-4.40625 0l0 10.25q0 1.109375 0.578125 1.578125q0.578125 0.453125 1.421875 0.453125q0.84375 0 1.640625 -0.28125q0.796875 -0.28125 1.28125 -0.46875l1.078125 4.234375zm2.7974854 1.078125l0 -20.953125l5.3594055 0l0 20.953125l-5.3594055 0zm0 -23.875l0 -5.328125l5.3594055 0l0 5.328125l-5.3594055 0zm15.840668 23.875l-7.71875 -20.953125l5.515625 0l5.328125 16.59375l5.359375 -16.59375l5.03125 0l-7.71875 20.953125l-5.796875 0zm26.038086 0.40625q-2.515625 0 -4.5625 -0.859375q-2.03125 -0.859375 -3.46875 -2.34375q-1.4375 -1.484375 -2.21875 -3.4375q-0.78125 -1.96875 -0.78125 -4.125q0 -2.234375 0.75 -4.21875q0.765625 -1.984375 2.203125 -3.484375q1.4375 -1.5 3.5 -2.375q2.0625 -0.875 4.625 -0.875q2.5625 0 4.578125 0.875q2.015625 0.875 3.4375 2.359375q1.421875 1.484375 2.15625 3.4375q0.75 1.953125 0.75 4.078125q0 0.515625 -0.03125 1.0q-0.015625 0.484375 -0.09375 0.796875l-16.203125 0q0.125 1.25 0.59375 2.21875q0.484375 0.953125 1.25 1.640625q0.765625 0.671875 1.71875 1.03125q0.953125 0.359375 2.0 0.359375q1.59375 0 3.015625 -0.78125q1.421875 -0.78125 1.9375 -2.0625l4.609375 1.28125q-1.15625 2.390625 -3.703125 3.9375q-2.53125 1.546875 -6.0625 1.546875zm5.4375 -12.640625q-0.1875 -2.359375 -1.734375 -3.78125q-1.546875 -1.421875 -3.734375 -1.421875q-1.078125 0 -2.03125 0.375q-0.9375 0.375 -1.65625 1.0625q-0.71875 0.6875 -1.1875 1.640625q-0.453125 0.953125 -0.53125 2.125l10.875 0z" fill-rule="nonzero"/><path fill="#a64d79" d="m183.60104 415.80316l0 0c0 -35.789795 29.013367 -64.80316 64.80316 -64.80316c35.789795 0 64.80313 29.013367 64.80313 64.80316c0 35.789764 -29.013336 64.80313 -64.80313 64.80313c-35.789795 0 -64.80316 -29.013367 -64.80316 -64.80313z" fill-rule="evenodd"/><path fill="#843d60" d="m220.89287 396.4222c0 -3.728119 3.0222168 -6.7503357 6.7503204 -6.7503357c3.7281036 0 6.7503357 3.0222168 6.7503357 6.7503357c0 3.7280884 -3.022232 6.7503357 -6.7503357 6.7503357c-3.7281036 0 -6.7503204 -3.0222473 -6.7503204 -6.7503357m41.52202 0c0 -3.728119 3.0222168 -6.7503357 6.7503357 -6.7503357c3.7280884 0 6.750305 3.0222168 6.750305 6.7503357c0 3.7280884 -3.0222168 6.7503357 -6.750305 6.7503357c-3.728119 0 -6.7503357 -3.0222473 -6.7503357 -6.7503357" fill-rule="evenodd"/><path fill="#000000" fill-opacity="0.0" d="m213.28047 444.06424q35.123734 24.122314 70.16542 0" fill-rule="evenodd"/><path fill="#000000" fill-opacity="0.0" d="m183.60104 415.80316l0 0c0 -35.789795 29.013367 -64.80316 64.80316 -64.80316c35.789795 0 64.80313 29.013367 64.80313 64.80316c0 35.789764 -29.013336 64.80313 -64.80313 64.80313c-35.789795 0 -64.80316 -29.013367 -64.80316 -64.80313z" fill-rule="evenodd"/><path stroke="#000000" stroke-width="1.0" stroke-linejoin="round" stroke-linecap="butt" d="m220.89287 396.4222c0 -3.728119 3.0222168 -6.7503357 6.7503204 -6.7503357c3.7281036 0 6.7503357 3.0222168 6.7503357 6.7503357c0 3.7280884 -3.022232 6.7503357 -6.7503357 6.7503357c-3.7281036 0 -6.7503204 -3.0222473 -6.7503204 -6.7503357m41.52202 0c0 -3.728119 3.0222168 -6.7503357 6.7503357 -6.7503357c3.7280884 0 6.750305 3.0222168 6.750305 6.7503357c0 3.7280884 -3.0222168 6.7503357 -6.750305 6.7503357c-3.728119 0 -6.7503357 -3.0222473 -6.7503357 -6.7503357" fill-rule="evenodd"/><path stroke="#000000" stroke-width="1.0" stroke-linejoin="round" stroke-linecap="butt" d="m213.28047 444.06424q35.123734 24.122314 70.16542 0" fill-rule="evenodd"/><path stroke="#000000" stroke-width="1.0" stroke-linejoin="round" stroke-linecap="butt" d="m183.60104 415.80316l0 0c0 -35.789795 29.013367 -64.80316 64.80316 -64.80316c35.789795 0 64.80313 29.013367 64.80313 64.80316c0 35.789764 -29.013336 64.80313 -64.80313 64.80313c-35.789795 0 -64.80316 -29.013367 -64.80316 -64.80313z" fill-rule="evenodd"/><path fill="#d5a6bd" d="m415.19684 188.5958l0 0c0 -35.78978 29.013367 -64.80315 64.80316 -64.80315c35.789795 0 64.80316 29.013367 64.80316 64.80315c0 35.789795 -29.013367 64.80316 -64.80316 64.80316c-35.789795 0 -64.80316 -29.013367 -64.80316 -64.80316z" fill-rule="evenodd"/><path fill="#aa8497" d="m452.48868 169.21486c0 -3.7281036 3.0222168 -6.7503357 6.750305 -6.7503357c3.728119 0 6.7503357 3.022232 6.7503357 6.7503357c0 3.7281036 -3.0222168 6.7503204 -6.7503357 6.7503204c-3.7280884 0 -6.750305 -3.0222168 -6.750305 -6.7503204m41.522003 0c0 -3.7281036 3.0222168 -6.7503357 6.7503357 -6.7503357c3.7280884 0 6.750305 3.022232 6.750305 6.7503357c0 3.7281036 -3.0222168 6.7503204 -6.750305 6.7503204c-3.728119 0 -6.7503357 -3.0222168 -6.7503357 -6.7503204" fill-rule="evenodd"/><path fill="#000000" fill-opacity="0.0" d="m444.87628 216.85689q35.12372 24.12233 70.165405 0" fill-rule="evenodd"/><path fill="#000000" fill-opacity="0.0" d="m415.19684 188.5958l0 0c0 -35.78978 29.013367 -64.80315 64.80316 -64.80315c35.789795 0 64.80316 29.013367 64.80316 64.80315c0 35.789795 -29.013367 64.80316 -64.80316 64.80316c-35.789795 0 -64.80316 -29.013367 -64.80316 -64.80316z" fill-rule="evenodd"/><path stroke="#000000" stroke-width="1.0" stroke-linejoin="round" stroke-linecap="butt" d="m452.48868 169.21486c0 -3.7281036 3.0222168 -6.7503357 6.750305 -6.7503357c3.728119 0 6.7503357 3.022232 6.7503357 6.7503357c0 3.7281036 -3.0222168 6.7503204 -6.7503357 6.7503204c-3.7280884 0 -6.750305 -3.0222168 -6.750305 -6.7503204m41.522003 0c0 -3.7281036 3.0222168 -6.7503357 6.7503357 -6.7503357c3.7280884 0 6.750305 3.022232 6.750305 6.7503357c0 3.7281036 -3.0222168 6.7503204 -6.750305 6.7503204c-3.728119 0 -6.7503357 -3.0222168 -6.7503357 -6.7503204" fill-rule="evenodd"/><path stroke="#000000" stroke-width="1.0" stroke-linejoin="round" stroke-linecap="butt" d="m444.87628 216.85689q35.12372 24.12233 70.165405 0" fill-rule="evenodd"/><path stroke="#000000" stroke-width="1.0" stroke-linejoin="round" stroke-linecap="butt" d="m415.19684 188.5958l0 0c0 -35.78978 29.013367 -64.80315 64.80316 -64.80315c35.789795 0 64.80316 29.013367 64.80316 64.80315c0 35.789795 -29.013367 64.80316 -64.80316 64.80316c-35.789795 0 -64.80316 -29.013367 -64.80316 -64.80316z" fill-rule="evenodd"/><path fill="#ea9999" d="m774.50134 415.80316l0 0c0 -35.789795 29.013306 -64.80316 64.8031 -64.80316c35.789795 0 64.80316 29.013367 64.80316 64.80316c0 35.789764 -29.013367 64.80313 -64.80316 64.80313c-35.789795 0 -64.8031 -29.013367 -64.8031 -64.80313z" fill-rule="evenodd"/><path fill="#bb7a7a" d="m811.79315 396.4222c0 -3.728119 3.0222168 -6.7503357 6.750305 -6.7503357c3.7280884 0 6.750305 3.0222168 6.750305 6.7503357c0 3.7280884 -3.0222168 6.7503357 -6.750305 6.7503357c-3.7280884 0 -6.750305 -3.0222473 -6.750305 -6.7503357m41.521973 0c0 -3.728119 3.0222168 -6.7503357 6.750366 -6.7503357c3.7280884 0 6.750305 3.0222168 6.750305 6.7503357c0 3.7280884 -3.0222168 6.7503357 -6.750305 6.7503357c-3.7281494 0 -6.750366 -3.0222473 -6.750366 -6.7503357" fill-rule="evenodd"/><path fill="#000000" fill-opacity="0.0" d="m804.1807 444.06424q35.12372 24.122314 70.16547 0" fill-rule="evenodd"/><path fill="#000000" fill-opacity="0.0" d="m774.50134 415.80316l0 0c0 -35.789795 29.013306 -64.80316 64.8031 -64.80316c35.789795 0 64.80316 29.013367 64.80316 64.80316c0 35.789764 -29.013367 64.80313 -64.80316 64.80313c-35.789795 0 -64.8031 -29.013367 -64.8031 -64.80313z" fill-rule="evenodd"/><path stroke="#000000" stroke-width="1.0" stroke-linejoin="round" stroke-linecap="butt" d="m811.79315 396.4222c0 -3.728119 3.0222168 -6.7503357 6.750305 -6.7503357c3.7280884 0 6.750305 3.0222168 6.750305 6.7503357c0 3.7280884 -3.0222168 6.7503357 -6.750305 6.7503357c-3.7280884 0 -6.750305 -3.0222473 -6.750305 -6.7503357m41.521973 0c0 -3.728119 3.0222168 -6.7503357 6.750366 -6.7503357c3.7280884 0 6.750305 3.0222168 6.750305 6.7503357c0 3.7280884 -3.0222168 6.7503357 -6.750305 6.7503357c-3.7281494 0 -6.750366 -3.0222473 -6.750366 -6.7503357" fill-rule="evenodd"/><path stroke="#000000" stroke-width="1.0" stroke-linejoin="round" stroke-linecap="butt" d="m804.1807 444.06424q35.12372 24.122314 70.16547 0" fill-rule="evenodd"/><path stroke="#000000" stroke-width="1.0" stroke-linejoin="round" stroke-linecap="butt" d="m774.50134 415.80316l0 0c0 -35.789795 29.013306 -64.80316 64.8031 -64.80316c35.789795 0 64.80316 29.013367 64.80316 64.80316c0 35.789764 -29.013367 64.80313 -64.80316 64.80313c-35.789795 0 -64.8031 -29.013367 -64.8031 -64.80313z" fill-rule="evenodd"/><path fill="#93c47d" d="m382.04987 333.46194l29.431122 -43.212616l29.970459 43.212616z" fill-rule="evenodd"/><path stroke="#000000" stroke-width="1.0" stroke-linejoin="round" stroke-linecap="butt" d="m382.04987 333.46194l29.431122 -43.212616l29.970459 43.212616z" fill-rule="evenodd"/><path fill="#93c47d" d="m470.95013 383.00525l29.431091 -43.212585l29.970459 43.212585z" fill-rule="evenodd"/><path stroke="#000000" stroke-width="1.0" stroke-linejoin="round" stroke-linecap="butt" d="m470.95013 383.00525l29.431091 -43.212585l29.970459 43.212585z" fill-rule="evenodd"/><path fill="#93c47d" d="m544.52496 327.6614l29.431091 -43.212585l29.970459 43.212585z" fill-rule="evenodd"/><path stroke="#000000" stroke-width="1.0" stroke-linejoin="round" stroke-linecap="butt" d="m544.52496 327.6614l29.431091 -43.212585l29.970459 43.212585z" fill-rule="evenodd"/><path fill="#93c47d" d="m538.0525 426.21783l29.431091 -43.212585l29.970459 43.212585z" fill-rule="evenodd"/><path stroke="#000000" stroke-width="1.0" stroke-linejoin="round" stroke-linecap="butt" d="m538.0525 426.21783l29.431091 -43.212585l29.970459 43.212585z" fill-rule="evenodd"/><path fill="#000000" fill-opacity="0.0" d="m415.19684 188.5958l-120.97638 181.38583" fill-rule="evenodd"/><path stroke="#000000" stroke-width="1.0" stroke-linejoin="round" stroke-linecap="butt" d="m415.19684 188.5958l-120.97638 181.38583" fill-rule="evenodd"/><path fill="#000000" fill-opacity="0.0" d="m544.80316 188.5958l248.69287 181.38583" fill-rule="evenodd"/><path stroke="#000000" stroke-width="1.0" stroke-linejoin="round" stroke-linecap="butt" d="m544.80316 188.5958l248.69287 181.38583" fill-rule="evenodd"/><path fill="#000000" fill-opacity="0.0" d="m313.20734 415.80316l480.28345 45.82675" fill-rule="evenodd"/><path stroke="#000000" stroke-width="1.0" stroke-linejoin="round" stroke-linecap="butt" d="m313.20734 415.80316l480.28345 45.82675" fill-rule="evenodd"/><path fill="#000000" fill-opacity="0.0" d="m572.3989 166.04987l211.93701 0l0 22.551178l-211.93701 0z" fill-rule="evenodd"/><path fill="#000000" fill-opacity="0.0" d="m404.1385 433.79645l282.99213 23.527557l-3.559021 43.055115l-282.99216 -23.527557z" fill-rule="evenodd"/><path fill="#000000" d="m422.20703 457.60782l1.722229 0.5978699q-0.73950195 2.1178894 -2.2673035 3.151123q-1.5265198 1.0176392 -3.6130676 0.84417725q-2.1488342 -0.1786499 -3.4314575 -1.1632996q-1.2657471 -0.9989319 -1.845581 -2.7091064q-0.5629883 -1.7244568 -0.4046631 -3.639801q0.17120361 -2.071045 1.0927734 -3.5466614q0.92285156 -1.4911499 2.4522095 -2.1636353q1.5462036 -0.6867676 3.3057556 -0.5404663q1.9931335 0.16571045 3.2641602 1.2904968q1.2865906 1.1260986 1.6628418 3.0231628l-1.7618713 0.26116943q-0.34744263 -1.4869995 -1.1809387 -2.2148132q-0.8166504 -0.74209595 -2.1401978 -0.85214233q-1.541565 -0.12814331 -2.6297607 0.51828q-1.0881958 0.64645386 -1.6116028 1.8572388q-0.52212524 1.195221 -0.63153076 2.5188293q-0.1402893 1.6973572 0.25372314 3.0000916q0.39401245 1.3027649 1.384491 2.0279236q0.9917908 0.70962524 2.2063599 0.8106079q1.4792786 0.12298584 2.5777588 -0.6480408q1.0985107 -0.7709961 1.5956726 -2.4230042zm3.1313171 0.10354614q0.22140503 -2.6783447 1.8062134 -3.8322754q1.3345337 -0.97088623 3.1252136 -0.8220215q1.9931335 0.16571045 3.1462708 1.5786133q1.1544495 1.3973389 0.9639282 3.7019653q-0.15316772 1.8530579 -0.80255127 2.8809204q-0.6481018 1.0122681 -1.7714233 1.514679q-1.1077576 0.5036926 -2.369049 0.39883423q-2.0242615 -0.16827393 -3.1631165 -1.564331q-1.1375732 -1.4115906 -0.93548584 -3.8563843zm1.6817017 0.13983154q-0.15319824 1.8530579 0.5637207 2.8533936q0.73376465 0.98605347 1.9638977 1.0883179q1.2145386 0.100982666 2.1001892 -0.75045776q0.8869629 -0.8669739 1.0439758 -2.7667542q0.14804077 -1.7907715 -0.5857239 -2.776825q-0.73376465 -0.98605347 -1.9483032 -1.0870361q-1.230133 -0.102264404 -2.1157837 0.7491455q-0.86880493 0.8371582 -1.0219727 2.690216zm8.866577 5.597595l0.79678345 -9.638977l1.4637146 0.121673584l-0.11328125 1.3703308q1.190155 -1.5003052 3.198822 -1.333313q0.8720093 0.072509766 1.578125 0.4447937q0.7060852 0.37228394 1.021759 0.9159241q0.33251953 0.5293579 0.4147339 1.2417603q0.05609131 0.4593506 -0.037872314 1.5960999l-0.49041748 5.932892l-1.6350098 -0.1359253l0.48529053 -5.8706055q0.08239746 -0.99661255 -0.08013916 -1.4961548q-0.1456604 -0.513855 -0.60391235 -0.8498535q-0.45825195 -0.33599854 -1.1122437 -0.39035034q-1.0432739 -0.08673096 -1.8616333 0.5194092q-0.80148315 0.5918884 -0.9546509 2.4449463l-0.4350891 5.263275l-1.6349792 -0.1359253zm11.268005 -10.555817l0.15704346 -1.8997803l1.6349792 0.1359253l-0.15704346 1.8997803l-1.6349792 -0.1359253zm-3.3234558 14.979279l0.42599487 -1.3600159q0.48797607 0.1659851 0.76828 0.18930054q0.4982605 0.041412354 0.7588806 -0.26617432q0.27615356 -0.3062744 0.38687134 -1.6454773l0.8366699 -10.121735l1.6350098 0.13595581l-0.8405762 10.1684265q-0.14672852 1.7752075 -0.67178345 2.4371033q-0.66638184 0.8539734 -2.0366516 0.74005127q-0.6539917 -0.054382324 -1.2626953 -0.2774353zm13.38443 -5.770294l1.664978 0.34225464q-0.5271301 1.4456787 -1.6697693 2.1816406q-1.1413574 0.72042847 -2.823059 0.5805969q-2.1177063 -0.17605591 -3.2565613 -1.5720825q-1.1220093 -1.4103088 -0.9276428 -3.7616577q0.2020874 -2.4447937 1.5585022 -3.68042q1.3719788 -1.234314 3.3651123 -1.0686035q1.9308167 0.16052246 3.0359802 1.5851135q1.1220093 1.4103088 0.9250488 3.7928162q-0.012878418 0.15570068 -0.03604126 0.43600464l-7.193939 -0.5980835q-0.037841797 1.5960999 0.7010498 2.519867q0.74020386 0.9082031 1.9391785 1.0078735q0.9031372 0.07507324 1.5801697 -0.33898926q0.6783447 -0.42965698 1.1369934 -1.4263306zm-5.1532593 -3.0938416l5.387665 0.4479065q-0.008575439 -1.2236633 -0.472229 -1.8736877q-0.7000427 -1.0146179 -1.9457703 -1.1181641q-1.1211243 -0.0932312 -1.9627686 0.605072q-0.82476807 0.684021 -1.006897 1.9388733zm15.217926 3.4916077l1.5858154 0.35134888q-0.40115356 1.6286011 -1.5696411 2.487854q-1.1516724 0.8450012 -2.7399292 0.71295166q-1.9775696 -0.1643982 -3.0697021 -1.5565491q-1.0921631 -1.3921509 -0.89263916 -3.8058167q0.13000488 -1.5727539 0.7404175 -2.6979065q0.6103821 -1.1251831 1.7168579 -1.6133118q1.1077576 -0.5036926 2.3534546 -0.40014648q1.5726929 0.13076782 2.5036316 1.007782q0.9309082 0.87701416 1.0901794 2.3640747l-1.6075745 0.10153198q-0.15374756 -0.9848633 -0.69000244 -1.5155029q-0.5349426 -0.5462036 -1.344635 -0.6135254q-1.230133 -0.102264404 -2.0820618 0.7206116q-0.8519592 0.822876 -1.0102844 2.7382202q-0.16088867 1.9464722 0.5131531 2.8962097q0.675354 0.9341736 1.8743286 1.033844q0.9654236 0.08026123 1.652771 -0.45837402q0.70288086 -0.53738403 0.9758606 -1.7532959zm6.3999023 2.6173706l0.11383057 1.4675903q-0.6967163 0.08319092 -1.2416992 0.037872314q-0.88757324 -0.073791504 -1.3626709 -0.3955078q-0.4595337 -0.32043457 -0.6246338 -0.7888489q-0.16381836 -0.48397827 -0.042816162 -1.9477234l0.4595337 -5.5591736l-1.1990051 -0.09967041l0.104278564 -1.261322l1.1989746 0.09967041l0.19696045 -2.3825073l1.7005005 -0.8463745l-0.27804565 3.3635254l1.6505737 0.13720703l-0.104278564 1.261322l-1.6505432 -0.13720703l-0.46725464 5.652588q-0.056640625 0.68515015 0.004486084 0.8940735q0.076690674 0.21020508 0.25323486 0.35031128q0.19342041 0.12582397 0.5671387 0.15689087q0.26470947 0.022003174 0.72143555 -0.0027160645zm2.423462 -9.833038l0.15576172 -1.8841858l1.6349792 0.1359253l-0.15576172 1.8841858l-1.6349792 -0.1359253zm-0.9448242 11.429779l0.79678345 -9.639008l1.6350098 0.1359253l-0.79681396 9.639008l-1.6349792 -0.1359253zm6.808838 0.56607056l-2.8780212 -9.944519l1.7283936 0.14370728l1.5934143 5.949341q0.24978638 0.96151733 0.46325684 1.9826965q0.26550293 -0.7461853 0.75787354 -1.7714233l2.6198425 -5.7088013l1.6817017 0.13980103l-4.44046 9.33606l-1.526001 -0.12686157zm13.476166 -1.9996948l1.664978 0.34222412q-0.52716064 1.4456787 -1.6697998 2.1816711q-1.1413269 0.72039795 -2.8230286 0.5805969q-2.1177063 -0.17605591 -3.2565613 -1.572113q-1.1220093 -1.4103088 -0.9276428 -3.7616577q0.2020874 -2.4447937 1.5585022 -3.6803894q1.3719788 -1.234314 3.3650818 -1.068634q1.9308472 0.16052246 3.0360107 1.5851135q1.1219788 1.4103088 0.9250488 3.7928162q-0.012878418 0.1557312 -0.03604126 0.43600464l-7.193939 -0.5980835q-0.037872314 1.5960999 0.7010498 2.519867q0.74020386 0.9082031 1.9391785 1.007904q0.9031372 0.07507324 1.5801697 -0.33901978q0.6783447 -0.42962646 1.1369934 -1.4263zm-5.1532593 -3.093872l5.387665 0.447937q-0.008605957 -1.2236633 -0.47225952 -1.8736877q-0.7000427 -1.0146179 -1.9457397 -1.1181946q-1.1211243 -0.09320068 -1.9627686 0.60510254q-0.82476807 0.6839905 -1.006897 1.9388428zm13.800415 6.9328613l1.1005554 -13.313965l1.6350098 0.1359253l-0.6281738 7.5990906l4.2016296 -3.6017761l2.1021423 0.17477417l-3.9709167 3.2760315l3.547821 6.394043l-2.0086975 -0.16699219l-2.7840576 -5.2016907l-1.2449646 1.0253906l-0.31536865 3.8151245l-1.6349792 -0.13595581zm9.296051 0.77285767l0.79681396 -9.638977l1.4636841 0.121673584l-0.11328125 1.3703308q1.1901245 -1.5003052 3.1988525 -1.333313q0.87194824 0.072509766 1.578064 0.4447937q0.7061157 0.37228394 1.0217896 0.9159241q0.33251953 0.5293884 0.4147339 1.2417603q0.05609131 0.4593506 -0.037902832 1.5960999l-0.49041748 5.932892l-1.6349487 -0.1359253l0.48529053 -5.8706055q0.082336426 -0.99661255 -0.08013916 -1.4961548q-0.14569092 -0.513855 -0.6039429 -0.8498535q-0.45825195 -0.33599854 -1.1122437 -0.39035034q-1.0432739 -0.08673096 -1.8616333 0.5194092q-0.80145264 0.5918884 -0.9546509 2.4449463l-0.4350586 5.2633057l-1.6350098 -0.13595581zm10.131775 -4.018097q0.22143555 -2.6783752 1.8062744 -3.8322754q1.3344727 -0.97091675 3.125183 -0.8220215q1.9931641 0.16571045 3.1463013 1.5786133q1.154419 1.3973083 0.9639282 3.7019653q-0.15319824 1.8530579 -0.8026123 2.88089q-0.6480713 1.0122986 -1.7714233 1.5147095q-1.107727 0.5036926 -2.3690186 0.39883423q-2.024231 -0.16830444 -3.163147 -1.564331q-1.1375732 -1.4115906 -0.93548584 -3.8563843zm1.6817017 0.13980103q-0.1531372 1.8530579 0.5637207 2.8533936q0.73376465 0.98605347 1.9639282 1.0883484q1.2145386 0.10095215 2.1002197 -0.75045776q0.88690186 -0.8670044 1.0439453 -2.7667847q0.14807129 -1.790741 -0.58569336 -2.776825q-0.73376465 -0.98605347 -1.9483643 -1.0870361q-1.2301025 -0.102264404 -2.1157837 0.749176q-0.8687744 0.8371277 -1.0219727 2.6901855zm10.641724 5.7452087l-2.1617432 -9.884979l1.6972656 0.14111328l1.0664673 5.686035l0.40490723 2.1189575q0.059631348 -0.15182495 0.66308594 -1.9517822l2.0075073 -5.50885l1.6817017 0.13980103l0.970459 5.7094116l0.33081055 1.8776245l0.7137451 -1.8064575l2.1113892 -5.4375l1.5882568 0.13204956l-3.817627 9.387848l-1.6972656 -0.14111328l-1.0484009 -5.9040527l-0.23858643 -1.6661072l-2.559143 7.2503967l-1.7128296 -0.14239502zm11.604797 0.96481323l1.1005859 -13.313965l1.6349487 0.1359253l-1.1005249 13.313965l-1.6350098 -0.1359253zm11.035645 -2.2026367l1.664978 0.34225464q-0.52716064 1.4456787 -1.6697998 2.1816711q-1.1413574 0.72039795 -2.822998 0.5805969q-2.1177368 -0.17608643 -3.2565918 -1.572113q-1.1220093 -1.4103088 -0.9276123 -3.7616577q0.2020874 -2.4447937 1.5584717 -3.6803894q1.3720093 -1.2343445 3.3651123 -1.068634q1.9308472 0.16052246 3.0359497 1.5851135q1.1220093 1.4103088 0.92510986 3.7928162q-0.012878418 0.1557312 -0.036071777 0.43600464l-7.1939087 -0.5980835q-0.037902832 1.5960999 0.7010498 2.519867q0.74017334 0.9082031 1.939148 1.0078735q0.9031372 0.07510376 1.5802002 -0.33898926q0.6782837 -0.42965698 1.1369629 -1.4263306zm-5.1532593 -3.0938416l5.3876953 0.447937q-0.008605957 -1.2236938 -0.47229004 -1.8737183q-0.7000122 -1.0145874 -1.9457397 -1.1181641q-1.1210938 -0.09320068 -1.9627686 0.605072q-0.82476807 0.684021 -1.006897 1.9388733zm14.879028 7.0225525l0.10040283 -1.2146301q-1.0215454 1.357544 -2.8122559 1.2086487q-1.1522827 -0.09579468 -2.0649414 -0.81448364q-0.91259766 -0.7187195 -1.3480835 -1.8994751q-0.4354248 -1.1807861 -0.3131714 -2.6600952q0.11968994 -1.4481812 0.6989746 -2.5759583q0.5805054 -1.1433411 1.5818481 -1.6872253q1.0169067 -0.54263306 2.2159424 -0.44293213q0.87194824 0.07247925 1.5106201 0.5018921q0.6555176 0.4151001 1.0270386 1.0417786l0.39520264 -4.780548l1.6349487 0.1359253l-1.1005249 13.313965l-1.526001 -0.12686157zm-4.7563477 -5.2402344q-0.15319824 1.8530579 0.5494385 2.8365173q0.7026367 0.98349 1.7614746 1.0715027q1.0744019 0.08932495 1.8939209 -0.72055054q0.8208008 -0.82547 0.96881104 -2.6162415q0.16351318 -1.9776001 -0.5235596 -2.9597778q-0.685791 -0.9977722 -1.8068848 -1.0909729q-1.0744019 -0.08932495 -1.8796387 0.73742676q-0.8052368 0.8267517 -0.963562 2.742096zm8.47522 6.3490295l1.5689697 0.3656311q0.04724121 0.75650024 0.47174072 1.1210632q0.5699463 0.5020752 1.6287842 0.5900879q1.1367188 0.09451294 1.781311 -0.3065796q0.6602173 -0.3998108 0.9451294 -1.1914062q0.16577148 -0.48794556 0.28277588 -2.0931702q-1.1630859 1.1733093 -2.7669678 1.039978q-1.993103 -0.16571045 -2.9646606 -1.6889648q-0.9715576 -1.5232239 -0.805542 -3.5319824q0.11456299 -1.3859253 0.7094116 -2.5123901q0.6104126 -1.1251526 1.5961304 -1.6703491q1.0026245 -0.55947876 2.295044 -0.45202637q1.6972656 0.14108276 2.6895752 1.6033325l0.09527588 -1.1523132l1.510376 0.12557983l-0.68865967 8.330963q-0.18664551 2.257904 -0.73101807 3.1533813q-0.5288086 0.89678955 -1.5703735 1.3589478q-1.026062 0.46343994 -2.489746 0.34176636q-1.7128906 -0.14239502 -2.7229004 -1.010315q-0.9957886 -0.8510742 -0.83465576 -2.4212341zm1.8335571 -5.6801147q-0.15704346 1.8997803 0.51831055 2.8339233q0.69091797 0.9354553 1.8275757 1.0299683q1.1211548 0.09320068 1.954956 -0.6997986q0.835083 -0.80859375 0.9882202 -2.6616516q0.14678955 -1.7752075 -0.5739746 -2.7288208q-0.70391846 -0.9678955 -1.8095093 -1.0598145q-1.0899658 -0.09060669 -1.9263306 0.733551q-0.835083 0.80859375 -0.97924805 2.5526428zm15.741943 3.2215881l1.664978 0.34225464q-0.52716064 1.4456787 -1.6697998 2.1816406q-1.1413574 0.72042847 -2.823059 0.5805969q-2.1176758 -0.17605591 -3.2565308 -1.5720825q-1.1220093 -1.4103088 -0.9276123 -3.7616577q0.2020874 -2.4447937 1.5584717 -3.68042q1.3719482 -1.234314 3.3651123 -1.0686035q1.9308472 0.16052246 3.0359497 1.5851135q1.1220093 1.4103088 0.9250488 3.7928162q-0.012817383 0.15570068 -0.036010742 0.43600464l-7.1939087 -0.5980835q-0.037902832 1.5960999 0.70098877 2.519867q0.7402344 0.9082031 1.939209 1.0078735q0.9031372 0.07507324 1.5802002 -0.33898926q0.6782837 -0.42965698 1.1369629 -1.4263306zm-5.1532593 -3.0938416l5.3876343 0.4479065q-0.008544922 -1.2236633 -0.472229 -1.8736877q-0.7000122 -1.0146179 -1.9457397 -1.1181641q-1.1211548 -0.0932312 -1.9627686 0.605072q-0.82476807 0.684021 -1.006897 1.9388733zm7.385498 6.6347046l4.9995728 -13.444489l1.3079834 0.10873413l-4.984009 13.445801l-1.3235474 -0.11004639zm6.804199 0.33050537l0.6925049 -8.377655l-1.4481201 -0.12042236l0.10424805 -1.261322l1.4481812 0.12042236l0.0848999 -1.027771q0.079833984 -0.9654541 0.29101562 -1.4339294q0.28637695 -0.61901855 0.9102173 -0.95913696q0.62390137 -0.3400879 1.6983032 -0.25076294q0.68518066 0.0569458 1.5131226 0.28256226l-0.3675537 1.4119263q-0.49053955 -0.13485718 -0.9421387 -0.17242432q-0.7473755 -0.06213379 -1.0858765 0.23898315q-0.3371582 0.28555298 -0.40924072 1.1575928l-0.07336426 0.88757324l1.8840942 0.15664673l-0.10424805 1.261322l-1.8840942 -0.15664673l-0.6925659 8.377686l-1.6193848 -0.13464355zm11.164795 -0.2633667q-0.9817505 0.6866455 -1.8496094 0.9437561q-0.8510132 0.24282837 -1.8164673 0.16256714q-1.5882568 -0.13204956 -2.38031 -0.98184204q-0.7920532 -0.8497925 -0.6929321 -2.0488281q0.0592041 -0.7163086 0.4338379 -1.2652893q0.3758545 -0.5645447 0.9180298 -0.8644104q0.55908203 -0.31414795 1.2285156 -0.44662476q0.477417 -0.085754395 1.468689 -0.12875366q1.9968872 -0.06918335 2.958191 -0.31851196q0.043884277 -0.34127808 0.05029297 -0.41912842q0.08239746 -0.99661255 -0.3499756 -1.4559021q-0.5778198 -0.59680176 -1.8234863 -0.7003479q-1.1522827 -0.09579468 -1.7307739 0.26376343q-0.5784302 0.3595581 -0.92681885 1.3497009l-1.5858154 -0.35134888q0.30163574 -0.9940491 0.8514404 -1.57547q0.5510254 -0.5970459 1.5292358 -0.86065674q0.9781494 -0.26361084 2.208252 -0.16134644q1.2457275 0.10357666 1.9842529 0.46289062q0.7553711 0.34500122 1.0762329 0.8263855q0.33764648 0.46707153 0.42242432 1.1483154q0.04309082 0.4269104 -0.04699707 1.5169373l-0.18017578 2.1800537q-0.18798828 2.2734985 -0.12915039 2.889862q0.060058594 0.60079956 0.3095703 1.1860046l-1.6972656 -0.14111328q-0.222229 -0.5358887 -0.22918701 -1.2106628zm0.16235352 -3.671051q-0.91845703 0.29995728 -2.7141724 0.40151978q-1.0236816 0.055999756 -1.4595947 0.20791626q-0.43585205 0.15188599 -0.6977539 0.47506714q-0.24627686 0.3244629 -0.28234863 0.7604675q-0.05407715 0.6540222 0.40820312 1.1314697q0.46221924 0.477417 1.4120483 0.5563965q0.9343262 0.07766724 1.699646 -0.26635742q0.7821655 -0.35830688 1.18396 -1.0461121q0.31103516 -0.53860474 0.3998413 -1.6130371l0.0501709 -0.6073303zm10.37207 2.1793518l1.5858154 0.35134888q-0.40112305 1.6286316 -1.5696411 2.4878845q-1.1516724 0.8450012 -2.7399292 0.71295166q-1.9775391 -0.16442871 -3.0697021 -1.5565796q-1.0921631 -1.3921509 -0.89263916 -3.8057861q0.13000488 -1.5727539 0.7404175 -2.697937q0.6104126 -1.1251526 1.7168579 -1.6132812q1.1077881 -0.50372314 2.3534546 -0.40014648q1.5726929 0.13076782 2.503601 1.007782q0.93096924 0.87701416 1.09021 2.3640747l-1.607544 0.10153198q-0.1538086 -0.9848938 -0.69000244 -1.5155029q-0.53497314 -0.5462036 -1.3446655 -0.6135254q-1.2301025 -0.102264404 -2.0820923 0.7206116q-0.8519287 0.82284546 -1.0102539 2.7381897q-0.16088867 1.9465027 0.5131836 2.8962402q0.67529297 0.93414307 1.8743286 1.033844q0.96539307 0.08026123 1.65271 -0.45840454q0.7029419 -0.5373535 0.9758911 -1.7532959zm6.3999023 2.6173706l0.11383057 1.4676208q-0.6967163 0.08319092 -1.2416992 0.037872314q-0.88757324 -0.073791504 -1.3626709 -0.3955078q-0.4595337 -0.32043457 -0.6246338 -0.7888489q-0.16381836 -0.48397827 -0.042785645 -1.9477539l0.4595337 -5.559143l-1.1990356 -0.09970093l0.10430908 -1.261322l1.1989746 0.09970093l0.19696045 -2.3825073l1.7005005 -0.846405l-0.27807617 3.3635254l1.6505737 0.13723755l-0.10424805 1.261322l-1.6505737 -0.13723755l-0.46728516 5.6526184q-0.05657959 0.68515015 0.0045166016 0.8940735q0.07672119 0.21017456 0.25323486 0.35031128q0.19342041 0.12582397 0.5671387 0.15689087q0.26470947 0.022003174 0.72143555 -0.002746582zm1.0628052 -1.3384094l1.6400146 -0.11453247q0.04473877 0.9758301 0.62384033 1.5570679q0.5803833 0.5656433 1.701477 0.658844q1.1211548 0.0932312 1.7034912 -0.31304932q0.58361816 -0.42184448 0.6350708 -1.0447388q0.045043945 -0.5450134 -0.4105835 -0.9121399q-0.309021 -0.24520874 -1.6210938 -0.6835327q-1.7676392 -0.6173401 -2.4413452 -1.002594q-0.65808105 -0.38397217 -0.9686279 -0.9899292q-0.3092041 -0.6214905 -0.25 -1.3377991q0.05279541 -0.63845825 0.39367676 -1.1588745q0.34222412 -0.5359802 0.88568115 -0.8514099q0.3968506 -0.24923706 1.0662842 -0.38171387q0.68634033 -0.14678955 1.4337158 -0.084625244q1.1367188 0.09448242 1.9661255 0.4927063q0.82940674 0.39819336 1.1878662 0.99246216q0.37408447 0.59552 0.45257568 1.5427856l-1.6218262 0.08468628q-0.04724121 -0.75653076 -0.5418701 -1.2209778q-0.47912598 -0.46316528 -1.4289551 -0.5421448q-1.1367188 -0.09448242 -1.6503296 0.23910522q-0.49804688 0.33486938 -0.5392456 0.8331909q-0.0256958 0.31143188 0.13928223 0.5916748q0.18054199 0.28155518 0.60235596 0.48910522q0.22583008 0.112854004 1.3978271 0.5395508q1.706604 0.5965576 2.3673096 0.94940186q0.66070557 0.35281372 1.0036011 0.94577026q0.34295654 0.59295654 0.2734375 1.4338379q-0.068237305 0.8253174 -0.6101074 1.5014954q-0.5263672 0.6774597 -1.4629517 1.0072327q-0.93536377 0.31420898 -2.0720215 0.21972656q-1.8685913 -0.15536499 -2.8007812 -1.0168152q-0.916626 -0.86013794 -1.053894 -2.423767z" fill-rule="nonzero"/><path fill="#000000" fill-opacity="0.0" d="m595.34906 353.70078l161.98425 0l0 36.944885l-161.98425 0z" fill-rule="evenodd"/><path fill="#000000" d="m605.2553 374.1208q0 -3.328125 1.78125 -5.203125q1.78125 -1.890625 4.609375 -1.890625q1.84375 0 3.328125 0.890625q1.484375 0.875 2.265625 2.46875q0.78125 1.578125 0.78125 3.578125q0 2.03125 -0.828125 3.640625q-0.8125 1.59375 -2.3125 2.421875q-1.5 0.828125 -3.25 0.828125q-1.875 0 -3.359375 -0.90625q-1.484375 -0.921875 -2.25 -2.5q-0.765625 -1.578125 -0.765625 -3.328125zm1.8125 0.015625q0 2.421875 1.296875 3.8125q1.296875 1.390625 3.265625 1.390625q2.0 0 3.28125 -1.40625q1.28125 -1.40625 1.28125 -3.984375q0 -1.625 -0.546875 -2.84375q-0.546875 -1.21875 -1.609375 -1.875q-1.0625 -0.671875 -2.375 -0.671875q-1.890625 0 -3.25 1.296875q-1.34375 1.28125 -1.34375 4.28125zm14.5271 6.484375l-1.515625 0l0 -13.359375l1.640625 0l0 4.765625q1.046875 -1.296875 2.65625 -1.296875q0.890625 0 1.6875 0.359375q0.796875 0.359375 1.3125 1.015625q0.515625 0.640625 0.796875 1.5625q0.296875 0.921875 0.296875 1.96875q0 2.484375 -1.234375 3.84375q-1.21875 1.359375 -2.953125 1.359375q-1.703125 0 -2.6875 -1.4375l0 1.21875zm-0.015625 -4.90625q0 1.734375 0.484375 2.515625q0.765625 1.265625 2.09375 1.265625q1.078125 0 1.859375 -0.9375q0.78125 -0.9375 0.78125 -2.78125q0 -1.890625 -0.75 -2.796875q-0.75 -0.90625 -1.828125 -0.90625q-1.0625 0 -1.859375 0.9375q-0.78125 0.9375 -0.78125 2.703125zm8.875671 -6.546875l0 -1.90625l1.640625 0l0 1.90625l-1.640625 0zm-2.078125 15.203125l0.3125 -1.390625q0.5 0.125 0.78125 0.125q0.5 0 0.734375 -0.328125q0.25 -0.328125 0.25 -1.671875l0 -10.15625l1.640625 0l0 10.203125q0 1.78125 -0.46875 2.484375q-0.59375 0.90625 -1.96875 0.90625q-0.65625 0 -1.28125 -0.171875zm12.863586 -6.859375l1.6875 0.203125q-0.40625 1.484375 -1.484375 2.3125q-1.078125 0.8125 -2.765625 0.8125q-2.125 0 -3.375 -1.296875q-1.234375 -1.3125 -1.234375 -3.671875q0 -2.453125 1.25 -3.796875q1.265625 -1.34375 3.265625 -1.34375q1.9375 0 3.15625 1.328125q1.234375 1.3125 1.234375 3.703125q0 0.15625 0 0.4375l-7.21875 0q0.09375 1.59375 0.90625 2.453125q0.8125 0.84375 2.015625 0.84375q0.90625 0 1.546875 -0.46875q0.640625 -0.484375 1.015625 -1.515625zm-5.390625 -2.65625l5.40625 0q-0.109375 -1.21875 -0.625 -1.828125q-0.78125 -0.953125 -2.03125 -0.953125q-1.125 0 -1.90625 0.765625q-0.765625 0.75 -0.84375 2.015625zm15.453857 2.21875l1.609375 0.21875q-0.265625 1.65625 -1.359375 2.609375q-1.078125 0.9375 -2.671875 0.9375q-1.984375 0 -3.1875 -1.296875q-1.203125 -1.296875 -1.203125 -3.71875q0 -1.578125 0.515625 -2.75q0.515625 -1.171875 1.578125 -1.75q1.0625 -0.59375 2.3125 -0.59375q1.578125 0 2.578125 0.796875q1.0 0.796875 1.28125 2.265625l-1.59375 0.234375q-0.234375 -0.96875 -0.8125 -1.453125q-0.578125 -0.5 -1.390625 -0.5q-1.234375 0 -2.015625 0.890625q-0.78125 0.890625 -0.78125 2.8125q0 1.953125 0.75 2.84375q0.75 0.875 1.953125 0.875q0.96875 0 1.609375 -0.59375q0.65625 -0.59375 0.828125 -1.828125zm6.59375 2.078125l0.234375 1.453125q-0.6875 0.140625 -1.234375 0.140625q-0.890625 0 -1.390625 -0.28125q-0.484375 -0.28125 -0.6875 -0.734375q-0.203125 -0.46875 -0.203125 -1.9375l0 -5.578125l-1.203125 0l0 -1.265625l1.203125 0l0 -2.390625l1.625 -0.984375l0 3.375l1.65625 0l0 1.265625l-1.65625 0l0 5.671875q0 0.6875 0.078125 0.890625q0.09375 0.203125 0.28125 0.328125q0.203125 0.109375 0.578125 0.109375q0.265625 0 0.71875 -0.0625zm0.9489136 -1.421875l1.625 -0.25q0.125 0.96875 0.75 1.5q0.625 0.515625 1.75 0.515625q1.125 0 1.671875 -0.453125q0.546875 -0.46875 0.546875 -1.09375q0 -0.546875 -0.484375 -0.875q-0.328125 -0.21875 -1.671875 -0.546875q-1.8125 -0.46875 -2.515625 -0.796875q-0.6875 -0.328125 -1.046875 -0.90625q-0.359375 -0.59375 -0.359375 -1.3125q0 -0.640625 0.296875 -1.1875q0.296875 -0.5625 0.8125 -0.921875q0.375 -0.28125 1.03125 -0.46875q0.671875 -0.203125 1.421875 -0.203125q1.140625 0 2.0 0.328125q0.859375 0.328125 1.265625 0.890625q0.421875 0.5625 0.578125 1.5l-1.609375 0.21875q-0.109375 -0.75 -0.640625 -1.171875q-0.515625 -0.421875 -1.46875 -0.421875q-1.140625 0 -1.625 0.375q-0.46875 0.375 -0.46875 0.875q0 0.3125 0.1875 0.578125q0.203125 0.265625 0.640625 0.4375q0.234375 0.09375 1.4375 0.421875q1.75 0.453125 2.4375 0.75q0.6875 0.296875 1.078125 0.859375q0.390625 0.5625 0.390625 1.40625q0 0.828125 -0.484375 1.546875q-0.46875 0.71875 -1.375 1.125q-0.90625 0.390625 -2.046875 0.390625q-1.875 0 -2.875 -0.78125q-0.984375 -0.78125 -1.25 -2.328125zm15.167664 -8.578125l0 -1.890625l1.640625 0l0 1.890625l-1.640625 0zm0 11.46875l0 -9.671875l1.640625 0l0 9.671875l-1.640625 0zm4.1448364 0l0 -9.671875l1.46875 0l0 1.375q1.0625 -1.59375 3.078125 -1.59375q0.875 0 1.609375 0.3125q0.734375 0.3125 1.09375 0.828125q0.375 0.5 0.515625 1.203125q0.09375 0.453125 0.09375 1.59375l0 5.953125l-1.640625 0l0 -5.890625q0 -1.0 -0.203125 -1.484375q-0.1875 -0.5 -0.671875 -0.796875q-0.484375 -0.296875 -1.140625 -0.296875q-1.046875 0 -1.8125 0.671875q-0.75 0.65625 -0.75 2.515625l0 5.28125l-1.640625 0zm19.137146 -1.46875l0.234375 1.453125q-0.6875 0.140625 -1.234375 0.140625q-0.890625 0 -1.390625 -0.28125q-0.484375 -0.28125 -0.6875 -0.734375q-0.203125 -0.46875 -0.203125 -1.9375l0 -5.578125l-1.203125 0l0 -1.265625l1.203125 0l0 -2.390625l1.625 -0.984375l0 3.375l1.65625 0l0 1.265625l-1.65625 0l0 5.671875q0 0.6875 0.078125 0.890625q0.09375 0.203125 0.28125 0.328125q0.203125 0.109375 0.578125 0.109375q0.265625 0 0.71875 -0.0625zm1.6051636 1.46875l0 -13.359375l1.640625 0l0 4.796875q1.140625 -1.328125 2.890625 -1.328125q1.078125 0 1.859375 0.421875q0.796875 0.421875 1.140625 1.171875q0.34375 0.75 0.34375 2.171875l0 6.125l-1.640625 0l0 -6.125q0 -1.234375 -0.53125 -1.796875q-0.53125 -0.5625 -1.515625 -0.5625q-0.71875 0 -1.359375 0.390625q-0.640625 0.375 -0.921875 1.015625q-0.265625 0.640625 -0.265625 1.78125l0 5.296875l-1.640625 0zm17.000732 -3.109375l1.6875 0.203125q-0.40625 1.484375 -1.484375 2.3125q-1.078125 0.8125 -2.765625 0.8125q-2.125 0 -3.375 -1.296875q-1.234375 -1.3125 -1.234375 -3.671875q0 -2.453125 1.25 -3.796875q1.265625 -1.34375 3.265625 -1.34375q1.9375 0 3.15625 1.328125q1.234375 1.3125 1.234375 3.703125q0 0.15625 0 0.4375l-7.21875 0q0.09375 1.59375 0.90625 2.453125q0.8125 0.84375 2.015625 0.84375q0.90625 0 1.546875 -0.46875q0.640625 -0.484375 1.015625 -1.515625zm-5.390625 -2.65625l5.40625 0q-0.109375 -1.21875 -0.625 -1.828125q-0.78125 -0.953125 -2.03125 -0.953125q-1.125 0 -1.90625 0.765625q-0.765625 0.75 -0.84375 2.015625z" fill-rule="nonzero"/><path fill="#000000" d="m607.3647 402.6208l-2.96875 -9.671875l1.703125 0l1.53125 5.578125l0.578125 2.078125q0.046875 -0.15625 0.5 -2.0l1.546875 -5.65625l1.6875 0l1.4375 5.609375l0.484375 1.84375l0.5625 -1.859375l1.65625 -5.59375l1.59375 0l-3.03125 9.671875l-1.703125 0l-1.53125 -5.796875l-0.375 -1.640625l-1.953125 7.4375l-1.71875 0zm11.082336 -4.84375q0 -2.6875 1.484375 -3.96875q1.25 -1.078125 3.046875 -1.078125q2.0 0 3.265625 1.3125q1.265625 1.296875 1.265625 3.609375q0 1.859375 -0.5625 2.9375q-0.5625 1.0625 -1.640625 1.65625q-1.0625 0.59375 -2.328125 0.59375q-2.03125 0 -3.28125 -1.296875q-1.25 -1.3125 -1.25 -3.765625zm1.6875 0q0 1.859375 0.796875 2.796875q0.8125 0.921875 2.046875 0.921875q1.21875 0 2.03125 -0.921875q0.8125 -0.9375 0.8125 -2.84375q0 -1.796875 -0.8125 -2.71875q-0.8125 -0.921875 -2.03125 -0.921875q-1.234375 0 -2.046875 0.921875q-0.796875 0.90625 -0.796875 2.765625zm9.281982 4.84375l0 -9.671875l1.46875 0l0 1.46875q0.5625 -1.03125 1.03125 -1.359375q0.484375 -0.328125 1.0625 -0.328125q0.828125 0 1.6875 0.53125l-0.5625 1.515625q-0.609375 -0.359375 -1.203125 -0.359375q-0.546875 0 -0.96875 0.328125q-0.421875 0.328125 -0.609375 0.890625q-0.28125 0.875 -0.28125 1.921875l0 5.0625l-1.625 0zm6.1813965 0l0 -13.359375l1.640625 0l0 13.359375l-1.640625 0zm10.457336 0l0 -1.21875q-0.90625 1.4375 -2.703125 1.4375q-1.15625 0 -2.125 -0.640625q-0.96875 -0.640625 -1.5 -1.78125q-0.53125 -1.140625 -0.53125 -2.625q0 -1.453125 0.484375 -2.625q0.484375 -1.1875 1.4375 -1.8125q0.96875 -0.625 2.171875 -0.625q0.875 0 1.546875 0.375q0.6875 0.359375 1.109375 0.953125l0 -4.796875l1.640625 0l0 13.359375l-1.53125 0zm-5.171875 -4.828125q0 1.859375 0.78125 2.78125q0.78125 0.921875 1.84375 0.921875q1.078125 0 1.828125 -0.875q0.75 -0.890625 0.75 -2.6875q0 -1.984375 -0.765625 -2.90625q-0.765625 -0.9375 -1.890625 -0.9375q-1.078125 0 -1.8125 0.890625q-0.734375 0.890625 -0.734375 2.8125z" fill-rule="nonzero"/></g></svg>