<?xml version="1.0" encoding="UTF-8" standalone="no"?>
<svg
   xmlns:dc="http://purl.org/dc/elements/1.1/"
   xmlns:cc="http://creativecommons.org/ns#"
   xmlns:rdf="http://www.w3.org/1999/02/22-rdf-syntax-ns#"
   xmlns:svg="http://www.w3.org/2000/svg"
   xmlns="http://www.w3.org/2000/svg"
   xmlns:sodipodi="http://sodipodi.sourceforge.net/DTD/sodipodi-0.dtd"
   xmlns:inkscape="http://www.inkscape.org/namespaces/inkscape"
   version="1.1"
   viewBox="0.0 0.0 960.0 540.0"
   fill="none"
   stroke="none"
   stroke-linecap="square"
   stroke-miterlimit="10"
   id="svg115"
   sodipodi:docname="functor-diagrams.svg"
   inkscape:version="0.92.2 (5c3e80d, 2017-08-06)">
  <metadata
     id="metadata121">
    <rdf:RDF>
      <cc:Work
         rdf:about="">
        <dc:format>image/svg+xml</dc:format>
        <dc:type
           rdf:resource="http://purl.org/dc/dcmitype/StillImage" />
        <dc:title></dc:title>
      </cc:Work>
    </rdf:RDF>
  </metadata>
  <defs
     id="defs119" />
  <sodipodi:namedview
     pagecolor="#ffffff"
     bordercolor="#666666"
     borderopacity="1"
     objecttolerance="10"
     gridtolerance="10"
     guidetolerance="10"
     inkscape:pageopacity="0"
     inkscape:pageshadow="2"
     inkscape:window-width="1920"
     inkscape:window-height="1016"
     id="namedview117"
     showgrid="false"
     inkscape:zoom="0.87407407"
     inkscape:cx="430.05657"
     inkscape:cy="422.51426"
     inkscape:window-x="0"
     inkscape:window-y="27"
     inkscape:window-maximized="1"
     inkscape:current-layer="g113" />
  <clipPath
     id="g36021e5f57_2_37.0">
    <path
       d="m0 0l960.0 0l0 540.0l-960.0 0l0 -540.0z"
       clip-rule="nonzero"
       id="path2" />
  </clipPath>
  <g
     clip-path="url(#g36021e5f57_2_37.0)"
     id="g113">
    <path
       d="M -0.00262467,539.82681 H 960.12338 V -49.344038 H -0.00262467 Z"
       id="path13"
       inkscape:connector-curvature="0"
       style="fill:#fff2e9;fill-rule:evenodd;stroke-width:1" />
    <path
       fill="#ffffff"
       d="m423.85736 510.53928q0.125 -0.828125 0.140625 -1.375q0 -0.546875 -0.078125 -0.859375q-0.078125 -0.3125 -0.265625 -0.4375q-0.1875 -0.125 -0.453125 -0.125q-0.375 0 -0.6875 0.375q-0.328125 0.390625 -0.578125 1.1875q-0.265625 0.796875 -0.40625 2.015625q-0.15625 1.2343445 -0.15625 2.9062195q0 1.875 0.234375 3.34375q0.234375 1.484375 0.75 2.5q0.5 1.03125 1.3125 1.5625q0.8125 0.546875 1.96875 0.546875q0.890625 0 1.71875 -0.453125q0.828125 -0.4375 1.546875 -1.25q0.703125 -0.8125 1.28125 -1.953125q0.578125 -1.140625 0.984375 -2.53125q0.40625 -1.375 0.640625 -2.96875q0.21875 -1.5780945 0.21875 -3.2968445q0 -4.1875 -1.25 -6.25q-1.265625 -2.0625 -3.5625 -2.0625q-1.15625 0 -2.15625 0.265625q-1.0 0.265625 -2.078125 0.796875l0 -1.671875q1.0625 -0.5 2.140625 -0.75q1.0625 -0.25 2.21875 -0.25q3.328125 0 4.921875 2.5q1.59375 2.484375 1.625 7.40625q0.015625 1.953125 -0.25 3.7499695q-0.28125 1.8125 -0.796875 3.375q-0.515625 1.5625 -1.25 2.84375q-0.734375 1.28125 -1.671875 2.1875q-0.9375 0.90625 -2.015625 1.40625q-1.09375 0.5 -2.34375 0.5q-1.546875 0 -2.6875 -0.640625q-1.140625 -0.625 -1.875 -1.8125q-0.734375 -1.1875 -1.09375 -2.921875q-0.359375 -1.734375 -0.359375 -3.9375q0.015625 -2.25 0.296875 -3.8437195q0.265625 -1.59375 0.78125 -2.609375q0.5 -1.015625 1.234375 -1.5q0.71875 -0.46875 1.59375 -0.46875q1.015625 0 1.515625 0.515625q0.5 0.53125 0.5 1.421875q0.484375 -1.0 1.0625 -1.46875q0.578125 -0.46875 1.375 -0.46875q1.234375 0 1.84375 0.921875q0.609375 0.921875 0.609375 2.90625q0 0.703125 -0.078125 1.515625q-0.09375 0.8280945 -0.296875 1.6562195q-0.203125 0.828125 -0.515625 1.59375q-0.328125 0.765625 -0.796875 1.34375q-0.484375 0.578125 -1.125 0.921875q-0.65625 0.359375 -1.5 0.359375q-0.484375 0 -0.90625 -0.125q-0.4375 -0.109375 -0.640625 -0.234375l-1.671875 0.40625l1.03125 -6.7655945zm1.328125 4.6249695q0.125 0.15625 0.375 0.28125q0.234375 0.125 0.59375 0.125q0.390625 0 0.703125 -0.28125q0.3125 -0.265625 0.5625 -0.71875q0.234375 -0.453125 0.390625 -1.03125q0.15625 -0.578125 0.28125 -1.1875q0.109375 -0.6093445 0.15625 -1.2030945q0.03125 -0.59375 0.03125 -1.0625q0 -1.25 -0.15625 -1.796875q-0.15625 -0.546875 -0.59375 -0.546875q-0.15625 0 -0.3125 0.0625q-0.15625 0.0625 -0.328125 0.25q-0.171875 0.1875 -0.375 0.53125q-0.21875 0.34375 -0.46875 0.890625l-0.859375 5.6874695zm-16.312012 -9.9374695l0.0625 1.75q1.0625 -1.046875 2.171875 -1.515625q1.09375 -0.46875 2.296875 -0.46875q1.125 0 1.921875 0.28125q0.796875 0.296875 1.3125 0.796875q0.5 0.5 0.75 1.171875q0.234375 0.671875 0.234375 1.46875q0 1.96875 -1.453125 3.078125q-1.46875 1.1093445 -4.328125 1.1093445l-2.71875 0l0 1.15625q0 1.15625 0.75 1.84375q0.734375 0.703125 2.265625 0.703125q1.09375 0 2.171875 -0.25q1.078125 -0.25 2.21875 -0.703125l0 2.046875q-0.421875 0.15625 -0.953125 0.296875q-0.53125 0.15625 -1.109375 0.265625q-0.59375 0.125 -1.21875 0.1875q-0.640625 0.078125 -1.296875 0.078125q-1.1875 0 -2.125 -0.265625q-0.953125 -0.25 -1.609375 -0.78125q-0.671875 -0.53125 -1.015625 -1.34375q-0.359375 -0.8125 -0.359375 -1.90625l0 -8.9999695l2.03125 0zm0.25 5.953125l2.875 0q0.84375 0 1.46875 -0.171875q0.609375 -0.171875 1.0 -0.484375q0.390625 -0.3125 0.578125 -0.75q0.1875 -0.4375 0.1875 -0.984375q0 -0.375 -0.109375 -0.71875q-0.125 -0.34375 -0.375 -0.609375q-0.265625 -0.265625 -0.6875 -0.421875q-0.421875 -0.15625 -1.015625 -0.15625q-0.78125 0 -1.78125 0.46875q-1.015625 0.484375 -2.140625 1.5l0 2.328125zm-7.0307007 7.1093445l-2.078125 0l-0.0625 -2.40625q-1.15625 1.390625 -2.28125 2.015625q-1.125 0.625 -2.28125 0.625q-2.03125 0 -3.078125 -1.3125q-1.046875 -1.3125 -0.96875 -3.90625l2.296875 0q-0.046875 1.71875 0.5 2.484375q0.546875 0.78125 1.578125 0.78125q0.453125 0 0.921875 -0.15625q0.46875 -0.15625 0.953125 -0.515625q0.484375 -0.359375 1.03125 -0.921875q0.546875 -0.5625 1.171875 -1.359375l0 -8.3905945l2.296875 0l0 13.0624695zm-23.546326 -1.84375q-0.359375 -0.453125 -0.5625 -1.0625q-0.203125 -0.609375 -0.203125 -1.3125q0 -1.015625 0.375 -1.859375q0.375 -0.8280945 1.046875 -1.4374695q0.671875 -0.59375 1.625 -0.921875q0.9375 -0.328125 2.078125 -0.328125q0.8125 0 1.53125 0.171875q0.71875 0.171875 1.125 0.4375q0.25 -0.359375 0.421875 -0.6875q0.171875 -0.328125 0.171875 -0.734375q0 -0.484375 -0.46875 -0.8125q-0.484375 -0.328125 -1.265625 -0.359375l-3.4375 -0.125q-0.96875 -0.03125 -1.796875 -0.25q-0.828125 -0.21875 -1.421875 -0.640625q-0.59375 -0.40625 -0.921875 -1.03125q-0.328125 -0.609375 -0.328125 -1.40625q0 -0.875 0.375 -1.65625q0.375 -0.78125 1.171875 -1.375q0.78125 -0.59375 2.0 -0.9375q1.203125 -0.359375 2.859375 -0.359375q1.59375 0 2.703125 0.265625q1.109375 0.25 1.828125 0.703125q0.71875 0.4375 1.046875 1.0625q0.328125 0.609375 0.328125 1.359375q0 0.953125 -0.4375 1.671875q-0.453125 0.703125 -1.375 1.375q0.34375 0.15625 0.59375 0.390625q0.234375 0.234375 0.390625 0.5q0.15625 0.28125 0.234375 0.59375q0.078125 0.3125 0.078125 0.625q0 0.84375 -0.390625 1.546875q-0.40625 0.703125 -0.953125 1.328125q0.25 0.296875 0.4375 0.578125q0.1875 0.28121948 0.328125 0.6093445q0.140625 0.34375 0.21875 0.71875q0.0625 0.390625 0.0625 0.890625q0 1.015625 -0.359375 1.84375q-0.375 0.84375 -1.046875 1.4375q-0.671875 0.609375 -1.609375 0.9375q-0.953125 0.328125 -2.09375 0.328125q-0.484375 0 -0.921875 -0.0625q-0.453125 -0.0625 -0.78125 -0.171875l-4.75 0l0 -1.84375l2.09375 0zm7.875 -13.1093445q0 -0.921875 -0.96875 -1.34375q-0.96875 -0.421875 -2.6875 -0.421875q-1.078125 0 -1.8125 0.203125q-0.734375 0.1875 -1.171875 0.515625q-0.453125 0.3125 -0.640625 0.71875q-0.203125 0.40625 -0.203125 0.84375q0 0.796875 0.65625 1.171875q0.640625 0.375 1.984375 0.4375l3.40625 0.109375q0.421875 -0.28125 0.703125 -0.546875q0.28125 -0.28125 0.4375 -0.5625q0.15625 -0.28125 0.234375 -0.546875q0.0625 -0.28125 0.0625 -0.578125zm-0.703125 10.6874695q0 -0.625 -0.203125 -1.15625q-0.203125 -0.515625 -0.578125 -0.8749695q-0.390625 -0.359375 -0.890625 -0.5625q-0.515625 -0.203125 -1.140625 -0.203125q-0.6875 0 -1.203125 0.21875q-0.53125 0.234375 -0.890625 0.6249695q-0.359375 0.390625 -0.546875 0.890625q-0.1875 0.515625 -0.1875 1.0625q0 0.625 0.21875 1.140625q0.203125 0.53125 0.578125 0.890625q0.375 0.359375 0.890625 0.5625q0.515625 0.203125 1.140625 0.203125q0.671875 0 1.203125 -0.234375q0.515625 -0.234375 0.875 -0.625q0.359375 -0.375 0.546875 -0.890625q0.1875 -0.5 0.1875 -1.046875zm-22.921387 -8.7968445l2.03125 0l0.078125 2.109375q0.59375 -0.671875 1.125 -1.125q0.515625 -0.453125 1.046875 -0.734375q0.515625 -0.265625 1.046875 -0.375q0.53125 -0.109375 1.109375 -0.109375q2.015625 0 3.046875 1.1875q1.03125 1.1875 1.03125 3.578125l0 8.5312195l-2.265625 0l0 -8.3437195q0 -3.015625 -2.265625 -3.015625q-0.421875 0 -0.8125 0.125q-0.40625 0.125 -0.828125 0.421875q-0.4375 0.3125 -0.9375 0.828125q-0.515625 0.53125 -1.140625 1.328125l0 8.6562195l-2.265625 0l0 -13.0624695zm-13.468262 0l0 9.3905945q0 0.609375 0.046875 1.0q0.046875 0.390625 0.15625 0.609375q0.09375 0.234375 0.25 0.328125q0.140625 0.09375 0.359375 0.09375q0.265625 0 0.484375 -0.15625q0.21875 -0.15625 0.46875 -0.515625q0.25 -0.34375 0.5625 -0.9375q0.3125 -0.578125 0.71875 -1.421875l0 -8.3905945l2.078125 0l0 9.1405945q0 0.71875 0.046875 1.15625q0.03125 0.4375 0.140625 0.6875q0.09375 0.25 0.25 0.34375q0.15625 0.09375 0.375 0.09375q0.234375 0 0.453125 -0.140625q0.203125 -0.125 0.453125 -0.46875q0.25 -0.328125 0.5625 -0.921875q0.3125 -0.578125 0.75 -1.5l0 -8.3905945l2.078125 0l0 13.0624695l-1.734375 0l-0.09375 -2.484375q-0.34375 0.75 -0.65625 1.265625q-0.328125 0.515625 -0.65625 0.828125q-0.34375 0.328125 -0.71875 0.46875q-0.390625 0.15625 -0.859375 0.15625q-1.0625 0 -1.609375 -0.6875q-0.546875 -0.6875 -0.546875 -2.125q-0.3125 0.671875 -0.609375 1.1875q-0.296875 0.53125 -0.640625 0.890625q-0.34375 0.359375 -0.765625 0.546875q-0.421875 0.1875 -0.96875 0.1875q-2.453125 0 -2.453125 -3.78125l0 -9.5155945l2.078125 0zm-13.733826 0l0.0625 1.75q1.0625 -1.046875 2.171875 -1.515625q1.09375 -0.46875 2.296875 -0.46875q1.125 0 1.921875 0.28125q0.796875 0.296875 1.3125 0.796875q0.5 0.5 0.75 1.171875q0.234375 0.671875 0.234375 1.46875q0 1.96875 -1.453125 3.078125q-1.46875 1.1093445 -4.328125 1.1093445l-2.71875 0l0 1.15625q0 1.15625 0.75 1.84375q0.734375 0.703125 2.265625 0.703125q1.09375 0 2.171875 -0.25q1.078125 -0.25 2.21875 -0.703125l0 2.046875q-0.421875 0.15625 -0.953125 0.296875q-0.53125 0.15625 -1.109375 0.265625q-0.59375 0.125 -1.21875 0.1875q-0.640625 0.078125 -1.296875 0.078125q-1.1875 0 -2.125 -0.265625q-0.953125 -0.25 -1.609375 -0.78125q-0.671875 -0.53125 -1.015625 -1.34375q-0.359375 -0.8125 -0.359375 -1.90625l0 -8.9999695l2.03125 0zm0.25 5.953125l2.875 0q0.84375 0 1.46875 -0.171875q0.609375 -0.171875 1.0 -0.484375q0.390625 -0.3125 0.578125 -0.75q0.1875 -0.4375 0.1875 -0.984375q0 -0.375 -0.109375 -0.71875q-0.125 -0.34375 -0.375 -0.609375q-0.265625 -0.265625 -0.6875 -0.421875q-0.421875 -0.15625 -1.015625 -0.15625q-0.78125 0 -1.78125 0.46875q-1.015625 0.484375 -2.140625 1.5l0 2.328125zm-17.0307 -5.765625q0.765625 -0.203125 1.59375 -0.28125q0.8125 -0.09375 1.65625 -0.09375q2.46875 0 3.671875 1.109375q1.203125 1.125 1.203125 3.421875l0 6.8280945l3.671875 0l0 1.890625l-3.671875 0l0 3.59375l-2.25 0.59375l0 -4.1875l-5.875 0l0 -1.890625l5.875 0l0 -6.6405945q0 -1.40625 -0.75 -2.109375q-0.75 -0.6875 -2.21875 -0.6875q-0.625 0 -1.359375 0.09375q-0.75 0.09375 -1.546875 0.3125l0 -1.953125zm-4.6557617 12.8749695l-2.078125 0l-0.0625 -2.40625q-1.15625 1.390625 -2.28125 2.015625q-1.125 0.625 -2.28125 0.625q-2.03125 0 -3.078125 -1.3125q-1.046875 -1.3125 -0.96875 -3.90625l2.296875 0q-0.046875 1.71875 0.5 2.484375q0.546875 0.78125 1.578125 0.78125q0.453125 0 0.921875 -0.15625q0.46875 -0.15625 0.953125 -0.515625q0.484375 -0.359375 1.03125 -0.921875q0.546875 -0.5625 1.171875 -1.359375l0 -8.3905945l2.296875 0l0 13.0624695zm-25.499512 -6.4218445q0 -1.53125 0.4375 -2.796875q0.421875 -1.265625 1.234375 -2.171875q0.796875 -0.90625 1.953125 -1.40625q1.15625 -0.5 2.625 -0.5q1.40625 0 2.53125 0.4375q1.109375 0.4375 1.890625 1.28125q0.765625 0.84375 1.171875 2.09375q0.40625 1.25 0.40625 2.875q0 1.5312195 -0.421875 2.7812195q-0.4375 1.25 -1.234375 2.15625q-0.8125 0.90625 -1.96875 1.40625q-1.15625 0.5 -2.625 0.5q-1.40625 0 -2.515625 -0.4375q-1.125 -0.421875 -1.890625 -1.265625q-0.78125 -0.84375 -1.1875 -2.09375q-0.40625 -1.25 -0.40625 -2.8593445zm2.3125 -0.109375q0 1.2187195 0.265625 2.1093445q0.265625 0.90625 0.765625 1.515625q0.484375 0.609375 1.203125 0.90625q0.703125 0.3125 1.578125 0.3125q1.015625 0 1.734375 -0.40625q0.71875 -0.390625 1.1875 -1.0625q0.46875 -0.65625 0.6875 -1.53125q0.203125 -0.875 0.203125 -1.8437195q0 -1.203125 -0.265625 -2.125q-0.265625 -0.90625 -0.75 -1.515625q-0.5 -0.59375 -1.203125 -0.90625q-0.703125 -0.3125 -1.59375 -0.3125q-1.015625 0 -1.734375 0.390625q-0.71875 0.40625 -1.1875 1.0625q-0.46875 0.671875 -0.671875 1.546875q-0.21875 0.890625 -0.21875 1.859375zm-5.5932007 6.5312195l-2.015625 0l-0.09375 -2.109375q-0.578125 0.6875 -1.109375 1.125q-0.53125 0.453125 -1.046875 0.71875q-0.515625 0.28125 -1.046875 0.390625q-0.53125 0.109375 -1.109375 0.109375q-2.015625 0 -3.046875 -1.1875q-1.046875 -1.1875 -1.046875 -3.578125l0 -8.5312195l2.265625 0l0 8.3437195q0 1.53125 0.578125 2.265625q0.578125 0.734375 1.703125 0.734375q0.421875 0 0.828125 -0.125q0.390625 -0.109375 0.828125 -0.421875q0.421875 -0.3125 0.921875 -0.828125q0.5 -0.515625 1.125 -1.296875l0 -8.6718445l2.265625 0l0 13.0624695zm-19.108826 -1.875l3.859375 0l0 1.875l-6.15625 0l0 -11.1718445l-3.890625 0l0 -1.890625l10.484375 0l0 1.890625l-4.296875 0l0 9.2968445zm-0.796875 7.359375q-0.375 0 -0.703125 -0.140625q-0.328125 -0.125 -0.5625 -0.375q-0.25 -0.25 -0.375 -0.578125q-0.140625 -0.3125 -0.140625 -0.6875q0 -0.359375 0.140625 -0.6875q0.125 -0.328125 0.375 -0.578125q0.234375 -0.25 0.5625 -0.390625q0.328125 -0.125 0.703125 -0.125q0.375 0 0.703125 0.125q0.328125 0.140625 0.578125 0.390625q0.234375 0.25 0.375 0.578125q0.125 0.328125 0.125 0.6875q0 0.375 -0.125 0.6875q-0.140625 0.328125 -0.375 0.578125q-0.25 0.25 -0.578125 0.375q-0.328125 0.140625 -0.703125 0.140625zm-19.562012 -18.06247q0.890625 -0.34375 1.828125 -0.5q0.921875 -0.171875 1.90625 -0.171875q3.09375 0 4.765625 1.671875q1.671875 1.6875 1.671875 4.921875q0 1.5468445 -0.46875 2.8124695q-0.484375 1.265625 -1.359375 2.15625q-0.875 0.90625 -2.078125 1.390625q-1.21875 0.484375 -2.671875 0.484375q-1.015625 0 -1.890625 -0.140625q-0.890625 -0.140625 -1.703125 -0.46875l0 -2.15625q0.84375 0.4375 1.734375 0.640625q0.875 0.203125 1.8125 0.203125q0.859375 0 1.640625 -0.34375q0.765625 -0.328125 1.359375 -0.953125q0.578125 -0.625 0.921875 -1.53125q0.34375 -0.890625 0.34375 -2.0155945q0 -2.375 -1.15625 -3.5625q-1.15625 -1.171875 -3.1875 -1.171875q-0.9375 0 -1.796875 0.203125q-0.859375 0.21875 -1.671875 0.640625l0 -2.109375zm-71.20056 4.828125q0.125 -0.828125 0.140625 -1.375q0 -0.546875 -0.078125 -0.859375q-0.078125 -0.3125 -0.265625 -0.4375q-0.1875 -0.125 -0.453125 -0.125q-0.375 0 -0.6875 0.375q-0.328125 0.390625 -0.578125 1.1875q-0.265625 0.796875 -0.40625 2.015625q-0.15625 1.2343445 -0.15625 2.9062195q0 1.875 0.234375 3.34375q0.234375 1.484375 0.75 2.5q0.5 1.03125 1.3125 1.5625q0.8125 0.546875 1.96875 0.546875q0.890625 0 1.71875 -0.453125q0.828125 -0.4375 1.546875 -1.25q0.703125 -0.8125 1.28125 -1.953125q0.578125 -1.140625 0.984375 -2.53125q0.40625 -1.375 0.640625 -2.96875q0.21875 -1.5780945 0.21875 -3.2968445q0 -4.1875 -1.25 -6.25q-1.265625 -2.0625 -3.5625 -2.0625q-1.15625 0 -2.15625 0.265625q-1.0 0.265625 -2.078125 0.796875l0 -1.671875q1.0625 -0.5 2.140625 -0.75q1.0625 -0.25 2.21875 -0.25q3.328125 0 4.921875 2.5q1.59375 2.484375 1.625 7.40625q0.015625 1.953125 -0.25 3.7499695q-0.28125 1.8125 -0.796875 3.375q-0.515625 1.5625 -1.25 2.84375q-0.734375 1.28125 -1.671875 2.1875q-0.9375 0.90625 -2.015625 1.40625q-1.09375 0.5 -2.34375 0.5q-1.546875 0 -2.6875 -0.640625q-1.140625 -0.625 -1.875 -1.8125q-0.734375 -1.1875 -1.09375 -2.921875q-0.359375 -1.734375 -0.359375 -3.9375q0.015625 -2.25 0.296875 -3.8437195q0.265625 -1.59375 0.78125 -2.609375q0.5 -1.015625 1.234375 -1.5q0.71875 -0.46875 1.59375 -0.46875q1.015625 0 1.515625 0.515625q0.5 0.53125 0.5 1.421875q0.484375 -1.0 1.0625 -1.46875q0.578125 -0.46875 1.375 -0.46875q1.234375 0 1.84375 0.921875q0.609375 0.921875 0.609375 2.90625q0 0.703125 -0.078125 1.515625q-0.09375 0.8280945 -0.296875 1.6562195q-0.203125 0.828125 -0.515625 1.59375q-0.328125 0.765625 -0.796875 1.34375q-0.484375 0.578125 -1.125 0.921875q-0.65625 0.359375 -1.5 0.359375q-0.484375 0 -0.90625 -0.125q-0.4375 -0.109375 -0.640625 -0.234375l-1.671875 0.40625l1.03125 -6.7655945zm1.328125 4.6249695q0.125 0.15625 0.375 0.28125q0.234375 0.125 0.59375 0.125q0.390625 0 0.703125 -0.28125q0.3125 -0.265625 0.5625 -0.71875q0.234375 -0.453125 0.390625 -1.03125q0.15625 -0.578125 0.28125 -1.1875q0.109375 -0.6093445 0.15625 -1.2030945q0.03125 -0.59375 0.03125 -1.0625q0 -1.25 -0.15625 -1.796875q-0.15625 -0.546875 -0.59375 -0.546875q-0.15625 0 -0.3125 0.0625q-0.15625 0.0625 -0.328125 0.25q-0.171875 0.1875 -0.375 0.53125q-0.21875 0.34375 -0.46875 0.890625l-0.859375 5.6874695zm-18.43695 -9.7499695q0.765625 -0.203125 1.59375 -0.28125q0.8125 -0.09375 1.65625 -0.09375q2.46875 0 3.671875 1.109375q1.203125 1.125 1.203125 3.421875l0 6.8280945l3.671875 0l0 1.890625l-3.671875 0l0 3.59375l-2.25 0.59375l0 -4.1875l-5.875 0l0 -1.890625l5.875 0l0 -6.6405945q0 -1.40625 -0.75 -2.109375q-0.75 -0.6875 -2.21875 -0.6875q-0.625 0 -1.359375 0.09375q-0.75 0.09375 -1.546875 0.3125l0 -1.953125zm-15.749451 12.8749695l4.453125 -11.6874695q0.6875 -1.78125 1.421875 -3.0625q0.734375 -1.296875 1.609375 -2.125q0.875 -0.828125 1.921875 -1.21875q1.03125 -0.390625 2.3125 -0.390625q0.34375 0 0.625 0.015625q0.265625 0.015625 0.59375 0.046875l0 2.046875q-0.28125 -0.03125 -0.625 -0.0625q-0.34375 -0.03125 -0.71875 -0.03125q-0.625 0 -1.15625 0.1875q-0.546875 0.171875 -1.03125 0.59375q-0.484375 0.40625 -0.921875 1.0625q-0.4375 0.640625 -0.859375 1.5625l5.21875 13.0624695l-2.578125 0l-3.296875 -8.6405945l-0.671875 -2.03125l-0.75 2.09375l-3.0625 8.5780945l-2.484375 0zm-14.202629 -6.2968445q0 -1.734375 0.48436737 -3.046875q0.484375 -1.296875 1.34375 -2.15625q0.859375 -0.859375 2.03125 -1.296875q1.171875 -0.421875 2.546875 -0.421875q0.625 0 1.25 0.0625q0.609375 0.0625 1.25 0.21875l0 -5.46875l2.265625 0l0 18.40622l-2.015625 0l-0.15625 -2.1875q-0.96875 1.34375 -2.078125 1.875q-1.109375 0.546875 -2.390625 0.546875q-1.125 0 -1.96875 -0.46875q-0.84375 -0.46875 -1.40625 -1.328125q-0.578125 -0.84375 -0.8593674 -2.046875q-0.296875 -1.203125 -0.296875 -2.6874695zm2.3124924 -0.09375q0 1.0155945 0.15625 1.8749695q0.140625 0.859375 0.46875 1.46875q0.328125 0.625 0.84375 0.96875q0.5 0.34375 1.203125 0.34375q0.4375 0 0.875 -0.140625q0.4375 -0.140625 0.921875 -0.46875q0.46875 -0.3125 1.0 -0.84375q0.515625 -0.515625 1.125 -1.296875l0 -6.3437195q-0.625 -0.25 -1.3125 -0.40625q-0.703125 -0.15625 -1.359375 -0.15625q-1.828125 0 -2.875 1.25q-1.046875 1.25 -1.046875 3.75zm-16.843254 0.5468445q0 -0.48434448 0.015625 -0.8124695q0.015625 -0.3125 0.046875 -0.59375l9.171875 0q0 -2.015625 -1.109375 -3.09375q-1.125 -1.0625 -3.234375 -1.0625q-0.578125 0 -1.140625 0.046875q-0.578125 0.046875 -1.109375 0.125q-0.546875 0.078125 -1.03125 0.171875q-0.484375 0.09375 -0.90625 0.21875l0 -1.875q0.921875 -0.25 2.09375 -0.40625q1.171875 -0.171875 2.421875 -0.171875q1.671875 0 2.890625 0.453125q1.203125 0.453125 1.984375 1.3125q0.765625 0.875 1.140625 2.125q0.375 1.265625 0.375 2.859375q0 1.3749695 -0.390625 2.5937195q-0.40625 1.234375 -1.171875 2.15625q-0.765625 0.9375 -1.859375 1.484375q-1.109375 0.546875 -2.515625 0.546875q-1.375 0 -2.421875 -0.4375q-1.0625 -0.421875 -1.78125 -1.203125q-0.71875 -0.78125 -1.09375 -1.921875q-0.375 -1.125 -0.375 -2.515625zm2.359375 0.328125q-0.03125 0.875 0.171875 1.59375q0.203125 0.71875 0.640625 1.234375q0.4375 0.53125 1.09375 0.828125q0.640625 0.296875 1.5 0.296875q0.75 0 1.359375 -0.296875q0.609375 -0.28125 1.0625 -0.8125q0.4375 -0.515625 0.71875 -1.25q0.265625 -0.71875 0.328125 -1.59375l-6.875 0zm-16.12445 -7.0624695q0.890625 -0.34375 1.828125 -0.5q0.921875 -0.171875 1.90625 -0.171875q3.09375 0 4.765625 1.671875q1.671875 1.6875 1.671875 4.921875q0 1.5468445 -0.46875 2.8124695q-0.484375 1.265625 -1.359375 2.15625q-0.875 0.90625 -2.078125 1.390625q-1.21875 0.484375 -2.671875 0.484375q-1.015625 0 -1.890625 -0.140625q-0.890625 -0.140625 -1.703125 -0.46875l0 -2.15625q0.84375 0.4375 1.734375 0.640625q0.875 0.203125 1.8125 0.203125q0.859375 0 1.640625 -0.34375q0.765625 -0.328125 1.359375 -0.953125q0.578125 -0.625 0.921875 -1.53125q0.34375 -0.890625 0.34375 -2.0155945q0 -2.375 -1.15625 -3.5625q-1.15625 -1.171875 -3.1875 -1.171875q-0.9375 0 -1.796875 0.203125q-0.859375 0.21875 -1.671875 0.640625l0 -2.109375zm-8.952576 16.046844l3.859375 0l0 1.859375l-6.15625 0l0 -16.49997l-3.890625 0l0 -1.890625l10.484375 0l0 1.890625l-4.296875 0l0 14.6405945zm-18.608887 -16.53122l0.0625 1.75q1.0625 -1.046875 2.171875 -1.515625q1.09375 -0.46875 2.296875 -0.46875q1.125 0 1.921875 0.28125q0.796875 0.296875 1.3125 0.796875q0.5 0.5 0.75 1.171875q0.234375 0.671875 0.234375 1.46875q0 1.96875 -1.453125 3.078125q-1.46875 1.1093445 -4.328125 1.1093445l-2.71875 0l0 1.15625q0 1.15625 0.75 1.84375q0.734375 0.703125 2.265625 0.703125q1.09375 0 2.171875 -0.25q1.078125 -0.25 2.21875 -0.703125l0 2.046875q-0.421875 0.15625 -0.953125 0.296875q-0.53125 0.15625 -1.109375 0.265625q-0.59375 0.125 -1.21875 0.1875q-0.640625 0.078125 -1.296875 0.078125q-1.1875 0 -2.125 -0.265625q-0.953125 -0.25 -1.609375 -0.78125q-0.671875 -0.53125 -1.015625 -1.34375q-0.359375 -0.8125 -0.359375 -1.90625l0 -8.9999695l2.03125 0zm0.25 5.953125l2.875 0q0.84375 0 1.46875 -0.171875q0.609375 -0.171875 1.0 -0.484375q0.390625 -0.3125 0.578125 -0.75q0.1875 -0.4375 0.1875 -0.984375q0 -0.375 -0.109375 -0.71875q-0.125 -0.34375 -0.375 -0.609375q-0.265625 -0.265625 -0.6875 -0.421875q-0.421875 -0.15625 -1.015625 -0.15625q-0.78125 0 -1.78125 0.46875q-1.015625 0.484375 -2.140625 1.5l0 2.328125zm-16.858887 -2.390625q0 -0.6875 0.234375 -1.234375q0.234375 -0.546875 0.640625 -0.96875q0.40625 -0.421875 0.9375 -0.71875q0.53125 -0.296875 1.140625 -0.5q0.609375 -0.1875 1.25 -0.28125q0.640625 -0.09375 1.25 -0.09375q1.328125 0 2.4375 0.125q1.109375 0.109375 2.171875 0.375l0 2.078125q-1.140625 -0.328125 -2.265625 -0.5q-1.140625 -0.171875 -2.25 -0.171875q-1.640625 0 -2.421875 0.4375q-0.78125 0.453125 -0.78125 1.28125q0 0.34375 0.125 0.625q0.125 0.28125 0.453125 0.53125q0.328125 0.25 1.015625 0.515625q0.671875 0.28125 1.859375 0.640625q0.890625 0.265625 1.640625 0.59375q0.75 0.328125 1.296875 0.7812195q0.546875 0.453125 0.859375 1.0625q0.3125 0.625 0.3125 1.453125q0 0.546875 -0.25 1.1875q-0.265625 0.65625 -0.875 1.21875q-0.609375 0.5625 -1.65625 0.921875q-1.046875 0.375 -2.59375 0.375q-0.78125 0 -1.71875 -0.078125q-0.9375 -0.078125 -1.953125 -0.296875l0 -2.015625q1.078125 0.265625 2.03125 0.390625q0.953125 0.125 1.65625 0.125q0.84375 0 1.421875 -0.140625q0.578125 -0.125 0.9375 -0.359375q0.359375 -0.21875 0.515625 -0.53125q0.15625 -0.296875 0.15625 -0.65625q0 -0.34375 -0.125 -0.640625q-0.140625 -0.28125 -0.515625 -0.546875q-0.375 -0.265625 -1.03125 -0.53125q-0.671875 -0.265625 -1.734375 -0.578125q-1.15625 -0.34375 -1.953125 -0.7187195q-0.796875 -0.359375 -1.28125 -0.828125q-0.5 -0.453125 -0.71875 -1.03125q-0.21875 -0.5625 -0.21875 -1.296875zm-14.655701 0q0 -0.6875 0.234375 -1.234375q0.234375 -0.546875 0.640625 -0.96875q0.40625 -0.421875 0.9375 -0.71875q0.53125 -0.296875 1.140625 -0.5q0.609375 -0.1875 1.25 -0.28125q0.640625 -0.09375 1.25 -0.09375q1.328125 0 2.4375 0.125q1.109375 0.109375 2.171875 0.375l0 2.078125q-1.140625 -0.328125 -2.265625 -0.5q-1.140625 -0.171875 -2.25 -0.171875q-1.640625 0 -2.421875 0.4375q-0.78125 0.453125 -0.78125 1.28125q0 0.34375 0.125 0.625q0.125 0.28125 0.453125 0.53125q0.328125 0.25 1.015625 0.515625q0.671875 0.28125 1.859375 0.640625q0.890625 0.265625 1.640625 0.59375q0.75 0.328125 1.296875 0.7812195q0.546875 0.453125 0.859375 1.0625q0.3125 0.625 0.3125 1.453125q0 0.546875 -0.25 1.1875q-0.265625 0.65625 -0.875 1.21875q-0.609375 0.5625 -1.65625 0.921875q-1.046875 0.375 -2.59375 0.375q-0.78125 0 -1.71875 -0.078125q-0.9375 -0.078125 -1.953125 -0.296875l0 -2.015625q1.078125 0.265625 2.03125 0.390625q0.953125 0.125 1.65625 0.125q0.84375 0 1.421875 -0.140625q0.578125 -0.125 0.9375 -0.359375q0.359375 -0.21875 0.515625 -0.53125q0.15625 -0.296875 0.15625 -0.65625q0 -0.34375 -0.125 -0.640625q-0.140625 -0.28125 -0.515625 -0.546875q-0.375 -0.265625 -1.03125 -0.53125q-0.671875 -0.265625 -1.734375 -0.578125q-1.15625 -0.34375 -1.953125 -0.7187195q-0.796875 -0.359375 -1.28125 -0.828125q-0.5 -0.453125 -0.71875 -1.03125q-0.21875 -0.5625 -0.21875 -1.296875zm-15.343201 3.6562195q0 -0.48434448 0.015625 -0.8124695q0.015625 -0.3125 0.046875 -0.59375l9.171875 0q0 -2.015625 -1.109375 -3.09375q-1.125 -1.0625 -3.234375 -1.0625q-0.578125 0 -1.140625 0.046875q-0.578125 0.046875 -1.109375 0.125q-0.546875 0.078125 -1.03125 0.171875q-0.484375 0.09375 -0.90625 0.21875l0 -1.875q0.921875 -0.25 2.09375 -0.40625q1.171875 -0.171875 2.421875 -0.171875q1.671875 0 2.890625 0.453125q1.203125 0.453125 1.984375 1.3125q0.765625 0.875 1.140625 2.125q0.375 1.265625 0.375 2.859375q0 1.3749695 -0.390625 2.5937195q-0.40625 1.234375 -1.171875 2.15625q-0.765625 0.9375 -1.859375 1.484375q-1.109375 0.546875 -2.515625 0.546875q-1.375 0 -2.421875 -0.4375q-1.0625 -0.421875 -1.78125 -1.203125q-0.71875 -0.78125 -1.09375 -1.921875q-0.375 -1.125 -0.375 -2.515625zm2.359375 0.328125q-0.03125 0.875 0.171875 1.59375q0.203125 0.71875 0.640625 1.234375q0.4375 0.53125 1.09375 0.828125q0.640625 0.296875 1.5 0.296875q0.75 0 1.359375 -0.296875q0.609375 -0.28125 1.0625 -0.8125q0.4375 -0.515625 0.71875 -1.25q0.265625 -0.71875 0.328125 -1.59375l-6.875 0zm-16.327637 -3.9843445q0 -0.6875 0.234375 -1.234375q0.234375 -0.546875 0.640625 -0.96875q0.40625 -0.421875 0.9375 -0.71875q0.53125 -0.296875 1.140625 -0.5q0.609375 -0.1875 1.25 -0.28125q0.640625 -0.09375 1.25 -0.09375q1.328125 0 2.4375 0.125q1.109375 0.109375 2.171875 0.375l0 2.078125q-1.140625 -0.328125 -2.265625 -0.5q-1.140625 -0.171875 -2.25 -0.171875q-1.640625 0 -2.421875 0.4375q-0.78125 0.453125 -0.78125 1.28125q0 0.34375 0.125 0.625q0.125 0.28125 0.453125 0.53125q0.328125 0.25 1.015625 0.515625q0.671875 0.28125 1.859375 0.640625q0.890625 0.265625 1.640625 0.59375q0.75 0.328125 1.296875 0.7812195q0.546875 0.453125 0.859375 1.0625q0.3125 0.625 0.3125 1.453125q0 0.546875 -0.25 1.1875q-0.265625 0.65625 -0.875 1.21875q-0.609375 0.5625 -1.65625 0.921875q-1.046875 0.375 -2.59375 0.375q-0.78125 0 -1.71875 -0.078125q-0.9375 -0.078125 -1.953125 -0.296875l0 -2.015625q1.078125 0.265625 2.03125 0.390625q0.953125 0.125 1.65625 0.125q0.84375 0 1.421875 -0.140625q0.578125 -0.125 0.9375 -0.359375q0.359375 -0.21875 0.515625 -0.53125q0.15625 -0.296875 0.15625 -0.65625q0 -0.34375 -0.125 -0.640625q-0.140625 -0.28125 -0.515625 -0.546875q-0.375 -0.265625 -1.03125 -0.53125q-0.671875 -0.265625 -1.734375 -0.578125q-1.15625 -0.34375 -1.953125 -0.7187195q-0.796875 -0.359375 -1.28125 -0.828125q-0.5 -0.453125 -0.71875 -1.03125q-0.21875 -0.5625 -0.21875 -1.296875z"
       fill-rule="nonzero"
       id="path15" />
    <path
       fill="#000000"
       fill-opacity="0.0"
       d="m708.0761 309.64304l77.921265 0l0 63.433075l-77.921265 0z"
       fill-rule="evenodd"
       id="path23" />
    <path
       fill="#000000"
       d="m753.443 353.0796l-12.640625 0l0 -1.953125l8.859375 -11.453125l-8.640625 0l0 -2.28125l11.90625 0l0 2.125l-8.703125 11.265625l9.21875 0l0 2.296875z"
       fill-rule="nonzero"
       id="path25" />
    <path
       fill="#000000"
       fill-opacity="0.0"
       d="m604.07086 176.04199l77.921265 0l0 58.645676l-77.921265 0z"
       fill-rule="evenodd"
       id="path27" />
    <path
       fill="#000000"
       d="m638.01587 217.08482l-0.0625 -2.109375q-1.28125 1.265625 -2.609375 1.828125q-1.3125 0.5625 -2.765625 0.5625q-1.34375 0 -2.296875 -0.34375q-0.953125 -0.34375 -1.578125 -0.9375q-0.609375 -0.609375 -0.90625 -1.421875q-0.28125 -0.8125 -0.28125 -1.765625q0 -2.359375 1.75 -3.6875q1.765625 -1.34375 5.203125 -1.34375l3.25 0l0 -1.375q0 -1.390625 -0.890625 -2.21875q-0.890625 -0.84375 -2.71875 -0.84375q-1.328125 0 -2.625 0.296875q-1.28125 0.296875 -2.65625 0.84375l0 -2.453125q0.515625 -0.1875 1.140625 -0.359375q0.640625 -0.1875 1.34375 -0.328125q0.703125 -0.140625 1.46875 -0.21875q0.765625 -0.09375 1.546875 -0.09375q1.421875 0 2.5625 0.3125q1.140625 0.3125 1.921875 0.953125q0.796875 0.640625 1.21875 1.609375q0.421875 0.96875 0.421875 2.28125l0 10.8125l-2.4375 0zm-0.296875 -7.140625l-3.453125 0q-1.015625 0 -1.75 0.203125q-0.734375 0.203125 -1.203125 0.578125q-0.46875 0.375 -0.703125 0.90625q-0.21875 0.515625 -0.21875 1.171875q0 0.453125 0.140625 0.875q0.140625 0.40625 0.453125 0.734375q0.3125 0.3125 0.8125 0.5q0.5 0.1875 1.21875 0.1875q0.9375 0 2.140625 -0.5625q1.21875 -0.578125 2.5625 -1.8125l0 -2.78125zm21.53125 -3.0625q0 2.34375 -0.46875 4.28125q-0.46875 1.921875 -1.421875 3.3125q-0.953125 1.375 -2.375 2.140625q-1.40625 0.75 -3.3125 0.75q-1.640625 0 -2.984375 -0.609375q-1.34375 -0.625 -2.296875 -1.90625q-0.953125 -1.28125 -1.46875 -3.265625q-0.515625 -1.984375 -0.515625 -4.703125q0 -2.34375 0.46875 -4.28125q0.484375 -1.9375 1.421875 -3.3125q0.953125 -1.390625 2.375 -2.140625q1.421875 -0.765625 3.3125 -0.765625q1.640625 0 2.984375 0.625q1.34375 0.609375 2.296875 1.90625q0.953125 1.28125 1.46875 3.265625q0.515625 1.984375 0.515625 4.703125zm-2.75 0.09375q0 -0.53125 -0.046875 -1.046875q-0.03125 -0.53125 -0.078125 -1.03125l-8.640625 6.421875q0.234375 0.8125 0.59375 1.5q0.359375 0.6875 0.859375 1.1875q0.515625 0.484375 1.15625 0.765625q0.65625 0.265625 1.484375 0.265625q1.0625 0 1.921875 -0.515625q0.875 -0.515625 1.484375 -1.53125q0.609375 -1.015625 0.9375 -2.515625q0.328125 -1.515625 0.328125 -3.5zm-9.34375 -0.1875q0 0.484375 0 0.96875q0.015625 0.484375 0.0625 0.9375l8.640625 -6.390625q-0.234375 -0.796875 -0.59375 -1.453125q-0.359375 -0.65625 -0.859375 -1.125q-0.5 -0.484375 -1.140625 -0.75q-0.640625 -0.265625 -1.4375 -0.265625q-1.0625 0 -1.9375 0.515625q-0.859375 0.515625 -1.46875 1.546875q-0.609375 1.015625 -0.9375 2.53125q-0.328125 1.5 -0.328125 3.484375z"
       fill-rule="nonzero"
       id="path29" />
    <path
       fill="#000000"
       fill-opacity="0.0"
       d="m812.0656 176.04199l77.921265 0l0 58.645676l-77.921265 0z"
       fill-rule="evenodd"
       id="path31" />
    <path
       fill="#000000"
       d="m846.0106 217.08482l-0.0625 -2.109375q-1.28125 1.265625 -2.609375 1.828125q-1.3125 0.5625 -2.765625 0.5625q-1.34375 0 -2.296875 -0.34375q-0.953125 -0.34375 -1.578125 -0.9375q-0.609375 -0.609375 -0.90625 -1.421875q-0.28125 -0.8125 -0.28125 -1.765625q0 -2.359375 1.75 -3.6875q1.765625 -1.34375 5.203125 -1.34375l3.25 0l0 -1.375q0 -1.390625 -0.890625 -2.21875q-0.890625 -0.84375 -2.71875 -0.84375q-1.328125 0 -2.625 0.296875q-1.28125 0.296875 -2.65625 0.84375l0 -2.453125q0.515625 -0.1875 1.140625 -0.359375q0.640625 -0.1875 1.34375 -0.328125q0.703125 -0.140625 1.46875 -0.21875q0.765625 -0.09375 1.546875 -0.09375q1.421875 0 2.5625 0.3125q1.140625 0.3125 1.921875 0.953125q0.796875 0.640625 1.21875 1.609375q0.421875 0.96875 0.421875 2.28125l0 10.8125l-2.4375 0zm-0.296875 -7.140625l-3.453125 0q-1.015625 0 -1.75 0.203125q-0.734375 0.203125 -1.203125 0.578125q-0.46875 0.375 -0.703125 0.90625q-0.21875 0.515625 -0.21875 1.171875q0 0.453125 0.140625 0.875q0.140625 0.40625 0.453125 0.734375q0.3125 0.3125 0.8125 0.5q0.5 0.1875 1.21875 0.1875q0.9375 0 2.140625 -0.5625q1.21875 -0.578125 2.5625 -1.8125l0 -2.78125zm20.890625 7.140625l-12.828125 0l0 -2.53125l5.25 0l0 -14.90625l-4.890625 2.65625l-1.0 -2.3125l6.5 -3.421875l2.40625 0l0 17.984375l4.5625 0l0 2.53125z"
       fill-rule="nonzero"
       id="path33" />
    <path
       fill="#000000"
       fill-opacity="0.0"
       d="m681.9921 205.36482l130.07874 0"
       fill-rule="evenodd"
       id="path35" />
    <path
       stroke="#595959"
       stroke-width="4.0"
       stroke-linejoin="round"
       stroke-linecap="butt"
       d="m681.9921 205.36482l112.5542 0"
       fill-rule="evenodd"
       id="path37" />
    <path
       fill="#595959"
       stroke="#595959"
       stroke-width="4.0"
       stroke-linecap="butt"
       d="m794.5463 205.36482l-6.682129 6.6821594l18.35907 -6.6821594l-18.35907 -6.682144z"
       fill-rule="evenodd"
       id="path39" />
    <path
       fill="#000000"
       fill-opacity="0.0"
       d="m697.0236 153.07611l71.27557 0l0 63.433075l-71.27557 0z"
       fill-rule="evenodd"
       id="path41" />
    <path
       fill="#000000"
       d="m737.7358 179.2414q-1.421875 -0.296875 -2.453125 -0.296875q-2.4375 0 -2.4375 2.5625l0 1.828125l4.578125 0l0 1.515625l-4.578125 0l0 7.421875l-1.84375 0l0 -7.421875l-3.375 0l0 -1.515625l3.375 0l0 -1.734375q0 -4.171875 4.34375 -4.171875q1.09375 0 2.390625 0.25l0 1.5625zm-10.9375 2.578125l0 0z"
       fill-rule="nonzero"
       id="path43" />
    <path
       fill="#000000"
       fill-opacity="0.0"
       d="m818.3779 229.08136l-58.078735 92.37796"
       fill-rule="evenodd"
       id="path45" />
    <path
       stroke="#595959"
       stroke-width="4.0"
       stroke-linejoin="round"
       stroke-linecap="butt"
       d="m818.3779 229.08136l-48.75122 77.54196"
       fill-rule="evenodd"
       id="path47" />
    <path
       fill="#595959"
       stroke="#595959"
       stroke-width="4.0"
       stroke-linecap="butt"
       d="m769.6267 306.62332l-2.1004028 -9.213623l-4.114685 19.099121l15.428711 -11.985901z"
       fill-rule="evenodd"
       id="path49" />
    <path
       fill="#000000"
       fill-opacity="0.0"
       d="m672.2992 229.08136l58.078735 92.37796"
       fill-rule="evenodd"
       id="path51" />
    <path
       stroke="#595959"
       stroke-width="2.0"
       stroke-linejoin="round"
       stroke-linecap="butt"
       stroke-dasharray="8.0,6.0"
       d="m672.2992 229.08136l53.41504 84.95996"
       fill-rule="evenodd"
       id="path53" />
    <path
       fill="#595959"
       stroke="#595959"
       stroke-width="2.0"
       stroke-linecap="butt"
       d="m725.7142 314.04132l-4.6067505 -1.0502014l7.7142944 5.9929504l-2.057312 -9.549561z"
       fill-rule="evenodd"
       id="path55" />
    <path
       fill="#000000"
       fill-opacity="0.0"
       d="m791.0866 248.3202l71.27557 0l0 63.43309l-71.27557 0z"
       fill-rule="evenodd"
       id="path57" />
    <path
       fill="#000000"
       d="m830.0644 278.53238q0.28125 0.375 0.4375 0.859375q0.171875 0.484375 0.171875 1.046875q0 0.8125 -0.296875 1.484375q-0.296875 0.671875 -0.84375 1.15625q-0.53125 0.46875 -1.296875 0.734375q-0.75 0.265625 -1.65625 0.265625q-0.65625 0 -1.234375 -0.140625q-0.5625 -0.140625 -0.90625 -0.34375q-0.1875 0.28125 -0.328125 0.546875q-0.140625 0.265625 -0.140625 0.578125q0 0.40625 0.375 0.671875q0.390625 0.25 1.015625 0.265625l2.75 0.109375q0.78125 0.015625 1.4375 0.203125q0.671875 0.171875 1.140625 0.515625q0.46875 0.328125 0.734375 0.8125q0.265625 0.484375 0.265625 1.140625q0 0.6875 -0.296875 1.3125q-0.296875 0.625 -0.9375 1.09375q-0.625 0.484375 -1.59375 0.765625q-0.96875 0.28125 -2.296875 0.28125q-1.28125 0 -2.171875 -0.203125q-0.890625 -0.203125 -1.46875 -0.5625q-0.5625 -0.359375 -0.828125 -0.859375q-0.25 -0.484375 -0.25 -1.078125q0 -0.765625 0.34375 -1.34375q0.359375 -0.5625 1.09375 -1.09375q-0.265625 -0.125 -0.46875 -0.3125q-0.1875 -0.1875 -0.3125 -0.40625q-0.125 -0.234375 -0.1875 -0.484375q-0.0625 -0.25 -0.0625 -0.484375q0 -0.6875 0.3125 -1.25q0.3125 -0.5625 0.75 -1.0625q-0.1875 -0.234375 -0.34375 -0.453125q-0.15625 -0.234375 -0.265625 -0.5q-0.109375 -0.265625 -0.171875 -0.578125q-0.046875 -0.3125 -0.046875 -0.703125q0 -0.8125 0.296875 -1.484375q0.296875 -0.671875 0.828125 -1.140625q0.546875 -0.484375 1.296875 -0.75q0.75 -0.265625 1.671875 -0.265625q0.390625 0 0.734375 0.046875q0.359375 0.046875 0.625 0.140625l3.796875 0l0 1.46875l-1.671875 0zm-6.296875 10.5q0 0.734375 0.765625 1.0625q0.78125 0.34375 2.15625 0.34375q0.859375 0 1.4375 -0.15625q0.59375 -0.15625 0.953125 -0.40625q0.359375 -0.25 0.515625 -0.578125q0.15625 -0.328125 0.15625 -0.671875q0 -0.640625 -0.515625 -0.953125q-0.515625 -0.296875 -1.59375 -0.34375l-2.734375 -0.09375q-0.34375 0.234375 -0.5625 0.453125q-0.21875 0.21875 -0.34375 0.4375q-0.125 0.21875 -0.1875 0.4375q-0.046875 0.234375 -0.046875 0.46875zm0.546875 -8.5625q0 0.5 0.171875 0.921875q0.171875 0.421875 0.46875 0.71875q0.296875 0.28125 0.703125 0.453125q0.421875 0.15625 0.921875 0.15625q0.546875 0 0.96875 -0.1875q0.421875 -0.1875 0.703125 -0.5q0.28125 -0.3125 0.4375 -0.71875q0.15625 -0.40625 0.15625 -0.84375q0 -0.5 -0.171875 -0.90625q-0.171875 -0.421875 -0.46875 -0.703125q-0.296875 -0.296875 -0.71875 -0.453125q-0.40625 -0.171875 -0.90625 -0.171875q-0.546875 0 -0.96875 0.1875q-0.421875 0.1875 -0.703125 0.5q-0.28125 0.296875 -0.4375 0.703125q-0.15625 0.40625 -0.15625 0.84375z"
       fill-rule="nonzero"
       id="path59" />
    <path
       fill="#000000"
       fill-opacity="0.0"
       d="m511.0866 264.32022l180.56696 0l0 63.433075l-180.56696 0z"
       fill-rule="evenodd"
       id="path61" />
    <path
       fill="#000000"
       d="m534.946 287.12613q-0.71875 0.28125 -1.46875 0.40625q-0.734375 0.125 -1.53125 0.125q-2.46875 0 -3.8125 -1.34375q-1.34375 -1.34375 -1.34375 -3.921875q0 -1.234375 0.390625 -2.25q0.390625 -1.015625 1.078125 -1.734375q0.703125 -0.71875 1.671875 -1.109375q0.96875 -0.390625 2.140625 -0.390625q0.8125 0 1.515625 0.125q0.703125 0.109375 1.359375 0.375l0 1.71875q-0.6875 -0.34375 -1.390625 -0.5q-0.703125 -0.171875 -1.453125 -0.171875q-0.6875 0 -1.3125 0.265625q-0.625 0.265625 -1.09375 0.765625q-0.46875 0.5 -0.734375 1.21875q-0.265625 0.71875 -0.265625 1.625q0 1.890625 0.921875 2.84375q0.921875 0.9375 2.546875 0.9375q0.75 0 1.4375 -0.15625q0.6875 -0.171875 1.34375 -0.515625l0 1.6875zm12.695068 -4.921875q0 1.21875 -0.34375 2.234375q-0.34375 1.015625 -0.984375 1.75q-0.640625 0.71875 -1.578125 1.125q-0.921875 0.390625 -2.09375 0.390625q-1.125 0 -2.015625 -0.34375q-0.890625 -0.359375 -1.515625 -1.03125q-0.625 -0.671875 -0.953125 -1.671875q-0.328125 -1.0 -0.328125 -2.3125q0 -1.21875 0.34375 -2.21875q0.34375 -1.0 0.984375 -1.71875q0.65625 -0.734375 1.578125 -1.125q0.9375 -0.40625 2.109375 -0.40625q1.125 0 2.015625 0.34375q0.890625 0.34375 1.5 1.015625q0.625 0.671875 0.953125 1.671875q0.328125 1.0 0.328125 2.296875zm-1.84375 0.078125q0 -0.96875 -0.21875 -1.6875q-0.21875 -0.71875 -0.609375 -1.203125q-0.390625 -0.484375 -0.96875 -0.734375q-0.5625 -0.25 -1.265625 -0.25q-0.8125 0 -1.390625 0.328125q-0.578125 0.3125 -0.953125 0.84375q-0.359375 0.53125 -0.53125 1.234375q-0.171875 0.703125 -0.171875 1.46875q0 0.96875 0.203125 1.703125q0.21875 0.734375 0.609375 1.21875q0.40625 0.484375 0.96875 0.734375q0.5625 0.234375 1.265625 0.234375q0.8125 0 1.390625 -0.3125q0.578125 -0.328125 0.953125 -0.859375q0.375 -0.53125 0.546875 -1.234375q0.171875 -0.703125 0.171875 -1.484375zm4.4762573 -5.21875l1.609375 0l0.078125 1.6875q0.453125 -0.546875 0.875 -0.90625q0.4375 -0.359375 0.84375 -0.578125q0.40625 -0.21875 0.828125 -0.296875q0.4375 -0.09375 0.890625 -0.09375q1.625 0 2.453125 0.953125q0.828125 0.953125 0.828125 2.859375l0 6.828125l-1.8125 0l0 -6.671875q0 -1.234375 -0.46875 -1.8125q-0.453125 -0.59375 -1.359375 -0.59375q-0.328125 0 -0.65625 0.09375q-0.3125 0.09375 -0.65625 0.34375q-0.34375 0.25 -0.75 0.671875q-0.390625 0.40625 -0.890625 1.03125l0 6.9375l-1.8125 0l0 -10.453125zm20.148193 10.3125q-0.609375 0.15625 -1.265625 0.21875q-0.65625 0.0625 -1.34375 0.0625q-1.96875 0 -2.9375 -0.890625q-0.96875 -0.890625 -0.96875 -2.734375l0 -5.453125l-2.921875 0l0 -1.515625l2.921875 0l0 -2.875l1.8125 -0.46875l0 3.34375l4.703125 0l0 1.515625l-4.703125 0l0 5.3125q0 1.125 0.59375 1.6875q0.609375 0.546875 1.78125 0.546875q0.5 0 1.09375 -0.078125q0.59375 -0.078125 1.234375 -0.234375l0 1.5625zm3.7263184 -10.3125l1.65625 0l0.046875 1.921875q0.9375 -1.109375 1.828125 -1.609375q0.90625 -0.5 1.828125 -0.5q1.625 0 2.453125 1.046875q0.84375 1.046875 0.78125 3.125l-1.828125 0q0.03125 -1.375 -0.40625 -1.984375q-0.4375 -0.625 -1.265625 -0.625q-0.359375 0 -0.734375 0.125q-0.375 0.125 -0.765625 0.421875q-0.390625 0.28125 -0.828125 0.734375q-0.4375 0.4375 -0.9375 1.078125l0 6.71875l-1.828125 0l0 -10.453125zm18.023193 10.453125l-0.046875 -1.40625q-0.859375 0.84375 -1.734375 1.21875q-0.875 0.375 -1.84375 0.375q-0.90625 0 -1.546875 -0.21875q-0.625 -0.234375 -1.046875 -0.640625q-0.40625 -0.40625 -0.59375 -0.9375q-0.1875 -0.546875 -0.1875 -1.1875q0 -1.5625 1.171875 -2.453125q1.171875 -0.890625 3.453125 -0.890625l2.171875 0l0 -0.921875q0 -0.921875 -0.59375 -1.484375q-0.59375 -0.5625 -1.8125 -0.5625q-0.890625 0 -1.75 0.203125q-0.859375 0.203125 -1.765625 0.5625l0 -1.640625q0.34375 -0.125 0.765625 -0.234375q0.421875 -0.125 0.890625 -0.21875q0.46875 -0.09375 0.96875 -0.140625q0.515625 -0.0625 1.03125 -0.0625q0.953125 0 1.703125 0.203125q0.765625 0.203125 1.296875 0.640625q0.53125 0.421875 0.8125 1.078125q0.28125 0.640625 0.28125 1.515625l0 7.203125l-1.625 0zm-0.203125 -4.765625l-2.296875 0q-0.6875 0 -1.171875 0.140625q-0.484375 0.140625 -0.796875 0.390625q-0.3125 0.25 -0.46875 0.59375q-0.15625 0.34375 -0.15625 0.78125q0 0.3125 0.09375 0.59375q0.09375 0.265625 0.296875 0.484375q0.21875 0.203125 0.546875 0.328125q0.34375 0.125 0.8125 0.125q0.625 0 1.4375 -0.375q0.8125 -0.375 1.703125 -1.203125l0 -1.859375zm12.663757 4.765625l0 -7.515625q0 -0.484375 -0.046875 -0.796875q-0.03125 -0.3125 -0.109375 -0.484375q-0.078125 -0.1875 -0.203125 -0.265625q-0.109375 -0.078125 -0.28125 -0.078125q-0.21875 0 -0.390625 0.125q-0.171875 0.125 -0.375 0.40625q-0.203125 0.28125 -0.453125 0.75q-0.25 0.46875 -0.578125 1.140625l0 6.71875l-1.65625 0l0 -7.3125q0 -0.578125 -0.046875 -0.921875q-0.03125 -0.359375 -0.109375 -0.546875q-0.078125 -0.203125 -0.203125 -0.28125q-0.125 -0.078125 -0.296875 -0.078125q-0.1875 0 -0.359375 0.109375q-0.15625 0.109375 -0.359375 0.375q-0.203125 0.265625 -0.453125 0.734375q-0.25 0.46875 -0.59375 1.203125l0 6.71875l-1.671875 0l0 -10.453125l1.390625 0l0.078125 1.984375q0.265625 -0.59375 0.515625 -1.0q0.265625 -0.421875 0.53125 -0.671875q0.28125 -0.265625 0.578125 -0.375q0.3125 -0.125 0.6875 -0.125q0.84375 0 1.28125 0.546875q0.4375 0.546875 0.4375 1.703125q0.25 -0.53125 0.484375 -0.953125q0.25 -0.421875 0.515625 -0.703125q0.28125 -0.296875 0.609375 -0.4375q0.34375 -0.15625 0.78125 -0.15625q1.953125 0 1.953125 3.03125l0 7.609375l-1.65625 0zm10.991943 0l-0.046875 -1.40625q-0.859375 0.84375 -1.734375 1.21875q-0.875 0.375 -1.84375 0.375q-0.90625 0 -1.546875 -0.21875q-0.625 -0.234375 -1.046875 -0.640625q-0.40625 -0.40625 -0.59375 -0.9375q-0.1875 -0.546875 -0.1875 -1.1875q0 -1.5625 1.171875 -2.453125q1.171875 -0.890625 3.453125 -0.890625l2.171875 0l0 -0.921875q0 -0.921875 -0.59375 -1.484375q-0.59375 -0.5625 -1.8125 -0.5625q-0.890625 0 -1.75 0.203125q-0.859375 0.203125 -1.765625 0.5625l0 -1.640625q0.34375 -0.125 0.765625 -0.234375q0.421875 -0.125 0.890625 -0.21875q0.46875 -0.09375 0.96875 -0.140625q0.515625 -0.0625 1.03125 -0.0625q0.953125 0 1.703125 0.203125q0.765625 0.203125 1.296875 0.640625q0.53125 0.421875 0.8125 1.078125q0.28125 0.640625 0.28125 1.515625l0 7.203125l-1.625 0zm-0.203125 -4.765625l-2.296875 0q-0.6875 0 -1.171875 0.140625q-0.484375 0.140625 -0.796875 0.390625q-0.3125 0.25 -0.46875 0.59375q-0.15625 0.34375 -0.15625 0.78125q0 0.3125 0.09375 0.59375q0.09375 0.265625 0.296875 0.484375q0.21875 0.203125 0.546875 0.328125q0.34375 0.125 0.8125 0.125q0.625 0 1.4375 -0.375q0.8125 -0.375 1.703125 -1.203125l0 -1.859375zm14.148193 -0.65625q0 1.40625 -0.390625 2.453125q-0.390625 1.03125 -1.078125 1.71875q-0.6875 0.6875 -1.625 1.03125q-0.9375 0.34375 -2.03125 0.34375q-0.5 0 -1.0 -0.0625q-0.5 -0.046875 -1.0 -0.171875l0 4.375l-1.8125 0l0 -14.71875l1.609375 0l0.109375 1.75q0.78125 -1.078125 1.671875 -1.5q0.890625 -0.4375 1.921875 -0.4375q0.890625 0 1.5625 0.375q0.6875 0.375 1.140625 1.0625q0.453125 0.671875 0.6875 1.640625q0.234375 0.953125 0.234375 2.140625zm-1.859375 0.09375q0 -0.828125 -0.125 -1.515625q-0.109375 -0.6875 -0.375 -1.171875q-0.265625 -0.5 -0.671875 -0.765625q-0.40625 -0.28125 -0.96875 -0.28125q-0.34375 0 -0.703125 0.109375q-0.34375 0.109375 -0.734375 0.375q-0.375 0.25 -0.796875 0.671875q-0.421875 0.421875 -0.890625 1.046875l0 5.0625q0.5 0.21875 1.046875 0.34375q0.546875 0.109375 1.078125 0.109375q1.46875 0 2.296875 -0.984375q0.84375 -1.0 0.84375 -3.0zm25.640137 -7.703125q-1.421875 -0.296875 -2.453125 -0.296875q-2.4375 0 -2.4375 2.5625l0 1.828125l4.578125 0l0 1.515625l-4.578125 0l0 7.421875l-1.84375 0l0 -7.421875l-3.375 0l0 -1.515625l3.375 0l0 -1.734375q0 -4.171875 4.34375 -4.171875q1.09375 0 2.390625 0.25l0 1.5625zm-10.9375 2.578125l0 0zm32.6557 1.46875q0.28125 0.375 0.4375 0.859375q0.171875 0.484375 0.171875 1.046875q0 0.8125 -0.296875 1.484375q-0.296875 0.671875 -0.84375 1.15625q-0.53125 0.46875 -1.296875 0.734375q-0.75 0.265625 -1.65625 0.265625q-0.65625 0 -1.234375 -0.140625q-0.5625 -0.140625 -0.90625 -0.34375q-0.1875 0.28125 -0.328125 0.546875q-0.140625 0.265625 -0.140625 0.578125q0 0.40625 0.375 0.671875q0.390625 0.25 1.015625 0.265625l2.75 0.109375q0.78125 0.015625 1.4375 0.203125q0.671875 0.171875 1.140625 0.515625q0.46875 0.328125 0.734375 0.8125q0.265625 0.484375 0.265625 1.140625q0 0.6875 -0.296875 1.3125q-0.296875 0.625 -0.9375 1.09375q-0.625 0.484375 -1.59375 0.765625q-0.96875 0.28125 -2.296875 0.28125q-1.28125 0 -2.171875 -0.203125q-0.890625 -0.203125 -1.46875 -0.5625q-0.5625 -0.359375 -0.828125 -0.859375q-0.25 -0.484375 -0.25 -1.078125q0 -0.765625 0.34375 -1.34375q0.359375 -0.5625 1.09375 -1.09375q-0.265625 -0.125 -0.46875 -0.3125q-0.1875 -0.1875 -0.3125 -0.40625q-0.125 -0.234375 -0.1875 -0.484375q-0.0625 -0.25 -0.0625 -0.484375q0 -0.6875 0.3125 -1.25q0.3125 -0.5625 0.75 -1.0625q-0.1875 -0.234375 -0.34375 -0.453125q-0.15625 -0.234375 -0.265625 -0.5q-0.109375 -0.265625 -0.171875 -0.578125q-0.046875 -0.3125 -0.046875 -0.703125q0 -0.8125 0.296875 -1.484375q0.296875 -0.671875 0.828125 -1.140625q0.546875 -0.484375 1.296875 -0.75q0.75 -0.265625 1.671875 -0.265625q0.390625 0 0.734375 0.046875q0.359375 0.046875 0.625 0.140625l3.796875 0l0 1.46875l-1.671875 0zm-6.296875 10.5q0 0.734375 0.765625 1.0625q0.78125 0.34375 2.15625 0.34375q0.859375 0 1.4375 -0.15625q0.59375 -0.15625 0.953125 -0.40625q0.359375 -0.25 0.515625 -0.578125q0.15625 -0.328125 0.15625 -0.671875q0 -0.640625 -0.515625 -0.953125q-0.515625 -0.296875 -1.59375 -0.34375l-2.734375 -0.09375q-0.34375 0.234375 -0.5625 0.453125q-0.21875 0.21875 -0.34375 0.4375q-0.125 0.21875 -0.1875 0.4375q-0.046875 0.234375 -0.046875 0.46875zm0.546875 -8.5625q0 0.5 0.171875 0.921875q0.171875 0.421875 0.46875 0.71875q0.296875 0.28125 0.703125 0.453125q0.421875 0.15625 0.921875 0.15625q0.546875 0 0.96875 -0.1875q0.421875 -0.1875 0.703125 -0.5q0.28125 -0.3125 0.4375 -0.71875q0.15625 -0.40625 0.15625 -0.84375q0 -0.5 -0.171875 -0.90625q-0.171875 -0.421875 -0.46875 -0.703125q-0.296875 -0.296875 -0.71875 -0.453125q-0.40625 -0.171875 -0.90625 -0.171875q-0.546875 0 -0.96875 0.1875q-0.421875 0.1875 -0.703125 0.5q-0.28125 0.296875 -0.4375 0.703125q-0.15625 0.40625 -0.15625 0.84375z"
       fill-rule="nonzero"
       id="path63" />
    <path
       fill="#000000"
       d="m570.67175 309.78238l-8.953125 0l0 -1.53125l8.953125 0l0 1.53125zm0 3.625l-8.953125 0l0 -1.53125l8.953125 0l0 1.53125zm22.312012 -5.875q0.28125 0.375 0.4375 0.859375q0.171875 0.484375 0.171875 1.046875q0 0.8125 -0.296875 1.484375q-0.296875 0.671875 -0.84375 1.15625q-0.53125 0.46875 -1.296875 0.734375q-0.75 0.265625 -1.65625 0.265625q-0.65625 0 -1.234375 -0.140625q-0.5625 -0.140625 -0.90625 -0.34375q-0.1875 0.28125 -0.328125 0.546875q-0.140625 0.265625 -0.140625 0.578125q0 0.40625 0.375 0.671875q0.390625 0.25 1.015625 0.265625l2.75 0.109375q0.78125 0.015625 1.4375 0.203125q0.671875 0.171875 1.140625 0.515625q0.46875 0.328125 0.734375 0.8125q0.265625 0.484375 0.265625 1.140625q0 0.6875 -0.296875 1.3125q-0.296875 0.625 -0.9375 1.09375q-0.625 0.484375 -1.59375 0.765625q-0.96875 0.28125 -2.296875 0.28125q-1.28125 0 -2.171875 -0.203125q-0.890625 -0.203125 -1.46875 -0.5625q-0.5625 -0.359375 -0.828125 -0.859375q-0.25 -0.484375 -0.25 -1.078125q0 -0.765625 0.34375 -1.34375q0.359375 -0.5625 1.09375 -1.09375q-0.265625 -0.125 -0.46875 -0.3125q-0.1875 -0.1875 -0.3125 -0.40625q-0.125 -0.234375 -0.1875 -0.484375q-0.0625 -0.25 -0.0625 -0.484375q0 -0.6875 0.3125 -1.25q0.3125 -0.5625 0.75 -1.0625q-0.1875 -0.234375 -0.34375 -0.453125q-0.15625 -0.234375 -0.265625 -0.5q-0.109375 -0.265625 -0.171875 -0.578125q-0.046875 -0.3125 -0.046875 -0.703125q0 -0.8125 0.296875 -1.484375q0.296875 -0.671875 0.828125 -1.140625q0.546875 -0.484375 1.296875 -0.75q0.75 -0.265625 1.671875 -0.265625q0.390625 0 0.734375 0.046875q0.359375 0.046875 0.625 0.140625l3.796875 0l0 1.46875l-1.671875 0zm-6.296875 10.5q0 0.734375 0.765625 1.0625q0.78125 0.34375 2.15625 0.34375q0.859375 0 1.4375 -0.15625q0.59375 -0.15625 0.953125 -0.40625q0.359375 -0.25 0.515625 -0.578125q0.15625 -0.328125 0.15625 -0.671875q0 -0.640625 -0.515625 -0.953125q-0.515625 -0.296875 -1.59375 -0.34375l-2.734375 -0.09375q-0.34375 0.234375 -0.5625 0.453125q-0.21875 0.21875 -0.34375 0.4375q-0.125 0.21875 -0.1875 0.4375q-0.046875 0.234375 -0.046875 0.46875zm0.546875 -8.5625q0 0.5 0.171875 0.921875q0.171875 0.421875 0.46875 0.71875q0.296875 0.28125 0.703125 0.453125q0.421875 0.15625 0.921875 0.15625q0.546875 0 0.96875 -0.1875q0.421875 -0.1875 0.703125 -0.5q0.28125 -0.3125 0.4375 -0.71875q0.15625 -0.40625 0.15625 -0.84375q0 -0.5 -0.171875 -0.90625q-0.171875 -0.421875 -0.46875 -0.703125q-0.296875 -0.296875 -0.71875 -0.453125q-0.40625 -0.171875 -0.90625 -0.171875q-0.546875 0 -0.96875 0.1875q-0.421875 0.1875 -0.703125 0.5q-0.28125 0.296875 -0.4375 0.703125q-0.15625 0.40625 -0.15625 0.84375zm25.7807 3.765625q0.359375 0 0.671875 0.140625q0.3125 0.125 0.546875 0.375q0.234375 0.234375 0.375 0.5625q0.140625 0.3125 0.140625 0.671875q0 0.359375 -0.140625 0.671875q-0.140625 0.3125 -0.375 0.546875q-0.234375 0.234375 -0.546875 0.359375q-0.3125 0.140625 -0.671875 0.140625q-0.359375 0 -0.671875 -0.140625q-0.3125 -0.125 -0.546875 -0.359375q-0.234375 -0.234375 -0.375 -0.546875q-0.140625 -0.3125 -0.140625 -0.671875q0 -0.359375 0.140625 -0.671875q0.140625 -0.328125 0.375 -0.5625q0.234375 -0.25 0.546875 -0.375q0.3125 -0.140625 0.671875 -0.140625zm28.608887 -9.75q-1.421875 -0.296875 -2.453125 -0.296875q-2.4375 0 -2.4375 2.5625l0 1.828125l4.578125 0l0 1.515625l-4.578125 0l0 7.421875l-1.84375 0l0 -7.421875l-3.375 0l0 -1.515625l3.375 0l0 -1.734375q0 -4.171875 4.34375 -4.171875q1.09375 0 2.390625 0.25l0 1.5625zm-10.9375 2.578125l0 0z"
       fill-rule="nonzero"
       id="path65" />
    <path
       fill="#000000"
       fill-opacity="0.0"
       d="m207.38321 159.47769l77.921265 0l0 63.433075l-77.921265 0z"
       fill-rule="evenodd"
       id="path67" />
    <path
       fill="#000000"
       d="m250.12509 202.91423l-0.0625 -2.109375q-1.28125 1.265625 -2.609375 1.828125q-1.3125 0.5625 -2.765625 0.5625q-1.34375 0 -2.296875 -0.34375q-0.953125 -0.34375 -1.578125 -0.9375q-0.609375 -0.609375 -0.90625 -1.421875q-0.28125 -0.8125 -0.28125 -1.765625q0 -2.359375 1.75 -3.6875q1.765625 -1.34375 5.203125 -1.34375l3.25 0l0 -1.375q0 -1.390625 -0.890625 -2.21875q-0.890625 -0.84375 -2.71875 -0.84375q-1.328125 0 -2.625 0.296875q-1.28125 0.296875 -2.65625 0.84375l0 -2.453125q0.515625 -0.1875 1.140625 -0.359375q0.640625 -0.1875 1.34375 -0.328125q0.703125 -0.140625 1.46875 -0.21875q0.765625 -0.09375 1.546875 -0.09375q1.421875 0 2.5625 0.3125q1.140625 0.3125 1.921875 0.953125q0.796875 0.640625 1.21875 1.609375q0.421875 0.96875 0.421875 2.28125l0 10.8125l-2.4375 0zm-0.296875 -7.140625l-3.453125 0q-1.015625 0 -1.75 0.203125q-0.734375 0.203125 -1.203125 0.578125q-0.46875 0.375 -0.703125 0.90625q-0.21875 0.515625 -0.21875 1.171875q0 0.453125 0.140625 0.875q0.140625 0.40625 0.453125 0.734375q0.3125 0.3125 0.8125 0.5q0.5 0.1875 1.21875 0.1875q0.9375 0 2.140625 -0.5625q1.21875 -0.578125 2.5625 -1.8125l0 -2.78125z"
       fill-rule="nonzero"
       id="path69" />
    <path
       fill="#000000"
       fill-opacity="0.0"
       d="m103.37795 321.87665l77.92126 0l0 58.64566l-77.92126 0z"
       fill-rule="evenodd"
       id="path71" />
    <path
       fill="#000000"
       d="m139.94797 362.91946l-12.640633 0l0 -1.953125l8.859383 -11.453125l-8.640633 0l0 -2.28125l11.906258 0l0 2.125l-8.70314 11.265625l9.218765 0l0 2.296875zm18.609375 -10.203125q0 2.34375 -0.46875 4.28125q-0.46875 1.921875 -1.421875 3.3125q-0.953125 1.375 -2.375 2.140625q-1.40625 0.75 -3.3125 0.75q-1.640625 0 -2.984375 -0.609375q-1.34375 -0.625 -2.296875 -1.90625q-0.953125 -1.28125 -1.46875 -3.265625q-0.515625 -1.984375 -0.515625 -4.703125q0 -2.34375 0.46875 -4.28125q0.484375 -1.9375 1.421875 -3.3125q0.953125 -1.390625 2.375 -2.140625q1.421875 -0.765625 3.3125 -0.765625q1.640625 0 2.984375 0.625q1.34375 0.609375 2.296875 1.90625q0.953125 1.28125 1.46875 3.265625q0.515625 1.984375 0.515625 4.703125zm-2.75 0.09375q0 -0.53125 -0.046875 -1.046875q-0.03125 -0.53125 -0.078125 -1.03125l-8.640625 6.421875q0.234375 0.8125 0.59375 1.5q0.359375 0.6875 0.859375 1.1875q0.515625 0.484375 1.15625 0.765625q0.65625 0.265625 1.484375 0.265625q1.0625 0 1.921875 -0.515625q0.875 -0.515625 1.484375 -1.53125q0.609375 -1.015625 0.9375 -2.515625q0.328125 -1.515625 0.328125 -3.5zm-9.34375 -0.1875q0 0.484375 0 0.96875q0.015625 0.484375 0.0625 0.9375l8.640625 -6.390625q-0.234375 -0.796875 -0.59375 -1.453125q-0.359375 -0.65625 -0.859375 -1.125q-0.5 -0.484375 -1.140625 -0.75q-0.640625 -0.265625 -1.4375 -0.265625q-1.0625 0 -1.9375 0.515625q-0.859375 0.515625 -1.46875 1.546875q-0.609375 1.015625 -0.9375 2.53125q-0.328125 1.5 -0.328125 3.484375z"
       fill-rule="nonzero"
       id="path73" />
    <path
       fill="#000000"
       fill-opacity="0.0"
       d="m311.3727 321.87665l77.921265 0l0 58.64566l-77.921265 0z"
       fill-rule="evenodd"
       id="path75" />
    <path
       fill="#000000"
       d="m347.94272 362.91946l-12.640625 0l0 -1.953125l8.859375 -11.453125l-8.640625 0l0 -2.28125l11.90625 0l0 2.125l-8.703125 11.265625l9.21875 0l0 2.296875zm17.96875 0l-12.828125 0l0 -2.53125l5.25 0l0 -14.90625l-4.890625 2.65625l-1.0 -2.3125l6.5 -3.421875l2.40625 0l0 17.984375l4.5625 0l0 2.53125z"
       fill-rule="nonzero"
       id="path77" />
    <path
       fill="#000000"
       fill-opacity="0.0"
       d="m181.29921 351.19946l130.07875 0"
       fill-rule="evenodd"
       id="path79" />
    <path
       stroke="#595959"
       stroke-width="4.0"
       stroke-linejoin="round"
       stroke-linecap="butt"
       d="m181.29921 351.19946l112.554214 0"
       fill-rule="evenodd"
       id="path81" />
    <path
       fill="#595959"
       stroke="#595959"
       stroke-width="4.0"
       stroke-linecap="butt"
       d="m293.85342 351.19946l-6.6821594 6.6821594l18.35907 -6.6821594l-18.35907 -6.682129z"
       fill-rule="evenodd"
       id="path83" />
    <path
       fill="#000000"
       fill-opacity="0.0"
       d="m196.3307 298.91077l71.27559 0l0 63.433075l-71.27559 0z"
       fill-rule="evenodd"
       id="path85" />
    <path
       fill="#000000"
       d="m237.04285 325.07605q-1.421875 -0.296875 -2.453125 -0.296875q-2.4375 0 -2.4375 2.5625l0 1.828125l4.578125 0l0 1.515625l-4.578125 0l0 7.421875l-1.84375 0l0 -7.421875l-3.375 0l0 -1.515625l3.375 0l0 -1.734375q0 -4.171875 4.34375 -4.171875q1.09375 0 2.390625 0.25l0 1.5625zm-10.9375 2.578125l0 0z"
       fill-rule="nonzero"
       id="path87" />
    <path
       fill="#000000"
       fill-opacity="0.0"
       d="m221.68504 222.91602l-58.07875 92.37796"
       fill-rule="evenodd"
       id="path89" />
    <path
       stroke="#595959"
       stroke-width="4.0"
       stroke-linejoin="round"
       stroke-linecap="butt"
       d="m221.68504 222.91602l-48.751236 77.54196"
       fill-rule="evenodd"
       id="path91" />
    <path
       fill="#595959"
       stroke="#595959"
       stroke-width="4.0"
       stroke-linecap="butt"
       d="m172.9338 300.45798l-2.1004028 -9.213623l-4.114685 19.099121l15.428696 -11.985901z"
       fill-rule="evenodd"
       id="path93" />
    <path
       fill="#000000"
       fill-opacity="0.0"
       d="m267.6063 222.91602l58.078735 92.37796"
       fill-rule="evenodd"
       id="path95" />
    <path
       stroke="#595959"
       stroke-width="2.0"
       stroke-linejoin="round"
       stroke-linecap="butt"
       stroke-dasharray="8.0,6.0"
       d="m267.6063 222.91602l53.414978 84.95996"
       fill-rule="evenodd"
       id="path97" />
    <path
       fill="#595959"
       stroke="#595959"
       stroke-width="2.0"
       stroke-linecap="butt"
       d="m321.0213 307.87598l-4.6068115 -1.0502014l7.7143555 5.9929504l-2.0573425 -9.549561z"
       fill-rule="evenodd"
       id="path99" />
    <path
       fill="#000000"
       fill-opacity="0.0"
       d="m130.3937 218.15486l71.27559 0l0 63.43306l-71.27559 0z"
       fill-rule="evenodd"
       id="path101" />
    <path
       fill="#000000"
       d="m169.37148 248.36702q0.28125 0.375 0.4375 0.859375q0.171875 0.484375 0.171875 1.046875q0 0.8125 -0.296875 1.484375q-0.296875 0.671875 -0.84375 1.15625q-0.53125 0.46875 -1.296875 0.734375q-0.75 0.265625 -1.65625 0.265625q-0.65625 0 -1.234375 -0.140625q-0.5625 -0.140625 -0.90625 -0.34375q-0.1875 0.28125 -0.328125 0.546875q-0.140625 0.265625 -0.140625 0.578125q0 0.40625 0.375 0.671875q0.390625 0.25 1.015625 0.265625l2.75 0.109375q0.78125 0.015625 1.4375 0.203125q0.671875 0.171875 1.140625 0.51560974q0.46875 0.328125 0.734375 0.8125q0.265625 0.484375 0.265625 1.140625q0 0.6875 -0.296875 1.3125q-0.296875 0.625 -0.9375 1.09375q-0.625 0.484375 -1.59375 0.765625q-0.96875 0.28125 -2.296875 0.28125q-1.28125 0 -2.171875 -0.203125q-0.890625 -0.203125 -1.46875 -0.5625q-0.5625 -0.359375 -0.828125 -0.859375q-0.25 -0.484375 -0.25 -1.078125q0 -0.765625 0.34375 -1.34375q0.359375 -0.5625 1.09375 -1.09375q-0.265625 -0.125 -0.46875 -0.3125q-0.1875 -0.1875 -0.3125 -0.40623474q-0.125 -0.234375 -0.1875 -0.484375q-0.0625 -0.25 -0.0625 -0.484375q0 -0.6875 0.3125 -1.25q0.3125 -0.5625 0.75 -1.0625q-0.1875 -0.234375 -0.34375 -0.453125q-0.15625 -0.234375 -0.265625 -0.5q-0.109375 -0.265625 -0.171875 -0.578125q-0.046875 -0.3125 -0.046875 -0.703125q0 -0.8125 0.296875 -1.484375q0.296875 -0.671875 0.828125 -1.140625q0.546875 -0.484375 1.296875 -0.75q0.75 -0.265625 1.671875 -0.265625q0.390625 0 0.734375 0.046875q0.359375 0.046875 0.625 0.140625l3.796875 0l0 1.46875l-1.671875 0zm-6.296875 10.499985q0 0.734375 0.765625 1.0625q0.78125 0.34375 2.15625 0.34375q0.859375 0 1.4375 -0.15625q0.59375 -0.15625 0.953125 -0.40625q0.359375 -0.25 0.515625 -0.578125q0.15625 -0.328125 0.15625 -0.671875q0 -0.640625 -0.515625 -0.953125q-0.515625 -0.296875 -1.59375 -0.34375l-2.734375 -0.09375q-0.34375 0.234375 -0.5625 0.453125q-0.21875 0.21875 -0.34375 0.4375q-0.125 0.21875 -0.1875 0.4375q-0.046875 0.234375 -0.046875 0.46875zm0.546875 -8.562485q0 0.5 0.171875 0.921875q0.171875 0.421875 0.46875 0.71875q0.296875 0.28125 0.703125 0.453125q0.421875 0.15625 0.921875 0.15625q0.546875 0 0.96875 -0.1875q0.421875 -0.1875 0.703125 -0.5q0.28125 -0.3125 0.4375 -0.71875q0.15625 -0.40625 0.15625 -0.84375q0 -0.5 -0.171875 -0.90625q-0.171875 -0.421875 -0.46875 -0.703125q-0.296875 -0.296875 -0.71875 -0.453125q-0.40625 -0.171875 -0.90625 -0.171875q-0.546875 0 -0.96875 0.1875q-0.421875 0.1875 -0.703125 0.5q-0.28125 0.296875 -0.4375 0.703125q-0.15625 0.40625 -0.15625 0.84375z"
       fill-rule="nonzero"
       id="path103" />
    <path
       fill="#000000"
       fill-opacity="0.0"
       d="m282.3937 218.15486l155.21259 0l0 63.43306l-155.21259 0z"
       fill-rule="evenodd"
       id="path105" />
    <path
       fill="#000000"
       d="m324.0323 228.32014q-1.421875 -0.296875 -2.453125 -0.296875q-2.4375 0 -2.4375 2.5625l0 1.828125l4.578125 0l0 1.515625l-4.578125 0l0 7.421875l-1.84375 0l0 -7.421875l-3.375 0l0 -1.515625l3.375 0l0 -1.734375q0 -4.171875 4.34375 -4.171875q1.09375 0 2.390625 0.25l0 1.5625zm-10.9375 2.578125l0 0zm20.851318 10.453125l0 -7.515625q0 -0.484375 -0.046875 -0.796875q-0.03125 -0.3125 -0.109375 -0.484375q-0.078125 -0.1875 -0.203125 -0.265625q-0.109375 -0.078125 -0.28125 -0.078125q-0.21875 0 -0.390625 0.125q-0.171875 0.125 -0.375 0.40625q-0.203125 0.28125 -0.453125 0.75q-0.25 0.46875 -0.578125 1.140625l0 6.71875l-1.65625 0l0 -7.3125q0 -0.578125 -0.046875 -0.921875q-0.03125 -0.359375 -0.109375 -0.546875q-0.078125 -0.203125 -0.203125 -0.28125q-0.125 -0.078125 -0.296875 -0.078125q-0.1875 0 -0.359375 0.109375q-0.15625 0.109375 -0.359375 0.375q-0.203125 0.265625 -0.453125 0.734375q-0.25 0.46875 -0.59375 1.203125l0 6.71875l-1.671875 0l0 -10.453125l1.390625 0l0.078125 1.984375q0.265625 -0.59375 0.515625 -1.0q0.265625 -0.421875 0.53125 -0.671875q0.28125 -0.265625 0.578125 -0.375q0.3125 -0.125 0.6875 -0.125q0.84375 0 1.28125 0.546875q0.4375 0.546875 0.4375 1.703125q0.25 -0.53125 0.484375 -0.953125q0.25 -0.421875 0.515625 -0.703125q0.28125 -0.296875 0.609375 -0.4375q0.34375 -0.15625 0.78125 -0.15625q1.953125 0 1.953125 3.03125l0 7.609375l-1.65625 0zm10.991913 0l-0.046875 -1.40625q-0.859375 0.84375 -1.734375 1.21875q-0.875 0.375 -1.84375 0.375q-0.90625 0 -1.546875 -0.21875q-0.625 -0.234375 -1.046875 -0.640625q-0.40625 -0.40625 -0.59375 -0.9375q-0.1875 -0.546875 -0.1875 -1.1875q0 -1.5625 1.171875 -2.453125q1.171875 -0.890625 3.453125 -0.890625l2.171875 0l0 -0.921875q0 -0.921875 -0.59375 -1.484375q-0.59375 -0.5625 -1.8125 -0.5625q-0.890625 0 -1.75 0.203125q-0.859375 0.203125 -1.765625 0.5625l0 -1.640625q0.34375 -0.125 0.765625 -0.234375q0.421875 -0.125 0.890625 -0.21875q0.46875 -0.09375 0.96875 -0.140625q0.515625 -0.0625 1.03125 -0.0625q0.953125 0 1.703125 0.203125q0.765625 0.203125 1.296875 0.640625q0.53125 0.421875 0.8125 1.078125q0.28125 0.640625 0.28125 1.515625l0 7.203125l-1.625 0zm-0.203125 -4.765625l-2.296875 0q-0.6875 0 -1.171875 0.140625q-0.484375 0.140625 -0.796875 0.390625q-0.3125 0.25 -0.46875 0.59375q-0.15625 0.34375 -0.15625 0.78125q0 0.3125 0.09375 0.59375q0.09375 0.265625 0.296875 0.484375q0.21875 0.203125 0.546875 0.328125q0.34375 0.125 0.8125 0.125q0.625 0 1.4375 -0.375q0.8125 -0.375 1.703125 -1.203125l0 -1.859375zm14.148193 -0.65625q0 1.40625 -0.390625 2.453125q-0.390625 1.03125 -1.078125 1.71875q-0.6875 0.6875 -1.625 1.03125q-0.9375 0.34375 -2.03125 0.34375q-0.5 0 -1.0 -0.0625q-0.5 -0.046875 -1.0 -0.171875l0 4.375l-1.8125 0l0 -14.71875l1.609375 0l0.109375 1.75q0.78125 -1.078125 1.671875 -1.5q0.890625 -0.4375 1.921875 -0.4375q0.890625 0 1.5625 0.375q0.6875 0.375 1.140625 1.0625q0.453125 0.671875 0.6875 1.640625q0.234375 0.953125 0.234375 2.140625zm-1.859375 0.09375q0 -0.828125 -0.125 -1.515625q-0.109375 -0.6875 -0.375 -1.171875q-0.265625 -0.5 -0.671875 -0.765625q-0.40625 -0.28125 -0.96875 -0.28125q-0.34375 0 -0.703125 0.109375q-0.34375 0.109375 -0.734375 0.375q-0.375 0.25 -0.796875 0.671875q-0.421875 0.421875 -0.890625 1.046875l0 5.0625q0.5 0.21875 1.046875 0.34375q0.546875 0.109375 1.078125 0.109375q1.46875 0 2.296875 -0.984375q0.84375 -1.0 0.84375 -3.0zm25.640106 -7.703125q-1.421875 -0.296875 -2.453125 -0.296875q-2.4375 0 -2.4375 2.5625l0 1.828125l4.578125 0l0 1.515625l-4.578125 0l0 7.421875l-1.84375 0l0 -7.421875l-3.375 0l0 -1.515625l3.375 0l0 -1.734375q0 -4.171875 4.34375 -4.171875q1.09375 0 2.390625 0.25l0 1.5625zm-10.9375 2.578125l0 0zm32.65573 1.46875q0.28125 0.375 0.4375 0.859375q0.171875 0.484375 0.171875 1.046875q0 0.8125 -0.296875 1.484375q-0.296875 0.671875 -0.84375 1.15625q-0.53125 0.46875 -1.296875 0.734375q-0.75 0.265625 -1.65625 0.265625q-0.65625 0 -1.234375 -0.140625q-0.5625 -0.140625 -0.90625 -0.34375q-0.1875 0.28125 -0.328125 0.546875q-0.140625 0.265625 -0.140625 0.578125q0 0.40625 0.375 0.671875q0.390625 0.25 1.015625 0.265625l2.75 0.109375q0.78125 0.015625 1.4375 0.203125q0.671875 0.171875 1.140625 0.515625q0.46875 0.328125 0.734375 0.8125q0.265625 0.484375 0.265625 1.140625q0 0.6875 -0.296875 1.3125q-0.296875 0.625 -0.9375 1.09375q-0.625 0.484375 -1.59375 0.765625q-0.96875 0.28125 -2.296875 0.28125q-1.28125 0 -2.171875 -0.203125q-0.890625 -0.203125 -1.46875 -0.5625q-0.5625 -0.359375 -0.828125 -0.859375q-0.25 -0.484375 -0.25 -1.078125q0 -0.765625 0.34375 -1.34375q0.359375 -0.5625 1.09375 -1.09375q-0.265625 -0.125 -0.46875 -0.3125q-0.1875 -0.1875 -0.3125 -0.40625q-0.125 -0.234375 -0.1875 -0.484375q-0.0625 -0.25 -0.0625 -0.484375q0 -0.6875 0.3125 -1.25q0.3125 -0.5625 0.75 -1.0625q-0.1875 -0.234375 -0.34375 -0.453125q-0.15625 -0.234375 -0.265625 -0.5q-0.109375 -0.265625 -0.171875 -0.578125q-0.046875 -0.3125 -0.046875 -0.703125q0 -0.8125 0.296875 -1.484375q0.296875 -0.671875 0.828125 -1.140625q0.546875 -0.484375 1.296875 -0.75q0.75 -0.265625 1.671875 -0.265625q0.390625 0 0.734375 0.046875q0.359375 0.046875 0.625 0.140625l3.796875 0l0 1.46875l-1.671875 0zm-6.296875 10.5q0 0.734375 0.765625 1.0625q0.78125 0.34375 2.15625 0.34375q0.859375 0 1.4375 -0.15625q0.59375 -0.15625 0.953125 -0.40625q0.359375 -0.25 0.515625 -0.578125q0.15625 -0.328125 0.15625 -0.671875q0 -0.640625 -0.515625 -0.953125q-0.515625 -0.296875 -1.59375 -0.34375l-2.734375 -0.09375q-0.34375 0.234375 -0.5625 0.453125q-0.21875 0.21875 -0.34375 0.4375q-0.125 0.21875 -0.1875 0.4375q-0.046875 0.234375 -0.046875 0.46875zm0.546875 -8.5625q0 0.5 0.171875 0.921875q0.171875 0.421875 0.46875 0.71875q0.296875 0.28125 0.703125 0.453125q0.421875 0.15625 0.921875 0.15625q0.546875 0 0.96875 -0.1875q0.421875 -0.1875 0.703125 -0.5q0.28125 -0.3125 0.4375 -0.71875q0.15625 -0.40625 0.15625 -0.84375q0 -0.5 -0.171875 -0.90625q-0.171875 -0.421875 -0.46875 -0.703125q-0.296875 -0.296875 -0.71875 -0.453125q-0.40625 -0.171875 -0.90625 -0.171875q-0.546875 0 -0.96875 0.1875q-0.421875 0.1875 -0.703125 0.5q-0.28125 0.296875 -0.4375 0.703125q-0.15625 0.40625 -0.15625 0.84375z"
       fill-rule="nonzero"
       id="path107" />
    <path
       fill="#000000"
       d="m329.3017 263.617l-8.953125 0l0 -1.53125l8.953125 0l0 1.53125zm0 3.625l-8.953125 0l0 -1.53125l8.953125 0l0 1.53125zm24.046356 -9.921875q-1.421875 -0.296875 -2.453125 -0.296875q-2.4375 0 -2.4375 2.5625l0 1.828125l4.578125 0l0 1.515625l-4.578125 0l0 7.421875l-1.84375 0l0 -7.421875l-3.375 0l0 -1.515625l3.375 0l0 -1.734375q0 -4.1718597 4.34375 -4.1718597q1.09375 0 2.390625 0.25l0 1.5624847zm-10.9375 2.578125l0 0zm29.233856 7.171875q0.359375 0 0.671875 0.140625q0.3125 0.125 0.546875 0.375q0.234375 0.234375 0.375 0.5625q0.140625 0.3125 0.140625 0.671875q0 0.359375 -0.140625 0.671875q-0.140625 0.3125 -0.375 0.546875q-0.234375 0.234375 -0.546875 0.359375q-0.3125 0.140625 -0.671875 0.140625q-0.359375 0 -0.671875 -0.140625q-0.3125 -0.125 -0.546875 -0.359375q-0.234375 -0.234375 -0.375 -0.546875q-0.140625 -0.3125 -0.140625 -0.671875q0 -0.359375 0.140625 -0.671875q0.140625 -0.328125 0.375 -0.5625q0.234375 -0.25 0.546875 -0.375q0.3125 -0.140625 0.671875 -0.140625zm26.874481 -5.703125q0.28125 0.375 0.4375 0.859375q0.171875 0.484375 0.171875 1.046875q0 0.8125 -0.296875 1.484375q-0.296875 0.671875 -0.84375 1.15625q-0.53125 0.46875 -1.296875 0.734375q-0.75 0.265625 -1.65625 0.265625q-0.65625 0 -1.234375 -0.140625q-0.5625 -0.140625 -0.90625 -0.34375q-0.1875 0.28125 -0.328125 0.546875q-0.140625 0.265625 -0.140625 0.578125q0 0.40625 0.375 0.671875q0.390625 0.25 1.015625 0.265625l2.75 0.109375q0.78125 0.015625 1.4375 0.203125q0.671875 0.171875 1.140625 0.515625q0.46875 0.328125 0.734375 0.8125q0.265625 0.484375 0.265625 1.140625q0 0.6875 -0.296875 1.3125q-0.296875 0.625 -0.9375 1.09375q-0.625 0.484375 -1.59375 0.765625q-0.96875 0.28125 -2.296875 0.28125q-1.28125 0 -2.171875 -0.203125q-0.890625 -0.203125 -1.46875 -0.5625q-0.5625 -0.359375 -0.828125 -0.859375q-0.25 -0.484375 -0.25 -1.078125q0 -0.765625 0.34375 -1.34375q0.359375 -0.5625 1.09375 -1.09375q-0.265625 -0.125 -0.46875 -0.3125q-0.1875 -0.1875 -0.3125 -0.40625q-0.125 -0.234375 -0.1875 -0.484375q-0.0625 -0.25 -0.0625 -0.484375q0 -0.6875 0.3125 -1.25q0.3125 -0.5625 0.75 -1.0625q-0.1875 -0.234375 -0.34375 -0.453125q-0.15625 -0.234375 -0.265625 -0.5q-0.109375 -0.265625 -0.171875 -0.578125q-0.046875 -0.3125 -0.046875 -0.703125q0 -0.8125 0.296875 -1.484375q0.296875 -0.671875 0.828125 -1.140625q0.546875 -0.484375 1.296875 -0.75q0.75 -0.265625 1.671875 -0.265625q0.390625 0 0.734375 0.046875q0.359375 0.046875 0.625 0.140625l3.796875 0l0 1.46875l-1.671875 0zm-6.296875 10.5q0 0.734375 0.765625 1.0625q0.78125 0.34375 2.15625 0.34375q0.859375 0 1.4375 -0.15625q0.59375 -0.15625 0.953125 -0.40625q0.359375 -0.25 0.515625 -0.578125q0.15625 -0.328125 0.15625 -0.671875q0 -0.640625 -0.515625 -0.953125q-0.515625 -0.296875 -1.59375 -0.34375l-2.734375 -0.09375q-0.34375 0.234375 -0.5625 0.453125q-0.21875 0.21875 -0.34375 0.4375q-0.125 0.21875 -0.1875 0.4375q-0.046875 0.234375 -0.046875 0.46875zm0.546875 -8.5625q0 0.5 0.171875 0.921875q0.171875 0.421875 0.46875 0.71875q0.296875 0.28125 0.703125 0.453125q0.421875 0.15625 0.921875 0.15625q0.546875 0 0.96875 -0.1875q0.421875 -0.1875 0.703125 -0.5q0.28125 -0.3125 0.4375 -0.71875q0.15625 -0.40625 0.15625 -0.84375q0 -0.5 -0.171875 -0.90625q-0.171875 -0.421875 -0.46875 -0.703125q-0.296875 -0.296875 -0.71875 -0.453125q-0.40625 -0.171875 -0.90625 -0.171875q-0.546875 0 -0.96875 0.1875q-0.421875 0.1875 -0.703125 0.5q-0.28125 0.296875 -0.4375 0.703125q-0.15625 0.40625 -0.15625 0.84375z"
       fill-rule="nonzero"
       id="path109" />
    <path
       fill="#000000"
       fill-opacity="0.0"
       d="m0 0l314.96063 0l0 314.96063l-314.96063 0z"
       fill-rule="evenodd"
       id="path111" />
  </g>
</svg>
