<svg version="1.1" viewBox="0.0 0.0 960.0 540.0" fill="none" stroke="none" stroke-linecap="square" stroke-miterlimit="10" xmlns:xlink="http://www.w3.org/1999/xlink" xmlns="http://www.w3.org/2000/svg"><clipPath id="g3ffa094804_0_106.0"><path d="m0 0l960.0 0l0 540.0l-960.0 0l0 -540.0z" clip-rule="nonzero"/></clipPath><g clip-path="url(#g3ffa094804_0_106.0)"><path fill="#ffffff" d="m0 0l960.0 0l0 540.0l-960.0 0z" fill-rule="evenodd"/><path fill="#5e2b97" d="m486.80316 8.472441l464.72443 0l0 523.0552l-464.72443 0z" fill-rule="evenodd"/><path fill="#000000" fill-opacity="0.0" d="m528.04987 471.9685l49.165344 0" fill-rule="evenodd"/><path stroke="#ffffff" stroke-width="2.0" stroke-linejoin="round" stroke-linecap="butt" d="m528.04987 471.9685l49.165344 0" fill-rule="evenodd"/><path fill="#000000" fill-opacity="0.0" d="m27.874016 124.062996l424.6929 0l0 161.00787l-424.6929 0z" fill-rule="evenodd"/><path fill="#000000" d="m65.128334 263.71088l0 -35.968765l6.984375 0l0 35.968765l-6.984375 0zm38.503326 0l-6.796875 0l0 -14.89064q0 -3.1875 -1.109375 -4.65625q-1.109375 -1.46875 -3.09375 -1.46875q-1.015625 0 -2.078125 0.40625q-1.0625 0.390625 -2.0 1.125q-0.9375 0.734375 -1.703125 1.75q-0.75 1.015625 -1.109375 2.234375l0 15.500015l-6.78125 0l0 -26.54689l6.125 0l0 4.921875q1.46875 -2.53125 4.25 -3.953125q2.796875 -1.421875 6.28125 -1.421875q2.484375 0 4.046875 0.921875q1.578125 0.90625 2.4375 2.375q0.859375 1.46875 1.1875 3.34375q0.34375 1.875 0.34375 3.796875l0 16.562515zm30.596413 0l-6.7968674 0l0 -14.89064q0 -3.1875 -1.109375 -4.65625q-1.109375 -1.46875 -3.09375 -1.46875q-1.015625 0 -2.078125 0.40625q-1.0625 0.390625 -2.0 1.125q-0.9375 0.734375 -1.703125 1.75q-0.75 1.015625 -1.109375 2.234375l0 15.500015l-6.78125 0l0 -26.54689l6.125 0l0 4.921875q1.46875 -2.53125 4.25 -3.953125q2.796875 -1.421875 6.28125 -1.421875q2.4843674 0 4.0468674 0.921875q1.578125 0.90625 2.4375 2.375q0.859375 1.46875 1.1875 3.34375q0.34375 1.875 0.34375 3.796875l0 16.562515zm13.15892 0.5q-1.921875 0 -3.59375 -0.625q-1.671875 -0.640625 -2.890625 -1.78125q-1.203125 -1.140625 -1.890625 -2.65625q-0.6875 -1.515625 -0.6875 -3.3437653q0 -1.875 0.828125 -3.46875q0.84375 -1.59375 2.328125 -2.703125q1.5 -1.125 3.578125 -1.75q2.078125 -0.640625 4.5625 -0.640625q1.765625 0 3.46875 0.3125q1.703125 0.296875 3.015625 0.859375l0 -1.515625q0 -2.640625 -1.5 -4.046875q-1.484375 -1.421875 -4.421875 -1.421875q-2.125 0 -4.15625 0.765625q-2.03125 0.75 -4.15625 2.21875l-2.078125 -4.3125q5.125 -3.390625 11.046875 -3.390625q5.71875 0 8.875 2.8125q3.171875 2.8125 3.171875 8.125l0 8.265625q0 1.0625153 0.375 1.5156403q0.390625 0.453125 1.25 0.5l0 5.78125q-1.71875 0.359375 -2.984375 0.359375q-1.921875 0 -2.96875 -0.859375q-1.03125 -0.875 -1.28125 -2.28125l-0.15625 -1.46875q-1.78125 2.328125 -4.3125 3.546875q-2.53125 1.203125 -5.421875 1.203125zm1.9375 -4.953125q1.71875 0 3.265625 -0.609375q1.546875 -0.609375 2.40625 -1.625q1.109375 -0.859375 1.109375 -1.9218903l0 -3.046875q-1.21875 -0.453125 -2.640625 -0.734375q-1.40625 -0.28125 -2.734375 -0.28125q-2.625 0 -4.296875 1.203125q-1.671875 1.1875 -1.671875 3.015625q0 1.7187653 1.3125 2.8593903q1.3125 1.140625 3.25 1.140625zm35.811096 3.078125q-1.375 0.609375 -3.359375 1.21875q-1.96875 0.609375 -4.140625 0.609375q-1.421875 0 -2.671875 -0.359375q-1.234375 -0.34375 -2.171875 -1.125q-0.9375 -0.796875 -1.5 -2.03125q-0.546875 -1.25 -0.546875 -3.015625l0 -15.250015l-3.5 0l0 -5.21875l3.5 0l0 -8.609375l6.78125 0l0 8.609375l5.578125 0l0 5.21875l-5.578125 0l0 12.96875q0 1.4218903 0.734375 2.0000153q0.734375 0.578125 1.8125 0.578125q1.0625 0 2.0625 -0.34375q1.015625 -0.359375 1.625 -0.609375l1.375 5.359375zm15.858276 1.875q-3.203125 0 -5.78125 -1.078125q-2.578125 -1.09375 -4.40625 -2.96875q-1.828125 -1.875 -2.8125 -4.3593903q-0.984375 -2.484375 -0.984375 -5.21875q0 -2.828125 0.953125 -5.328125q0.96875 -2.515625 2.78125 -4.40625q1.828125 -1.90625 4.4375 -3.015625q2.609375 -1.125 5.859375 -1.125q3.234375 0 5.796875 1.125q2.5625 1.109375 4.359375 2.984375q1.796875 1.875 2.734375 4.359375q0.9375 2.46875 0.9375 5.15625q0 0.65625 -0.03125 1.265625q-0.015625 0.609375 -0.125 1.015625l-20.515625 0q0.15625 1.578125 0.765625 2.796875q0.609375 1.2031403 1.5625 2.0625153q0.96875 0.859375 2.171875 1.328125q1.21875 0.453125 2.546875 0.453125q2.015625 0 3.8125 -0.984375q1.8125 -1.0 2.46875 -2.6093903l5.828125 1.6093903q-1.46875 3.046875 -4.6875 5.0q-3.21875 1.9375 -7.671875 1.9375zm6.875 -16.000015q-0.25 -2.984375 -2.203125 -4.78125q-1.9375 -1.8125 -4.734375 -1.8125q-1.359375 0 -2.5625 0.484375q-1.1875 0.484375 -2.09375 1.34375q-0.90625 0.859375 -1.5 2.078125q-0.578125 1.21875 -0.671875 2.6875l13.765625 0zm30.547531 16.000015q-1.921875 0 -3.59375 -0.625q-1.671875 -0.640625 -2.890625 -1.78125q-1.203125 -1.140625 -1.890625 -2.65625q-0.6875 -1.515625 -0.6875 -3.3437653q0 -1.875 0.828125 -3.46875q0.84375 -1.59375 2.328125 -2.703125q1.5 -1.125 3.578125 -1.75q2.078125 -0.640625 4.5625 -0.640625q1.765625 0 3.46875 0.3125q1.703125 0.296875 3.015625 0.859375l0 -1.515625q0 -2.640625 -1.5 -4.046875q-1.484375 -1.421875 -4.421875 -1.421875q-2.125 0 -4.15625 0.765625q-2.03125 0.75 -4.15625 2.21875l-2.078125 -4.3125q5.125 -3.390625 11.046875 -3.390625q5.71875 0 8.875 2.8125q3.171875 2.8125 3.171875 8.125l0 8.265625q0 1.0625153 0.375 1.5156403q0.390625 0.453125 1.25 0.5l0 5.78125q-1.71875 0.359375 -2.984375 0.359375q-1.921875 0 -2.96875 -0.859375q-1.03125 -0.875 -1.28125 -2.28125l-0.15625 -1.46875q-1.78125 2.328125 -4.3125 3.546875q-2.53125 1.203125 -5.421875 1.203125zm1.9375 -4.953125q1.71875 0 3.265625 -0.609375q1.546875 -0.609375 2.40625 -1.625q1.109375 -0.859375 1.109375 -1.9218903l0 -3.046875q-1.21875 -0.453125 -2.640625 -0.734375q-1.40625 -0.28125 -2.734375 -0.28125q-2.625 0 -4.296875 1.203125q-1.671875 1.1875 -1.671875 3.015625q0 1.7187653 1.3125 2.8593903q1.3125 1.140625 3.25 1.140625zm34.99861 4.953125q-3.046875 0 -5.421875 -1.359375q-2.375 -1.375 -3.75 -3.75l0 4.609375l-5.921875 0l0 -36.98439l6.78125 0l0 15.09375q1.421875 -2.421875 3.71875 -3.765625q2.3125 -1.34375 5.40625 -1.34375q2.578125 0 4.703125 1.125q2.125 1.109375 3.671875 2.984375q1.546875 1.875 2.375 4.40625q0.84375 2.53125 0.84375 5.3125q0 2.890625 -0.9375 5.375q-0.9375 2.4843903 -2.609375 4.3281403q-1.671875 1.84375 -3.953125 2.90625q-2.28125 1.0625 -4.90625 1.0625zm-1.875 -5.765625q1.625 0 2.984375 -0.625q1.375 -0.640625 2.328125 -1.703125q0.96875 -1.0625153 1.5 -2.4843903q0.53125 -1.421875 0.53125 -3.046875q0 -1.609375 -0.515625 -3.078125q-0.5 -1.46875 -1.4375 -2.578125q-0.9375 -1.125 -2.203125 -1.78125q-1.265625 -0.65625 -2.78125 -0.65625q-2.28125 0 -4.078125 1.5q-1.796875 1.484375 -2.765625 3.65625l0 6.34375q0.359375 1.0 1.03125 1.8125q0.6875 0.81251526 1.546875 1.4062653q0.875 0.578125 1.875 0.90625q1.015625 0.328125 1.984375 0.328125zm18.89737 5.265625l0 -26.54689l6.78125 0l0 26.54689l-6.78125 0zm0 -30.23439l0 -6.75l6.78125 0l0 6.75l-6.78125 0zm12.870483 -6.75l6.78125 0l0 28.46875q0 1.4687653 0.703125 2.2812653q0.71875 0.8125 2.03125 0.8125q0.609375 0 1.34375 -0.203125q0.734375 -0.203125 1.390625 -0.5l0.90625 5.15625q-1.359375 0.671875 -3.1875 1.015625q-1.828125 0.359375 -3.296875 0.359375q-3.1875 0 -4.9375 -1.6875q-1.734375 -1.703125 -1.734375 -4.84375l0 -30.85939zm16.10492 36.98439l0 -26.54689l6.78125 0l0 26.54689l-6.78125 0zm0 -30.23439l0 -6.75l6.78125 0l0 6.75l-6.78125 0zm28.823608 28.85939q-1.375 0.609375 -3.359375 1.21875q-1.96875 0.609375 -4.140625 0.609375q-1.421875 0 -2.671875 -0.359375q-1.234375 -0.34375 -2.171875 -1.125q-0.9375 -0.796875 -1.5 -2.03125q-0.546875 -1.25 -0.546875 -3.015625l0 -15.250015l-3.5 0l0 -5.21875l3.5 0l0 -8.609375l6.78125 0l0 8.609375l5.578125 0l0 5.21875l-5.578125 0l0 12.96875q0 1.4218903 0.734375 2.0000153q0.734375 0.578125 1.8125 0.578125q1.0625 0 2.0625 -0.34375q1.015625 -0.359375 1.625 -0.609375l1.375 5.359375zm3.5457764 1.375l0 -26.54689l6.78125 0l0 26.54689l-6.78125 0zm0 -30.23439l0 -6.75l6.78125 0l0 6.75l-6.78125 0zm25.229858 30.73439q-3.203125 0 -5.78125 -1.078125q-2.578125 -1.09375 -4.40625 -2.96875q-1.828125 -1.875 -2.8125 -4.3593903q-0.984375 -2.484375 -0.984375 -5.21875q0 -2.828125 0.953125 -5.328125q0.96875 -2.515625 2.78125 -4.40625q1.828125 -1.90625 4.4375 -3.015625q2.609375 -1.125 5.859375 -1.125q3.234375 0 5.796875 1.125q2.5625 1.109375 4.359375 2.984375q1.796875 1.875 2.734375 4.359375q0.9375 2.46875 0.9375 5.15625q0 0.65625 -0.03125 1.265625q-0.015625 0.609375 -0.125 1.015625l-20.515625 0q0.15625 1.578125 0.765625 2.796875q0.609375 1.2031403 1.5625 2.0625153q0.96875 0.859375 2.171875 1.328125q1.21875 0.453125 2.546875 0.453125q2.015625 0 3.8125 -0.984375q1.8125 -1.0 2.46875 -2.6093903l5.828125 1.6093903q-1.46875 3.046875 -4.6875 5.0q-3.21875 1.9375 -7.671875 1.9375zm6.875 -16.000015q-0.25 -2.984375 -2.203125 -4.78125q-1.9375 -1.8125 -4.734375 -1.8125q-1.359375 0 -2.5625 0.484375q-1.1875 0.484375 -2.09375 1.34375q-0.90625 0.859375 -1.5 2.078125q-0.578125 1.21875 -0.671875 2.6875l13.765625 0zm21.18689 16.000015q-3.34375 0 -6.546875 -1.0625q-3.1875 -1.0625 -5.46875 -3.03125l2.53125 -4.2656403q2.4375 1.7343903 4.734375 2.6250153q2.3125 0.875 4.59375 0.875q2.03125 0 3.1875 -0.75q1.171875 -0.765625 1.171875 -2.1875q0 -1.4218903 -1.375 -2.0781403q-1.359375 -0.65625 -4.453125 -1.515625q-2.578125 -0.703125 -4.40625 -1.359375q-1.828125 -0.671875 -2.9375 -1.5q-1.109375 -0.84375 -1.625 -1.921875q-0.5 -1.09375 -0.5 -2.609375q0 -2.03125 0.78125 -3.65625q0.78125 -1.625 2.203125 -2.75q1.421875 -1.140625 3.3125 -1.75q1.90625 -0.609375 4.140625 -0.609375q2.984375 0 5.59375 0.859375q2.609375 0.859375 4.78125 2.78125l-2.734375 4.109375q-2.03125 -1.515625 -3.9375 -2.21875q-1.890625 -0.71875 -3.765625 -0.71875q-1.71875 0 -2.890625 0.71875q-1.15625 0.703125 -1.15625 2.265625q0 0.703125 0.28125 1.171875q0.28125 0.453125 0.875 0.8125q0.609375 0.34375 1.59375 0.671875q1.0 0.328125 2.46875 0.6875q2.734375 0.703125 4.6875 1.421875q1.953125 0.703125 3.1875 1.625q1.234375 0.90625 1.8125 2.09375q0.59375 1.1875 0.59375 2.859375q0 3.9062653 -2.890625 6.1562653q-2.890625 2.25 -7.84375 2.25z" fill-rule="nonzero"/><path fill="#000000" fill-opacity="0.0" d="m518.5827 76.031494l402.8346 0l0 387.937l-402.8346 0z" fill-rule="evenodd"/><path fill="#ffffff" d="m537.10614 116.22062q2.578125 0 5.0625 1.34375q2.484375 1.328125 3.859375 3.8125q1.390625 2.484375 1.390625 5.15625q0 4.2812576 -3.03125 7.3125076q-3.015625 3.015625 -7.28125 3.015625q-4.296875 0 -7.328125 -3.015625q-3.015625 -3.03125 -3.015625 -7.3125076q0 -2.703125 1.375 -5.171875q1.390625 -2.46875 3.875 -3.796875q2.484375 -1.34375 5.09375 -1.34375z" fill-rule="nonzero"/><path fill="#ffffff" d="m602.80145 136.23625q-4.078125 4.078125 -9.5 4.078125q-3.359375 0 -6.3125 -1.34375q-2.953125 -1.34375 -5.140625 -3.6875q-2.1875 -2.359375 -3.46875 -5.546875q-1.265625 -3.1875076 -1.265625 -6.8906326q0 -3.5 1.265625 -6.59375q1.28125 -3.09375 3.515625 -5.421875q2.234375 -2.328125 5.25 -3.6875q3.03125 -1.375 6.578125 -1.375q4.796875 0 8.234375 2.015625q3.4375 2.015625 5.15625 5.421875l-4.9375 3.640625q-1.296875 -2.546875 -3.625 -3.890625q-2.328125 -1.34375 -5.0625 -1.34375q-2.15625 0 -3.96875 0.921875q-1.796875 0.90625 -3.078125 2.5q-1.265625 1.578125 -1.96875 3.640625q-0.6875 2.0625 -0.6875 4.359375q0 2.40625 0.765625 4.5q0.78125 2.0781326 2.125 3.6250076q1.34375 1.53125 3.1875 2.421875q1.84375 0.890625 4.0 0.890625q4.953125 0 8.9375 -4.65625l0 -2.4062576l-6.859375 0l0 -4.84375l12.328125 0l0 17.515633l-5.46875 0l0 -3.84375zm25.487549 -15.734383q-2.9375 0.046875 -5.234375 1.125q-2.296875 1.078125 -3.3125 3.234375l0 15.218758l-6.4375 0l0 -25.156258l5.90625 0l0 5.375q0.671875 -1.296875 1.578125 -2.328125q0.921875 -1.03125 1.96875 -1.796875q1.0625 -0.765625 2.140625 -1.171875q1.078125 -0.40625 2.09375 -0.40625q0.53125 0 0.78125 0q0.265625 0 0.515625 0.046875l0 5.859375zm10.466675 20.062508q-1.828125 0 -3.421875 -0.59375q-1.578125 -0.609375 -2.734375 -1.6875q-1.140625 -1.078125 -1.796875 -2.515625q-0.640625 -1.453125 -0.640625 -3.171875q0 -1.78125 0.78125 -3.28125q0.796875 -1.5156326 2.203125 -2.5781326q1.421875 -1.0625 3.390625 -1.65625q1.96875 -0.59375 4.328125 -0.59375q1.671875 0 3.28125 0.28125q1.609375 0.28125 2.859375 0.8125l0 -1.4375q0 -2.5 -1.421875 -3.84375q-1.40625 -1.34375 -4.1875 -1.34375q-2.015625 0 -3.9375 0.71875q-1.921875 0.71875 -3.9375 2.125l-1.96875 -4.09375q4.84375 -3.203125 10.46875 -3.203125q5.421875 0 8.421875 2.671875q3.0 2.65625 3.0 7.6875l0 7.8281326q0 1.0 0.359375 1.4375q0.359375 0.4375 1.171875 0.484375l0 5.46875q-1.625 0.34375 -2.828125 0.34375q-1.828125 0 -2.8125 -0.8125q-0.984375 -0.828125 -1.21875 -2.171875l-0.140625 -1.390625q-1.6875 2.203125 -4.09375 3.359375q-2.390625 1.15625 -5.125 1.15625zm1.8125 -4.703125q1.640625 0 3.09375 -0.578125q1.46875 -0.578125 2.28125 -1.546875q1.0625 -0.8125 1.0625 -1.8125l0 -2.890625q-1.15625 -0.421875 -2.5 -0.6875q-1.34375 -0.265625 -2.59375 -0.265625q-2.484375 0 -4.078125 1.125q-1.578125 1.125 -1.578125 2.859375q0 1.625 1.25 2.71875q1.25 1.078125 3.0625 1.078125zm57.942688 4.21875l-6.4375 0l0 -14.109383q0 -3.03125 -1.03125 -4.421875q-1.03125 -1.390625 -2.84375 -1.390625q-1.921875 0 -3.609375 1.46875q-1.671875 1.46875 -2.390625 3.8125l0 14.640633l-6.4375 0l0 -14.109383q0 -3.03125 -1.03125 -4.421875q-1.03125 -1.390625 -2.859375 -1.390625q-1.875 0 -3.578125 1.4375q-1.703125 1.4375 -2.421875 3.796875l0 14.687508l-6.4375 0l0 -25.156258l5.8125 0l0 4.65625q1.390625 -2.4375 3.8125 -3.75q2.421875 -1.328125 5.546875 -1.328125q3.171875 0 4.890625 1.53125q1.734375 1.53125 2.21875 3.796875q1.53125 -2.59375 3.875 -3.953125q2.359375 -1.375 5.390625 -1.375q2.296875 0 3.78125 0.859375q1.5 0.859375 2.3125 2.25q0.8125 1.390625 1.125 3.171875q0.3125 1.78125 0.3125 3.59375l0 15.703133zm44.68805 0l-6.4375 0l0 -14.109383q0 -3.03125 -1.03125 -4.421875q-1.03125 -1.390625 -2.84375 -1.390625q-1.921875 0 -3.609375 1.46875q-1.671875 1.46875 -2.390625 3.8125l0 14.640633l-6.4375 0l0 -14.109383q0 -3.03125 -1.03125 -4.421875q-1.03125 -1.390625 -2.859375 -1.390625q-1.875 0 -3.578125 1.4375q-1.703125 1.4375 -2.421875 3.796875l0 14.687508l-6.4375 0l0 -25.156258l5.8125 0l0 4.65625q1.390625 -2.4375 3.8125 -3.75q2.421875 -1.328125 5.546875 -1.328125q3.171875 0 4.890625 1.53125q1.734375 1.53125 2.21875 3.796875q1.53125 -2.59375 3.875 -3.953125q2.359375 -1.375 5.390625 -1.375q2.296875 0 3.78125 0.859375q1.5 0.859375 2.3125 2.25q0.8125 1.390625 1.125 3.171875q0.3125 1.78125 0.3125 3.59375l0 15.703133zm12.484985 0.484375q-1.828125 0 -3.421875 -0.59375q-1.578125 -0.609375 -2.734375 -1.6875q-1.140625 -1.078125 -1.796875 -2.515625q-0.640625 -1.453125 -0.640625 -3.171875q0 -1.78125 0.78125 -3.28125q0.796875 -1.5156326 2.203125 -2.5781326q1.421875 -1.0625 3.390625 -1.65625q1.96875 -0.59375 4.328125 -0.59375q1.671875 0 3.28125 0.28125q1.609375 0.28125 2.859375 0.8125l0 -1.4375q0 -2.5 -1.421875 -3.84375q-1.40625 -1.34375 -4.1875 -1.34375q-2.015625 0 -3.9375 0.71875q-1.921875 0.71875 -3.9375 2.125l-1.96875 -4.09375q4.84375 -3.203125 10.46875 -3.203125q5.421875 0 8.421875 2.671875q3.0 2.65625 3.0 7.6875l0 7.8281326q0 1.0 0.359375 1.4375q0.359375 0.4375 1.171875 0.484375l0 5.46875q-1.625 0.34375 -2.828125 0.34375q-1.828125 0 -2.8125 -0.8125q-0.984375 -0.828125 -1.21875 -2.171875l-0.140625 -1.390625q-1.6875 2.203125 -4.09375 3.359375q-2.390625 1.15625 -5.125 1.15625zm1.8125 -4.703125q1.640625 0 3.09375 -0.578125q1.46875 -0.578125 2.28125 -1.546875q1.0625 -0.8125 1.0625 -1.8125l0 -2.890625q-1.15625 -0.421875 -2.5 -0.6875q-1.34375 -0.265625 -2.59375 -0.265625q-2.484375 0 -4.078125 1.125q-1.578125 1.125 -1.578125 2.859375q0 1.625 1.25 2.71875q1.25 1.078125 3.0625 1.078125zm33.848938 -15.359383q-2.9375 0.046875 -5.234375 1.125q-2.296875 1.078125 -3.3125 3.234375l0 15.218758l-6.4375 0l0 -25.156258l5.90625 0l0 5.375q0.671875 -1.296875 1.578125 -2.328125q0.921875 -1.03125 1.96875 -1.796875q1.0625 -0.765625 2.140625 -1.171875q1.078125 -0.40625 2.09375 -0.40625q0.53125 0 0.78125 0q0.265625 0 0.515625 0.046875l0 5.859375z" fill-rule="nonzero"/><path fill="#ffffff" d="m537.10614 182.22063q2.578125 0 5.0625 1.34375q2.484375 1.328125 3.859375 3.8125q1.390625 2.484375 1.390625 5.15625q0 4.28125 -3.03125 7.3125q-3.015625 3.015625 -7.28125 3.015625q-4.296875 0 -7.328125 -3.015625q-3.015625 -3.03125 -3.015625 -7.3125q0 -2.703125 1.375 -5.171875q1.390625 -2.46875 3.875 -3.796875q2.484375 -1.34375 5.09375 -1.34375z" fill-rule="nonzero"/><path fill="#ffffff" d="m599.4421 180.92375q-0.34375 -0.328125 -1.234375 -0.90625q-0.875 -0.578125 -2.15625 -1.125q-1.265625 -0.5625 -2.765625 -0.9375q-1.484375 -0.390625 -3.015625 -0.390625q-2.734375 0 -4.078125 1.015625q-1.34375 1.0 -1.34375 2.828125q0 1.0625 0.5 1.765625q0.5 0.6875 1.453125 1.21875q0.96875 0.515625 2.4375 0.953125q1.46875 0.4375 3.390625 0.90625q2.484375 0.671875 4.515625 1.453125q2.046875 0.765625 3.46875 1.921875q1.421875 1.140625 2.1875 2.75q0.765625 1.609375 0.765625 3.953125q0 2.734375 -1.03125 4.6875q-1.03125 1.9375 -2.78125 3.140625q-1.75 1.203125 -4.03125 1.765625q-2.28125 0.546875 -4.78125 0.546875q-3.84375 0 -7.59375 -1.15625q-3.734375 -1.15625 -6.703125 -3.265625l2.921875 -5.71875q0.4375 0.4375 1.5625 1.140625q1.125 0.6875 2.65625 1.390625q1.546875 0.6875 3.40625 1.171875q1.875 0.484375 3.84375 0.484375q5.46875 0 5.46875 -3.515625q0 -1.09375 -0.625 -1.859375q-0.609375 -0.78125 -1.765625 -1.34375q-1.15625 -0.578125 -2.796875 -1.0625q-1.625 -0.484375 -3.640625 -1.0625q-2.453125 -0.671875 -4.25 -1.453125q-1.796875 -0.796875 -3.0 -1.875q-1.203125 -1.078125 -1.796875 -2.484375q-0.59375 -1.421875 -0.59375 -3.390625q0 -2.59375 0.953125 -4.609375q0.96875 -2.015625 2.671875 -3.359375q1.703125 -1.34375 3.953125 -2.03125q2.25 -0.703125 4.84375 -0.703125q3.609375 0 6.625 1.125q3.03125 1.125 5.28125 2.65625l-2.921875 5.375zm16.174011 25.640625q-3.890625 0 -5.90625 -2.5q-2.015625 -2.5 -2.015625 -7.390625l0 -15.75l6.4375 0l0 14.359375q0 5.8125 4.171875 5.8125q1.875 0 3.625 -1.125q1.75 -1.140625 2.859375 -3.4375l0 -15.609375l6.421875 0l0 17.765625q0 1.0 0.359375 1.4375q0.359375 0.4375 1.1875 0.484375l0 5.46875q-0.96875 0.1875 -1.625 0.234375q-0.640625 0.046875 -1.171875 0.046875q-1.71875 0 -2.796875 -0.78125q-1.078125 -0.796875 -1.28125 -2.1875l-0.140625 -2.015625q-1.671875 2.59375 -4.3125 3.890625q-2.640625 1.296875 -5.8125 1.296875zm36.289062 0q-2.875 0 -5.140625 -1.296875q-2.25 -1.296875 -3.546875 -3.5625l0 4.375l-5.625 0l0 -35.046875l6.4375 0l0 14.3125q1.34375 -2.3125 3.53125 -3.578125q2.1875 -1.265625 5.109375 -1.265625q2.453125 0 4.46875 1.0625q2.015625 1.046875 3.46875 2.828125q1.46875 1.765625 2.25 4.171875q0.796875 2.390625 0.796875 5.03125q0 2.734375 -0.890625 5.09375q-0.875 2.34375 -2.46875 4.109375q-1.578125 1.75 -3.734375 2.765625q-2.15625 1.0 -4.65625 1.0zm-1.78125 -5.46875q1.53125 0 2.828125 -0.59375q1.296875 -0.609375 2.203125 -1.609375q0.921875 -1.015625 1.421875 -2.359375q0.515625 -1.34375 0.515625 -2.890625q0 -1.53125 -0.484375 -2.921875q-0.484375 -1.390625 -1.375 -2.4375q-0.875 -1.0625 -2.078125 -1.6875q-1.203125 -0.625 -2.640625 -0.625q-2.15625 0 -3.875 1.421875q-1.703125 1.40625 -2.609375 3.46875l0 6.0q0.34375 0.96875 0.984375 1.734375q0.640625 0.765625 1.453125 1.328125q0.828125 0.546875 1.78125 0.859375q0.96875 0.3125 1.875 0.3125zm17.900818 4.984375l0 -25.15625l6.4375 0l0 25.15625l-6.4375 0zm0 -28.65625l0 -6.390625l6.4375 0l0 6.390625l-6.4375 0zm27.318176 27.359375q-1.296875 0.578125 -3.171875 1.15625q-1.875 0.578125 -3.9375 0.578125q-1.34375 0 -2.515625 -0.34375q-1.171875 -0.328125 -2.0625 -1.078125q-0.890625 -0.75 -1.421875 -1.921875q-0.515625 -1.171875 -0.515625 -2.859375l0 -14.4375l-3.3125 0l0 -4.953125l3.3125 0l0 -8.15625l6.421875 0l0 8.15625l5.28125 0l0 4.953125l-5.28125 0l0 12.28125q0 1.34375 0.6875 1.90625q0.703125 0.546875 1.71875 0.546875q1.0 0 1.953125 -0.328125q0.96875 -0.34375 1.546875 -0.59375l1.296875 5.09375zm3.3538818 1.296875l0 -25.15625l6.4375 0l0 25.15625l-6.4375 0zm0 -28.65625l0 -6.390625l6.4375 0l0 6.390625l-6.4375 0zm10.568176 24.71875l14.015625 -16.703125l-13.4375 0l0 -4.515625l20.203125 0l0 3.9375l-13.921875 16.703125l14.15625 0l0 4.515625l-21.015625 0l0 -3.9375zm25.335938 3.9375l0 -25.15625l6.4375 0l0 25.15625l-6.4375 0zm0 -28.65625l0 -6.390625l6.4375 0l0 6.390625l-6.4375 0zm35.61499 28.65625l-6.421875 0l0 -14.109375q0 -3.03125 -1.0625 -4.421875q-1.046875 -1.390625 -2.921875 -1.390625q-0.96875 0 -1.984375 0.390625q-1.0 0.375 -1.890625 1.078125q-0.875 0.6875 -1.59375 1.65625q-0.71875 0.953125 -1.0625 2.109375l0 14.6875l-6.4375 0l0 -25.15625l5.8125 0l0 4.65625q1.390625 -2.390625 4.03125 -3.734375q2.640625 -1.34375 5.953125 -1.34375q2.359375 0 3.84375 0.859375q1.484375 0.859375 2.296875 2.25q0.828125 1.390625 1.125 3.171875q0.3125 1.78125 0.3125 3.59375l0 15.703125zm15.460815 0.140625q-2.546875 0 -4.609375 -1.0q-2.0625 -1.015625 -3.578125 -2.765625q-1.5 -1.75 -2.328125 -4.046875q-0.8125 -2.3125 -0.8125 -4.90625q0 -2.734375 0.859375 -5.078125q0.875 -2.359375 2.40625 -4.125q1.53125 -1.78125 3.6875 -2.78125q2.171875 -1.015625 4.765625 -1.015625q2.921875 0 5.125 1.328125q2.21875 1.3125 3.65625 3.515625l0 -4.421875l5.609375 0l0 23.953125q0 2.78125 -1.0625 4.984375q-1.046875 2.21875 -2.890625 3.75q-1.84375 1.546875 -4.421875 2.359375q-2.5625 0.8125 -5.59375 0.8125q-4.125 0 -6.9375 -1.375q-2.796875 -1.359375 -4.8125 -3.859375l3.5 -3.40625q1.4375 1.78125 3.625 2.78125q2.1875 1.015625 4.625 1.015625q1.5 0 2.859375 -0.40625q1.375 -0.40625 2.421875 -1.28125q1.0625 -0.859375 1.65625 -2.203125q0.609375 -1.34375 0.609375 -3.171875l0 -3.171875q-1.25 2.171875 -3.515625 3.34375q-2.25 1.171875 -4.84375 1.171875zm2.15625 -5.125q1.0625 0 2.015625 -0.328125q0.96875 -0.34375 1.78125 -0.921875q0.8125 -0.578125 1.4375 -1.34375q0.625 -0.78125 0.96875 -1.640625l0 -6.0q-0.875 -2.203125 -2.71875 -3.546875q-1.84375 -1.34375 -3.859375 -1.34375q-1.484375 0 -2.6875 0.65625q-1.203125 0.640625 -2.078125 1.71875q-0.859375 1.078125 -1.3125 2.46875q-0.453125 1.390625 -0.453125 2.875q0 1.546875 0.53125 2.890625q0.53125 1.34375 1.453125 2.359375q0.9375 1.0 2.1875 1.578125q1.25 0.578125 2.734375 0.578125z" fill-rule="nonzero"/><path fill="#ffffff" d="m537.10614 248.22063q2.578125 0 5.0625 1.34375q2.484375 1.328125 3.859375 3.8125q1.390625 2.484375 1.390625 5.1562653q0 4.28125 -3.03125 7.3125q-3.015625 3.015625 -7.28125 3.015625q-4.296875 0 -7.328125 -3.015625q-3.015625 -3.03125 -3.015625 -7.3125q0 -2.7031403 1.375 -5.1718903q1.390625 -2.46875 3.875 -3.796875q2.484375 -1.34375 5.09375 -1.34375z" fill-rule="nonzero"/><path fill="#ffffff" d="m588.8327 238.00188l5.859375 0l12.953125 34.07814l-6.8125 0l-3.171875 -8.5l-11.90625 0l-3.109375 8.5l-6.828125 0l13.015625 -34.07814zm7.625 20.92189l-4.703125 -13.39064l-4.890625 13.39064l9.59375 0zm29.287292 -6.4218903q-2.9375 0.046875 -5.234375 1.125q-2.296875 1.078125 -3.3125 3.2343903l0 15.21875l-6.4375 0l0 -25.156265l5.90625 0l0 5.375q0.671875 -1.296875 1.578125 -2.328125q0.921875 -1.03125 1.96875 -1.796875q1.0625 -0.765625 2.140625 -1.171875q1.078125 -0.40625 2.09375 -0.40625q0.53125 0 0.78125 0q0.265625 0 0.515625 0.046875l0 5.859375zm3.5916748 19.57814l0 -25.156265l6.4375 0l0 25.156265l-6.4375 0zm0 -28.656265l0 -6.390625l6.4375 0l0 6.390625l-6.4375 0zm27.318115 27.35939q-1.296875 0.578125 -3.171875 1.15625q-1.875 0.578125 -3.9375 0.578125q-1.34375 0 -2.515625 -0.34375q-1.171875 -0.328125 -2.0625 -1.078125q-0.890625 -0.75 -1.421875 -1.921875q-0.515625 -1.171875 -0.515625 -2.859375l0 -14.437515l-3.3125 0l0 -4.953125l3.3125 0l0 -8.15625l6.421875 0l0 8.15625l5.28125 0l0 4.953125l-5.28125 0l0 12.281265q0 1.34375 0.6875 1.90625q0.703125 0.546875 1.71875 0.546875q1.0 0 1.953125 -0.328125q0.96875 -0.34375 1.546875 -0.59375l1.296875 5.09375zm26.728943 1.296875l-6.421875 0l0 -14.109375q0 -2.9843903 -1.109375 -4.3906403q-1.109375 -1.421875 -3.125 -1.421875q-0.859375 0 -1.828125 0.390625q-0.953125 0.375 -1.8125 1.078125q-0.859375 0.6875 -1.578125 1.65625q-0.71875 0.95314026 -1.0625 2.1093903l0 14.6875l-6.4375 0l0 -35.04689l6.4375 0l0 14.546875q1.390625 -2.4375 3.765625 -3.75q2.375 -1.328125 5.265625 -1.328125q2.4375 0 3.96875 0.84375q1.546875 0.828125 2.40625 2.21875q0.859375 1.390625 1.1875 3.171875q0.34375 1.78125 0.34375 3.6406403l0 15.703125zm44.69519 0l-6.4375 0l0 -14.109375q0 -3.0312653 -1.03125 -4.4218903q-1.03125 -1.390625 -2.84375 -1.390625q-1.921875 0 -3.609375 1.46875q-1.671875 1.46875 -2.390625 3.8125153l0 14.640625l-6.4375 0l0 -14.109375q0 -3.0312653 -1.03125 -4.4218903q-1.03125 -1.390625 -2.859375 -1.390625q-1.875 0 -3.578125 1.4375q-1.703125 1.4375 -2.421875 3.7968903l0 14.6875l-6.4375 0l0 -25.156265l5.8125 0l0 4.65625q1.390625 -2.4375 3.8125 -3.75q2.421875 -1.328125 5.546875 -1.328125q3.171875 0 4.890625 1.53125q1.734375 1.53125 2.21875 3.796875q1.53125 -2.59375 3.875 -3.953125q2.359375 -1.375 5.390625 -1.375q2.296875 0 3.78125 0.859375q1.5 0.859375 2.3125 2.25q0.8125 1.390625 1.125 3.171875q0.3125 1.78125 0.3125 3.5937653l0 15.703125zm17.28186 0.484375q-3.03125 0 -5.484375 -1.03125q-2.4375 -1.03125 -4.171875 -2.8125q-1.71875 -1.78125 -2.65625 -4.125q-0.9375 -2.359375 -0.9375 -4.953125q0 -2.6875 0.90625 -5.0625153q0.921875 -2.375 2.640625 -4.171875q1.734375 -1.796875 4.203125 -2.84375q2.46875 -1.0625 5.546875 -1.0625q3.078125 0 5.5 1.0625q2.421875 1.046875 4.125 2.828125q1.703125 1.765625 2.59375 4.125q0.890625 2.3437653 0.890625 4.8906403q0 0.625 -0.03125 1.203125q-0.015625 0.578125 -0.125 0.953125l-19.4375 0q0.140625 1.484375 0.71875 2.640625q0.578125 1.15625 1.484375 1.96875q0.921875 0.8125 2.0625 1.25q1.15625 0.4375 2.40625 0.4375q1.921875 0 3.625 -0.9375q1.703125 -0.9375 2.328125 -2.46875l5.515625 1.53125q-1.390625 2.875 -4.4375 4.734375q-3.046875 1.84375 -7.265625 1.84375zm6.53125 -15.171875q-0.25 -2.8281403 -2.09375 -4.5312653q-1.84375 -1.703125 -4.484375 -1.703125q-1.296875 0 -2.4375 0.453125q-1.125 0.453125 -1.984375 1.265625q-0.859375 0.8125 -1.421875 1.96875q-0.546875 1.1562653 -0.640625 2.5468903l13.0625 0zm25.627075 13.390625q-1.296875 0.578125 -3.171936 1.15625q-1.875 0.578125 -3.9375 0.578125q-1.34375 0 -2.515625 -0.34375q-1.171875 -0.328125 -2.0625 -1.078125q-0.890625 -0.75 -1.421875 -1.921875q-0.515625 -1.171875 -0.515625 -2.859375l0 -14.437515l-3.3125 0l0 -4.953125l3.3125 0l0 -8.15625l6.421875 0l0 8.15625l5.281311 0l0 4.953125l-5.281311 0l0 12.281265q0 1.34375 0.6875 1.90625q0.703125 0.546875 1.71875 0.546875q1.0 0 1.953186 -0.328125q0.96875 -0.34375 1.546875 -0.59375l1.296875 5.09375zm3.3538818 1.296875l0 -25.156265l6.4375 0l0 25.156265l-6.4375 0zm0 -28.656265l0 -6.390625l6.4375 0l0 6.390625l-6.4375 0zm10.661926 16.07814q0 -2.640625 0.90625 -4.9843903q0.921875 -2.359375 2.640625 -4.125q1.734375 -1.78125 4.171875 -2.828125q2.453125 -1.0625 5.53125 -1.0625q4.125 0 7.03125 1.78125q2.90625 1.765625 4.34375 4.640625l-6.28125 1.921875q-0.828125 -1.390625 -2.171875 -2.125q-1.34375 -0.75 -2.96875 -0.75q-1.390625 0 -2.59375 0.546875q-1.203125 0.546875 -2.09375 1.53125q-0.890625 0.984375 -1.390625 2.3906403q-0.5 1.390625 -0.5 3.0625q0 1.6875 0.53125 3.078125q0.53125 1.390625 1.40625 2.40625q0.890625 1.0 2.09375 1.5625q1.203125 0.546875 2.546875 0.546875q1.71875 0 3.1875 -0.859375q1.46875 -0.875 2.046875 -2.125l6.28125 1.921875q-1.296875 2.875 -4.28125 4.703125q-2.96875 1.828125 -7.140625 1.828125q-3.078125 0 -5.53125 -1.046875q-2.4375 -1.0625 -4.171875 -2.859375q-1.71875 -1.8125 -2.65625 -4.1875q-0.9375 -2.375 -0.9375 -4.96875z" fill-rule="nonzero"/><path fill="#ffffff" d="m537.10614 314.2206q2.578125 0 5.0625 1.34375q2.484375 1.328125 3.859375 3.8125q1.390625 2.484375 1.390625 5.15625q0 4.28125 -3.03125 7.3125q-3.015625 3.015625 -7.28125 3.015625q-4.296875 0 -7.328125 -3.015625q-3.015625 -3.03125 -3.015625 -7.3125q0 -2.703125 1.375 -5.171875q1.390625 -2.46875 3.875 -3.796875q2.484375 -1.34375 5.09375 -1.34375z" fill-rule="nonzero"/><path fill="#ffffff" d="m588.8327 304.00186l5.859375 0l12.953125 34.078125l-6.8125 0l-3.171875 -8.5l-11.90625 0l-3.109375 8.5l-6.828125 0l13.015625 -34.078125zm7.625 20.921875l-4.703125 -13.390625l-4.890625 13.390625l9.59375 0zm37.677917 13.15625l-6.421875 0l0 -14.109375q0 -3.03125 -1.0625 -4.421875q-1.046875 -1.390625 -2.921875 -1.390625q-0.96875 0 -1.984375 0.390625q-1.0 0.375 -1.890625 1.078125q-0.875 0.6875 -1.59375 1.65625q-0.71875 0.953125 -1.0625 2.109375l0 14.6875l-6.4375 0l0 -25.15625l5.8125 0l0 4.65625q1.390625 -2.390625 4.03125 -3.734375q2.640625 -1.34375 5.953125 -1.34375q2.359375 0 3.84375 0.859375q1.484375 0.859375 2.296875 2.25q0.828125 1.390625 1.125 3.171875q0.3125 1.78125 0.3125 3.59375l0 15.703125zm12.492065 0.484375q-1.828125 0 -3.421875 -0.59375q-1.578125 -0.609375 -2.734375 -1.6875q-1.140625 -1.078125 -1.796875 -2.515625q-0.640625 -1.453125 -0.640625 -3.171875q0 -1.78125 0.78125 -3.28125q0.796875 -1.515625 2.203125 -2.578125q1.421875 -1.0625 3.390625 -1.65625q1.96875 -0.59375 4.328125 -0.59375q1.671875 0 3.28125 0.28125q1.609375 0.28125 2.859375 0.8125l0 -1.4375q0 -2.5 -1.421875 -3.84375q-1.40625 -1.34375 -4.1875 -1.34375q-2.015625 0 -3.9375 0.71875q-1.921875 0.71875 -3.9375 2.125l-1.96875 -4.09375q4.84375 -3.203125 10.46875 -3.203125q5.421875 0 8.421875 2.671875q3.0 2.65625 3.0 7.6875l0 7.828125q0 1.0 0.359375 1.4375q0.359375 0.4375 1.171875 0.484375l0 5.46875q-1.625 0.34375 -2.828125 0.34375q-1.828125 0 -2.8125 -0.8125q-0.984375 -0.828125 -1.21875 -2.171875l-0.140625 -1.390625q-1.6875 2.203125 -4.09375 3.359375q-2.390625 1.15625 -5.125 1.15625zm1.8125 -4.703125q1.640625 0 3.09375 -0.578125q1.46875 -0.578125 2.28125 -1.546875q1.0625 -0.8125 1.0625 -1.8125l0 -2.890625q-1.15625 -0.421875 -2.5 -0.6875q-1.34375 -0.265625 -2.59375 -0.265625q-2.484375 0 -4.078125 1.125q-1.578125 1.125 -1.578125 2.859375q0 1.625 1.25 2.71875q1.25 1.078125 3.0625 1.078125zm18.817688 -30.828125l6.4375 0l0 26.984375q0 1.390625 0.671875 2.15625q0.671875 0.765625 1.921875 0.765625q0.578125 0 1.265625 -0.1875q0.703125 -0.1875 1.328125 -0.484375l0.859375 4.90625q-1.296875 0.625 -3.03125 0.953125q-1.71875 0.34375 -3.109375 0.34375q-3.03125 0 -4.6875 -1.609375q-1.65625 -1.609375 -1.65625 -4.59375l0 -29.234375zm26.88794 35.53125q-3.078125 0 -5.53125 -1.046875q-2.4375 -1.0625 -4.140625 -2.859375q-1.703125 -1.8125 -2.625 -4.15625q-0.90625 -2.359375 -0.90625 -4.953125q0 -2.640625 0.90625 -4.984375q0.921875 -2.359375 2.625 -4.15625q1.703125 -1.796875 4.140625 -2.84375q2.453125 -1.0625 5.53125 -1.0625q3.0625 0 5.484375 1.0625q2.4375 1.046875 4.140625 2.84375q1.703125 1.796875 2.609375 4.15625q0.921875 2.34375 0.921875 4.984375q0 2.59375 -0.921875 4.953125q-0.90625 2.34375 -2.59375 4.15625q-1.671875 1.796875 -4.125 2.859375q-2.453125 1.046875 -5.515625 1.046875zm-6.578125 -13.015625q0 1.6875 0.5 3.0625q0.5 1.359375 1.390625 2.375q0.890625 1.0 2.09375 1.5625q1.203125 0.546875 2.59375 0.546875q1.390625 0 2.59375 -0.546875q1.203125 -0.5625 2.078125 -1.5625q0.890625 -1.015625 1.390625 -2.40625q0.515625 -1.390625 0.515625 -3.078125q0 -1.625 -0.515625 -3.015625q-0.5 -1.390625 -1.390625 -2.40625q-0.875 -1.015625 -2.078125 -1.5625q-1.203125 -0.546875 -2.59375 -0.546875q-1.390625 0 -2.59375 0.578125q-1.203125 0.578125 -2.09375 1.59375q-0.890625 1.0 -1.390625 2.390625q-0.5 1.390625 -0.5 3.015625zm33.884888 12.671875q-2.546875 0 -4.609375 -1.0q-2.0625 -1.015625 -3.578125 -2.765625q-1.5 -1.75 -2.328125 -4.046875q-0.8125 -2.3125 -0.8125 -4.90625q0 -2.734375 0.859375 -5.078125q0.875 -2.359375 2.40625 -4.125q1.53125 -1.78125 3.6875 -2.78125q2.171875 -1.015625 4.765625 -1.015625q2.921875 0 5.125 1.328125q2.21875 1.3125 3.65625 3.515625l0 -4.421875l5.609375 0l0 23.953125q0 2.78125 -1.0625 4.984375q-1.046875 2.21875 -2.890625 3.75q-1.84375 1.546875 -4.421875 2.359375q-2.5625 0.8125 -5.59375 0.8125q-4.125 0 -6.9375 -1.375q-2.796875 -1.359375 -4.8125 -3.859375l3.5 -3.40625q1.4375 1.78125 3.625 2.78125q2.1875 1.015625 4.625 1.015625q1.5 0 2.859375 -0.40625q1.375 -0.40625 2.421875 -1.28125q1.0625 -0.859375 1.65625 -2.203125q0.609375 -1.34375 0.609375 -3.171875l0 -3.171875q-1.25 2.171875 -3.515625 3.34375q-2.25 1.171875 -4.84375 1.171875zm2.15625 -5.125q1.0625 0 2.015625 -0.328125q0.96875 -0.34375 1.78125 -0.921875q0.8125 -0.578125 1.4375 -1.34375q0.625 -0.78125 0.96875 -1.640625l0 -6.0q-0.875 -2.203125 -2.71875 -3.546875q-1.84375 -1.34375 -3.859375 -1.34375q-1.484375 0 -2.6875 0.65625q-1.203125 0.640625 -2.078125 1.71875q-0.859375 1.078125 -1.3125 2.46875q-0.453125 1.390625 -0.453125 2.875q0 1.546875 0.53125 2.890625q0.53125 1.34375 1.453125 2.359375q0.9375 1.0 2.1875 1.578125q1.25 0.578125 2.734375 0.578125zm18.963318 9.875q0.8125 0.25 1.578125 0.359375q0.78125 0.125 1.3125 0.125q0.609375 0 1.140625 -0.25q0.53125 -0.234375 0.953125 -0.828125q0.4375 -0.59375 0.875 -1.65625q0.4375 -1.0625 0.90625 -2.640625l-9.9375 -25.15625l6.625 0l6.828125 19.59375l6.046875 -19.59375l6.046875 0l-10.5625 30.140625q-0.90625 2.640625 -3.125 4.3125q-2.203125 1.6875 -5.46875 1.6875q-0.765625 0 -1.5625 -0.125q-0.796875 -0.109375 -1.65625 -0.390625l0 -5.578125z" fill-rule="nonzero"/><path fill="#ffffff" d="m537.10614 380.2206q2.578125 0 5.0625 1.34375q2.484375 1.328125 3.859375 3.8125q1.390625 2.484375 1.390625 5.15625q0 4.28125 -3.03125 7.3125q-3.015625 3.015625 -7.28125 3.015625q-4.296875 0 -7.328125 -3.015625q-3.015625 -3.03125 -3.015625 -7.3125q0 -2.703125 1.375 -5.171875q1.390625 -2.46875 3.875 -3.796875q2.484375 -1.34375 5.09375 -1.34375z" fill-rule="nonzero"/><path fill="#ffffff" d="m606.92645 404.08l0 -22.5625l-8.78125 16.796875l-3.609375 0l-8.78125 -16.796875l0 22.5625l-6.625 0l0 -34.078125l7.109375 0l10.078125 19.390625l10.171875 -19.390625l7.0625 0l0 34.078125l-6.625 0zm24.77008 0.484375q-3.03125 0 -5.484375 -1.03125q-2.4375 -1.03125 -4.171875 -2.8125q-1.71875 -1.78125 -2.65625 -4.125q-0.9375 -2.359375 -0.9375 -4.953125q0 -2.6875 0.90625 -5.0625q0.921875 -2.375 2.640625 -4.171875q1.734375 -1.796875 4.203125 -2.84375q2.46875 -1.0625 5.546875 -1.0625q3.078125 0 5.5 1.0625q2.421875 1.046875 4.125 2.828125q1.703125 1.765625 2.59375 4.125q0.890625 2.34375 0.890625 4.890625q0 0.625 -0.03125 1.203125q-0.015625 0.578125 -0.125 0.953125l-19.4375 0q0.140625 1.484375 0.71875 2.640625q0.578125 1.15625 1.484375 1.96875q0.921875 0.8125 2.0625 1.25q1.15625 0.4375 2.40625 0.4375q1.921875 0 3.625 -0.9375q1.703125 -0.9375 2.328125 -2.46875l5.515625 1.53125q-1.390625 2.875 -4.4375 4.734375q-3.046875 1.84375 -7.265625 1.84375zm6.53125 -15.171875q-0.25 -2.828125 -2.09375 -4.53125q-1.84375 -1.703125 -4.484375 -1.703125q-1.296875 0 -2.4375 0.453125q-1.125 0.453125 -1.984375 1.265625q-0.859375 0.8125 -1.421875 1.96875q-0.546875 1.15625 -0.640625 2.546875l13.0625 0zm25.627014 13.390625q-1.296875 0.578125 -3.171875 1.15625q-1.875 0.578125 -3.9375 0.578125q-1.34375 0 -2.515625 -0.34375q-1.171875 -0.328125 -2.0625 -1.078125q-0.890625 -0.75 -1.421875 -1.921875q-0.515625 -1.171875 -0.515625 -2.859375l0 -14.4375l-3.3125 0l0 -4.953125l3.3125 0l0 -8.15625l6.421875 0l0 8.15625l5.28125 0l0 4.953125l-5.28125 0l0 12.28125q0 1.34375 0.6875 1.90625q0.703125 0.546875 1.71875 0.546875q1.0 0 1.953125 -0.328125q0.96875 -0.34375 1.546875 -0.59375l1.296875 5.09375zm10.228943 1.78125q-1.828125 0 -3.421875 -0.59375q-1.578125 -0.609375 -2.734375 -1.6875q-1.140625 -1.078125 -1.796875 -2.515625q-0.640625 -1.453125 -0.640625 -3.171875q0 -1.78125 0.78125 -3.28125q0.796875 -1.515625 2.203125 -2.578125q1.421875 -1.0625 3.390625 -1.65625q1.96875 -0.59375 4.328125 -0.59375q1.671875 0 3.28125 0.28125q1.609375 0.28125 2.859375 0.8125l0 -1.4375q0 -2.5 -1.421875 -3.84375q-1.40625 -1.34375 -4.1875 -1.34375q-2.015625 0 -3.9375 0.71875q-1.921875 0.71875 -3.9375 2.125l-1.96875 -4.09375q4.84375 -3.203125 10.46875 -3.203125q5.421875 0 8.421875 2.671875q3.0 2.65625 3.0 7.6875l0 7.828125q0 1.0 0.359375 1.4375q0.359375 0.4375 1.171875 0.484375l0 5.46875q-1.625 0.34375 -2.828125 0.34375q-1.828125 0 -2.8125 -0.8125q-0.984375 -0.828125 -1.21875 -2.171875l-0.140625 -1.390625q-1.6875 2.203125 -4.09375 3.359375q-2.390625 1.15625 -5.125 1.15625zm1.8125 -4.703125q1.640625 0 3.09375 -0.578125q1.46875 -0.578125 2.28125 -1.546875q1.0625 -0.8125 1.0625 -1.8125l0 -2.890625q-1.15625 -0.421875 -2.5 -0.6875q-1.34375 -0.265625 -2.59375 -0.265625q-2.484375 0 -4.078125 1.125q-1.578125 1.125 -1.578125 2.859375q0 1.625 1.25 2.71875q1.25 1.078125 3.0625 1.078125zm33.942688 4.703125q-2.96875 0 -5.1875 -1.3125q-2.203125 -1.328125 -3.453125 -3.59375l0 14.640625l-6.4375 0l0 -35.375l5.625 0l0 4.328125q1.390625 -2.21875 3.59375 -3.484375q2.21875 -1.265625 5.09375 -1.265625q2.546875 0 4.703125 1.03125q2.15625 1.03125 3.71875 2.78125q1.5625 1.75 2.4375 4.125q0.890625 2.375 0.890625 5.015625q0 2.734375 -0.8125 5.140625q-0.8125 2.390625 -2.28125 4.171875q-1.453125 1.78125 -3.46875 2.796875q-2.015625 1.0 -4.421875 1.0zm-2.15625 -5.46875q1.4375 0 2.65625 -0.625q1.234375 -0.625 2.09375 -1.6875q0.859375 -1.0625 1.34375 -2.453125q0.484375 -1.390625 0.484375 -2.875q0 -1.578125 -0.53125 -2.9375q-0.53125 -1.375 -1.46875 -2.375q-0.9375 -1.015625 -2.21875 -1.59375q-1.265625 -0.578125 -2.75 -0.578125q-0.90625 0 -1.875 0.3125q-0.953125 0.3125 -1.78125 0.890625q-0.8125 0.5625 -1.453125 1.34375q-0.640625 0.765625 -0.984375 1.671875l0 5.90625q0.859375 2.15625 2.640625 3.578125q1.78125 1.421875 3.84375 1.421875zm40.885193 4.984375l-6.421875 0l0 -14.109375q0 -2.984375 -1.109375 -4.390625q-1.109375 -1.421875 -3.125 -1.421875q-0.859375 0 -1.828125 0.390625q-0.953125 0.375 -1.8125 1.078125q-0.859375 0.6875 -1.578125 1.65625q-0.71875 0.953125 -1.0625 2.109375l0 14.6875l-6.4375 0l0 -35.046875l6.4375 0l0 14.546875q1.390625 -2.4375 3.765625 -3.75q2.375 -1.328125 5.265625 -1.328125q2.4375 0 3.96875 0.84375q1.546875 0.828125 2.40625 2.21875q0.859375 1.390625 1.1875 3.171875q0.34375 1.78125 0.34375 3.640625l0 15.703125zm17.242065 0.484375q-3.078125 0 -5.53125 -1.046875q-2.4375 -1.0625 -4.140625 -2.859375q-1.703125 -1.8125 -2.625 -4.15625q-0.90625 -2.359375 -0.90625 -4.953125q0 -2.640625 0.90625 -4.984375q0.921875 -2.359375 2.625 -4.15625q1.703125 -1.796875 4.140625 -2.84375q2.453125 -1.0625 5.53125 -1.0625q3.0625 0 5.484375 1.0625q2.4375 1.046875 4.140625 2.84375q1.703125 1.796875 2.609375 4.15625q0.921875 2.34375 0.921875 4.984375q0 2.59375 -0.921875 4.953125q-0.90625 2.34375 -2.59375 4.15625q-1.671875 1.796875 -4.125 2.859375q-2.453125 1.046875 -5.515625 1.046875zm-6.578125 -13.015625q0 1.6875 0.5 3.0625q0.5 1.359375 1.390625 2.375q0.890625 1.0 2.09375 1.5625q1.203125 0.546875 2.59375 0.546875q1.390625 0 2.59375 -0.546875q1.203125 -0.5625 2.078125 -1.5625q0.890625 -1.015625 1.390625 -2.40625q0.515625 -1.390625 0.515625 -3.078125q0 -1.625 -0.515625 -3.015625q-0.5 -1.390625 -1.390625 -2.40625q-0.875 -1.015625 -2.078125 -1.5625q-1.203125 -0.546875 -2.59375 -0.546875q-1.390625 0 -2.59375 0.578125q-1.203125 0.578125 -2.09375 1.59375q-0.890625 1.0 -1.390625 2.390625q-0.5 1.390625 -0.5 3.015625zm39.025574 -7.046875q-2.9375 0.046875 -5.234375 1.125q-2.296875 1.078125 -3.3125 3.234375l0 15.21875l-6.4375 0l0 -25.15625l5.90625 0l0 5.375q0.671875 -1.296875 1.578125 -2.328125q0.921875 -1.03125 1.96875 -1.796875q1.0625 -0.765625 2.140625 -1.171875q1.078125 -0.40625 2.09375 -0.40625q0.53125 0 0.78125 0q0.265625 0 0.515625 0.046875l0 5.859375z" fill-rule="nonzero"/></g></svg>