<svg version="1.1" viewBox="0.0 0.0 960.0 540.0" fill="none" stroke="none" stroke-linecap="square" stroke-miterlimit="10" xmlns:xlink="http://www.w3.org/1999/xlink" xmlns="http://www.w3.org/2000/svg"><clipPath id="p.0"><path d="m0 0l960.0 0l0 540.0l-960.0 0l0 -540.0z" clip-rule="nonzero"/></clipPath><g clip-path="url(#p.0)"><path fill="#5e2b97" d="m0 0l960.0 0l0 540.0l-960.0 0z" fill-rule="evenodd"/><path fill="#000000" fill-opacity="0.0" d="m70.19948 41.75853l843.74805 0l0 429.4803l-843.74805 0z" fill-rule="evenodd"/><path fill="#ffffff" d="m310.5636 302.3787l0 -60.156265l-23.421875 44.79689l-9.59375 0l-23.42186 -44.79689l0 60.156265l-17.671875 0l0 -90.875015l18.953125 0l26.874985 51.70314l27.140625 -51.70314l18.8125 0l0 90.875015l-17.671875 0zm75.39191 0.640625q-9.984375 0 -18.109375 -3.90625q-8.125 -3.90625 -13.953125 -10.359375q-5.8125 -6.46875 -9.015625 -14.78125q-3.203125 -8.328125 -3.203125 -17.03125q0 -9.093765 3.390625 -17.406265q3.390625 -8.328125 9.34375 -14.71875q5.953125 -6.40625 14.140625 -10.171875q8.203125 -3.78125 17.796875 -3.78125q9.859375 0 17.984375 4.03125q8.125 4.03125 13.875 10.5625q5.765625 6.515625 8.96875 14.84375q3.203125 8.3125 3.203125 16.89064q0 9.09375 -3.328125 17.359375q-3.328125 8.25 -9.21875 14.59375q-5.890625 6.328125 -14.078125 10.109375q-8.1875 3.765625 -17.796875 3.765625zm-26.359375 -46.078125q0 5.890625 1.78125 11.390625q1.796875 5.5 5.1875 9.734375q3.390625 4.21875 8.3125 6.78125q4.9375 2.5625 11.21875 2.5625q6.390625 0 11.3125 -2.625q4.9375 -2.625 8.328125 -6.96875q3.390625 -4.359375 5.109375 -9.796875q1.734375 -5.453125 1.734375 -11.078125q0 -5.8906403 -1.859375 -11.39064q-1.84375 -5.515625 -5.234375 -9.734375q-3.390625 -4.21875 -8.328125 -6.71875q-4.921875 -2.5 -11.0625 -2.5q-6.40625 0 -11.40625 2.625q-4.984375 2.625 -8.3125 6.921875q-3.328125 4.28125 -5.0625 9.71875q-1.71875 5.4375 -1.71875 11.07814zm102.018005 -12.79689l0 58.23439l-17.671875 0l0 -90.875015l13.703125 0l47.359375 59.64064l0 -59.51564l17.65625 0l0 90.750015l-14.328125 0l-46.71875 -58.23439zm118.77338 58.875015q-9.984375 0 -18.109375 -3.90625q-8.125 -3.90625 -13.953125 -10.359375q-5.8125 -6.46875 -9.015625 -14.78125q-3.203125 -8.328125 -3.203125 -17.03125q0 -9.093765 3.390625 -17.406265q3.390625 -8.328125 9.34375 -14.71875q5.953125 -6.40625 14.140625 -10.171875q8.203125 -3.78125 17.796875 -3.78125q9.859375 0 17.984375 4.03125q8.125 4.03125 13.875 10.5625q5.765625 6.515625 8.96875 14.84375q3.203125 8.3125 3.203125 16.89064q0 9.09375 -3.328125 17.359375q-3.328125 8.25 -9.21875 14.59375q-5.890625 6.328125 -14.078125 10.109375q-8.1875 3.765625 -17.796875 3.765625zm-26.359375 -46.078125q0 5.890625 1.78125 11.390625q1.796875 5.5 5.1875 9.734375q3.390625 4.21875 8.3125 6.78125q4.9375 2.5625 11.21875 2.5625q6.390625 0 11.3125 -2.625q4.9375 -2.625 8.328125 -6.96875q3.390625 -4.359375 5.109375 -9.796875q1.734375 -5.453125 1.734375 -11.078125q0 -5.8906403 -1.859375 -11.39064q-1.84375 -5.515625 -5.234375 -9.734375q-3.390625 -4.21875 -8.328125 -6.71875q-4.921875 -2.5 -11.0625 -2.5q-6.40625 0 -11.40625 2.625q-4.984375 2.625 -8.3125 6.921875q-3.328125 4.28125 -5.0625 9.71875q-1.71875 5.4375 -1.71875 11.07814zm84.34613 45.4375l0 -90.875015l17.671875 0l0 90.875015l-17.671875 0zm36.608032 0l0 -90.875015l33.03125 0q11.125 0 19.515625 3.578125q8.390625 3.578125 14.015625 9.734375q5.625 6.140625 8.4375 14.40625q2.828125 8.25 2.828125 17.593765q0 10.359375 -3.140625 18.75q-3.125 8.375 -9.015625 14.328125q-5.890625 5.953125 -14.15625 9.21875q-8.25 3.265625 -18.484375 3.265625l-33.03125 0zm60.03125 -45.5625q0 -6.5312653 -1.796875 -12.031265q-1.78125 -5.515625 -5.234375 -9.484375q-3.453125 -3.96875 -8.515625 -6.140625q-5.0625 -2.171875 -11.453125 -2.171875l-15.359375 0l0 59.906265l15.359375 0q6.53125 0 11.578125 -2.296875q5.0625 -2.3125 8.453125 -6.34375q3.390625 -4.03125 5.171875 -9.53125q1.796875 -5.515625 1.796875 -11.90625z" fill-rule="nonzero"/></g></svg>