<svg version="1.1" viewBox="0.0 0.0 960.0 540.0" fill="none" stroke="none" stroke-linecap="square" stroke-miterlimit="10" xmlns:xlink="http://www.w3.org/1999/xlink" xmlns="http://www.w3.org/2000/svg"><clipPath id="g3ffa094804_0_167.0"><path d="m0 0l960.0 0l0 540.0l-960.0 0l0 -540.0z" clip-rule="nonzero"/></clipPath><g clip-path="url(#g3ffa094804_0_167.0)"><path fill="#ffffff" d="m0 0l960.0 0l0 540.0l-960.0 0z" fill-rule="evenodd"/><path fill="#000000" fill-opacity="0.0" d="m71.55118 60.750656l837.00793 0l0 178.20473l-837.00793 0z" fill-rule="evenodd"/><path fill="#000000" d="m82.23868 93.74441q0 -2.546875 0.890625 -5.09375q0.90625 -2.546875 2.625 -4.546875q1.71875 -2.0 4.234375 -3.25q2.515625 -1.265625 5.71875 -1.265625q3.796875 0 6.5 1.71875q2.703125 1.71875 3.984375 4.484375l-2.203125 1.359375q-0.671875 -1.40625 -1.65625 -2.359375q-0.984375 -0.953125 -2.109375 -1.546875q-1.109375 -0.609375 -2.3125 -0.875q-1.203125 -0.265625 -2.359375 -0.265625q-2.5625 0 -4.53125 1.046875q-1.953125 1.046875 -3.296875 2.734375q-1.328125 1.671875 -2.015625 3.765625q-0.671875 2.09375 -0.671875 4.265625q0 2.359375 0.8125 4.515625q0.828125 2.15625 2.234375 3.828125q1.421875 1.65625 3.359375 2.640625q1.953125 0.96875 4.234375 0.96875q1.1875 0 2.453125 -0.296875q1.265625 -0.296875 2.4375 -0.953125q1.1875 -0.671875 2.1875 -1.640625q1.0 -0.984375 1.671875 -2.390625l2.328125 1.203125q-0.6875 1.59375 -1.921875 2.828125q-1.234375 1.21875 -2.765625 2.0625q-1.515625 0.828125 -3.21875 1.265625q-1.703125 0.4375 -3.34375 0.4375q-2.90625 0 -5.359375 -1.265625q-2.4375 -1.28125 -4.203125 -3.34375q-1.75 -2.0625 -2.734375 -4.6875q-0.96875 -2.625 -0.96875 -5.34375zm37.627472 14.8125q-2.28125 0 -4.15625 -0.859375q-1.875 -0.859375 -3.265625 -2.34375q-1.375 -1.484375 -2.140625 -3.4375q-0.75 -1.96875 -0.75 -4.125q0 -2.203125 0.78125 -4.15625q0.78125 -1.96875 2.15625 -3.4375q1.375 -1.484375 3.25 -2.359375q1.890625 -0.890625 4.125 -0.890625q2.25 0 4.140625 0.890625q1.90625 0.875 3.28125 2.359375q1.390625 1.46875 2.15625 3.4375q0.78125 1.953125 0.78125 4.15625q0 2.15625 -0.765625 4.125q-0.75 1.953125 -2.140625 3.4375q-1.375 1.484375 -3.28125 2.34375q-1.890625 0.859375 -4.171875 0.859375zm-7.5625 -10.71875q0 1.75 0.59375 3.25q0.609375 1.5 1.625 2.640625q1.03125 1.140625 2.40625 1.78125q1.375 0.640625 2.9375 0.640625q1.5625 0 2.9375 -0.65625q1.390625 -0.65625 2.421875 -1.796875q1.046875 -1.140625 1.640625 -2.65625q0.609375 -1.53125 0.609375 -3.296875q0 -1.71875 -0.609375 -3.25q-0.59375 -1.546875 -1.640625 -2.6875q-1.03125 -1.140625 -2.421875 -1.796875q-1.375 -0.65625 -2.9375 -0.65625q-1.5625 0 -2.921875 0.65625q-1.359375 0.65625 -2.40625 1.828125q-1.03125 1.15625 -1.640625 2.703125q-0.59375 1.53125 -0.59375 3.296875zm40.003098 10.3125l-2.71875 0l0 -11.640625q0 -3.71875 -1.109375 -5.390625q-1.09375 -1.6875 -3.375 -1.6875q-1.1875 0 -2.390625 0.4375q-1.203125 0.4375 -2.21875 1.25q-1.015625 0.796875 -1.828125 1.890625q-0.796875 1.09375 -1.15625 2.375l0 12.765625l-2.71875 0l0 -20.84375l2.484375 0l0 4.71875q1.28125 -2.28125 3.65625 -3.671875q2.375 -1.40625 5.171875 -1.40625q1.734375 0 2.921875 0.640625q1.203125 0.640625 1.921875 1.8125q0.71875 1.15625 1.03125 2.84375q0.328125 1.671875 0.328125 3.703125l0 12.203125zm4.366852 -10.484375q0 -2.203125 0.75 -4.15625q0.765625 -1.953125 2.140625 -3.40625q1.390625 -1.46875 3.3125 -2.3125q1.921875 -0.84375 4.234375 -0.84375q2.953125 0 5.15625 1.34375q2.203125 1.34375 3.328125 3.625l-2.640625 0.828125q-0.890625 -1.59375 -2.46875 -2.484375q-1.578125 -0.90625 -3.5 -0.90625q-1.59375 0 -2.984375 0.640625q-1.375 0.640625 -2.390625 1.75q-1.015625 1.09375 -1.609375 2.609375q-0.578125 1.515625 -0.578125 3.3125q0 1.765625 0.59375 3.328125q0.609375 1.5625 1.640625 2.703125q1.046875 1.140625 2.421875 1.796875q1.390625 0.65625 2.953125 0.65625q1.0 0 1.96875 -0.28125q0.984375 -0.28125 1.828125 -0.78125q0.84375 -0.5 1.4375 -1.140625q0.609375 -0.640625 0.84375 -1.359375l2.6875 0.796875q-0.453125 1.125 -1.296875 2.0625q-0.828125 0.9375 -1.96875 1.640625q-1.140625 0.703125 -2.53125 1.078125q-1.375 0.390625 -2.84375 0.390625q-2.28125 0 -4.203125 -0.859375q-1.921875 -0.859375 -3.328125 -2.359375q-1.390625 -1.5 -2.171875 -3.453125q-0.78125 -1.96875 -0.78125 -4.21875zm32.397476 10.890625q-2.28125 0 -4.1875 -0.859375q-1.890625 -0.859375 -3.296875 -2.359375q-1.390625 -1.5 -2.171875 -3.453125q-0.78125 -1.96875 -0.78125 -4.21875q0 -2.203125 0.78125 -4.140625q0.78125 -1.9375 2.15625 -3.390625q1.375 -1.46875 3.296875 -2.328125q1.921875 -0.859375 4.15625 -0.859375q2.28125 0 4.1875 0.859375q1.90625 0.859375 3.265625 2.34375q1.359375 1.484375 2.109375 3.40625q0.765625 1.90625 0.765625 4.078125q0 0.3125 0 0.640625q0 0.3125 -0.046875 0.4375l-17.828125 0q0.109375 1.671875 0.765625 3.09375q0.671875 1.421875 1.703125 2.46875q1.046875 1.03125 2.375 1.609375q1.34375 0.578125 2.875 0.578125q1.0 0 2.0 -0.265625q1.0 -0.28125 1.828125 -0.765625q0.84375 -0.484375 1.515625 -1.171875q0.6875 -0.703125 1.046875 -1.546875l2.359375 0.640625q-0.46875 1.15625 -1.359375 2.09375q-0.875 0.9375 -2.046875 1.640625q-1.15625 0.703125 -2.5625 1.078125q-1.390625 0.390625 -2.90625 0.390625zm7.6875 -11.921875q-0.125 -1.6875 -0.796875 -3.0625q-0.65625 -1.375 -1.671875 -2.375q-1.015625 -1.0 -2.359375 -1.5625q-1.34375 -0.5625 -2.859375 -0.5625q-1.515625 0 -2.875 0.5625q-1.359375 0.5625 -2.390625 1.5625q-1.015625 1.0 -1.640625 2.40625q-0.609375 1.390625 -0.734375 3.03125l15.328125 0zm17.433105 11.921875q-2.640625 0 -4.671875 -1.34375q-2.015625 -1.34375 -3.25 -3.375l0 12.828125l-2.71875 0l0 -29.359375l2.4375 0l0 4.046875q1.28125 -1.96875 3.3125 -3.1875q2.046875 -1.21875 4.453125 -1.21875q2.15625 0 3.953125 0.90625q1.796875 0.890625 3.109375 2.390625q1.328125 1.5 2.0625 3.46875q0.75 1.953125 0.75 4.03125q0 2.203125 -0.6875 4.171875q-0.671875 1.953125 -1.9375 3.4375q-1.25 1.484375 -3.0 2.34375q-1.734375 0.859375 -3.8125 0.859375zm-0.765625 -2.40625q1.6875 0 3.0625 -0.71875q1.375 -0.71875 2.359375 -1.890625q0.984375 -1.1875 1.5 -2.6875q0.515625 -1.5 0.515625 -3.109375q0 -1.671875 -0.59375 -3.1875q-0.59375 -1.53125 -1.640625 -2.6875q-1.03125 -1.15625 -2.453125 -1.828125q-1.421875 -0.6875 -3.0625 -0.6875q-1.046875 0 -2.1875 0.421875q-1.140625 0.421875 -2.125 1.125q-0.96875 0.6875 -1.671875 1.625q-0.703125 0.9375 -0.859375 1.984375l0 6.40625q0.484375 1.109375 1.21875 2.078125q0.75 0.953125 1.6875 1.65625q0.9375 0.703125 2.015625 1.109375q1.078125 0.390625 2.234375 0.390625zm24.804977 1.0q-0.234375 0.125 -0.703125 0.328125q-0.453125 0.1875 -1.0625 0.390625q-0.59375 0.203125 -1.359375 0.359375q-0.75 0.15625 -1.59375 0.15625q-0.875 0 -1.6875 -0.234375q-0.796875 -0.234375 -1.40625 -0.734375q-0.59375 -0.5 -0.953125 -1.265625q-0.359375 -0.765625 -0.359375 -1.765625l0 -14.921875l-2.875 0l0 -2.15625l2.875 0l0 -7.03125l2.71875 0l0 7.03125l4.8125 0l0 2.15625l-4.8125 0l0 14.171875q0.09375 1.15625 0.828125 1.703125q0.734375 0.53125 1.703125 0.53125q1.15625 0 2.03125 -0.375q0.890625 -0.390625 1.125 -0.546875l0.71875 2.203125zm9.915619 1.40625q-3.390625 0 -5.0625 -2.265625q-1.65625 -2.265625 -1.65625 -6.734375l0 -12.25l2.71875 0l0 11.765625q0 7.078125 4.84375 7.078125q1.203125 0 2.359375 -0.390625q1.15625 -0.40625 2.140625 -1.15625q0.984375 -0.765625 1.765625 -1.8125q0.78126526 -1.046875 1.2500153 -2.359375l0 -13.125l2.71875 0l0 17.328125q0 1.109375 0.96875 1.109375l0 2.40625q-0.484375 0.078125 -0.78125 0.078125q-0.296875 0 -0.421875 0q-0.953125 -0.03125 -1.5625 -0.671875q-0.59375 -0.640625 -0.59375 -1.71875l0 -2.40625q-1.3593903 2.4375 -3.7031403 3.78125q-2.34375 1.34375 -4.984375 1.34375zm22.478745 0q-1.46875 0 -2.734375 -0.5q-1.265625 -0.5 -2.203125 -1.375q-0.9375 -0.890625 -1.46875 -2.0625q-0.515625 -1.1875 -0.515625 -2.546875q0 -1.359375 0.640625 -2.515625q0.640625 -1.171875 1.796875 -2.0q1.171875 -0.84375 2.765625 -1.296875q1.609375 -0.46875 3.53125 -0.46875q1.59375 0 3.234375 0.28125q1.640625 0.28125 2.921875 0.796875l0 -1.875q0 -2.765625 -1.5625 -4.375q-1.5625 -1.625 -4.328125 -1.625q-1.59375 0 -3.28125 0.640625q-1.671875 0.640625 -3.390625 1.828125l-0.953125 -1.796875q4.03125 -2.71875 7.828125 -2.71875q3.921875 0 6.15625 2.203125q2.25 2.203125 2.25 6.078125l0 9.40625q0 1.109375 1.0 1.109375l0 2.40625q-0.6875 0.125 -1.046875 0.125q-1.03125 0 -1.609375 -0.515625q-0.578125 -0.53125 -0.625 -1.453125l-0.078125 -1.640625q-1.4375 1.890625 -3.625 2.890625q-2.171875 1.0 -4.703125 1.0zm0.640625 -2.09375q2.125 0 3.90625 -0.796875q1.78125 -0.796875 2.703125 -2.109375q0.359375 -0.359375 0.53125 -0.78125q0.1875 -0.421875 0.1875 -0.78125l0 -3.40625q-1.359375 -0.515625 -2.828125 -0.796875q-1.453125 -0.28125 -2.96875 -0.28125q-2.890625 0 -4.6875 1.203125q-1.796875 1.203125 -1.796875 3.15625q0 0.96875 0.375 1.8125q0.390625 0.828125 1.046875 1.453125q0.65625 0.609375 1.578125 0.96875q0.921875 0.359375 1.953125 0.359375zm16.049957 -27.515625l2.71875 0l0 24.484375q0 1.15625 0.640625 1.828125q0.640625 0.65625 1.796875 0.65625q0.4375 0 1.03125 -0.125q0.609375 -0.125 1.125 -0.328125l0.484375 2.203125q-0.765625 0.328125 -1.875 0.515625q-1.09375 0.203125 -1.890625 0.203125q-1.875 0 -2.953125 -1.046875q-1.078125 -1.0625 -1.078125 -2.984375l0 -25.40625zm51.954987 29.203125l-2.71875 0l0 -11.640625q0 -3.640625 -1.171875 -5.359375q-1.15625 -1.71875 -3.421875 -1.71875q-1.203125 0 -2.265625 0.4375q-1.0625 0.4375 -1.96875 1.25q-0.890625 0.796875 -1.578125 1.890625q-0.671875 1.09375 -1.03125 2.421875l0 12.71875l-2.71875 0l0 -11.640625q0 -3.71875 -1.125 -5.390625q-1.125 -1.6875 -3.4375 -1.6875q-2.359375 0 -4.203125 1.640625q-1.84375 1.640625 -2.640625 4.3125l0 12.765625l-2.71875 0l0 -20.84375l2.484375 0l0 4.71875q1.28125 -2.390625 3.359375 -3.734375q2.078125 -1.34375 4.59375 -1.34375q2.640625 0 4.21875 1.484375q1.578125 1.484375 1.9375 3.875q2.921875 -5.359375 8.046875 -5.359375q1.765625 0 2.984375 0.640625q1.21875 0.640625 1.953125 1.828125q0.734375 1.171875 1.078125 2.84375q0.34375 1.65625 0.34375 3.6875l0 12.203125zm14.759949 0.40625q-2.28125 0 -4.1875 -0.859375q-1.890625 -0.859375 -3.296875 -2.359375q-1.390625 -1.5 -2.171875 -3.453125q-0.78125 -1.96875 -0.78125 -4.21875q0 -2.203125 0.78125 -4.140625q0.78125 -1.9375 2.15625 -3.390625q1.375 -1.46875 3.296875 -2.328125q1.921875 -0.859375 4.15625 -0.859375q2.28125 0 4.1875 0.859375q1.90625 0.859375 3.265625 2.34375q1.359375 1.484375 2.109375 3.40625q0.765625 1.90625 0.765625 4.078125q0 0.3125 0 0.640625q0 0.3125 -0.046875 0.4375l-17.828125 0q0.109375 1.671875 0.765625 3.09375q0.671875 1.421875 1.703125 2.46875q1.046875 1.03125 2.375 1.609375q1.34375 0.578125 2.875 0.578125q1.0 0 2.0 -0.265625q1.0 -0.28125 1.828125 -0.765625q0.84375 -0.484375 1.515625 -1.171875q0.6875 -0.703125 1.046875 -1.546875l2.359375 0.640625q-0.46875 1.15625 -1.359375 2.09375q-0.875 0.9375 -2.046875 1.640625q-1.15625 0.703125 -2.5625 1.078125q-1.390625 0.390625 -2.90625 0.390625zm7.6875 -11.921875q-0.125 -1.6875 -0.796875 -3.0625q-0.65625 -1.375 -1.671875 -2.375q-1.015625 -1.0 -2.359375 -1.5625q-1.34375 -0.5625 -2.859375 -0.5625q-1.515625 0 -2.875 0.5625q-1.359375 0.5625 -2.390625 1.5625q-1.015625 1.0 -1.640625 2.40625q-0.609375 1.390625 -0.734375 3.03125l15.328125 0zm16.79248 10.515625q-0.234375 0.125 -0.703125 0.328125q-0.453125 0.1875 -1.0625 0.390625q-0.59375 0.203125 -1.359375 0.359375q-0.75 0.15625 -1.59375 0.15625q-0.875 0 -1.6875 -0.234375q-0.796875 -0.234375 -1.40625 -0.734375q-0.59375 -0.5 -0.953125 -1.265625q-0.359375 -0.765625 -0.359375 -1.765625l0 -14.921875l-2.875 0l0 -2.15625l2.875 0l0 -7.03125l2.71875 0l0 7.03125l4.8125 0l0 2.15625l-4.8125 0l0 14.171875q0.09375 1.15625 0.828125 1.703125q0.734375 0.53125 1.703125 0.53125q1.15625 0 2.03125 -0.375q0.890625 -0.390625 1.125 -0.546875l0.71875 2.203125zm8.634369 1.40625q-1.46875 0 -2.734375 -0.5q-1.265625 -0.5 -2.203125 -1.375q-0.9375 -0.890625 -1.46875 -2.0625q-0.515625 -1.1875 -0.515625 -2.546875q0 -1.359375 0.640625 -2.515625q0.640625 -1.171875 1.796875 -2.0q1.171875 -0.84375 2.765625 -1.296875q1.609375 -0.46875 3.53125 -0.46875q1.59375 0 3.234375 0.28125q1.640625 0.28125 2.921875 0.796875l0 -1.875q0 -2.765625 -1.5625 -4.375q-1.5625 -1.625 -4.328125 -1.625q-1.59375 0 -3.28125 0.640625q-1.671875 0.640625 -3.390625 1.828125l-0.953125 -1.796875q4.03125 -2.71875 7.828125 -2.71875q3.921875 0 6.15625 2.203125q2.25 2.203125 2.25 6.078125l0 9.40625q0 1.109375 1.0 1.109375l0 2.40625q-0.6875 0.125 -1.046875 0.125q-1.03125 0 -1.609375 -0.515625q-0.578125 -0.53125 -0.625 -1.453125l-0.078125 -1.640625q-1.4375 1.890625 -3.625 2.890625q-2.171875 1.0 -4.703125 1.0zm0.640625 -2.09375q2.125 0 3.90625 -0.796875q1.78125 -0.796875 2.703125 -2.109375q0.359375 -0.359375 0.53125 -0.78125q0.1875 -0.421875 0.1875 -0.78125l0 -3.40625q-1.359375 -0.515625 -2.828125 -0.796875q-1.453125 -0.28125 -2.96875 -0.28125q-2.890625 0 -4.6875 1.203125q-1.796875 1.203125 -1.796875 3.15625q0 0.96875 0.375 1.8125q0.390625 0.828125 1.046875 1.453125q0.65625 0.609375 1.578125 0.96875q0.921875 0.359375 1.953125 0.359375zm26.565582 2.09375q-2.640625 0 -4.671875 -1.34375q-2.015625 -1.34375 -3.25 -3.375l0 12.828125l-2.71875 0l0 -29.359375l2.4375 0l0 4.046875q1.28125 -1.96875 3.3125 -3.1875q2.046875 -1.21875 4.453125 -1.21875q2.15625 0 3.953125 0.90625q1.796875 0.890625 3.109375 2.390625q1.328125 1.5 2.0625 3.46875q0.75 1.953125 0.75 4.03125q0 2.203125 -0.6875 4.171875q-0.671875 1.953125 -1.9375 3.4375q-1.25 1.484375 -3.0 2.34375q-1.734375 0.859375 -3.8125 0.859375zm-0.765625 -2.40625q1.6875 0 3.0625 -0.71875q1.375 -0.71875 2.359375 -1.890625q0.984375 -1.1875 1.5 -2.6875q0.515625 -1.5 0.515625 -3.109375q0 -1.671875 -0.59375 -3.1875q-0.59375 -1.53125 -1.640625 -2.6875q-1.03125 -1.15625 -2.453125 -1.828125q-1.421875 -0.6875 -3.0625 -0.6875q-1.046875 0 -2.1875 0.421875q-1.140625 0.421875 -2.125 1.125q-0.96875 0.6875 -1.671875 1.625q-0.703125 0.9375 -0.859375 1.984375l0 6.40625q0.484375 1.109375 1.21875 2.078125q0.75 0.953125 1.6875 1.65625q0.9375 0.703125 2.015625 1.109375q1.078125 0.390625 2.234375 0.390625zm32.320618 2.0l-2.71875 0l0 -11.640625q0 -3.5625 -1.21875 -5.3125q-1.21875 -1.765625 -3.578125 -1.765625q-1.15625 0 -2.296875 0.46875q-1.140625 0.453125 -2.140625 1.25q-1.0 0.796875 -1.75 1.875q-0.734375 1.078125 -1.09375 2.359375l0 12.765625l-2.71875 0l0 -29.203125l2.71875 0l0 13.078125q1.234375 -2.359375 3.4375 -3.71875q2.203125 -1.359375 4.765625 -1.359375q1.796875 0 3.03125 0.671875q1.25 0.65625 2.046875 1.84375q0.796875 1.171875 1.15625 2.828125q0.359375 1.65625 0.359375 3.65625l0 12.203125zm14.679352 0.40625q-2.28125 0 -4.15625 -0.859375q-1.875 -0.859375 -3.265625 -2.34375q-1.375 -1.484375 -2.140625 -3.4375q-0.75 -1.96875 -0.75 -4.125q0 -2.203125 0.78125 -4.15625q0.78125 -1.96875 2.15625 -3.4375q1.375 -1.484375 3.25 -2.359375q1.890625 -0.890625 4.125 -0.890625q2.25 0 4.140625 0.890625q1.90625 0.875 3.28125 2.359375q1.390625 1.46875 2.15625 3.4375q0.78125 1.953125 0.78125 4.15625q0 2.15625 -0.765625 4.125q-0.75 1.953125 -2.140625 3.4375q-1.375 1.484375 -3.28125 2.34375q-1.890625 0.859375 -4.171875 0.859375zm-7.5625 -10.71875q0 1.75 0.59375 3.25q0.609375 1.5 1.625 2.640625q1.03125 1.140625 2.40625 1.78125q1.375 0.640625 2.9375 0.640625q1.5625 0 2.9375 -0.65625q1.390625 -0.65625 2.421875 -1.796875q1.046875 -1.140625 1.640625 -2.65625q0.609375 -1.53125 0.609375 -3.296875q0 -1.71875 -0.609375 -3.25q-0.59375 -1.546875 -1.640625 -2.6875q-1.03125 -1.140625 -2.421875 -1.796875q-1.375 -0.65625 -2.9375 -0.65625q-1.5625 0 -2.921875 0.65625q-1.359375 0.65625 -2.40625 1.828125q-1.03125 1.15625 -1.640625 2.703125q-0.59375 1.53125 -0.59375 3.296875zm32.893707 -8.125q-2.765625 0.078125 -4.8125 1.515625q-2.03125 1.4375 -2.875 3.96875l0 12.953125l-2.71875 0l0 -20.84375l2.5625 0l0 5.0q1.15625 -2.390625 3.109375 -3.75q1.96875 -1.359375 4.203125 -1.359375q0.328125 0 0.53125 0.03125l0 2.484375zm10.555603 18.84375q-2.4375 0 -4.765625 -0.796875q-2.3125 -0.8125 -4.0 -2.328125l1.25 -1.84375q1.75 1.4375 3.5625 2.15625q1.828125 0.71875 3.90625 0.71875q2.53125 0 4.03125 -1.015625q1.5 -1.015625 1.5 -2.890625q0 -0.890625 -0.40625 -1.46875q-0.40625 -0.578125 -1.1875 -1.015625q-0.765625 -0.4375 -1.953125 -0.78125q-1.171875 -0.34375 -2.734375 -0.703125q-1.8125 -0.4375 -3.125 -0.875q-1.3125 -0.4375 -2.1875 -1.0q-0.859375 -0.5625 -1.28125 -1.375q-0.40625 -0.828125 -0.40625 -2.0625q0 -1.5625 0.609375 -2.765625q0.625 -1.203125 1.6875 -1.984375q1.0625 -0.78125 2.46875 -1.171875q1.421875 -0.40625 3.03125 -0.40625q2.390625 0 4.34375 0.78125q1.96875 0.78125 3.171875 2.0625l-1.3125 1.59375q-1.171875 -1.1875 -2.828125 -1.78125q-1.65625 -0.609375 -3.453125 -0.609375q-1.078125 0 -2.0 0.21875q-0.921875 0.21875 -1.625 0.703125q-0.703125 0.46875 -1.109375 1.21875q-0.390625 0.734375 -0.390625 1.734375q0 0.84375 0.28125 1.359375q0.28125 0.515625 0.921875 0.90625q0.640625 0.375 1.609375 0.671875q0.984375 0.296875 2.390625 0.625q2.0 0.484375 3.515625 0.96875q1.515625 0.46875 2.53125 1.109375q1.03125 0.640625 1.546875 1.5625q0.53125 0.921875 0.53125 2.234375q0 2.890625 -2.203125 4.578125q-2.203125 1.671875 -5.921875 1.671875zm31.633148 0q-2.28125 0 -4.15625 -0.859375q-1.875 -0.859375 -3.265625 -2.34375q-1.375 -1.484375 -2.140625 -3.4375q-0.75 -1.96875 -0.75 -4.125q0 -2.203125 0.78125 -4.15625q0.78125 -1.96875 2.15625 -3.4375q1.375 -1.484375 3.25 -2.359375q1.890625 -0.890625 4.125 -0.890625q2.25 0 4.140625 0.890625q1.90625 0.875 3.28125 2.359375q1.390625 1.46875 2.15625 3.4375q0.78125 1.953125 0.78125 4.15625q0 2.15625 -0.765625 4.125q-0.75 1.953125 -2.140625 3.4375q-1.375 1.484375 -3.28125 2.34375q-1.890625 0.859375 -4.171875 0.859375zm-7.5625 -10.71875q0 1.75 0.59375 3.25q0.609375 1.5 1.625 2.640625q1.03125 1.140625 2.40625 1.78125q1.375 0.640625 2.9375 0.640625q1.5625 0 2.9375 -0.65625q1.390625 -0.65625 2.421875 -1.796875q1.046875 -1.140625 1.640625 -2.65625q0.609375 -1.53125 0.609375 -3.296875q0 -1.71875 -0.609375 -3.25q-0.59375 -1.546875 -1.640625 -2.6875q-1.03125 -1.140625 -2.421875 -1.796875q-1.375 -0.65625 -2.9375 -0.65625q-1.5625 0 -2.921875 0.65625q-1.359375 0.65625 -2.40625 1.828125q-1.03125 1.15625 -1.640625 2.703125q-0.59375 1.53125 -0.59375 3.296875zm40.003113 10.3125l-2.71875 0l0 -11.640625q0 -3.71875 -1.109375 -5.390625q-1.09375 -1.6875 -3.375 -1.6875q-1.1875 0 -2.390625 0.4375q-1.203125 0.4375 -2.21875 1.25q-1.015625 0.796875 -1.828125 1.890625q-0.796875 1.09375 -1.15625 2.375l0 12.765625l-2.71875 0l0 -20.84375l2.484375 0l0 4.71875q1.28125 -2.28125 3.65625 -3.671875q2.375 -1.40625 5.171875 -1.40625q1.734375 0 2.921875 0.640625q1.203125 0.640625 1.921875 1.8125q0.71875 1.15625 1.03125 2.84375q0.328125 1.671875 0.328125 3.703125l0 12.203125zm5.9293213 -29.203125l2.71875 0l0 24.484375q0 1.15625 0.640625 1.828125q0.640625 0.65625 1.796875 0.65625q0.4375 0 1.03125 -0.125q0.609375 -0.125 1.125 -0.328125l0.484375 2.203125q-0.765625 0.328125 -1.875 0.515625q-1.09375 0.203125 -1.890625 0.203125q-1.875 0 -2.953125 -1.046875q-1.078125 -1.0625 -1.078125 -2.984375l0 -25.40625zm11.95813 35.609375q0.3125 0.03125 0.609375 0.046875q0.3125 0.03125 0.59375 0.03125q0.71875 0 1.125 -0.203125q0.421875 -0.203125 0.828125 -0.890625q0.40625 -0.671875 0.90625 -1.953125q0.5 -1.28125 1.421875 -3.4375l-9.09375 -20.84375l2.8125 0l7.71875 18.328125l7.15625 -18.328125l2.59375 0l-10.796875 26.890625q-0.4375 1.15625 -1.46875 2.015625q-1.015625 0.859375 -2.765625 0.859375q-0.40625 0 -0.765625 -0.03125q-0.359375 -0.015625 -0.875 -0.09375l0 -2.390625zm39.67688 -6.0q-2.28125 0 -4.1875 -0.859375q-1.890625 -0.859375 -3.296875 -2.359375q-1.390625 -1.5 -2.171875 -3.453125q-0.78125 -1.96875 -0.78125 -4.21875q0 -2.203125 0.78125 -4.140625q0.78125 -1.9375 2.15625 -3.390625q1.375 -1.46875 3.296875 -2.328125q1.921875 -0.859375 4.15625 -0.859375q2.28125 0 4.1875 0.859375q1.90625 0.859375 3.265625 2.34375q1.359375 1.484375 2.109375 3.40625q0.765625 1.90625 0.765625 4.078125q0 0.3125 0 0.640625q0 0.3125 -0.046875 0.4375l-17.828125 0q0.109375 1.671875 0.765625 3.09375q0.671875 1.421875 1.703125 2.46875q1.046875 1.03125 2.375 1.609375q1.34375 0.578125 2.875 0.578125q1.0 0 2.0 -0.265625q1.0 -0.28125 1.828125 -0.765625q0.84375 -0.484375 1.515625 -1.171875q0.6875 -0.703125 1.046875 -1.546875l2.359375 0.640625q-0.46875 1.15625 -1.359375 2.09375q-0.875 0.9375 -2.046875 1.640625q-1.15625 0.703125 -2.5625 1.078125q-1.390625 0.390625 -2.90625 0.390625zm7.6875 -11.921875q-0.125 -1.6875 -0.796875 -3.0625q-0.65625 -1.375 -1.671875 -2.375q-1.015625 -1.0 -2.359375 -1.5625q-1.34375 -0.5625 -2.859375 -0.5625q-1.515625 0 -2.875 0.5625q-1.359375 0.5625 -2.390625 1.5625q-1.015625 1.0 -1.640625 2.40625q-0.609375 1.390625 -0.734375 3.03125l15.328125 0zm7.3081055 -9.328125l6.25 8.15625l0.3125 0.609375l0.328125 -0.609375l6.234375 -8.15625l2.921875 0l-7.96875 10.484375l7.96875 10.359375l-2.921875 0l-6.234375 -8.125l-0.328125 -0.5625l-0.3125 0.5625l-6.25 8.125l-2.921875 0l7.96875 -10.359375l-7.96875 -10.484375l2.921875 0zm19.644348 20.84375l0 -20.84375l2.71875 0l0 20.84375l-2.71875 0zm0 -25.203125l0 -4.0l2.71875 0l0 4.0l-2.71875 0zm15.641846 25.609375q-2.4375 0 -4.765625 -0.796875q-2.3125 -0.8125 -4.0 -2.328125l1.25 -1.84375q1.75 1.4375 3.5625 2.15625q1.828125 0.71875 3.90625 0.71875q2.53125 0 4.03125 -1.015625q1.5 -1.015625 1.5 -2.890625q0 -0.890625 -0.40625 -1.46875q-0.40625 -0.578125 -1.1875 -1.015625q-0.765625 -0.4375 -1.953125 -0.78125q-1.171875 -0.34375 -2.734375 -0.703125q-1.8125 -0.4375 -3.125 -0.875q-1.3125 -0.4375 -2.1875 -1.0q-0.859375 -0.5625 -1.28125 -1.375q-0.40625 -0.828125 -0.40625 -2.0625q0 -1.5625 0.609375 -2.765625q0.625 -1.203125 1.6875 -1.984375q1.0625 -0.78125 2.46875 -1.171875q1.421875 -0.40625 3.03125 -0.40625q2.390625 0 4.34375 0.78125q1.96875 0.78125 3.171875 2.0625l-1.3125 1.59375q-1.171875 -1.1875 -2.828125 -1.78125q-1.65625 -0.609375 -3.453125 -0.609375q-1.078125 0 -2.0 0.21875q-0.921875 0.21875 -1.625 0.703125q-0.703125 0.46875 -1.109375 1.21875q-0.390625 0.734375 -0.390625 1.734375q0 0.84375 0.28125 1.359375q0.28125 0.515625 0.921875 0.90625q0.640625 0.375 1.609375 0.671875q0.984375 0.296875 2.390625 0.625q2.0 0.484375 3.515625 0.96875q1.515625 0.46875 2.53125 1.109375q1.03125 0.640625 1.546875 1.5625q0.53125 0.921875 0.53125 2.234375q0 2.890625 -2.203125 4.578125q-2.203125 1.671875 -5.921875 1.671875zm22.558105 -1.40625q-0.234375 0.125 -0.703125 0.328125q-0.453125 0.1875 -1.0625 0.390625q-0.59375 0.203125 -1.359375 0.359375q-0.75 0.15625 -1.59375 0.15625q-0.875 0 -1.6875 -0.234375q-0.796875 -0.234375 -1.40625 -0.734375q-0.59375 -0.5 -0.953125 -1.265625q-0.359375 -0.765625 -0.359375 -1.765625l0 -14.921875l-2.875 0l0 -2.15625l2.875 0l0 -7.03125l2.71875 0l0 7.03125l4.8125 0l0 2.15625l-4.8125 0l0 14.171875q0.09375 1.15625 0.828125 1.703125q0.734375 0.53125 1.703125 0.53125q1.15625 0 2.03125 -0.375q0.890625 -0.390625 1.125 -0.546875l0.71875 2.203125zm13.600037 1.0l0 -20.84375l2.71875 0l0 20.84375l-2.71875 0zm0 -25.203125l0 -4.0l2.71875 0l0 4.0l-2.71875 0zm26.235596 25.203125l-2.71875 0l0 -11.640625q0 -3.71875 -1.109375 -5.390625q-1.09375 -1.6875 -3.375 -1.6875q-1.1875 0 -2.390625 0.4375q-1.203125 0.4375 -2.21875 1.25q-1.015625 0.796875 -1.828125 1.890625q-0.796875 1.09375 -1.15625 2.375l0 12.765625l-2.71875 0l0 -20.84375l2.484375 0l0 4.71875q1.28125 -2.28125 3.65625 -3.671875q2.375 -1.40625 5.171875 -1.40625q1.734375 0 2.921875 0.640625q1.203125 0.640625 1.921875 1.8125q0.71875 1.15625 1.03125 2.84375q0.328125 1.671875 0.328125 3.703125l0 12.203125zm26.004395 -1.0q-0.234375 0.125 -0.703125 0.328125q-0.453125 0.1875 -1.0625 0.390625q-0.59375 0.203125 -1.359375 0.359375q-0.75 0.15625 -1.59375 0.15625q-0.875 0 -1.6875 -0.234375q-0.796875 -0.234375 -1.40625 -0.734375q-0.59375 -0.5 -0.953125 -1.265625q-0.359375 -0.765625 -0.359375 -1.765625l0 -14.921875l-2.875 0l0 -2.15625l2.875 0l0 -7.03125l2.71875 0l0 7.03125l4.8125 0l0 2.15625l-4.8125 0l0 14.171875q0.09375 1.15625 0.828125 1.703125q0.734375 0.53125 1.703125 0.53125q1.15625 0 2.03125 -0.375q0.890625 -0.390625 1.125 -0.546875l0.71875 2.203125zm20.915588 1.0l-2.71875 0l0 -11.640625q0 -3.5625 -1.21875 -5.3125q-1.21875 -1.765625 -3.578125 -1.765625q-1.15625 0 -2.296875 0.46875q-1.140625 0.453125 -2.140625 1.25q-1.0 0.796875 -1.75 1.875q-0.734375 1.078125 -1.09375 2.359375l0 12.765625l-2.71875 0l0 -29.203125l2.71875 0l0 13.078125q1.234375 -2.359375 3.4375 -3.71875q2.203125 -1.359375 4.765625 -1.359375q1.796875 0 3.03125 0.671875q1.25 0.65625 2.046875 1.84375q0.796875 1.171875 1.15625 2.828125q0.359375 1.65625 0.359375 3.65625l0 12.203125zm14.804321 0.40625q-2.28125 0 -4.1875 -0.859375q-1.890625 -0.859375 -3.296875 -2.359375q-1.390625 -1.5 -2.171875 -3.453125q-0.78125 -1.96875 -0.78125 -4.21875q0 -2.203125 0.78125 -4.140625q0.78125 -1.9375 2.15625 -3.390625q1.375 -1.46875 3.296875 -2.328125q1.921875 -0.859375 4.15625 -0.859375q2.28125 0 4.1875 0.859375q1.90625 0.859375 3.265625 2.34375q1.359375 1.484375 2.109375 3.40625q0.765625 1.90625 0.765625 4.078125q0 0.3125 0 0.640625q0 0.3125 -0.046875 0.4375l-17.828125 0q0.109375 1.671875 0.765625 3.09375q0.671875 1.421875 1.703125 2.46875q1.046875 1.03125 2.375 1.609375q1.34375 0.578125 2.875 0.578125q1.0 0 2.0 -0.265625q1.0 -0.28125 1.828125 -0.765625q0.84375 -0.484375 1.515625 -1.171875q0.6875 -0.703125 1.046875 -1.546875l2.359375 0.640625q-0.46875 1.15625 -1.359375 2.09375q-0.875 0.9375 -2.046875 1.640625q-1.15625 0.703125 -2.5625 1.078125q-1.390625 0.390625 -2.90625 0.390625zm7.6875 -11.921875q-0.125 -1.6875 -0.796875 -3.0625q-0.65625 -1.375 -1.671875 -2.375q-1.015625 -1.0 -2.359375 -1.5625q-1.34375 -0.5625 -2.859375 -0.5625q-1.515625 0 -2.875 0.5625q-1.359375 0.5625 -2.390625 1.5625q-1.015625 1.0 -1.640625 2.40625q-0.609375 1.390625 -0.734375 3.03125l15.328125 0z" fill-rule="nonzero"/><path fill="#000000" d="m114.55118 156.15065l-2.71875 0l0 -11.640625q0 -3.640625 -1.171875 -5.359375q-1.15625 -1.71875 -3.421875 -1.71875q-1.203125 0 -2.265625 0.4375q-1.0625 0.4375 -1.96875 1.25q-0.890625 0.796875 -1.578125 1.890625q-0.671875 1.09375 -1.03125 2.421875l0 12.71875l-2.71875 0l0 -11.640625q0 -3.71875 -1.125 -5.390625q-1.125 -1.6875 -3.4375 -1.6875q-2.359375 0 -4.203125 1.640625q-1.84375 1.640625 -2.640625 4.3125l0 12.765625l-2.71875 0l0 -20.84375l2.484375 0l0 4.71875q1.28125 -2.390625 3.359375 -3.734375q2.078125 -1.34375 4.59375 -1.34375q2.640625 0 4.21875 1.484375q1.578125 1.484375 1.9375 3.875q2.921875 -5.359375 8.046875 -5.359375q1.765625 0 2.984375 0.640625q1.21875 0.640625 1.953125 1.828125q0.734375 1.171875 1.078125 2.84375q0.34375 1.65625 0.34375 3.6875l0 12.203125zm5.759964 0l0 -20.84375l2.71875 0l0 20.84375l-2.71875 0zm0 -25.203125l0 -4.0l2.71875 0l0 4.0l-2.71875 0zm26.235611 25.203125l-2.71875 0l0 -11.640625q0 -3.71875 -1.109375 -5.390625q-1.09375 -1.6875 -3.375 -1.6875q-1.1875 0 -2.390625 0.4375q-1.203125 0.4375 -2.21875 1.25q-1.015625 0.796875 -1.828125 1.890625q-0.796875 1.09375 -1.15625 2.375l0 12.765625l-2.71875 0l0 -20.84375l2.484375 0l0 4.71875q1.28125 -2.28125 3.65625 -3.671875q2.375 -1.40625 5.171875 -1.40625q1.734375 0 2.921875 0.640625q1.203125 0.640625 1.921875 1.8125q0.71875 1.15625 1.03125 2.84375q0.328125 1.671875 0.328125 3.703125l0 12.203125zm14.366852 0.40625q-2.15625 0 -4.0 -0.90625q-1.84375 -0.90625 -3.171875 -2.375q-1.3125 -1.484375 -2.0625 -3.421875q-0.734375 -1.9375 -0.734375 -4.0625q0 -2.203125 0.71875 -4.171875q0.734375 -1.984375 1.984375 -3.46875q1.265625 -1.484375 3.0 -2.34375q1.75 -0.859375 3.828125 -0.859375q2.640625 0 4.671875 1.390625q2.046875 1.375 3.203125 3.328125l0 -12.71875l2.71875 0l0 25.6875q0 1.109375 0.96875 1.109375l0 2.40625q-0.609375 0.125 -0.96875 0.125q-0.953125 0 -1.6875 -0.625q-0.71875 -0.625 -0.71875 -1.5l0 -2.046875q-1.234375 2.046875 -3.359375 3.25q-2.109375 1.203125 -4.390625 1.203125zm0.59375 -2.40625q1.0 0 2.140625 -0.390625q1.140625 -0.40625 2.140625 -1.109375q1.0 -0.703125 1.703125 -1.640625q0.703125 -0.9375 0.859375 -2.015625l0 -6.4375q-0.40625 -1.09375 -1.171875 -2.03125q-0.75 -0.9375 -1.734375 -1.65625q-0.96875 -0.71875 -2.09375 -1.109375q-1.125 -0.40625 -2.203125 -0.40625q-1.671875 0 -3.03125 0.71875q-1.359375 0.71875 -2.34375 1.90625q-0.984375 1.171875 -1.5 2.703125q-0.515625 1.515625 -0.515625 3.109375q0 1.671875 0.59375 3.203125q0.59375 1.515625 1.640625 2.65625q1.046875 1.140625 2.453125 1.828125q1.421875 0.671875 3.0625 0.671875zm22.6456 2.40625q-2.4375 0 -4.765625 -0.796875q-2.3125 -0.8125 -4.0 -2.328125l1.25 -1.84375q1.75 1.4375 3.5625 2.15625q1.828125 0.71875 3.90625 0.71875q2.53125 0 4.03125 -1.015625q1.5 -1.015625 1.5 -2.890625q0 -0.890625 -0.40625 -1.46875q-0.40625 -0.578125 -1.1875 -1.015625q-0.765625 -0.4375 -1.953125 -0.78125q-1.171875 -0.34375 -2.734375 -0.703125q-1.8125 -0.4375 -3.125 -0.875q-1.3125 -0.4375 -2.1875 -1.0q-0.859375 -0.5625 -1.28125 -1.375q-0.40625 -0.828125 -0.40625 -2.0625q0 -1.5625 0.609375 -2.765625q0.625 -1.203125 1.6875 -1.984375q1.0625 -0.78125 2.46875 -1.171875q1.421875 -0.40625 3.03125 -0.40625q2.390625 0 4.34375 0.78125q1.96875 0.78125 3.171875 2.0625l-1.3125 1.59375q-1.171875 -1.1875 -2.828125 -1.78125q-1.65625 -0.609375 -3.453125 -0.609375q-1.078125 0 -2.0 0.21875q-0.921875 0.21875 -1.625 0.703125q-0.703125 0.46875 -1.109375 1.21875q-0.390625 0.734375 -0.390625 1.734375q0 0.84375 0.28125 1.359375q0.28125 0.515625 0.921875 0.90625q0.640625 0.375 1.609375 0.671875q0.984375 0.296875 2.390625 0.625q2.0 0.484375 3.515625 0.96875q1.515625 0.46875 2.53125 1.109375q1.03125 0.640625 1.546875 1.5625q0.53125 0.921875 0.53125 2.234375q0 2.890625 -2.203125 4.578125q-2.203125 1.671875 -5.921875 1.671875zm31.633102 0q-2.28125 0 -4.15625 -0.859375q-1.875 -0.859375 -3.265625 -2.34375q-1.375 -1.484375 -2.140625 -3.4375q-0.75 -1.96875 -0.75 -4.125q0 -2.203125 0.78125 -4.15625q0.78125 -1.96875 2.15625 -3.4375q1.375 -1.484375 3.25 -2.359375q1.890625 -0.890625 4.125 -0.890625q2.25 0 4.140625 0.890625q1.90625 0.875 3.28125 2.359375q1.390625 1.46875 2.15625 3.4375q0.78125 1.953125 0.78125 4.15625q0 2.15625 -0.765625 4.125q-0.75 1.953125 -2.140625 3.4375q-1.375 1.484375 -3.28125 2.34375q-1.890625 0.859375 -4.171875 0.859375zm-7.5625 -10.71875q0 1.75 0.59375 3.25q0.609375 1.5 1.625 2.640625q1.03125 1.140625 2.40625 1.78125q1.375 0.640625 2.9375 0.640625q1.5625 0 2.9375 -0.65625q1.390625 -0.65625 2.421875 -1.796875q1.046875 -1.140625 1.640625 -2.65625q0.609375 -1.53125 0.609375 -3.296875q0 -1.71875 -0.609375 -3.25q-0.59375 -1.546875 -1.640625 -2.6875q-1.03125 -1.140625 -2.421875 -1.796875q-1.375 -0.65625 -2.9375 -0.65625q-1.5625 0 -2.921875 0.65625q-1.359375 0.65625 -2.40625 1.828125q-1.03125 1.15625 -1.640625 2.703125q-0.59375 1.53125 -0.59375 3.296875zm23.487473 10.3125l0 -18.6875l-2.875 0l0 -2.15625l2.875 0l0 -0.5625q0 -3.828125 1.640625 -6.0q1.640625 -2.1875 4.484375 -2.1875q1.234375 0 2.390625 0.359375q1.171875 0.359375 2.0 0.953125l-0.828125 1.96875q-0.5625 -0.453125 -1.390625 -0.6875q-0.8125 -0.234375 -1.65625 -0.234375q-1.921875 0 -2.921875 1.484375q-1.0 1.46875 -1.0 4.265625l0 0.640625l5.765625 0l0 2.15625l-5.765625 0l0 18.6875l-2.71875 0zm22.524979 -29.203125l2.7187653 0l0 24.484375q0 1.15625 0.640625 1.828125q0.640625 0.65625 1.796875 0.65625q0.4375 0 1.03125 -0.125q0.609375 -0.125 1.125 -0.328125l0.484375 2.203125q-0.765625 0.328125 -1.875 0.515625q-1.09375 0.203125 -1.890625 0.203125q-1.875 0 -2.9531403 -1.046875q-1.078125 -1.0625 -1.078125 -2.984375l0 -25.40625zm10.75499 29.203125l0 -20.84375l2.71875 0l0 20.84375l-2.71875 0zm0 -25.203125l0 -4.0l2.71875 0l0 4.0l-2.71875 0zm14.954376 25.203125l-8.46875 -20.84375l2.796875 0l7.15625 18.328125l7.203125 -18.328125l2.640625 0l-8.484375 20.84375l-2.84375 0zm15.085602 0l0 -20.84375l2.71875 0l0 20.84375l-2.71875 0zm0 -25.203125l0 -4.0l2.71875 0l0 4.0l-2.71875 0zm26.235596 25.203125l-2.71875 0l0 -11.640625q0 -3.71875 -1.109375 -5.390625q-1.09375 -1.6875 -3.375 -1.6875q-1.1875 0 -2.390625 0.4375q-1.203125 0.4375 -2.21875 1.25q-1.015625 0.796875 -1.828125 1.890625q-0.796875 1.09375 -1.15625 2.375l0 12.765625l-2.71875 0l0 -20.84375l2.484375 0l0 4.71875q1.28125 -2.28125 3.65625 -3.671875q2.375 -1.40625 5.171875 -1.40625q1.734375 0 2.921875 0.640625q1.203125 0.640625 1.921875 1.8125q0.71875 1.15625 1.03125 2.84375q0.328125 1.671875 0.328125 3.703125l0 12.203125zm14.163727 0.28125q-2.15625 0 -3.9375 -0.890625q-1.78125 -0.90625 -3.078125 -2.390625q-1.296875 -1.484375 -2.03125 -3.390625q-0.71875 -1.921875 -0.71875 -3.96875q0 -2.15625 0.703125 -4.140625q0.703125 -1.984375 1.984375 -3.453125q1.28125 -1.484375 3.0625 -2.359375q1.78125 -0.890625 3.9375 -0.890625q2.671875 0 4.625 1.34375q1.96875 1.34375 3.375 3.375l0 -4.359375l2.4375 0l0 20.921875q0 2.15625 -0.828125 3.8125q-0.8125 1.671875 -2.203125 2.78125q-1.375 1.125 -3.234375 1.6875q-1.859375 0.5625 -3.9375 0.5625q-3.59375 0 -5.796875 -1.28125q-2.203125 -1.28125 -3.5625 -3.4375l1.6875 -1.328125q1.234375 2.0 3.265625 2.9375q2.046875 0.953125 4.40625 0.953125q1.53125 0 2.890625 -0.421875q1.359375 -0.421875 2.375 -1.25q1.015625 -0.8125 1.609375 -2.078125q0.609375 -1.25 0.609375 -2.9375l0 -4.125q-1.203125 2.0 -3.28125 3.171875q-2.078125 1.15625 -4.359375 1.15625zm0.765625 -2.28125q1.1875 0 2.34375 -0.4375q1.171875 -0.4375 2.109375 -1.171875q0.9375 -0.75 1.578125 -1.671875q0.640625 -0.921875 0.84375 -1.875l0 -6.4375q-0.4375 -1.125 -1.203125 -2.078125q-0.75 -0.96875 -1.71875 -1.640625q-0.953125 -0.6875 -2.0625 -1.078125q-1.09375 -0.40625 -2.21875 -0.40625q-1.75 0 -3.140625 0.75q-1.375 0.734375 -2.34375 1.9375q-0.953125 1.1875 -1.453125 2.71875q-0.5 1.515625 -0.5 3.078125q0 1.671875 0.59375 3.203125q0.609375 1.515625 1.671875 2.65625q1.0625 1.140625 2.453125 1.796875q1.40625 0.65625 3.046875 0.65625zm35.794952 1.0q-0.234375 0.125 -0.703125 0.328125q-0.453125 0.1875 -1.0625 0.390625q-0.59375 0.203125 -1.359375 0.359375q-0.75 0.15625 -1.59375 0.15625q-0.875 0 -1.6875 -0.234375q-0.796875 -0.234375 -1.40625 -0.734375q-0.59375 -0.5 -0.953125 -1.265625q-0.359375 -0.765625 -0.359375 -1.765625l0 -14.921875l-2.875 0l0 -2.15625l2.875 0l0 -7.03125l2.71875 0l0 7.03125l4.8125 0l0 2.15625l-4.8125 0l0 14.171875q0.09375 1.15625 0.828125 1.703125q0.734375 0.53125 1.703125 0.53125q1.15625 0 2.03125 -0.375q0.890625 -0.390625 1.125 -0.546875l0.71875 2.203125zm20.915619 1.0l-2.71875 0l0 -11.640625q0 -3.5625 -1.21875 -5.3125q-1.21875 -1.765625 -3.578125 -1.765625q-1.15625 0 -2.296875 0.46875q-1.140625 0.453125 -2.140625 1.25q-1.0 0.796875 -1.75 1.875q-0.734375 1.078125 -1.09375 2.359375l0 12.765625l-2.71875 0l0 -29.203125l2.71875 0l0 13.078125q1.234375 -2.359375 3.4375 -3.71875q2.203125 -1.359375 4.765625 -1.359375q1.796875 0 3.03125 0.671875q1.25 0.65625 2.046875 1.84375q0.796875 1.171875 1.15625 2.828125q0.359375 1.65625 0.359375 3.65625l0 12.203125zm5.804352 0l0 -20.84375l2.71875 0l0 20.84375l-2.71875 0zm0 -25.203125l0 -4.0l2.71875 0l0 4.0l-2.71875 0zm26.235596 25.203125l-2.71875 0l0 -11.640625q0 -3.71875 -1.109375 -5.390625q-1.09375 -1.6875 -3.375 -1.6875q-1.1875 0 -2.390625 0.4375q-1.203125 0.4375 -2.21875 1.25q-1.015625 0.796875 -1.828125 1.890625q-0.796875 1.09375 -1.15625 2.375l0 12.765625l-2.71875 0l0 -20.84375l2.484375 0l0 4.71875q1.28125 -2.28125 3.65625 -3.671875q2.375 -1.40625 5.171875 -1.40625q1.734375 0 2.921875 0.640625q1.203125 0.640625 1.921875 1.8125q0.71875 1.15625 1.03125 2.84375q0.328125 1.671875 0.328125 3.703125l0 12.203125zm14.163727 0.28125q-2.15625 0 -3.9375 -0.890625q-1.78125 -0.90625 -3.078125 -2.390625q-1.296875 -1.484375 -2.03125 -3.390625q-0.71875 -1.921875 -0.71875 -3.96875q0 -2.15625 0.703125 -4.140625q0.703125 -1.984375 1.984375 -3.453125q1.28125 -1.484375 3.0625 -2.359375q1.78125 -0.890625 3.9375 -0.890625q2.671875 0 4.625 1.34375q1.96875 1.34375 3.375 3.375l0 -4.359375l2.4375 0l0 20.921875q0 2.15625 -0.828125 3.8125q-0.8125 1.671875 -2.203125 2.78125q-1.375 1.125 -3.234375 1.6875q-1.859375 0.5625 -3.9375 0.5625q-3.59375 0 -5.796875 -1.28125q-2.203125 -1.28125 -3.5625 -3.4375l1.6875 -1.328125q1.234375 2.0 3.265625 2.9375q2.046875 0.953125 4.40625 0.953125q1.53125 0 2.890625 -0.421875q1.359375 -0.421875 2.375 -1.25q1.015625 -0.8125 1.609375 -2.078125q0.609375 -1.25 0.609375 -2.9375l0 -4.125q-1.203125 2.0 -3.28125 3.171875q-2.078125 1.15625 -4.359375 1.15625zm0.765625 -2.28125q1.1875 0 2.34375 -0.4375q1.171875 -0.4375 2.109375 -1.171875q0.9375 -0.75 1.578125 -1.671875q0.640625 -0.921875 0.84375 -1.875l0 -6.4375q-0.4375 -1.125 -1.203125 -2.078125q-0.75 -0.96875 -1.71875 -1.640625q-0.953125 -0.6875 -2.0625 -1.078125q-1.09375 -0.40625 -2.21875 -0.40625q-1.75 0 -3.140625 0.75q-1.375 0.734375 -2.34375 1.9375q-0.953125 1.1875 -1.453125 2.71875q-0.5 1.515625 -0.5 3.078125q0 1.671875 0.59375 3.203125q0.609375 1.515625 1.671875 2.65625q1.0625 1.140625 2.453125 1.796875q1.40625 0.65625 3.046875 0.65625zm22.516846 2.40625q-2.4375 0 -4.765625 -0.796875q-2.3125 -0.8125 -4.0 -2.328125l1.25 -1.84375q1.75 1.4375 3.5625 2.15625q1.828125 0.71875 3.90625 0.71875q2.53125 0 4.03125 -1.015625q1.5 -1.015625 1.5 -2.890625q0 -0.890625 -0.40625 -1.46875q-0.40625 -0.578125 -1.1875 -1.015625q-0.765625 -0.4375 -1.953125 -0.78125q-1.171875 -0.34375 -2.734375 -0.703125q-1.8125 -0.4375 -3.125 -0.875q-1.3125 -0.4375 -2.1875 -1.0q-0.859375 -0.5625 -1.28125 -1.375q-0.40625 -0.828125 -0.40625 -2.0625q0 -1.5625 0.609375 -2.765625q0.625 -1.203125 1.6875 -1.984375q1.0625 -0.78125 2.46875 -1.171875q1.421875 -0.40625 3.03125 -0.40625q2.390625 0 4.34375 0.78125q1.96875 0.78125 3.171875 2.0625l-1.3125 1.59375q-1.171875 -1.1875 -2.828125 -1.78125q-1.65625 -0.609375 -3.453125 -0.609375q-1.078125 0 -2.0 0.21875q-0.921875 0.21875 -1.625 0.703125q-0.703125 0.46875 -1.109375 1.21875q-0.390625 0.734375 -0.390625 1.734375q0 0.84375 0.28125 1.359375q0.28125 0.515625 0.921875 0.90625q0.640625 0.375 1.609375 0.671875q0.984375 0.296875 2.390625 0.625q2.0 0.484375 3.515625 0.96875q1.515625 0.46875 2.53125 1.109375q1.03125 0.640625 1.546875 1.5625q0.53125 0.921875 0.53125 2.234375q0 2.890625 -2.203125 4.578125q-2.203125 1.671875 -5.921875 1.671875zm12.995605 2.828125l0.6875 -3.359375l-0.921875 0l0 -3.796875l2.640625 0l0 3.796875l-1.0 3.359375l-1.40625 0z" fill-rule="nonzero"/><path fill="#000000" d="m90.47305 204.5569q-2.4375 0 -4.765625 -0.796875q-2.3125 -0.8125 -4.0 -2.328125l1.25 -1.84375q1.75 1.4375 3.5625 2.15625q1.828125 0.71875 3.90625 0.71875q2.53125 0 4.03125 -1.015625q1.5 -1.015625 1.5 -2.890625q0 -0.890625 -0.40625 -1.46875q-0.40625 -0.578125 -1.1875 -1.015625q-0.765625 -0.4375 -1.953125 -0.78125q-1.171875 -0.34375 -2.734375 -0.703125q-1.8125 -0.4375 -3.125 -0.875q-1.3125 -0.4375 -2.1875 -1.0q-0.859375 -0.5625 -1.28125 -1.375q-0.40625 -0.828125 -0.40625 -2.0625q0 -1.5625 0.609375 -2.765625q0.625 -1.203125 1.6875 -1.984375q1.0625 -0.78125 2.46875 -1.171875q1.421875 -0.40625 3.03125 -0.40625q2.390625 0 4.34375 0.78125q1.96875 0.78125 3.171875 2.0625l-1.3125 1.59375q-1.171875 -1.1875 -2.828125 -1.78125q-1.65625 -0.609375 -3.453125 -0.609375q-1.078125 0 -2.0 0.21875q-0.921875 0.21875 -1.625 0.703125q-0.703125 0.46875 -1.109375 1.21875q-0.390625 0.734375 -0.390625 1.734375q0 0.84375 0.28125 1.359375q0.28125 0.515625 0.921875 0.90625q0.640625 0.375 1.609375 0.671875q0.984375 0.296875 2.390625 0.625q2.0 0.484375 3.515625 0.96875q1.515625 0.46875 2.53125 1.109375q1.03125 0.640625 1.546875 1.5625q0.53125 0.921875 0.53125 2.234375q0 2.890625 -2.203125 4.578125q-2.203125 1.671875 -5.921875 1.671875zm21.433105 0q-2.28125 0 -4.15625 -0.859375q-1.875 -0.859375 -3.265625 -2.34375q-1.375 -1.484375 -2.140625 -3.4375q-0.75 -1.96875 -0.75 -4.125q0 -2.203125 0.78125 -4.15625q0.78125 -1.96875 2.15625 -3.4375q1.375 -1.484375 3.25 -2.359375q1.890625 -0.890625 4.125 -0.890625q2.25 0 4.140625 0.890625q1.90625 0.875 3.28125 2.359375q1.390625 1.46875 2.15625 3.4375q0.78125 1.953125 0.78125 4.15625q0 2.15625 -0.765625 4.125q-0.75 1.953125 -2.140625 3.4375q-1.375 1.484375 -3.28125 2.34375q-1.890625 0.859375 -4.171875 0.859375zm-7.5625 -10.71875q0 1.75 0.59375 3.25q0.609375 1.5 1.625 2.640625q1.03125 1.140625 2.40625 1.78125q1.375 0.640625 2.9375 0.640625q1.5625 0 2.9375 -0.65625q1.390625 -0.65625 2.421875 -1.796875q1.046875 -1.140625 1.640625 -2.65625q0.609375 -1.53125 0.609375 -3.296875q0 -1.71875 -0.609375 -3.25q-0.59375 -1.546875 -1.640625 -2.6875q-1.03125 -1.140625 -2.421875 -1.796875q-1.375 -0.65625 -2.9375 -0.65625q-1.5625 0 -2.921875 0.65625q-1.359375 0.65625 -2.40625 1.828125q-1.03125 1.15625 -1.640625 2.703125q-0.59375 1.53125 -0.59375 3.296875zm32.68747 10.3125l0 -20.84375l2.71875 0l0 20.84375l-2.71875 0zm0 -25.203125l0 -4.0l2.71875 0l0 4.0l-2.71875 0zm9.719986 25.203125l0 -18.6875l-2.875 0l0 -2.15625l2.875 0l0 -0.5625q0 -3.828125 1.640625 -6.0q1.640625 -2.1875 4.484375 -2.1875q1.234375 0 2.390625 0.359375q1.171875 0.359375 2.0 0.953125l-0.828125 1.96875q-0.5625 -0.453125 -1.390625 -0.6875q-0.8125 -0.234375 -1.65625 -0.234375q-1.921875 0 -2.921875 1.484375q-1.0 1.46875 -1.0 4.265625l0 0.640625l5.765625 0l0 2.15625l-5.765625 0l0 18.6875l-2.71875 0zm27.634354 0.40625q-1.46875 0 -2.734375 -0.5q-1.265625 -0.5 -2.203125 -1.375q-0.9375 -0.890625 -1.46875 -2.0625q-0.515625 -1.1875 -0.515625 -2.546875q0 -1.359375 0.640625 -2.515625q0.640625 -1.171875 1.796875 -2.0q1.171875 -0.84375 2.765625 -1.296875q1.609375 -0.46875 3.53125 -0.46875q1.59375 0 3.234375 0.28125q1.640625 0.28125 2.921875 0.796875l0 -1.875q0 -2.765625 -1.5625 -4.375q-1.5625 -1.625 -4.328125 -1.625q-1.59375 0 -3.28125 0.640625q-1.671875 0.640625 -3.390625 1.828125l-0.953125 -1.796875q4.03125 -2.71875 7.828125 -2.71875q3.921875 0 6.15625 2.203125q2.25 2.203125 2.25 6.078125l0 9.40625q0 1.109375 1.0 1.109375l0 2.40625q-0.6875 0.125 -1.046875 0.125q-1.03125 0 -1.609375 -0.515625q-0.578125 -0.53125 -0.625 -1.453125l-0.078125 -1.640625q-1.4375 1.890625 -3.625 2.890625q-2.171875 1.0 -4.703125 1.0zm0.640625 -2.09375q2.125 0 3.90625 -0.796875q1.78125 -0.796875 2.703125 -2.109375q0.359375 -0.359375 0.53125 -0.78125q0.1875 -0.421875 0.1875 -0.78125l0 -3.40625q-1.359375 -0.515625 -2.828125 -0.796875q-1.453125 -0.28125 -2.96875 -0.28125q-2.890625 0 -4.6875 1.203125q-1.796875 1.203125 -1.796875 3.15625q0 0.96875 0.375 1.8125q0.390625 0.828125 1.046875 1.453125q0.65625 0.609375 1.578125 0.96875q0.921875 0.359375 1.953125 0.359375zm26.68747 1.6875l0 -28.40625l11.75 0q1.84375 0 3.375 0.78125q1.546875 0.78125 2.671875 2.046875q1.125 1.265625 1.765625 2.859375q0.640625 1.59375 0.640625 3.234375q0 1.765625 -0.609375 3.390625q-0.59375 1.609375 -1.671875 2.859375q-1.078125 1.234375 -2.578125 2.0q-1.5 0.75 -3.34375 0.75l-9.203125 0l0 10.484375l-2.796875 0zm2.796875 -12.953125l9.078125 0q1.25 0 2.265625 -0.546875q1.015625 -0.546875 1.734375 -1.4375q0.71875 -0.90625 1.109375 -2.078125q0.40625 -1.1875 0.40625 -2.46875q0 -1.3125 -0.453125 -2.484375q-0.453125 -1.1875 -1.234375 -2.0625q-0.78125 -0.890625 -1.84375 -1.390625q-1.0625 -0.5 -2.21875 -0.5l-8.84375 0l0 12.96875zm21.6456 -16.25l2.71875 0l0 24.484375q0 1.15625 0.640625 1.828125q0.640625 0.65625 1.796875 0.65625q0.4375 0 1.03125 -0.125q0.609375 -0.125 1.125 -0.328125l0.484375 2.203125q-0.765625 0.328125 -1.875 0.515625q-1.09375 0.203125 -1.890625 0.203125q-1.875 0 -2.953125 -1.046875q-1.078125 -1.0625 -1.078125 -2.984375l0 -25.40625zm15.989365 29.609375q-1.46875 0 -2.734375 -0.5q-1.265625 -0.5 -2.203125 -1.375q-0.9375 -0.890625 -1.46875 -2.0625q-0.515625 -1.1875 -0.515625 -2.546875q0 -1.359375 0.640625 -2.515625q0.640625 -1.171875 1.796875 -2.0q1.171875 -0.84375 2.765625 -1.296875q1.609375 -0.46875 3.53125 -0.46875q1.59375 0 3.234375 0.28125q1.640625 0.28125 2.921875 0.796875l0 -1.875q0 -2.765625 -1.5625 -4.375q-1.5625 -1.625 -4.328125 -1.625q-1.59375 0 -3.28125 0.640625q-1.671875 0.640625 -3.390625 1.828125l-0.953125 -1.796875q4.03125 -2.71875 7.828125 -2.71875q3.921875 0 6.15625 2.203125q2.25 2.203125 2.25 6.078125l0 9.40625q0 1.109375 1.0 1.109375l0 2.40625q-0.6875 0.125 -1.046875 0.125q-1.03125 0 -1.609375 -0.515625q-0.578125 -0.53125 -0.625 -1.453125l-0.078125 -1.640625q-1.4375 1.890625 -3.625 2.890625q-2.171875 1.0 -4.703125 1.0zm0.640625 -2.09375q2.125 0 3.90625 -0.796875q1.78125 -0.796875 2.703125 -2.109375q0.359375 -0.359375 0.53125 -0.78125q0.1875 -0.421875 0.1875 -0.78125l0 -3.40625q-1.359375 -0.515625 -2.828125 -0.796875q-1.453125 -0.28125 -2.96875 -0.28125q-2.890625 0 -4.6875 1.203125q-1.796875 1.203125 -1.796875 3.15625q0 0.96875 0.375 1.8125q0.390625 0.828125 1.046875 1.453125q0.65625 0.609375 1.578125 0.96875q0.921875 0.359375 1.953125 0.359375zm25.924973 0.6875q-0.234375 0.125 -0.703125 0.328125q-0.453125 0.1875 -1.0625 0.390625q-0.59375 0.203125 -1.359375 0.359375q-0.75 0.15625 -1.59375 0.15625q-0.875 0 -1.6875 -0.234375q-0.796875 -0.234375 -1.40625 -0.734375q-0.59375 -0.5 -0.953125 -1.265625q-0.359375 -0.765625 -0.359375 -1.765625l0 -14.921875l-2.875 0l0 -2.15625l2.875 0l0 -7.03125l2.71875 0l0 7.03125l4.8125 0l0 2.15625l-4.8125 0l0 14.171875q0.09375 1.15625 0.828125 1.703125q0.734375 0.53125 1.703125 0.53125q1.15625 0 2.03125 -0.375q0.890625 -0.390625 1.125 -0.546875l0.71875 2.203125zm12.274994 1.40625q-2.28125 0 -4.15625 -0.859375q-1.875 -0.859375 -3.265625 -2.34375q-1.375 -1.484375 -2.140625 -3.4375q-0.75 -1.96875 -0.75 -4.125q0 -2.203125 0.78125 -4.15625q0.78125 -1.96875 2.15625 -3.4375q1.375 -1.484375 3.25 -2.359375q1.890625 -0.890625 4.125 -0.890625q2.25 0 4.140625 0.890625q1.90625 0.875 3.28125 2.359375q1.390625 1.46875 2.15625 3.4375q0.78125 1.953125 0.78125 4.15625q0 2.15625 -0.765625 4.125q-0.75 1.953125 -2.140625 3.4375q-1.375 1.484375 -3.28125 2.34375q-1.890625 0.859375 -4.171875 0.859375zm-7.5625 -10.71875q0 1.75 0.59375 3.25q0.609375 1.5 1.625 2.640625q1.03125 1.140625 2.40625 1.78125q1.375 0.640625 2.9375 0.640625q1.5625 0 2.9375 -0.65625q1.390625 -0.65625 2.421875 -1.796875q1.046875 -1.140625 1.640625 -2.65625q0.609375 -1.53125 0.609375 -3.296875q0 -1.71875 -0.609375 -3.25q-0.59375 -1.546875 -1.640625 -2.6875q-1.03125 -1.140625 -2.421875 -1.796875q-1.375 -0.65625 -2.9375 -0.65625q-1.5625 0 -2.921875 0.65625q-1.359375 0.65625 -2.40625 1.828125q-1.03125 1.15625 -1.640625 2.703125q-0.59375 1.53125 -0.59375 3.296875zm40.003113 10.3125l-2.71875 0l0 -11.640625q0 -3.71875 -1.109375 -5.390625q-1.09375 -1.6875 -3.375 -1.6875q-1.1875 0 -2.390625 0.4375q-1.203125 0.4375 -2.21875 1.25q-1.015625 0.796875 -1.828125 1.890625q-0.796875 1.09375 -1.15625 2.375l0 12.765625l-2.71875 0l0 -20.84375l2.484375 0l0 4.71875q1.28125 -2.28125 3.65625 -3.671875q2.375 -1.40625 5.171875 -1.40625q1.734375 0 2.921875 0.640625q1.203125 0.640625 1.921875 1.8125q0.71875 1.15625 1.03125 2.84375q0.328125 1.671875 0.328125 3.703125l0 12.203125zm5.804352 0l0 -20.84375l2.71875 0l0 20.84375l-2.71875 0zm0 -25.203125l0 -4.0l2.71875 0l0 4.0l-2.71875 0zm7.2824707 14.71875q0 -2.203125 0.75 -4.15625q0.765625 -1.953125 2.140625 -3.40625q1.390625 -1.46875 3.3125 -2.3125q1.921875 -0.84375 4.234375 -0.84375q2.953125 0 5.15625 1.34375q2.203125 1.34375 3.328125 3.625l-2.640625 0.828125q-0.890625 -1.59375 -2.46875 -2.484375q-1.578125 -0.90625 -3.5 -0.90625q-1.59375 0 -2.984375 0.640625q-1.375 0.640625 -2.390625 1.75q-1.015625 1.09375 -1.609375 2.609375q-0.578125 1.515625 -0.578125 3.3125q0 1.765625 0.59375 3.328125q0.609375 1.5625 1.640625 2.703125q1.046875 1.140625 2.421875 1.796875q1.390625 0.65625 2.953125 0.65625q1.0 0 1.96875 -0.28125q0.984375 -0.28125 1.828125 -0.78125q0.84375 -0.5 1.4375 -1.140625q0.609375 -0.640625 0.84375 -1.359375l2.6875 0.796875q-0.453125 1.125 -1.296875 2.0625q-0.828125 0.9375 -1.96875 1.640625q-1.140625 0.703125 -2.53125 1.078125q-1.375 0.390625 -2.84375 0.390625q-2.28125 0 -4.203125 -0.859375q-1.921875 -0.859375 -3.328125 -2.359375q-1.390625 -1.5 -2.171875 -3.453125q-0.78125 -1.96875 -0.78125 -4.21875zm64.5975 10.484375l-2.71875 0l0 -11.640625q0 -3.640625 -1.171875 -5.359375q-1.15625 -1.71875 -3.421875 -1.71875q-1.203125 0 -2.265625 0.4375q-1.0625 0.4375 -1.96875 1.25q-0.890625 0.796875 -1.578125 1.890625q-0.671875 1.09375 -1.03125 2.421875l0 12.71875l-2.71875 0l0 -11.640625q0 -3.71875 -1.125 -5.390625q-1.125 -1.6875 -3.4375 -1.6875q-2.359375 0 -4.203125 1.640625q-1.84375 1.640625 -2.640625 4.3125l0 12.765625l-2.71875 0l0 -20.84375l2.484375 0l0 4.71875q1.28125 -2.390625 3.359375 -3.734375q2.078125 -1.34375 4.59375 -1.34375q2.640625 0 4.21875 1.484375q1.578125 1.484375 1.9375 3.875q2.921875 -5.359375 8.046875 -5.359375q1.765625 0 2.984375 0.640625q1.21875 0.640625 1.953125 1.828125q0.734375 1.171875 1.078125 2.84375q0.34375 1.65625 0.34375 3.6875l0 12.203125zm10.994324 0.40625q-1.46875 0 -2.734375 -0.5q-1.265625 -0.5 -2.203125 -1.375q-0.9375 -0.890625 -1.46875 -2.0625q-0.515625 -1.1875 -0.515625 -2.546875q0 -1.359375 0.640625 -2.515625q0.640625 -1.171875 1.796875 -2.0q1.171875 -0.84375 2.765625 -1.296875q1.609375 -0.46875 3.53125 -0.46875q1.59375 0 3.234375 0.28125q1.640625 0.28125 2.921875 0.796875l0 -1.875q0 -2.765625 -1.5625 -4.375q-1.5625 -1.625 -4.328125 -1.625q-1.59375 0 -3.28125 0.640625q-1.671875 0.640625 -3.390625 1.828125l-0.953125 -1.796875q4.03125 -2.71875 7.828125 -2.71875q3.921875 0 6.15625 2.203125q2.25 2.203125 2.25 6.078125l0 9.40625q0 1.109375 1.0 1.109375l0 2.40625q-0.6875 0.125 -1.046875 0.125q-1.03125 0 -1.609375 -0.515625q-0.578125 -0.53125 -0.625 -1.453125l-0.078125 -1.640625q-1.4375 1.890625 -3.625 2.890625q-2.171875 1.0 -4.703125 1.0zm0.640625 -2.09375q2.125 0 3.90625 -0.796875q1.78125 -0.796875 2.703125 -2.109375q0.359375 -0.359375 0.53125 -0.78125q0.1875 -0.421875 0.1875 -0.78125l0 -3.40625q-1.359375 -0.515625 -2.828125 -0.796875q-1.453125 -0.28125 -2.96875 -0.28125q-2.890625 0 -4.6875 1.203125q-1.796875 1.203125 -1.796875 3.15625q0 0.96875 0.375 1.8125q0.390625 0.828125 1.046875 1.453125q0.65625 0.609375 1.578125 0.96875q0.921875 0.359375 1.953125 0.359375zm25.924988 0.6875q-0.234375 0.125 -0.703125 0.328125q-0.453125 0.1875 -1.0625 0.390625q-0.59375 0.203125 -1.359375 0.359375q-0.75 0.15625 -1.59375 0.15625q-0.875 0 -1.6875 -0.234375q-0.796875 -0.234375 -1.40625 -0.734375q-0.59375 -0.5 -0.953125 -1.265625q-0.359375 -0.765625 -0.359375 -1.765625l0 -14.921875l-2.875 0l0 -2.15625l2.875 0l0 -7.03125l2.71875 0l0 7.03125l4.8125 0l0 2.15625l-4.8125 0l0 14.171875q0.09375 1.15625 0.828125 1.703125q0.734375 0.53125 1.703125 0.53125q1.15625 0 2.03125 -0.375q0.890625 -0.390625 1.125 -0.546875l0.71875 2.203125zm20.915619 1.0l-2.71875 0l0 -11.640625q0 -3.5625 -1.21875 -5.3125q-1.21875 -1.765625 -3.578125 -1.765625q-1.15625 0 -2.296875 0.46875q-1.140625 0.453125 -2.140625 1.25q-1.0 0.796875 -1.75 1.875q-0.734375 1.078125 -1.09375 2.359375l0 12.765625l-2.71875 0l0 -29.203125l2.71875 0l0 13.078125q1.234375 -2.359375 3.4375 -3.71875q2.203125 -1.359375 4.765625 -1.359375q1.796875 0 3.03125 0.671875q1.25 0.65625 2.046875 1.84375q0.796875 1.171875 1.15625 2.828125q0.359375 1.65625 0.359375 3.65625l0 12.203125zm14.804352 0.40625q-2.28125 0 -4.1875 -0.859375q-1.890625 -0.859375 -3.296875 -2.359375q-1.390625 -1.5 -2.171875 -3.453125q-0.78125 -1.96875 -0.78125 -4.21875q0 -2.203125 0.78125 -4.140625q0.78125 -1.9375 2.15625 -3.390625q1.375 -1.46875 3.296875 -2.328125q1.921875 -0.859375 4.15625 -0.859375q2.28125 0 4.1875 0.859375q1.90625 0.859375 3.265625 2.34375q1.359375 1.484375 2.109375 3.40625q0.765625 1.90625 0.765625 4.078125q0 0.3125 0 0.640625q0 0.3125 -0.046875 0.4375l-17.828125 0q0.109375 1.671875 0.765625 3.09375q0.671875 1.421875 1.703125 2.46875q1.046875 1.03125 2.375 1.609375q1.34375 0.578125 2.875 0.578125q1.0 0 2.0 -0.265625q1.0 -0.28125 1.828125 -0.765625q0.84375 -0.484375 1.515625 -1.171875q0.6875 -0.703125 1.046875 -1.546875l2.359375 0.640625q-0.46875 1.15625 -1.359375 2.09375q-0.875 0.9375 -2.046875 1.640625q-1.15625 0.703125 -2.5625 1.078125q-1.390625 0.390625 -2.90625 0.390625zm7.6875 -11.921875q-0.125 -1.6875 -0.796875 -3.0625q-0.65625 -1.375 -1.671875 -2.375q-1.015625 -1.0 -2.359375 -1.5625q-1.34375 -0.5625 -2.859375 -0.5625q-1.515625 0 -2.875 0.5625q-1.359375 0.5625 -2.390625 1.5625q-1.015625 1.0 -1.640625 2.40625q-0.609375 1.390625 -0.734375 3.03125l15.328125 0zm37.79248 11.515625l-2.71875 0l0 -11.640625q0 -3.640625 -1.171875 -5.359375q-1.15625 -1.71875 -3.421875 -1.71875q-1.203125 0 -2.265625 0.4375q-1.0625 0.4375 -1.96875 1.25q-0.890625 0.796875 -1.578125 1.890625q-0.671875 1.09375 -1.03125 2.421875l0 12.71875l-2.71875 0l0 -11.640625q0 -3.71875 -1.125 -5.390625q-1.125 -1.6875 -3.4375 -1.6875q-2.359375 0 -4.203125 1.640625q-1.84375 1.640625 -2.640625 4.3125l0 12.765625l-2.71875 0l0 -20.84375l2.484375 0l0 4.71875q1.28125 -2.390625 3.359375 -3.734375q2.078125 -1.34375 4.59375 -1.34375q2.640625 0 4.21875 1.484375q1.578125 1.484375 1.9375 3.875q2.921875 -5.359375 8.046875 -5.359375q1.765625 0 2.984375 0.640625q1.21875 0.640625 1.953125 1.828125q0.734375 1.171875 1.078125 2.84375q0.34375 1.65625 0.34375 3.6875l0 12.203125zm10.994354 0.40625q-1.46875 0 -2.734375 -0.5q-1.265625 -0.5 -2.203125 -1.375q-0.9375 -0.890625 -1.46875 -2.0625q-0.515625 -1.1875 -0.515625 -2.546875q0 -1.359375 0.640625 -2.515625q0.640625 -1.171875 1.796875 -2.0q1.171875 -0.84375 2.765625 -1.296875q1.609375 -0.46875 3.53125 -0.46875q1.59375 0 3.234375 0.28125q1.640625 0.28125 2.921875 0.796875l0 -1.875q0 -2.765625 -1.5625 -4.375q-1.5625 -1.625 -4.328125 -1.625q-1.59375 0 -3.28125 0.640625q-1.671875 0.640625 -3.390625 1.828125l-0.953125 -1.796875q4.03125 -2.71875 7.828125 -2.71875q3.921875 0 6.15625 2.203125q2.25 2.203125 2.25 6.078125l0 9.40625q0 1.109375 1.0 1.109375l0 2.40625q-0.6875 0.125 -1.046875 0.125q-1.03125 0 -1.609375 -0.515625q-0.578125 -0.53125 -0.625 -1.453125l-0.078125 -1.640625q-1.4375 1.890625 -3.625 2.890625q-2.171875 1.0 -4.703125 1.0zm0.640625 -2.09375q2.125 0 3.90625 -0.796875q1.78125 -0.796875 2.703125 -2.109375q0.359375 -0.359375 0.53125 -0.78125q0.1875 -0.421875 0.1875 -0.78125l0 -3.40625q-1.359375 -0.515625 -2.828125 -0.796875q-1.453125 -0.28125 -2.96875 -0.28125q-2.890625 0 -4.6875 1.203125q-1.796875 1.203125 -1.796875 3.15625q0 0.96875 0.375 1.8125q0.390625 0.828125 1.046875 1.453125q0.65625 0.609375 1.578125 0.96875q0.921875 0.359375 1.953125 0.359375zm25.924988 0.6875q-0.234375 0.125 -0.703125 0.328125q-0.453125 0.1875 -1.0625 0.390625q-0.59375 0.203125 -1.359375 0.359375q-0.75 0.15625 -1.59375 0.15625q-0.875 0 -1.6875 -0.234375q-0.796875 -0.234375 -1.40625 -0.734375q-0.59375 -0.5 -0.953125 -1.265625q-0.359375 -0.765625 -0.359375 -1.765625l0 -14.921875l-2.875 0l0 -2.15625l2.875 0l0 -7.03125l2.71875 0l0 7.03125l4.8125 0l0 2.15625l-4.8125 0l0 14.171875q0.09375 1.15625 0.828125 1.703125q0.734375 0.53125 1.703125 0.53125q1.15625 0 2.03125 -0.375q0.890625 -0.390625 1.125 -0.546875l0.71875 2.203125zm3.3999634 1.0l0 -20.84375l2.71875 0l0 20.84375l-2.71875 0zm0 -25.203125l0 -4.0l2.71875 0l0 4.0l-2.71875 0zm7.2825317 14.71875q0 -2.203125 0.75 -4.15625q0.765625 -1.953125 2.140625 -3.40625q1.390625 -1.46875 3.3125 -2.3125q1.921875 -0.84375 4.234375 -0.84375q2.953125 0 5.15625 1.34375q2.203125 1.34375 3.328125 3.625l-2.640625 0.828125q-0.890625 -1.59375 -2.46875 -2.484375q-1.578125 -0.90625 -3.5 -0.90625q-1.59375 0 -2.984375 0.640625q-1.375 0.640625 -2.390625 1.75q-1.015625 1.09375 -1.609375 2.609375q-0.578125 1.515625 -0.578125 3.3125q0 1.765625 0.59375 3.328125q0.609375 1.5625 1.640625 2.703125q1.046875 1.140625 2.421875 1.796875q1.390625 0.65625 2.953125 0.65625q1.0 0 1.96875 -0.28125q0.984375 -0.28125 1.828125 -0.78125q0.84375 -0.5 1.4375 -1.140625q0.609375 -0.640625 0.84375 -1.359375l2.6875 0.796875q-0.453125 1.125 -1.296875 2.0625q-0.828125 0.9375 -1.96875 1.640625q-1.140625 0.703125 -2.53125 1.078125q-1.375 0.390625 -2.84375 0.390625q-2.28125 0 -4.203125 -0.859375q-1.921875 -0.859375 -3.328125 -2.359375q-1.390625 -1.5 -2.171875 -3.453125q-0.78125 -1.96875 -0.78125 -4.21875zm30.319336 10.890625q-2.4375 0 -4.765625 -0.796875q-2.3125 -0.8125 -4.0 -2.328125l1.25 -1.84375q1.75 1.4375 3.5625 2.15625q1.828125 0.71875 3.90625 0.71875q2.53125 0 4.03125 -1.015625q1.5 -1.015625 1.5 -2.890625q0 -0.890625 -0.40625 -1.46875q-0.40625 -0.578125 -1.1875 -1.015625q-0.765625 -0.4375 -1.953125 -0.78125q-1.171875 -0.34375 -2.734375 -0.703125q-1.8125 -0.4375 -3.125 -0.875q-1.3125 -0.4375 -2.1875 -1.0q-0.859375 -0.5625 -1.28125 -1.375q-0.40625 -0.828125 -0.40625 -2.0625q0 -1.5625 0.609375 -2.765625q0.625 -1.203125 1.6875 -1.984375q1.0625 -0.78125 2.46875 -1.171875q1.421875 -0.40625 3.03125 -0.40625q2.390625 0 4.34375 0.78125q1.96875 0.78125 3.171875 2.0625l-1.3125 1.59375q-1.171875 -1.1875 -2.828125 -1.78125q-1.65625 -0.609375 -3.453125 -0.609375q-1.078125 0 -2.0 0.21875q-0.921875 0.21875 -1.625 0.703125q-0.703125 0.46875 -1.109375 1.21875q-0.390625 0.734375 -0.390625 1.734375q0 0.84375 0.28125 1.359375q0.28125 0.515625 0.921875 0.90625q0.640625 0.375 1.609375 0.671875q0.984375 0.296875 2.390625 0.625q2.0 0.484375 3.515625 0.96875q1.515625 0.46875 2.53125 1.109375q1.03125 0.640625 1.546875 1.5625q0.53125 0.921875 0.53125 2.234375q0 2.890625 -2.203125 4.578125q-2.203125 1.671875 -5.921875 1.671875zm31.758118 0q-2.28125 0 -4.1875 -0.859375q-1.890625 -0.859375 -3.296875 -2.359375q-1.390625 -1.5 -2.171875 -3.453125q-0.78125 -1.96875 -0.78125 -4.21875q0 -2.203125 0.78125 -4.140625q0.78125 -1.9375 2.15625 -3.390625q1.375 -1.46875 3.296875 -2.328125q1.921875 -0.859375 4.15625 -0.859375q2.28125 0 4.1875 0.859375q1.90625 0.859375 3.265625 2.34375q1.359375 1.484375 2.109375 3.40625q0.765625 1.90625 0.765625 4.078125q0 0.3125 0 0.640625q0 0.3125 -0.046875 0.4375l-17.828125 0q0.109375 1.671875 0.765625 3.09375q0.671875 1.421875 1.703125 2.46875q1.046875 1.03125 2.375 1.609375q1.34375 0.578125 2.875 0.578125q1.0 0 2.0 -0.265625q1.0 -0.28125 1.828125 -0.765625q0.84375 -0.484375 1.515625 -1.171875q0.6875 -0.703125 1.046875 -1.546875l2.359375 0.640625q-0.46875 1.15625 -1.359375 2.09375q-0.875 0.9375 -2.046875 1.640625q-1.15625 0.703125 -2.5625 1.078125q-1.390625 0.390625 -2.90625 0.390625zm7.6875 -11.921875q-0.125 -1.6875 -0.796875 -3.0625q-0.65625 -1.375 -1.671875 -2.375q-1.015625 -1.0 -2.359375 -1.5625q-1.34375 -0.5625 -2.859375 -0.5625q-1.515625 0 -2.875 0.5625q-1.359375 0.5625 -2.390625 1.5625q-1.015625 1.0 -1.640625 2.40625q-0.609375 1.390625 -0.734375 3.03125l15.328125 0zm7.3081055 -9.328125l6.25 8.15625l0.3125 0.609375l0.328125 -0.609375l6.234375 -8.15625l2.921875 0l-7.96875 10.484375l7.96875 10.359375l-2.921875 0l-6.234375 -8.125l-0.328125 -0.5625l-0.3125 0.5625l-6.25 8.125l-2.921875 0l7.96875 -10.359375l-7.96875 -10.484375l2.921875 0zm19.644348 20.84375l0 -20.84375l2.71875 0l0 20.84375l-2.71875 0zm0 -25.203125l0 -4.0l2.71875 0l0 4.0l-2.71875 0zm15.641846 25.609375q-2.4375 0 -4.765625 -0.796875q-2.3125 -0.8125 -4.0 -2.328125l1.25 -1.84375q1.75 1.4375 3.5625 2.15625q1.828125 0.71875 3.90625 0.71875q2.53125 0 4.03125 -1.015625q1.5 -1.015625 1.5 -2.890625q0 -0.890625 -0.40625 -1.46875q-0.40625 -0.578125 -1.1875 -1.015625q-0.765625 -0.4375 -1.953125 -0.78125q-1.171875 -0.34375 -2.734375 -0.703125q-1.8125 -0.4375 -3.125 -0.875q-1.3125 -0.4375 -2.1875 -1.0q-0.859375 -0.5625 -1.28125 -1.375q-0.40625 -0.828125 -0.40625 -2.0625q0 -1.5625 0.609375 -2.765625q0.625 -1.203125 1.6875 -1.984375q1.0625 -0.78125 2.46875 -1.171875q1.421875 -0.40625 3.03125 -0.40625q2.390625 0 4.34375 0.78125q1.96875 0.78125 3.171875 2.0625l-1.3125 1.59375q-1.171875 -1.1875 -2.828125 -1.78125q-1.65625 -0.609375 -3.453125 -0.609375q-1.078125 0 -2.0 0.21875q-0.921875 0.21875 -1.625 0.703125q-0.703125 0.46875 -1.109375 1.21875q-0.390625 0.734375 -0.390625 1.734375q0 0.84375 0.28125 1.359375q0.28125 0.515625 0.921875 0.90625q0.640625 0.375 1.609375 0.671875q0.984375 0.296875 2.390625 0.625q2.0 0.484375 3.515625 0.96875q1.515625 0.46875 2.53125 1.109375q1.03125 0.640625 1.546875 1.5625q0.53125 0.921875 0.53125 2.234375q0 2.890625 -2.203125 4.578125q-2.203125 1.671875 -5.921875 1.671875zm22.558105 -1.40625q-0.234375 0.125 -0.703125 0.328125q-0.453125 0.1875 -1.0625 0.390625q-0.59375 0.203125 -1.359375 0.359375q-0.75 0.15625 -1.59375 0.15625q-0.875 0 -1.6875 -0.234375q-0.796875 -0.234375 -1.40625 -0.734375q-0.59375 -0.5 -0.953125 -1.265625q-0.359375 -0.765625 -0.359375 -1.765625l0 -14.921875l-2.875 0l0 -2.15625l2.875 0l0 -7.03125l2.71875 0l0 7.03125l4.8125 0l0 2.15625l-4.8125 0l0 14.171875q0.09375 1.15625 0.828125 1.703125q0.734375 0.53125 1.703125 0.53125q1.15625 0 2.03125 -0.375q0.890625 -0.390625 1.125 -0.546875l0.71875 2.203125zm10.321838 1.40625q-2.4375 0 -4.765625 -0.796875q-2.3125 -0.8125 -4.0 -2.328125l1.25 -1.84375q1.75 1.4375 3.5625 2.15625q1.828125 0.71875 3.90625 0.71875q2.53125 0 4.03125 -1.015625q1.5 -1.015625 1.5 -2.890625q0 -0.890625 -0.40625 -1.46875q-0.40625 -0.578125 -1.1875 -1.015625q-0.765625 -0.4375 -1.953125 -0.78125q-1.171875 -0.34375 -2.734375 -0.703125q-1.8125 -0.4375 -3.125 -0.875q-1.3125 -0.4375 -2.1875 -1.0q-0.859375 -0.5625 -1.28125 -1.375q-0.40625 -0.828125 -0.40625 -2.0625q0 -1.5625 0.609375 -2.765625q0.625 -1.203125 1.6875 -1.984375q1.0625 -0.78125 2.46875 -1.171875q1.421875 -0.40625 3.03125 -0.40625q2.390625 0 4.34375 0.78125q1.96875 0.78125 3.171875 2.0625l-1.3125 1.59375q-1.171875 -1.1875 -2.828125 -1.78125q-1.65625 -0.609375 -3.453125 -0.609375q-1.078125 0 -2.0 0.21875q-0.921875 0.21875 -1.625 0.703125q-0.703125 0.46875 -1.109375 1.21875q-0.390625 0.734375 -0.390625 1.734375q0 0.84375 0.28125 1.359375q0.28125 0.515625 0.921875 0.90625q0.640625 0.375 1.609375 0.671875q0.984375 0.296875 2.390625 0.625q2.0 0.484375 3.515625 0.96875q1.515625 0.46875 2.53125 1.109375q1.03125 0.640625 1.546875 1.5625q0.53125 0.921875 0.53125 2.234375q0 2.890625 -2.203125 4.578125q-2.203125 1.671875 -5.921875 1.671875z" fill-rule="nonzero"/><path fill="#000000" fill-opacity="0.0" d="m71.55118 298.1496l837.00793 0l0 178.20474l-837.00793 0z" fill-rule="evenodd"/><path fill="#000000" d="m179.93631 353.714q-2.53125 0 -4.4375 -0.84375q-1.890625 -0.84375 -3.171875 -2.28125q-1.265625 -1.4375 -1.921875 -3.328125q-0.640625 -1.90625 -0.640625 -4.015625q0 -2.96875 1.171875 -5.78125q1.1875 -2.8125 3.265625 -4.984375q2.09375 -2.1875 4.96875 -3.5q2.890625 -1.328125 6.296875 -1.328125q2.484375 0 4.375 0.84375q1.90625 0.828125 3.203125 2.25q1.296875 1.40625 1.9375 3.328125q0.65625 1.921875 0.65625 4.078125q0 2.984375 -1.1875 5.765625q-1.171875 2.78125 -3.265625 4.96875q-2.078125 2.1875 -4.96875 3.515625q-2.875 1.3125 -6.28125 1.3125zm1.15625 -5.46875q1.484375 0 2.90625 -0.75q1.421875 -0.75 2.515625 -1.984375q1.109375 -1.25 1.78125 -2.953125q0.671875 -1.71875 0.671875 -3.625q0 -2.59375 -1.25 -4.203125q-1.25 -1.609375 -3.40625 -1.609375q-1.484375 0 -2.90625 0.75q-1.421875 0.734375 -2.53125 2.015625q-1.09375 1.265625 -1.765625 2.953125q-0.671875 1.671875 -0.671875 3.59375q0 2.59375 1.25 4.203125q1.25 1.609375 3.40625 1.609375zm23.034302 5.46875q-5.890625 0 -5.890625 -6.140625q0 -0.828125 0.109375 -1.765625q0.125 -0.9375 0.359375 -1.984375l3.359375 -15.75l6.390625 0l-3.03125 14.359375q-0.140625 0.71875 -0.234375 1.296875q-0.09375 0.578125 -0.09375 1.09375q0 3.421875 2.875 3.421875q1.6875 0 3.53125 -1.125q1.84375 -1.140625 3.390625 -3.4375l3.3125 -15.609375l6.421875 0l-3.796875 17.765625q-0.046875 0.234375 -0.078125 0.453125q-0.015625 0.21875 -0.015625 0.40625q0 1.015625 1.15625 1.0625l-1.15625 5.46875q-0.859375 0.140625 -1.515625 0.234375q-0.640625 0.109375 -1.171875 0.109375q-1.671875 0 -2.609375 -0.671875q-0.9375 -0.6875 -0.9375 -2.078125q0 -0.375 0.046875 -0.859375q0.046875 -0.484375 0.28125 -1.4375q-2.15625 2.59375 -4.921875 3.890625q-2.75 1.296875 -5.78125 1.296875zm26.747559 -25.640625l5.90625 0l-1.15625 5.375q1.828125 -2.59375 4.078125 -4.09375q2.25 -1.515625 4.515625 -1.515625q0.46875 0 0.703125 0.03125q0.25 0.015625 0.4375 0.0625l-1.1875 5.71875q-2.734375 0.046875 -5.171875 1.125q-2.421875 1.078125 -3.8125 3.234375l-3.21875 15.21875l-6.421875 0l5.328125 -25.15625zm29.472076 0l5.796875 0l-1.0 4.65625q1.828125 -2.390625 4.4375 -3.734375q2.609375 -1.34375 5.359375 -1.34375q2.96875 0 4.3125 1.46875q1.34375 1.453125 1.4375 3.859375q2.015625 -2.59375 4.5625 -3.953125q2.546875 -1.375 5.28125 -1.375q1.625 0 2.703125 0.453125q1.09375 0.453125 1.734375 1.25q0.65625 0.78125 0.90625 1.84375q0.265625 1.0625 0.265625 2.296875q0 0.78125 -0.09375 1.765625q-0.09375 0.984375 -0.375 2.265625l-3.359375 15.703125l-6.4375 0l2.96875 -14.109375q0.15625 -0.71875 0.25 -1.359375q0.09375 -0.65625 0.09375 -1.1875q0 -1.6875 -0.703125 -2.46875q-0.6875 -0.796875 -1.890625 -0.796875q-1.78125 0 -3.625 1.5q-1.84375 1.484375 -3.0 3.78125l-3.0625 14.640625l-6.4375 0l2.96875 -14.109375q0.296875 -1.484375 0.296875 -2.59375q0 -1.6875 -0.671875 -2.453125q-0.671875 -0.765625 -1.921875 -0.765625q-0.859375 0 -1.78125 0.390625q-0.90625 0.375 -1.796875 1.078125q-0.890625 0.6875 -1.65625 1.65625q-0.765625 0.953125 -1.34375 2.109375l-3.125 14.6875l-6.4218903 0l5.3281403 -25.15625zm47.31607 25.640625q-2.109375 0 -3.765625 -0.796875q-1.65625 -0.796875 -2.8125 -2.1875q-1.140625 -1.390625 -1.75 -3.28125q-0.59375 -1.90625 -0.59375 -4.0625q0 -3.109375 1.125 -5.96875q1.125 -2.859375 3.015625 -5.015625q1.90625 -2.15625 4.40625 -3.453125q2.5 -1.296875 5.234375 -1.296875q2.59375 0 4.40625 1.34375q1.828125 1.34375 2.5 3.5l0.96875 -4.328125l6.421875 0l-3.734375 17.671875q-0.15625 0.53125 -0.15625 0.859375q0 1.015625 1.15625 1.0625l-1.15625 5.46875q-0.859375 0.140625 -1.515625 0.234375q-0.640625 0.109375 -1.125 0.109375q-1.671875 0 -2.65625 -0.71875q-0.984375 -0.734375 -0.984375 -2.171875q0 -0.578125 0.28125 -1.828125q-1.8125 2.40625 -4.296875 3.640625q-2.46875 1.21875 -4.96875 1.21875zm2.890625 -5.46875q0.8125 0 1.75 -0.3125q0.9375 -0.3125 1.796875 -0.890625q0.859375 -0.578125 1.625 -1.34375q0.78125 -0.765625 1.3125 -1.6875l1.234375 -6.0q-0.28125 -2.109375 -1.671875 -3.5q-1.390625 -1.390625 -3.21875 -1.390625q-1.53125 0 -2.984375 0.796875q-1.4375 0.78125 -2.515625 2.109375q-1.078125 1.3125 -1.734375 2.96875q-0.640625 1.65625 -0.640625 3.390625q0 2.484375 1.34375 4.171875q1.34375 1.6875 3.703125 1.6875zm24.905182 5.421875q-2.296875 0 -3.765625 -1.03125q-1.46875 -1.03125 -1.46875 -3.390625q0 -0.953125 0.203125 -1.78125l3.0625 -14.4375l-3.109375 0l1.046875 -4.953125l3.078125 0l1.71875 -8.15625l6.4375 0l-1.734375 8.15625l5.046875 0l-1.0625 4.953125l-4.984375 0l-2.640625 12.28125q-0.046875 0.234375 -0.078125 0.40625q-0.015625 0.171875 -0.015625 0.359375q0 0.921875 0.5 1.3125q0.5 0.375 1.328125 0.375q0.953125 0 1.890625 -0.3125q0.9375 -0.3125 1.609375 -0.609375l0.1875 5.09375q-1.390625 0.671875 -3.359375 1.203125q-1.96875 0.53125 -3.890625 0.53125zm17.669647 -35.484375l6.4375 0l-3.125 14.546875q1.875 -2.4375 4.359375 -3.75q2.5 -1.328125 5.234375 -1.328125q1.6875 0 2.8125 0.453125q1.125 0.453125 1.8125 1.25q0.703125 0.78125 0.984375 1.875q0.296875 1.078125 0.296875 2.3125q0 0.96875 -0.125 1.984375q-0.109375 1.0 -0.359375 2.0l-3.3125 15.703125l-6.421875 0l2.96875 -14.109375q0.296875 -1.34375 0.296875 -2.359375q0 -3.453125 -2.9375 -3.453125q-0.765625 0 -1.734375 0.390625q-0.953125 0.375 -1.890625 1.078125q-0.9375 0.6875 -1.78125 1.65625q-0.828125 0.953125 -1.40625 2.109375l-3.125 14.6875l-6.421875 0l7.4375 -35.046875zm31.73294 35.53125q-2.40625 0 -4.3125 -0.796875q-1.890625 -0.796875 -3.234375 -2.203125q-1.34375 -1.421875 -2.046875 -3.359375q-0.6875 -1.953125 -0.6875 -4.25q0 -3.125 1.21875 -5.921875q1.234375 -2.8125 3.359375 -4.921875q2.140625 -2.125 5.046875 -3.359375q2.90625 -1.25 6.265625 -1.25q4.078125 0 6.5 1.796875q2.421875 1.796875 2.421875 5.203125q0 8.109375 -14.484375 8.109375q-0.875 0 -1.78125 0q-0.90625 0 -1.921875 -0.09375l0 0.625q0 2.546875 1.15625 4.140625q1.15625 1.578125 3.640625 1.578125q1.921875 0 3.625 -0.90625q1.703125 -0.921875 2.71875 -2.5625l5.078125 1.59375q-0.953125 1.4375 -2.34375 2.671875q-1.390625 1.21875 -3.046875 2.078125q-1.65625 0.859375 -3.484375 1.34375q-1.828125 0.484375 -3.6875 0.484375zm4.65625 -21.40625q-1.40625 0 -2.609375 0.5q-1.1875 0.5 -2.125 1.375q-0.9375 0.859375 -1.65625 2.015625q-0.71875 1.140625 -1.15625 2.4375q0.765625 0.046875 1.484375 0.046875q0.734375 0 1.5 0q2.296875 0 3.90625 -0.234375q1.609375 -0.25 2.59375 -0.71875q0.984375 -0.484375 1.40625 -1.125q0.4375 -0.65625 0.4375 -1.515625q0 -1.390625 -1.0625 -2.078125q-1.046875 -0.703125 -2.71875 -0.703125zm15.885559 -4.234375l5.796875 0l-1.0 4.65625q1.828125 -2.390625 4.4375 -3.734375q2.609375 -1.34375 5.359375 -1.34375q2.96875 0 4.3125 1.46875q1.34375 1.453125 1.4375 3.859375q2.015625 -2.59375 4.5625 -3.953125q2.546875 -1.375 5.28125 -1.375q1.625 0 2.703125 0.453125q1.09375 0.453125 1.734375 1.25q0.65625 0.78125 0.90625 1.84375q0.265625 1.0625 0.265625 2.296875q0 0.78125 -0.09375 1.765625q-0.09375 0.984375 -0.375 2.265625l-3.359375 15.703125l-6.4375 0l2.96875 -14.109375q0.15625 -0.71875 0.25 -1.359375q0.09375 -0.65625 0.09375 -1.1875q0 -1.6875 -0.703125 -2.46875q-0.6875 -0.796875 -1.890625 -0.796875q-1.78125 0 -3.625 1.5q-1.84375 1.484375 -3.0 3.78125l-3.0625 14.640625l-6.4375 0l2.96875 -14.109375q0.296875 -1.484375 0.296875 -2.59375q0 -1.6875 -0.671875 -2.453125q-0.671875 -0.765625 -1.921875 -0.765625q-0.859375 0 -1.78125 0.390625q-0.90625 0.375 -1.796875 1.078125q-0.890625 0.6875 -1.65625 1.65625q-0.765625 0.953125 -1.34375 2.109375l-3.125 14.6875l-6.421875 0l5.328125 -25.15625zm47.31607 25.640625q-2.109375 0 -3.765625 -0.796875q-1.65625 -0.796875 -2.8125 -2.1875q-1.140625 -1.390625 -1.75 -3.28125q-0.59375 -1.90625 -0.59375 -4.0625q0 -3.109375 1.125 -5.96875q1.125 -2.859375 3.015625 -5.015625q1.90625 -2.15625 4.40625 -3.453125q2.5 -1.296875 5.234375 -1.296875q2.59375 0 4.40625 1.34375q1.828125 1.34375 2.5 3.5l0.96875 -4.328125l6.421875 0l-3.734375 17.671875q-0.15625 0.53125 -0.15625 0.859375q0 1.015625 1.15625 1.0625l-1.15625 5.46875q-0.859375 0.140625 -1.515625 0.234375q-0.640625 0.109375 -1.125 0.109375q-1.671875 0 -2.65625 -0.71875q-0.984375 -0.734375 -0.984375 -2.171875q0 -0.578125 0.28125 -1.828125q-1.8125 2.40625 -4.296875 3.640625q-2.46875 1.21875 -4.96875 1.21875zm2.890625 -5.46875q0.8125 0 1.75 -0.3125q0.9375 -0.3125 1.796875 -0.890625q0.859375 -0.578125 1.625 -1.34375q0.78125 -0.765625 1.3125 -1.6875l1.234375 -6.0q-0.28125 -2.109375 -1.671875 -3.5q-1.390625 -1.390625 -3.21875 -1.390625q-1.53125 0 -2.984375 0.796875q-1.4375 0.78125 -2.515625 2.109375q-1.078125 1.3125 -1.734375 2.96875q-0.640625 1.65625 -0.640625 3.390625q0 2.484375 1.34375 4.171875q1.34375 1.6875 3.703125 1.6875zm24.905182 5.421875q-2.296875 0 -3.765625 -1.03125q-1.46875 -1.03125 -1.46875 -3.390625q0 -0.953125 0.203125 -1.78125l3.0625 -14.4375l-3.109375 0l1.046875 -4.953125l3.078125 0l1.71875 -8.15625l6.4375 0l-1.734375 8.15625l5.046875 0l-1.0625 4.953125l-4.984375 0l-2.640625 12.28125q-0.046875 0.234375 -0.078125 0.40625q-0.015625 0.171875 -0.015625 0.359375q0 0.921875 0.5 1.3125q0.5 0.375 1.328125 0.375q0.953125 0 1.890625 -0.3125q0.9375 -0.3125 1.609375 -0.609375l0.1875 5.09375q-1.390625 0.671875 -3.359375 1.203125q-1.96875 0.53125 -3.890625 0.53125zm15.560272 -25.59375l6.421875 0l-5.328125 25.15625l-6.421875 0l5.328125 -25.15625zm2.109375 -9.890625l6.4375 0l-1.34375 6.390625l-6.4375 0l1.34375 -6.390625zm15.8315735 35.53125q-2.4844055 0 -4.4062805 -0.84375q-1.921875 -0.84375 -3.21875 -2.28125q-1.296875 -1.4375 -1.953125 -3.359375q-0.640625 -1.921875 -0.640625 -4.078125q0 -2.984375 1.171875 -5.78125q1.1875 -2.8125 3.265625 -4.96875q2.09375 -2.15625 5.0000305 -3.453125q2.90625 -1.296875 6.3125 -1.296875q3.984375 0 6.359375 1.78125q2.375 1.765625 3.140625 4.640625l-6.625 1.921875q-0.484375 -1.390625 -1.546875 -2.125q-1.046875 -0.75 -2.578125 -0.75q-1.484375 0 -2.90625 0.703125q-1.421875 0.6875 -2.5 1.9375q-1.0781555 1.25 -1.7500305 2.953125q-0.671875 1.703125 -0.671875 3.671875q0 2.59375 1.265625 4.234375q1.2812805 1.625 3.3906555 1.625q1.53125 0 3.046875 -0.859375q1.515625 -0.875 2.328125 -2.125l5.859375 1.921875q-1.875 2.875 -5.09375 4.703125q-3.21875 1.828125 -7.25 1.828125zm23.906677 0q-3.015625 0 -5.703125 -1.0q-2.6875 -1.015625 -4.328125 -2.890625l3.21875 -4.03125q3.703125 3.3125 7.625 3.3125q2.015625 0 3.171875 -0.859375q1.15625 -0.875 1.15625 -2.40625q0 -1.0625 -1.03125 -1.65625q-1.03125 -0.59375 -3.34375 -1.265625q-1.90625 -0.578125 -3.28125 -1.125q-1.375 -0.5625 -2.265625 -1.234375q-0.875 -0.671875 -1.28125 -1.515625q-0.40625 -0.84375 -0.40625 -1.9375q0 -2.109375 0.90625 -3.859375q0.90625 -1.765625 2.46875 -3.0q1.5625 -1.25 3.625 -1.9375q2.0625 -0.703125 4.375 -0.703125q2.6875 0 4.84375 0.8125q2.15625 0.8125 3.84375 2.640625l-3.40625 3.890625q-1.546875 -1.453125 -3.109375 -2.125q-1.546875 -0.671875 -3.1875 -0.671875q-1.671875 0 -2.90625 0.828125q-1.21875 0.8125 -1.21875 2.484375q0 1.015625 0.90625 1.546875q0.921875 0.515625 3.078125 1.140625q4.03125 1.109375 5.953125 2.484375q1.921875 1.359375 1.921875 3.765625q0 2.0625 -0.875 3.765625q-0.859375 1.703125 -2.40625 2.9375q-1.53125 1.21875 -3.671875 1.921875q-2.125 0.6875 -4.671875 0.6875zm30.680542 -25.640625l6.421875 0l-5.328125 25.15625l-6.421875 0l5.328125 -25.15625zm2.109375 -9.890625l6.4375 0l-1.34375 6.390625l-6.4375 0l1.34375 -6.390625zm13.722168 35.53125q-3.015625 0 -5.703125 -1.0q-2.6875 -1.015625 -4.328125 -2.890625l3.21875 -4.03125q3.703125 3.3125 7.625 3.3125q2.015625 0 3.171875 -0.859375q1.15625 -0.875 1.15625 -2.40625q0 -1.0625 -1.03125 -1.65625q-1.03125 -0.59375 -3.34375 -1.265625q-1.90625 -0.578125 -3.28125 -1.125q-1.375 -0.5625 -2.265625 -1.234375q-0.875 -0.671875 -1.28125 -1.515625q-0.40625 -0.84375 -0.40625 -1.9375q0 -2.109375 0.90625 -3.859375q0.90625 -1.765625 2.46875 -3.0q1.5625 -1.25 3.625 -1.9375q2.0625 -0.703125 4.375 -0.703125q2.6875 0 4.84375 0.8125q2.15625 0.8125 3.84375 2.640625l-3.40625 3.890625q-1.546875 -1.453125 -3.109375 -2.125q-1.546875 -0.671875 -3.1875 -0.671875q-1.671875 0 -2.90625 0.828125q-1.21875 0.8125 -1.21875 2.484375q0 1.015625 0.90625 1.546875q0.921875 0.515625 3.078125 1.140625q4.03125 1.109375 5.953125 2.484375q1.921875 1.359375 1.921875 3.765625q0 2.0625 -0.875 3.765625q-0.859375 1.703125 -2.40625 2.9375q-1.53125 1.21875 -3.671875 1.921875q-2.125 0.6875 -4.671875 0.6875zm30.680542 -25.640625l5.796875 0l-1.0 4.65625q1.828125 -2.390625 4.609375 -3.734375q2.78125 -1.34375 5.90625 -1.34375q1.625 0 2.703125 0.453125q1.078125 0.453125 1.71875 1.21875q0.65625 0.765625 0.921875 1.859375q0.265625 1.078125 0.265625 2.265625q0 0.96875 -0.125 2.0q-0.109375 1.03125 -0.359375 2.078125l-3.3125 15.703125l-6.421875 0l2.96875 -14.109375q0.140625 -0.71875 0.234375 -1.359375q0.109375 -0.65625 0.109375 -1.1875q0 -1.6875 -0.75 -2.46875q-0.75 -0.796875 -1.984375 -0.796875q-0.875 0 -1.890625 0.390625q-1.0 0.375 -1.96875 1.078125q-0.953125 0.6875 -1.796875 1.65625q-0.828125 0.953125 -1.40625 2.109375l-3.125 14.6875l-6.421875 0l5.328125 -25.15625zm33.686035 25.640625q-2.53125 0 -4.4375 -0.84375q-1.890625 -0.84375 -3.171875 -2.28125q-1.265625 -1.4375 -1.921875 -3.328125q-0.640625 -1.90625 -0.640625 -4.015625q0 -2.96875 1.171875 -5.78125q1.1875 -2.8125 3.265625 -4.984375q2.09375 -2.1875 4.96875 -3.5q2.890625 -1.328125 6.296875 -1.328125q2.484375 0 4.375 0.84375q1.90625 0.828125 3.203125 2.25q1.296875 1.40625 1.9375 3.328125q0.65625 1.921875 0.65625 4.078125q0 2.984375 -1.1875 5.765625q-1.171875 2.78125 -3.265625 4.96875q-2.078125 2.1875 -4.96875 3.515625q-2.875 1.3125 -6.28125 1.3125zm1.15625 -5.46875q1.484375 0 2.90625 -0.75q1.421875 -0.75 2.515625 -1.984375q1.109375 -1.25 1.78125 -2.953125q0.671875 -1.71875 0.671875 -3.625q0 -2.59375 -1.25 -4.203125q-1.25 -1.609375 -3.40625 -1.609375q-1.484375 0 -2.90625 0.75q-1.421875 0.734375 -2.53125 2.015625q-1.09375 1.265625 -1.765625 2.953125q-0.671875 1.671875 -0.671875 3.59375q0 2.59375 1.25 4.203125q1.25 1.609375 3.40625 1.609375zm23.565552 5.421875q-2.296875 0 -3.765625 -1.03125q-1.46875 -1.03125 -1.46875 -3.390625q0 -0.953125 0.203125 -1.78125l3.0625 -14.4375l-3.109375 0l1.046875 -4.953125l3.078125 0l1.71875 -8.15625l6.4375 0l-1.734375 8.15625l5.046875 0l-1.0625 4.953125l-4.984375 0l-2.640625 12.28125q-0.046875 0.234375 -0.078125 0.40625q-0.015625 0.171875 -0.015625 0.359375q0 0.921875 0.5 1.3125q0.5 0.375 1.328125 0.375q0.953125 0 1.890625 -0.3125q0.9375 -0.3125 1.609375 -0.609375l0.1875 5.09375q-1.390625 0.671875 -3.359375 1.203125q-1.96875 0.53125 -3.890625 0.53125zm26.888306 -25.59375l5.609375 0l-0.90625 4.328125q1.8125 -2.21875 4.140625 -3.484375q2.328125 -1.265625 5.078125 -1.265625q2.015625 0 3.640625 0.796875q1.640625 0.78125 2.765625 2.203125q1.125 1.40625 1.71875 3.28125q0.609375 1.875 0.609375 4.03125q0 3.125 -1.109375 5.953125q-1.109375 2.828125 -2.984375 5.015625q-1.859375 2.1875 -4.34375 3.484375q-2.46875 1.296875 -5.15625 1.296875q-2.734375 0 -4.5625 -1.3125q-1.8125 -1.328125 -2.484375 -3.59375l-3.125 14.640625l-6.4375 0l7.546875 -35.375zm8.109375 20.171875q1.53125 0 2.9375 -0.796875q1.421875 -0.796875 2.5 -2.09375q1.09375 -1.296875 1.734375 -2.953125q0.65625 -1.65625 0.65625 -3.375q0 -2.546875 -1.34375 -4.21875q-1.34375 -1.6875 -3.65625 -1.6875q-0.859375 0 -1.78125 0.3125q-0.90625 0.3125 -1.78125 0.890625q-0.859375 0.5625 -1.625 1.34375q-0.765625 0.765625 -1.296875 1.671875l-1.296875 5.90625q0.390625 2.15625 1.734375 3.578125q1.34375 1.421875 3.21875 1.421875zm25.766663 5.46875q-2.109375 0 -3.765625 -0.796875q-1.65625 -0.796875 -2.8125 -2.1875q-1.140625 -1.390625 -1.75 -3.28125q-0.59375 -1.90625 -0.59375 -4.0625q0 -3.109375 1.125 -5.96875q1.125 -2.859375 3.015625 -5.015625q1.90625 -2.15625 4.40625 -3.453125q2.5 -1.296875 5.234375 -1.296875q2.59375 0 4.40625 1.34375q1.828125 1.34375 2.5 3.5l0.96875 -4.328125l6.421875 0l-3.734375 17.671875q-0.15625 0.53125 -0.15625 0.859375q0 1.015625 1.15625 1.0625l-1.15625 5.46875q-0.859375 0.140625 -1.515625 0.234375q-0.640625 0.109375 -1.125 0.109375q-1.671875 0 -2.65625 -0.71875q-0.984375 -0.734375 -0.984375 -2.171875q0 -0.578125 0.28125 -1.828125q-1.8125 2.40625 -4.296875 3.640625q-2.46875 1.21875 -4.96875 1.21875zm2.890625 -5.46875q0.8125 0 1.75 -0.3125q0.9375 -0.3125 1.796875 -0.890625q0.859375 -0.578125 1.625 -1.34375q0.78125 -0.765625 1.3125 -1.6875l1.234375 -6.0q-0.28125 -2.109375 -1.671875 -3.5q-1.390625 -1.390625 -3.21875 -1.390625q-1.53125 0 -2.984375 0.796875q-1.4375 0.78125 -2.515625 2.109375q-1.078125 1.3125 -1.734375 2.96875q-0.640625 1.65625 -0.640625 3.390625q0 2.484375 1.34375 4.171875q1.34375 1.6875 3.703125 1.6875zm22.561462 -20.171875l5.90625 0l-1.15625 5.375q1.828125 -2.59375 4.078125 -4.09375q2.25 -1.515625 4.515625 -1.515625q0.46875 0 0.703125 0.03125q0.25 0.015625 0.4375 0.0625l-1.1875 5.71875q-2.734375 0.046875 -5.171875 1.125q-2.421875 1.078125 -3.8125 3.234375l-3.21875 15.21875l-6.421875 0l5.328125 -25.15625zm20.487793 25.59375q-2.296875 0 -3.765625 -1.03125q-1.46875 -1.03125 -1.46875 -3.390625q0 -0.953125 0.203125 -1.78125l3.0625 -14.4375l-3.109375 0l1.046875 -4.953125l3.078125 0l1.71875 -8.15625l6.4375 0l-1.734375 8.15625l5.046875 0l-1.0625 4.953125l-4.984375 0l-2.640625 12.28125q-0.046875 0.234375 -0.078125 0.40625q-0.015625 0.171875 -0.015625 0.359375q0 0.921875 0.5 1.3125q0.5 0.375 1.328125 0.375q0.953125 0 1.890625 -0.3125q0.9375 -0.3125 1.609375 -0.609375l0.1875 5.09375q-1.390625 0.671875 -3.359375 1.203125q-1.96875 0.53125 -3.890625 0.53125zm32.638306 0.046875q-2.53125 0 -4.4375 -0.84375q-1.890625 -0.84375 -3.171875 -2.28125q-1.265625 -1.4375 -1.921875 -3.328125q-0.640625 -1.90625 -0.640625 -4.015625q0 -2.96875 1.171875 -5.78125q1.1875 -2.8125 3.265625 -4.984375q2.09375 -2.1875 4.96875 -3.5q2.890625 -1.328125 6.296875 -1.328125q2.484375 0 4.375 0.84375q1.90625 0.828125 3.203125 2.25q1.296875 1.40625 1.9375 3.328125q0.65625 1.921875 0.65625 4.078125q0 2.984375 -1.1875 5.765625q-1.171875 2.78125 -3.265625 4.96875q-2.078125 2.1875 -4.96875 3.515625q-2.875 1.3125 -6.28125 1.3125zm1.15625 -5.46875q1.484375 0 2.90625 -0.75q1.421875 -0.75 2.515625 -1.984375q1.109375 -1.25 1.78125 -2.953125q0.671875 -1.71875 0.671875 -3.625q0 -2.59375 -1.25 -4.203125q-1.25 -1.609375 -3.40625 -1.609375q-1.484375 0 -2.90625 0.75q-1.421875 0.734375 -2.53125 2.015625q-1.09375 1.265625 -1.765625 2.953125q-0.671875 1.671875 -0.671875 3.59375q0 2.59375 1.25 4.203125q1.25 1.609375 3.40625 1.609375zm21.268677 -13.921875l-3.078125 0l1.0625 -4.90625l3.0625 0l0.34375 -1.53125q0.484375 -2.359375 1.4375 -4.21875q0.953125 -1.875 2.296875 -3.1875q1.34375 -1.328125 3.0 -2.046875q1.65625 -0.71875 3.484375 -0.71875q2.9375 0 5.671875 1.484375l-2.265625 4.84375q-0.625 -0.375 -1.484375 -0.640625q-0.859375 -0.265625 -1.625 -0.265625q-3.078125 0 -4.03125 4.515625l-0.390625 1.765625l5.765625 0l-1.0625 4.90625l-5.765625 0l-6.1875 29.078125l-6.4375 0l6.203125 -29.078125zm28.60913 -6.25l6.421875 0l-5.328125 25.15625l-6.421875 0l5.328125 -25.15625zm2.109375 -9.890625l6.4375 0l-1.34375 6.390625l-6.4375 0l1.34375 -6.390625zm12.378418 35.484375q-2.296875 0 -3.765625 -1.03125q-1.46875 -1.03125 -1.46875 -3.390625q0 -0.953125 0.203125 -1.78125l3.0625 -14.4375l-3.109375 0l1.046875 -4.953125l3.078125 0l1.71875 -8.15625l6.4375 0l-1.734375 8.15625l5.046875 0l-1.0625 4.953125l-4.984375 0l-2.640625 12.28125q-0.046875 0.234375 -0.078125 0.40625q-0.015625 0.171875 -0.015625 0.359375q0 0.921875 0.5 1.3125q0.5 0.375 1.328125 0.375q0.953125 0 1.890625 -0.3125q0.9375 -0.3125 1.609375 -0.609375l0.1875 5.09375q-1.390625 0.671875 -3.359375 1.203125q-1.96875 0.53125 -3.890625 0.53125zm10.138428 -0.4375l1.484375 -6.90625l5.28125 0l-1.5 6.90625l-5.265625 0z" fill-rule="nonzero"/></g></svg>