<svg version="1.1" viewBox="0.0 0.0 960.0 540.0" fill="none" stroke="none" stroke-linecap="square" stroke-miterlimit="10" xmlns:xlink="http://www.w3.org/1999/xlink" xmlns="http://www.w3.org/2000/svg"><clipPath id="g3ffa094804_0_151.0"><path d="m0 0l960.0 0l0 540.0l-960.0 0l0 -540.0z" clip-rule="nonzero"/></clipPath><g clip-path="url(#g3ffa094804_0_151.0)"><path fill="#5e2b97" d="m0 0l960.0 0l0 540.0l-960.0 0z" fill-rule="evenodd"/><path fill="#000000" fill-opacity="0.0" d="m187.71654 55.259842l584.5669 0l0 429.4803l-584.5669 0z" fill-rule="evenodd"/><path fill="#ffffff" d="m213.32591 119.58186l-2.109375 11.703125l3.84375 0l0 12.96875l-12.96875 0l0 -13.15625l3.453125 -11.515625l7.78125 0zm18.046875 0l-2.109375 11.703125l3.84375 0l0 12.96875l-12.96875 0l0 -13.15625l3.453125 -11.515625l7.78125 0zm69.69524 70.078125l0 -45.125l-17.5625 33.609375l-7.203125 0l-17.5625 -33.609375l0 45.125l-13.25 0l0 -68.15625l14.203125 0l20.15625 38.78125l20.359375 -38.78125l14.109375 0l0 68.15625l-13.25 0zm49.539948 0.953125q-6.046875 0 -10.953125 -2.0625q-4.890625 -2.0625 -8.34375 -5.609375q-3.453125 -3.546875 -5.328125 -8.25q-1.875 -4.71875 -1.875 -9.890625q0 -5.375 1.828125 -10.125q1.828125 -4.765625 5.28125 -8.359375q3.453125 -3.59375 8.390625 -5.703125q4.953125 -2.125 11.09375 -2.125q6.140625 0 10.984375 2.125q4.859375 2.109375 8.265625 5.65625q3.40625 3.546875 5.171875 8.25q1.78125 4.703125 1.78125 9.796875q0 1.25 -0.046875 2.40625q-0.046875 1.140625 -0.234375 1.90625l-38.890625 0q0.296875 2.984375 1.4375 5.296875q1.15625 2.296875 2.984375 3.9375q1.828125 1.625 4.125 2.484375q2.3125 0.859375 4.796875 0.859375q3.84375 0 7.25 -1.859375q3.40625 -1.875 4.65625 -4.953125l11.046875 3.078125q-2.78125 5.75 -8.890625 9.453125q-6.09375 3.6875 -14.53125 3.6875zm13.046875 -30.328125q-0.46875 -5.671875 -4.171875 -9.078125q-3.6875 -3.40625 -8.96875 -3.40625q-2.59375 0 -4.859375 0.921875q-2.25 0.90625 -3.984375 2.546875q-1.71875 1.625 -2.828125 3.9375q-1.109375 2.296875 -1.296875 5.078125l26.109375 0zm51.269592 26.78125q-2.59375 1.15625 -6.34375 2.3125q-3.734375 1.140625 -7.859375 1.140625q-2.6875 0 -5.046875 -0.671875q-2.34375 -0.671875 -4.125 -2.15625q-1.78125 -1.484375 -2.84375 -3.828125q-1.046875 -2.359375 -1.046875 -5.71875l0 -28.90625l-6.625 0l0 -9.875l6.625 0l0 -16.328125l12.859375 0l0 16.328125l10.5625 0l0 9.875l-10.5625 0l0 24.578125q0 2.6875 1.390625 3.796875q1.40625 1.109375 3.421875 1.109375q2.015625 0 3.921875 -0.671875q1.921875 -0.671875 3.078125 -1.15625l2.59375 10.171875zm20.442108 3.546875q-3.640625 0 -6.8125 -1.1875q-3.171875 -1.203125 -5.484375 -3.359375q-2.296875 -2.171875 -3.59375 -5.046875q-1.28125 -2.875 -1.28125 -6.328125q0 -3.5625 1.578125 -6.578125q1.578125 -3.03125 4.40625 -5.140625q2.84375 -2.109375 6.78125 -3.3125q3.9375 -1.203125 8.640625 -1.203125q3.359375 0 6.5625 0.578125q3.21875 0.578125 5.71875 1.640625l0 -2.890625q0 -4.984375 -2.828125 -7.671875q-2.828125 -2.6875 -8.40625 -2.6875q-4.03125 0 -7.875 1.4375q-3.828125 1.4375 -7.859375 4.21875l-3.9375 -8.15625q9.6875 -6.4375 20.921875 -6.4375q10.84375 0 16.84375 5.328125q6.0 5.328125 6.0 15.40625l0 15.65625q0 2.015625 0.71875 2.875q0.734375 0.859375 2.359375 0.96875l0 10.9375q-3.265625 0.671875 -5.65625 0.671875q-3.65625 0 -5.625 -1.625q-1.96875 -1.640625 -2.453125 -4.328125l-0.28125 -2.78125q-3.359375 4.421875 -8.15625 6.71875q-4.796875 2.296875 -10.28125 2.296875zm3.65625 -9.40625q3.265625 0 6.1875 -1.140625q2.9375 -1.15625 4.5625 -3.078125q2.109375 -1.625 2.109375 -3.640625l0 -5.765625q-2.296875 -0.859375 -4.984375 -1.390625q-2.6875 -0.53125 -5.1875 -0.53125q-5.0 0 -8.171875 2.265625q-3.15625 2.25 -3.15625 5.703125q0 3.265625 2.484375 5.421875q2.5 2.15625 6.15625 2.15625zm67.8696 9.40625q-5.953125 0 -10.375 -2.625q-4.40625 -2.640625 -6.90625 -7.15625l0 29.28125l-12.859375 0l0 -70.75l11.234375 0l0 8.640625q2.78125 -4.421875 7.1875 -6.96875q4.421875 -2.546875 10.1875 -2.546875q5.078125 0 9.390625 2.0625q4.328125 2.0625 7.453125 5.578125q3.125 3.5 4.890625 8.25q1.78125 4.75 1.78125 10.03125q0 5.46875 -1.640625 10.28125q-1.625 4.796875 -4.5625 8.34375q-2.921875 3.546875 -6.953125 5.5625q-4.03125 2.015625 -8.828125 2.015625zm-4.3125 -10.9375q2.875 0 5.3125 -1.25q2.453125 -1.25 4.171875 -3.359375q1.734375 -2.109375 2.6875 -4.890625q0.96875 -2.78125 0.96875 -5.765625q0 -3.171875 -1.0625 -5.90625q-1.046875 -2.734375 -2.921875 -4.75q-1.875 -2.015625 -4.421875 -3.15625q-2.53125 -1.15625 -5.515625 -1.15625q-1.8125 0 -3.734375 0.625q-1.921875 0.625 -3.5625 1.78125q-1.625 1.140625 -2.921875 2.6875q-1.296875 1.53125 -1.96875 3.34375l0 11.8125q1.734375 4.328125 5.28125 7.15625q3.546875 2.828125 7.6875 2.828125zm81.78589 9.984375l-12.859375 0l0 -28.21875q0 -5.953125 -2.21875 -8.78125q-2.203125 -2.84375 -6.234375 -2.84375q-1.734375 0 -3.65625 0.78125q-1.90625 0.765625 -3.640625 2.15625q-1.734375 1.390625 -3.171875 3.3125q-1.4375 1.90625 -2.109375 4.21875l0 29.375l-12.859375 0l0 -70.078125l12.859375 0l0 29.09375q2.78125 -4.90625 7.53125 -7.546875q4.765625 -2.640625 10.515625 -2.640625q4.890625 0 7.96875 1.6875q3.078125 1.671875 4.796875 4.46875q1.734375 2.78125 2.40625 6.328125q0.671875 3.546875 0.671875 7.296875l0 31.390625zm34.468323 0.953125q-6.15625 0 -11.046875 -2.109375q-4.890625 -2.109375 -8.296875 -5.703125q-3.40625 -3.609375 -5.234375 -8.3125q-1.828125 -4.703125 -1.828125 -9.890625q0 -5.28125 1.828125 -9.984375q1.828125 -4.703125 5.234375 -8.296875q3.40625 -3.59375 8.296875 -5.703125q4.890625 -2.125 11.046875 -2.125q6.140625 0 10.984375 2.125q4.84375 2.109375 8.25 5.703125q3.421875 3.59375 5.234375 8.296875q1.828125 4.703125 1.828125 9.984375q0 5.1875 -1.828125 9.890625q-1.8125 4.703125 -5.171875 8.3125q-3.359375 3.59375 -8.265625 5.703125q-4.890625 2.109375 -11.03125 2.109375zm-13.15625 -26.015625q0 3.359375 1.0 6.109375q1.015625 2.734375 2.78125 4.75q1.78125 2.015625 4.171875 3.125q2.40625 1.09375 5.203125 1.09375q2.78125 0 5.171875 -1.09375q2.40625 -1.109375 4.171875 -3.125q1.78125 -2.015625 2.78125 -4.796875q1.015625 -2.796875 1.015625 -6.15625q0 -3.265625 -1.015625 -6.046875q-1.0 -2.78125 -2.78125 -4.796875q-1.765625 -2.015625 -4.171875 -3.109375q-2.390625 -1.109375 -5.171875 -1.109375q-2.796875 0 -5.203125 1.15625q-2.390625 1.140625 -4.171875 3.15625q-1.765625 2.015625 -2.78125 4.8125q-1.0 2.78125 -1.0 6.03125zm78.051025 -14.109375q-5.859375 0.09375 -10.46875 2.265625q-4.609375 2.15625 -6.625 6.46875l0 30.4375l-12.859375 0l0 -50.296875l11.796875 0l0 10.75q1.359375 -2.59375 3.171875 -4.65625q1.828125 -2.0625 3.9375 -3.59375q2.109375 -1.546875 4.265625 -2.359375q2.171875 -0.8125 4.1875 -0.8125q1.046875 0 1.578125 0q0.53125 0 1.015625 0.09375l0 11.703125zm26.198853 40.125q-6.328125 0 -12.375 -2.015625q-6.046875 -2.015625 -10.375 -5.75l4.796875 -8.0625q4.609375 3.265625 8.96875 4.953125q4.375 1.671875 8.703125 1.671875q3.84375 0 6.046875 -1.4375q2.203125 -1.453125 2.203125 -4.140625q0 -2.6875 -2.59375 -3.9375q-2.59375 -1.25 -8.4375 -2.875q-4.90625 -1.34375 -8.359375 -2.59375q-3.453125 -1.25 -5.5625 -2.828125q-2.109375 -1.578125 -3.078125 -3.640625q-0.953125 -2.078125 -0.953125 -4.953125q0 -3.84375 1.484375 -6.90625q1.484375 -3.078125 4.171875 -5.234375q2.6875 -2.15625 6.28125 -3.3125q3.609375 -1.15625 7.828125 -1.15625q5.671875 0 10.609375 1.640625q4.953125 1.625 9.078125 5.265625l-5.1875 7.78125q-3.84375 -2.875 -7.4375 -4.21875q-3.59375 -1.34375 -7.15625 -1.34375q-3.265625 0 -5.46875 1.34375q-2.203125 1.34375 -2.203125 4.3125q0 1.34375 0.515625 2.21875q0.53125 0.859375 1.6875 1.53125q1.15625 0.671875 3.015625 1.296875q1.875 0.625 4.671875 1.296875q5.171875 1.34375 8.859375 2.6875q3.703125 1.34375 6.0625 3.078125q2.359375 1.71875 3.453125 3.984375q1.109375 2.25 1.109375 5.421875q0 7.390625 -5.484375 11.65625q-5.46875 4.265625 -14.875 4.265625z" fill-rule="nonzero"/><path fill="#ffffff" d="m223.40404 305.61313q-5.1875 0 -9.609375 -2.015625q-4.40625 -2.015625 -7.578125 -5.5625q-3.15625 -3.546875 -4.9375 -8.296875q-1.78125 -4.765625 -1.78125 -10.234375q0 -5.46875 1.671875 -10.171875q1.6875 -4.703125 4.65625 -8.25q2.984375 -3.5625 7.109375 -5.5781403q4.140625 -2.015625 9.03125 -2.015625q5.5625 0 10.03125 2.6875153q4.46875 2.6875 6.953125 7.015625l0 -28.60939l12.875 0l0 55.29689q0 2.015625 0.671875 2.875q0.671875 0.859375 2.296875 0.96875l0 10.9375q-3.359375 0.671875 -5.46875 0.671875q-3.453125 0 -5.671875 -1.71875q-2.203125 -1.734375 -2.484375 -4.515625l-0.296875 -3.171875q-2.78125 4.796875 -7.53125 7.25q-4.75 2.4375 -9.9375 2.4375zm3.359375 -10.9375q1.828125 0 3.75 -0.625q1.921875 -0.625 3.546875 -1.765625q1.625 -1.15625 2.921875 -2.6875q1.296875 -1.546875 1.96875 -3.375l0 -12.0q-0.765625 -2.109375 -2.15625 -3.875q-1.390625 -1.78125 -3.171875 -3.078125q-1.765625 -1.296875 -3.734375 -2.0625q-1.96875 -0.765625 -3.890625 -0.765625q-2.875 0 -5.328125 1.25q-2.453125 1.234375 -4.1875 3.40625q-1.71875 2.15625 -2.6875 4.9375q-0.953125 2.78125 -0.953125 5.765625q0 3.15625 1.046875 5.859375q1.0625 2.6875 2.890625 4.703125q1.828125 2.015625 4.359375 3.171875q2.546875 1.140625 5.625 1.140625zm60.966843 10.9375q-6.15625 0 -11.046875 -2.109375q-4.890625 -2.109375 -8.296875 -5.703125q-3.40625 -3.609375 -5.234375 -8.3125q-1.828125 -4.703125 -1.828125 -9.890625q0 -5.28125 1.828125 -9.984375q1.828125 -4.703125 5.234375 -8.296875q3.40625 -3.59375 8.296875 -5.7031403q4.890625 -2.125 11.046875 -2.125q6.140625 0 10.984375 2.125q4.84375 2.1093903 8.25 5.7031403q3.421875 3.59375 5.234375 8.296875q1.828125 4.703125 1.828125 9.984375q0 5.1875 -1.828125 9.890625q-1.8125 4.703125 -5.171875 8.3125q-3.359375 3.59375 -8.265625 5.703125q-4.890625 2.109375 -11.03125 2.109375zm-13.15625 -26.015625q0 3.359375 1.0 6.109375q1.015625 2.734375 2.78125 4.75q1.78125 2.015625 4.171875 3.125q2.40625 1.09375 5.203125 1.09375q2.78125 0 5.171875 -1.09375q2.40625 -1.109375 4.171875 -3.125q1.78125 -2.015625 2.78125 -4.796875q1.015625 -2.796875 1.015625 -6.15625q0 -3.265625 -1.015625 -6.046875q-1.0 -2.78125 -2.78125 -4.796875q-1.765625 -2.015625 -4.171875 -3.109375q-2.390625 -1.109375 -5.171875 -1.109375q-2.796875 0 -5.203125 1.15625q-2.390625 1.140625 -4.171875 3.15625q-1.765625 2.015625 -2.78125 4.8125q-1.0 2.78125 -1.0 6.03125zm94.84784 25.0625l-12.859375 0l0 -28.21875q0 -6.046875 -2.125 -8.828125q-2.109375 -2.796875 -5.84375 -2.796875q-1.921875 0 -3.9375 0.78125q-2.015625 0.765625 -3.796875 2.15625q-1.78125 1.390625 -3.21875 3.3125q-1.4375 1.90625 -2.109375 4.21875l0 29.375l-12.859375 0l0 -50.29689l11.609375 0l0 9.312515q2.78125 -4.8125 8.0625 -7.5q5.28125 -2.6875153 11.90625 -2.6875153q4.703125 0 7.671875 1.734375q2.984375 1.7187653 4.609375 4.5156403q1.640625 2.78125 2.265625 6.328125q0.625 3.546875 0.625 7.203125l0 31.390625zm12.093353 -45.984375l2.109375 -11.718765l-3.84375 0l0 -12.953125l12.96875 0l0 13.15625l-3.453125 11.51564l-7.78125 0zm52.033234 43.390625q-2.59375 1.15625 -6.34375 2.3125q-3.734375 1.140625 -7.859375 1.140625q-2.6875 0 -5.046875 -0.671875q-2.34375 -0.671875 -4.125 -2.15625q-1.78125 -1.484375 -2.84375 -3.828125q-1.046875 -2.359375 -1.046875 -5.71875l0 -28.90625l-6.625 0l0 -9.875015l6.625 0l0 -16.328125l12.859375 0l0 16.328125l10.5625 0l0 9.875015l-10.5625 0l0 24.578125q0 2.6875 1.390625 3.796875q1.40625 1.109375 3.421875 1.109375q2.015625 0 3.921875 -0.671875q1.921875 -0.671875 3.078125 -1.15625l2.59375 10.171875zm48.763367 3.546875q-6.328125 0 -12.375 -2.015625q-6.046875 -2.015625 -10.375 -5.75l4.796875 -8.0625q4.609375 3.265625 8.96875 4.953125q4.375 1.671875 8.703125 1.671875q3.84375 0 6.046875 -1.4375q2.203125 -1.453125 2.203125 -4.140625q0 -2.6875 -2.59375 -3.9375q-2.59375 -1.25 -8.4375 -2.875q-4.90625 -1.34375 -8.359375 -2.59375q-3.453125 -1.25 -5.5625 -2.828125q-2.109375 -1.578125 -3.078125 -3.640625q-0.953125 -2.078125 -0.953125 -4.953125q0 -3.84375 1.484375 -6.90625q1.484375 -3.078125 4.171875 -5.234375q2.6875 -2.1562653 6.28125 -3.3125153q3.609375 -1.15625 7.828125 -1.15625q5.671875 0 10.609375 1.640625q4.953125 1.6250153 9.078125 5.2656403l-5.1875 7.78125q-3.84375 -2.875 -7.4375 -4.21875q-3.59375 -1.34375 -7.15625 -1.34375q-3.265625 0 -5.46875 1.34375q-2.203125 1.34375 -2.203125 4.3125q0 1.34375 0.515625 2.21875q0.53125 0.859375 1.6875 1.53125q1.15625 0.671875 3.015625 1.296875q1.875 0.625 4.671875 1.296875q5.171875 1.34375 8.859375 2.6875q3.703125 1.34375 6.0625 3.078125q2.359375 1.71875 3.453125 3.984375q1.109375 2.25 1.109375 5.421875q0 7.390625 -5.484375 11.65625q-5.46875 4.265625 -14.875 4.265625zm25.5401 -26.109375q0 -5.28125 1.828125 -9.984375q1.828125 -4.703125 5.2812805 -8.25q3.453125 -3.546875 8.34375 -5.6562653q4.90625 -2.125 11.046875 -2.125q8.25 0 14.0625 3.5625153q5.8125 3.546875 8.6875 9.3125l-12.578125 3.828125q-1.625 -2.78125 -4.3125 -4.265625q-2.6875 -1.484375 -5.953125 -1.484375q-2.796875 0 -5.203125 1.109375q-2.390625 1.09375 -4.171875 3.0625q-1.765625 1.96875 -2.78125 4.75q-1.0 2.78125 -1.0 6.140625q0 3.359375 1.046875 6.15625q1.0625 2.78125 2.828125 4.796875q1.78125 2.015625 4.1875 3.125q2.40625 1.09375 5.09375 1.09375q3.453125 0 6.375 -1.71875q2.9375 -1.734375 4.078125 -4.234375l12.578125 3.84375q-2.59375 5.75 -8.546875 9.40625q-5.953125 3.640625 -14.296875 3.640625q-6.140625 0 -11.046875 -2.109375q-4.890625 -2.109375 -8.34375 -5.703125q-3.4531555 -3.609375 -5.3281555 -8.359375q-1.875 -4.75 -1.875 -9.9375zm71.03464 26.109375q-3.640625 0 -6.8125 -1.1875q-3.171875 -1.203125 -5.484375 -3.359375q-2.296875 -2.171875 -3.59375 -5.046875q-1.28125 -2.875 -1.28125 -6.328125q0 -3.5625 1.578125 -6.578125q1.578125 -3.03125 4.40625 -5.140625q2.84375 -2.109375 6.78125 -3.3125q3.9375 -1.203125 8.640625 -1.203125q3.359375 0 6.5625 0.578125q3.21875 0.578125 5.71875 1.640625l0 -2.890625q0 -4.984375 -2.828125 -7.671875q-2.828125 -2.6875 -8.40625 -2.6875q-4.03125 0 -7.875 1.4375q-3.828125 1.4375 -7.859375 4.21875l-3.9375 -8.15625q9.6875 -6.4375153 20.921875 -6.4375153q10.84375 0 16.84375 5.3281403q6.0 5.328125 6.0 15.40625l0 15.65625q0 2.015625 0.71875 2.875q0.734375 0.859375 2.359375 0.96875l0 10.9375q-3.265625 0.671875 -5.65625 0.671875q-3.65625 0 -5.625 -1.625q-1.96875 -1.640625 -2.453125 -4.328125l-0.28125 -2.78125q-3.359375 4.421875 -8.15625 6.71875q-4.796875 2.296875 -10.28125 2.296875zm3.65625 -9.40625q3.265625 0 6.1875 -1.140625q2.9375 -1.15625 4.5625 -3.078125q2.109375 -1.625 2.109375 -3.640625l0 -5.765625q-2.296875 -0.859375 -4.984375 -1.390625q-2.6875 -0.53125 -5.1875 -0.53125q-5.0 0 -8.171875 2.265625q-3.15625 2.25 -3.15625 5.703125q0 3.265625 2.484375 5.421875q2.5 2.15625 6.15625 2.15625zm37.635193 -61.625015l12.859375 0l0 53.95314q0 2.78125 1.34375 4.328125q1.34375 1.53125 3.84375 1.53125q1.140625 0 2.53125 -0.390625q1.40625 -0.390625 2.640625 -0.953125l1.734375 9.78125q-2.59375 1.25 -6.046875 1.921875q-3.453125 0.671875 -6.234375 0.671875q-6.046875 0 -9.359375 -3.203125q-3.3125 -3.21875 -3.3125 -9.171875l0 -58.468765zm53.85388 71.031265q-6.046875 0 -10.953125 -2.0625q-4.890625 -2.0625 -8.34375 -5.609375q-3.453125 -3.546875 -5.328125 -8.25q-1.875 -4.71875 -1.875 -9.890625q0 -5.375 1.828125 -10.125q1.828125 -4.765625 5.28125 -8.359375q3.453125 -3.59375 8.390625 -5.7031403q4.953125 -2.125 11.09375 -2.125q6.140625 0 10.984375 2.125q4.859375 2.1093903 8.265625 5.6562653q3.40625 3.546875 5.171875 8.25q1.78125 4.703125 1.78125 9.796875q0 1.25 -0.046875 2.40625q-0.046875 1.140625 -0.234375 1.90625l-38.890625 0q0.296875 2.984375 1.4375 5.296875q1.15625 2.296875 2.984375 3.9375q1.828125 1.625 4.125 2.484375q2.3125 0.859375 4.796875 0.859375q3.84375 0 7.25 -1.859375q3.40625 -1.875 4.65625 -4.953125l11.046875 3.078125q-2.78125 5.75 -8.890625 9.453125q-6.09375 3.6875 -14.53125 3.6875zm13.046875 -30.328125q-0.46875 -5.671875 -4.171875 -9.078125q-3.6875 -3.40625 -8.96875 -3.40625q-2.59375 0 -4.859375 0.921875q-2.25 0.90625 -3.984375 2.546875q-1.71875 1.625 -2.828125 3.9375q-1.109375 2.296875 -1.296875 5.078125l26.109375 0z" fill-rule="nonzero"/><path fill="#ffffff" d="m216.10716 419.66l-18.53125 -50.296875l13.25 0l12.765625 39.828125l12.875 -39.828125l12.09375 0l-18.53125 50.296875l-13.921875 0zm62.50084 0.953125q-6.046875 0 -10.953125 -2.0625q-4.890625 -2.0625 -8.34375 -5.609375q-3.4531097 -3.546875 -5.3281097 -8.25q-1.875 -4.71875 -1.875 -9.890625q0 -5.375 1.828125 -10.125q1.828125 -4.765625 5.2812347 -8.359375q3.453125 -3.59375 8.390625 -5.703125q4.953125 -2.125 11.09375 -2.125q6.140625 0 10.984375 2.125q4.859375 2.109375 8.265625 5.65625q3.40625 3.546875 5.171875 8.25q1.78125 4.703125 1.78125 9.796875q0 1.25 -0.046875 2.40625q-0.046875 1.140625 -0.234375 1.90625l-38.890625 0q0.296875 2.984375 1.4375 5.296875q1.15625 2.296875 2.984375 3.9375q1.828125 1.625 4.125 2.484375q2.3125 0.859375 4.796875 0.859375q3.84375 0 7.25 -1.859375q3.40625 -1.875 4.65625 -4.953125l11.046875 3.078125q-2.78125 5.75 -8.890625 9.453125q-6.09375 3.6875 -14.53125 3.6875zm13.046875 -30.328125q-0.46875 -5.671875 -4.171875 -9.078125q-3.6875 -3.40625 -8.96875 -3.40625q-2.59375 0 -4.859375 0.921875q-2.25 0.90625 -3.984375 2.546875q-1.71875 1.625 -2.828125 3.9375q-1.109375 2.296875 -1.296875 5.078125l26.109375 0zm51.082092 -9.796875q-5.859375 0.09375 -10.46875 2.265625q-4.609375 2.15625 -6.625 6.46875l0 30.4375l-12.859375 0l0 -50.296875l11.796875 0l0 10.75q1.359375 -2.59375 3.171875 -4.65625q1.828125 -2.0625 3.9375 -3.59375q2.109375 -1.546875 4.265625 -2.359375q2.171875 -0.8125 4.1875 -0.8125q1.046875 0 1.578125 0q0.53125 0 1.015625 0.09375l0 11.703125zm8.245728 48.96875q1.640625 0.46875 3.171875 0.703125q1.53125 0.25 2.59375 0.25q1.25 0 2.296875 -0.484375q1.0625 -0.46875 1.921875 -1.671875q0.875 -1.203125 1.734375 -3.3125q0.859375 -2.109375 1.828125 -5.28125l-19.875 -50.296875l13.25 0l13.625 39.15625l12.09375 -39.15625l12.09375 0l-21.109375 60.28125q-1.828125 5.28125 -6.25 8.640625q-4.40625 3.359375 -10.9375 3.359375q-1.53125 0 -3.125 -0.25q-1.578125 -0.234375 -3.3125 -0.8125l0 -11.125zm137.18372 -60.09375l12.203125 0l-21.03125 50.296875l-10.5625 0l-8.640625 -22.078125l-8.53125 22.078125l-10.5625 0l-20.9375 -50.296875l12.09375 0l14.984375 38.203125l6.140625 -16.328125l-8.828125 -21.78125l10.359375 0l5.28125 15.453125l5.375 -15.453125l10.375 0l-8.734375 21.78125l6.046875 16.328125l14.96875 -38.203125zm41.481476 51.25q-6.046875 0 -10.953125 -2.0625q-4.890625 -2.0625 -8.3437805 -5.609375q-3.453125 -3.546875 -5.328125 -8.25q-1.875 -4.71875 -1.875 -9.890625q0 -5.375 1.828125 -10.125q1.828125 -4.765625 5.28125 -8.359375q3.4531555 -3.59375 8.3906555 -5.703125q4.953125 -2.125 11.09375 -2.125q6.140625 0 10.984375 2.125q4.859375 2.109375 8.265625 5.65625q3.40625 3.546875 5.171875 8.25q1.78125 4.703125 1.78125 9.796875q0 1.25 -0.046875 2.40625q-0.046875 1.140625 -0.234375 1.90625l-38.890625 0q0.296875 2.984375 1.4375 5.296875q1.15625 2.296875 2.984375 3.9375q1.828125 1.625 4.125 2.484375q2.3125 0.859375 4.796875 0.859375q3.84375 0 7.25 -1.859375q3.40625 -1.875 4.65625 -4.953125l11.046875 3.078125q-2.78125 5.75 -8.890625 9.453125q-6.09375 3.6875 -14.53125 3.6875zm13.046875 -30.328125q-0.46875 -5.671875 -4.171875 -9.078125q-3.6875 -3.40625 -8.96875 -3.40625q-2.59375 0 -4.859375 0.921875q-2.25 0.90625 -3.984375 2.546875q-1.71875 1.625 -2.828125 3.9375q-1.109375 2.296875 -1.296875 5.078125l26.109375 0zm21.035217 -40.703125l12.859375 0l0 53.953125q0 2.78125 1.34375 4.328125q1.34375 1.53125 3.84375 1.53125q1.140625 0 2.53125 -0.390625q1.40625 -0.390625 2.640625 -0.953125l1.734375 9.78125q-2.59375 1.25 -6.046875 1.921875q-3.453125 0.671875 -6.234375 0.671875q-6.046875 0 -9.359375 -3.203125q-3.3125 -3.21875 -3.3125 -9.171875l0 -58.46875zm30.432007 0l12.859375 0l0 53.953125q0 2.78125 1.34375 4.328125q1.34375 1.53125 3.84375 1.53125q1.140625 0 2.53125 -0.390625q1.40625 -0.390625 2.640625 -0.953125l1.734375 9.78125q-2.59375 1.25 -6.046875 1.921875q-3.453125 0.671875 -6.234375 0.671875q-6.046875 0 -9.359375 -3.203125q-3.3125 -3.21875 -3.3125 -9.171875l0 -58.46875zm31.385132 24.09375l2.109375 -11.71875l-3.84375 0l0 -12.953125l12.96875 0l0 13.15625l-3.453125 11.515625l-7.78125 0zm18.046875 0l2.109375 -11.71875l-3.828125 0l0 -12.953125l12.953125 0l0 13.15625l-3.453125 11.515625l-7.78125 0z" fill-rule="nonzero"/></g></svg>