<svg version="1.1" viewBox="0.0 0.0 960.0 540.0" fill="none" stroke="none" stroke-linecap="square" stroke-miterlimit="10" xmlns:xlink="http://www.w3.org/1999/xlink" xmlns="http://www.w3.org/2000/svg"><clipPath id="g3ffa094804_0_116.0"><path d="m0 0l960.0 0l0 540.0l-960.0 0l0 -540.0z" clip-rule="nonzero"/></clipPath><g clip-path="url(#g3ffa094804_0_116.0)"><path fill="#ffffff" d="m0 0l960.0 0l0 540.0l-960.0 0z" fill-rule="evenodd"/><path fill="#000000" fill-opacity="0.0" d="m32.72441 46.721786l894.55115 0l0 65.448814l-894.55115 0z" fill-rule="evenodd"/><path fill="#000000" d="m73.53691 83.63054q-0.453125 -0.453125 -1.640625 -1.21875q-1.1875 -0.765625 -2.890625 -1.5q-1.6875 -0.734375 -3.671875 -1.25q-1.984375 -0.515625 -4.03125 -0.515625q-3.640625 0 -5.4375 1.34375q-1.78125 1.34375 -1.78125 3.78125q0 1.40625 0.671875 2.34375q0.671875 0.921875 1.9375 1.625q1.28125 0.703125 3.234375 1.28125q1.953125 0.5625 4.515625 1.203125q3.328125 0.90625 6.046875 1.9375q2.71875 1.015625 4.609375 2.546875q1.890625 1.53125 2.90625 3.6875q1.03125 2.140625 1.03125 5.28125q0 3.640625 -1.375 6.234375q-1.375 2.59375 -3.71875 4.203125q-2.328125 1.59375 -5.375 2.328125q-3.03125 0.734375 -6.359375 0.734375q-5.125 0 -10.125 -1.53125q-4.984375 -1.546875 -8.953125 -4.359375l3.90625 -7.609375q0.578125 0.5625 2.078125 1.5q1.5 0.921875 3.546875 1.859375q2.046875 0.921875 4.546875 1.5625q2.5 0.640625 5.125 0.640625q7.296875 0 7.296875 -4.671875q0 -1.46875 -0.84375 -2.484375q-0.828125 -1.03125 -2.359375 -1.796875q-1.53125 -0.78125 -3.71875 -1.421875q-2.171875 -0.640625 -4.859375 -1.40625q-3.265625 -0.890625 -5.671875 -1.9375q-2.390625 -1.0625 -4.0 -2.5q-1.59375 -1.453125 -2.390625 -3.328125q-0.796875 -1.890625 -0.796875 -4.515625q0 -3.453125 1.28125 -6.140625q1.28125 -2.6875 3.546875 -4.484375q2.28125 -1.796875 5.28125 -2.71875q3.015625 -0.9375 6.46875 -0.9375q4.796875 0 8.828125 1.515625q4.03125 1.5 7.046875 3.546875l-3.90625 7.171875zm21.560059 34.171875q-5.1875 0 -7.875 -3.328125q-2.6875 -3.328125 -2.6875 -9.859375l0 -20.984375l8.578125 0l0 19.125q0 7.75 5.578125 7.75q2.484375 0 4.8125 -1.5q2.34375 -1.5 3.828125 -4.578125l0 -20.796875l8.5625 0l0 23.671875q0 1.34375 0.484375 1.921875q0.484375 0.578125 1.5625 0.640625l0 7.296875q-1.265625 0.25 -2.140625 0.3125q-0.859375 0.078125 -1.5625 0.078125q-2.3125 0 -3.75 -1.0625q-1.4375 -1.0625 -1.6875 -2.90625l-0.203125 -2.6875q-2.234375 3.453125 -5.75 5.1875q-3.515625 1.71875 -7.75 1.71875zm48.38005 0q-3.828125 0 -6.84375 -1.71875q-3.0 -1.734375 -4.734375 -4.75l0 5.828125l-7.484375 0l0 -46.71875l8.578125 0l0 19.078125q1.78125 -3.078125 4.6875 -4.765625q2.921875 -1.703125 6.828125 -1.703125q3.265625 0 5.953125 1.40625q2.6875 1.40625 4.640625 3.78125q1.953125 2.359375 3.0 5.5625q1.0625 3.203125 1.0625 6.71875q0 3.65625 -1.1875 6.796875q-1.1875 3.125 -3.296875 5.46875q-2.109375 2.328125 -5.0 3.671875q-2.875 1.34375 -6.203125 1.34375zm-2.359375 -7.296875q2.046875 0 3.765625 -0.796875q1.734375 -0.796875 2.953125 -2.140625q1.21875 -1.34375 1.890625 -3.140625q0.671875 -1.796875 0.671875 -3.84375q0 -2.046875 -0.640625 -3.90625q-0.640625 -1.859375 -1.828125 -3.265625q-1.1875 -1.40625 -2.78125 -2.234375q-1.59375 -0.828125 -3.515625 -0.828125q-2.890625 0 -5.15625 1.890625q-2.265625 1.875 -3.484375 4.640625l0 8.0q0.4375 1.265625 1.296875 2.296875q0.875 1.03125 1.953125 1.765625q1.09375 0.734375 2.375 1.15625q1.28125 0.40625 2.5 0.40625zm23.872803 6.65625l0 -33.53125l8.578125 0l0 33.53125l-8.578125 0zm0 -38.203125l0 -8.515625l8.578125 0l0 8.515625l-8.578125 0zm36.413727 36.46875q-1.734375 0.78125 -4.234375 1.546875q-2.484375 0.765625 -5.234375 0.765625q-1.796875 0 -3.375 -0.453125q-1.5625 -0.4375 -2.75 -1.421875q-1.171875 -1.0 -1.875 -2.5625q-0.703125 -1.578125 -0.703125 -3.828125l0 -19.25l-4.421875 0l0 -6.59375l4.421875 0l0 -10.890625l8.578125 0l0 10.890625l7.03125 0l0 6.59375l-7.03125 0l0 16.375q0 1.796875 0.921875 2.53125q0.921875 0.734375 2.265625 0.734375q1.34375 0 2.625 -0.4375q1.28125 -0.453125 2.046875 -0.78125l1.734375 6.78125zm4.4822083 1.734375l0 -33.53125l8.578125 0l0 33.53125l-8.578125 0zm0 -38.203125l0 -8.515625l8.578125 0l0 8.515625l-8.578125 0zm14.069977 32.953125l18.703125 -22.265625l-17.921875 0l0 -6.015625l26.9375 0l0 5.25l-18.5625 22.265625l18.890625 0l0 6.015625l-28.046875 0l0 -5.25zm33.80194 5.25l0 -33.53125l8.578125 0l0 33.53125l-8.578125 0zm0 -38.203125l0 -8.515625l8.578125 0l0 8.515625l-8.578125 0zm47.49185 38.203125l-8.578125 0l0 -18.8125q0 -4.03125 -1.40625 -5.890625q-1.40625 -1.859375 -3.90625 -1.859375q-1.28125 0 -2.625 0.515625q-1.34375 0.515625 -2.53125 1.4375q-1.1875 0.921875 -2.15625 2.203125q-0.953125 1.28125 -1.390625 2.828125l0 19.578125l-8.578125 0l0 -33.53125l7.734375 0l0 6.203125q1.859375 -3.203125 5.375 -4.984375q3.53125 -1.796875 7.9375 -1.796875q3.140625 0 5.125 1.15625q1.984375 1.140625 3.0625 3.0q1.09375 1.859375 1.515625 4.234375q0.421875 2.359375 0.421875 4.796875l0 20.921875zm20.60904 0.1875q-3.40625 0 -6.15625 -1.34375q-2.75 -1.34375 -4.765625 -3.671875q-2.015625 -2.34375 -3.109375 -5.40625q-1.078125 -3.078125 -1.078125 -6.53125q0 -3.65625 1.140625 -6.78125q1.15625 -3.140625 3.203125 -5.5q2.046875 -2.375 4.921875 -3.71875q2.890625 -1.34375 6.34375 -1.34375q3.90625 0 6.84375 1.765625q2.953125 1.75 4.875 4.703125l0 -5.890625l7.484375 0l0 31.9375q0 3.703125 -1.40625 6.640625q-1.40625 2.953125 -3.875 5.0q-2.46875 2.046875 -5.890625 3.125q-3.421875 1.09375 -7.453125 1.09375q-5.5 0 -9.25 -1.828125q-3.734375 -1.8125 -6.421875 -5.140625l4.671875 -4.546875q1.921875 2.375 4.828125 3.71875q2.90625 1.34375 6.171875 1.34375q1.984375 0 3.8125 -0.546875q1.828125 -0.546875 3.234375 -1.703125q1.40625 -1.140625 2.203125 -2.9375q0.796875 -1.796875 0.796875 -4.21875l0 -4.234375q-1.65625 2.890625 -4.671875 4.453125q-3.0 1.5625 -6.453125 1.5625zm2.875 -6.84375q1.40625 0 2.6875 -0.4375q1.28125 -0.453125 2.359375 -1.21875q1.09375 -0.78125 1.921875 -1.796875q0.84375 -1.03125 1.28125 -2.171875l0 -8.0q-1.140625 -2.953125 -3.609375 -4.734375q-2.46875 -1.796875 -5.15625 -1.796875q-1.984375 0 -3.59375 0.859375q-1.59375 0.859375 -2.75 2.3125q-1.140625 1.4375 -1.75 3.296875q-0.609375 1.84375 -0.609375 3.828125q0 2.046875 0.703125 3.84375q0.703125 1.796875 1.953125 3.140625q1.25 1.34375 2.90625 2.109375q1.671875 0.765625 3.65625 0.765625z" fill-rule="nonzero"/><path fill="#d5a6bd" d="m89.30446 243.79527c27.001312 -75.60367 132.30643 0 0 97.20473c-132.30643 -97.20473 -27.001308 -172.8084 0 -97.20473z" fill-rule="evenodd"/><path stroke="#000000" stroke-width="1.0" stroke-linejoin="round" stroke-linecap="butt" d="m89.30446 243.79527c27.001312 -75.60367 132.30643 0 0 97.20473c-132.30643 -97.20473 -27.001308 -172.8084 0 -97.20473z" fill-rule="evenodd"/><path fill="#d5a6bd" d="m205.95538 364.7953c27.001312 -75.6037 132.30643 0 0 97.20471c-132.30643 -97.20471 -27.001312 -172.80841 0 -97.20471z" fill-rule="evenodd"/><path stroke="#000000" stroke-width="1.0" stroke-linejoin="round" stroke-linecap="butt" d="m205.95538 364.7953c27.001312 -75.6037 132.30643 0 0 97.20471c-132.30643 -97.20471 -27.001312 -172.80841 0 -97.20471z" fill-rule="evenodd"/><path fill="#d5a6bd" d="m219.85564 172.79527c27.001312 -75.60367 132.30644 0 0 97.20473c-132.30643 -97.20473 -27.001312 -172.8084 0 -97.20473z" fill-rule="evenodd"/><path stroke="#000000" stroke-width="1.0" stroke-linejoin="round" stroke-linecap="butt" d="m219.85564 172.79527c27.001312 -75.60367 132.30644 0 0 97.20473c-132.30643 -97.20473 -27.001312 -172.8084 0 -97.20473z" fill-rule="evenodd"/><path fill="#cc0000" d="m619.4068 132.25197c27.001343 -75.603676 132.30646 0 0 97.20473c-132.3064 -97.20473 -27.001282 -172.80841 0 -97.20473z" fill-rule="evenodd"/><path stroke="#000000" stroke-width="1.0" stroke-linejoin="round" stroke-linecap="butt" d="m619.4068 132.25197c27.001343 -75.603676 132.30646 0 0 97.20473c-132.3064 -97.20473 -27.001282 -172.80841 0 -97.20473z" fill-rule="evenodd"/><path fill="#d5a6bd" d="m336.50656 250.59317c27.001312 -75.60367 132.30643 0 0 97.20474c-132.30643 -97.20474 -27.001312 -172.80841 0 -97.20474z" fill-rule="evenodd"/><path stroke="#000000" stroke-width="1.0" stroke-linejoin="round" stroke-linecap="butt" d="m336.50656 250.59317c27.001312 -75.60367 132.30643 0 0 97.20474c-132.30643 -97.20474 -27.001312 -172.80841 0 -97.20474z" fill-rule="evenodd"/><path fill="#cc0000" d="m845.8058 371.00262c27.001282 -75.60367 132.3064 0 0 97.20471c-132.30646 -97.20471 -27.001343 -172.80838 0 -97.20471z" fill-rule="evenodd"/><path stroke="#000000" stroke-width="1.0" stroke-linejoin="round" stroke-linecap="butt" d="m845.8058 371.00262c27.001282 -75.60367 132.3064 0 0 97.20471c-132.30646 -97.20471 -27.001343 -172.80838 0 -97.20471z" fill-rule="evenodd"/><path fill="#cc0000" d="m845.8058 132.25197c27.001282 -75.603676 132.3064 0 0 97.20473c-132.30646 -97.20473 -27.001343 -172.80841 0 -97.20473z" fill-rule="evenodd"/><path stroke="#000000" stroke-width="1.0" stroke-linejoin="round" stroke-linecap="butt" d="m845.8058 132.25197c27.001282 -75.603676 132.3064 0 0 97.20473c-132.30646 -97.20473 -27.001343 -172.80841 0 -97.20473z" fill-rule="evenodd"/><path fill="#cc0000" d="m731.2572 244.20735c27.001343 -74.66667 132.30646 0 0 95.999985c-132.3064 -95.999985 -27.001282 -170.66666 0 -95.999985z" fill-rule="evenodd"/><path stroke="#000000" stroke-width="1.0" stroke-linejoin="round" stroke-linecap="butt" d="m731.2572 244.20735c27.001343 -74.66667 132.30646 0 0 95.999985c-132.3064 -95.999985 -27.001282 -170.66666 0 -95.999985z" fill-rule="evenodd"/><path fill="#cc0000" d="m619.4068 378.59317c27.001343 -75.60367 132.30646 0 0 97.20474c-132.3064 -97.20474 -27.001282 -172.80841 0 -97.20474z" fill-rule="evenodd"/><path stroke="#000000" stroke-width="1.0" stroke-linejoin="round" stroke-linecap="butt" d="m619.4068 378.59317c27.001343 -75.60367 132.30646 0 0 97.20474c-132.3064 -97.20474 -27.001282 -172.80841 0 -97.20474z" fill-rule="evenodd"/></g></svg>