<svg version="1.1" viewBox="0.0 0.0 960.0 540.0" fill="none" stroke="none" stroke-linecap="square" stroke-miterlimit="10" xmlns:xlink="http://www.w3.org/1999/xlink" xmlns="http://www.w3.org/2000/svg"><clipPath id="g3ffa094804_0_98.0"><path d="m0 0l960.0 0l0 540.0l-960.0 0l0 -540.0z" clip-rule="nonzero"/></clipPath><g clip-path="url(#g3ffa094804_0_98.0)"><path fill="#ffffff" d="m0 0l960.0 0l0 540.0l-960.0 0z" fill-rule="evenodd"/><path fill="#5e2b97" d="m8.472441 278.33072l943.0552 0l0 253.19687l-943.0552 0z" fill-rule="evenodd"/><path fill="#000000" fill-opacity="0.0" d="m51.010498 135.0l859.1811 0l0 127.49606l-859.1811 0z" fill-rule="evenodd"/><path fill="#000000" d="m91.35425 183.57607l0 -22.5625l-8.78125 16.796875l-3.609375 0l-8.78125 -16.796875l0 22.5625l-6.625 0l0 -34.078125l7.109375 0l10.078125 19.390625l10.171875 -19.390625l7.0625 0l0 34.078125l-6.625 0zm19.973206 0.484375q-1.828125 0 -3.421875 -0.59375q-1.578125 -0.609375 -2.734375 -1.6875q-1.140625 -1.078125 -1.796875 -2.515625q-0.640625 -1.453125 -0.640625 -3.171875q0 -1.78125 0.78125 -3.28125q0.796875 -1.515625 2.203125 -2.578125q1.421875 -1.0625 3.390625 -1.65625q1.96875 -0.59375 4.328125 -0.59375q1.671875 0 3.28125 0.28125q1.609375 0.28125 2.859375 0.8125l0 -1.4375q0 -2.5 -1.421875 -3.84375q-1.40625 -1.34375 -4.1875 -1.34375q-2.015625 0 -3.9375 0.71875q-1.921875 0.71875 -3.9375 2.125l-1.96875 -4.09375q4.84375 -3.203125 10.46875 -3.203125q5.421875 0 8.421875 2.671875q3.0 2.65625 3.0 7.6875l0 7.828125q0 1.0 0.359375 1.4375q0.359375 0.4375 1.171875 0.484375l0 5.46875q-1.625 0.34375 -2.828125 0.34375q-1.828125 0 -2.8125 -0.8125q-0.984375 -0.828125 -1.21875 -2.171875l-0.140625 -1.390625q-1.6875 2.203125 -4.09375 3.359375q-2.390625 1.15625 -5.125 1.15625zm1.8125 -4.703125q1.640625 0 3.09375 -0.578125q1.46875 -0.578125 2.28125 -1.546875q1.0625 -0.8125 1.0625 -1.8125l0 -2.890625q-1.15625 -0.421875 -2.5 -0.6875q-1.34375 -0.265625 -2.59375 -0.265625q-2.484375 0 -4.078125 1.125q-1.578125 1.125 -1.578125 2.859375q0 1.625 1.25 2.71875q1.25 1.078125 3.0625 1.078125zm33.942688 2.921875q-1.296875 0.578125 -3.171875 1.15625q-1.875 0.578125 -3.9375 0.578125q-1.34375 0 -2.515625 -0.34375q-1.171875 -0.328125 -2.0625 -1.078125q-0.890625 -0.75 -1.421875 -1.921875q-0.515625 -1.171875 -0.515625 -2.859375l0 -14.4375l-3.3125 0l0 -4.953125l3.3125 0l0 -8.15625l6.421875 0l0 8.15625l5.28125 0l0 4.953125l-5.28125 0l0 12.28125q0 1.34375 0.6875 1.90625q0.703125 0.546875 1.71875 0.546875q1.0 0 1.953125 -0.328125q0.96875 -0.34375 1.546875 -0.59375l1.296875 5.09375zm26.728912 1.296875l-6.421875 0l0 -14.109375q0 -2.984375 -1.109375 -4.390625q-1.109375 -1.421875 -3.125 -1.421875q-0.859375 0 -1.828125 0.390625q-0.953125 0.375 -1.8125 1.078125q-0.859375 0.6875 -1.578125 1.65625q-0.71875 0.953125 -1.0625 2.109375l0 14.6875l-6.4375 0l0 -35.046875l6.4375 0l0 14.546875q1.390625 -2.4375 3.765625 -3.75q2.375 -1.328125 5.265625 -1.328125q2.4375 0 3.96875 0.84375q1.546875 0.828125 2.40625 2.21875q0.859375 1.390625 1.1875 3.171875q0.34375 1.78125 0.34375 3.640625l0 15.703125zm17.28894 0.484375q-3.03125 0 -5.484375 -1.03125q-2.4375 -1.03125 -4.171875 -2.8125q-1.71875 -1.78125 -2.65625 -4.125q-0.9375 -2.359375 -0.9375 -4.953125q0 -2.6875 0.90625 -5.0625q0.921875 -2.375 2.640625 -4.171875q1.734375 -1.796875 4.203125 -2.84375q2.46875 -1.0625 5.546875 -1.0625q3.078125 0 5.5 1.0625q2.421875 1.046875 4.125 2.828125q1.703125 1.765625 2.59375 4.125q0.890625 2.34375 0.890625 4.890625q0 0.625 -0.03125 1.203125q-0.015625 0.578125 -0.125 0.953125l-19.4375 0q0.140625 1.484375 0.71875 2.640625q0.578125 1.15625 1.484375 1.96875q0.921875 0.8125 2.0625 1.25q1.15625 0.4375 2.40625 0.4375q1.921875 0 3.625 -0.9375q1.703125 -0.9375 2.328125 -2.46875l5.515625 1.53125q-1.390625 2.875 -4.4375 4.734375q-3.046875 1.84375 -7.265625 1.84375zm6.53125 -15.171875q-0.25 -2.828125 -2.09375 -4.53125q-1.84375 -1.703125 -4.484375 -1.703125q-1.296875 0 -2.4375 0.453125q-1.125 0.453125 -1.984375 1.265625q-0.859375 0.8125 -1.421875 1.96875q-0.546875 1.15625 -0.640625 2.546875l13.0625 0zm49.62706 14.6875l-6.4375 0l0 -14.109375q0 -3.03125 -1.03125 -4.421875q-1.03125 -1.390625 -2.84375 -1.390625q-1.921875 0 -3.609375 1.46875q-1.671875 1.46875 -2.390625 3.8125l0 14.640625l-6.4375 0l0 -14.109375q0 -3.03125 -1.03125 -4.421875q-1.03125 -1.390625 -2.859375 -1.390625q-1.875 0 -3.578125 1.4375q-1.703125 1.4375 -2.421875 3.796875l0 14.6875l-6.4375 0l0 -25.15625l5.8125 0l0 4.65625q1.390625 -2.4375 3.8125 -3.75q2.421875 -1.328125 5.546875 -1.328125q3.171875 0 4.890625 1.53125q1.734375 1.53125 2.21875 3.796875q1.53125 -2.59375 3.875 -3.953125q2.359375 -1.375 5.390625 -1.375q2.296875 0 3.78125 0.859375q1.5 0.859375 2.3125 2.25q0.8125 1.390625 1.125 3.171875q0.3125 1.78125 0.3125 3.59375l0 15.703125zm12.48497 0.484375q-1.828125 0 -3.421875 -0.59375q-1.578125 -0.609375 -2.734375 -1.6875q-1.140625 -1.078125 -1.796875 -2.515625q-0.640625 -1.453125 -0.640625 -3.171875q0 -1.78125 0.78125 -3.28125q0.796875 -1.515625 2.203125 -2.578125q1.421875 -1.0625 3.390625 -1.65625q1.96875 -0.59375 4.328125 -0.59375q1.671875 0 3.28125 0.28125q1.609375 0.28125 2.859375 0.8125l0 -1.4375q0 -2.5 -1.421875 -3.84375q-1.40625 -1.34375 -4.1875 -1.34375q-2.015625 0 -3.9375 0.71875q-1.921875 0.71875 -3.9375 2.125l-1.96875 -4.09375q4.84375 -3.203125 10.46875 -3.203125q5.421875 0 8.421875 2.671875q3.0 2.65625 3.0 7.6875l0 7.828125q0 1.0 0.359375 1.4375q0.359375 0.4375 1.171875 0.484375l0 5.46875q-1.625 0.34375 -2.828125 0.34375q-1.828125 0 -2.8125 -0.8125q-0.984375 -0.828125 -1.21875 -2.171875l-0.140625 -1.390625q-1.6875 2.203125 -4.09375 3.359375q-2.390625 1.15625 -5.125 1.15625zm1.8125 -4.703125q1.640625 0 3.09375 -0.578125q1.46875 -0.578125 2.28125 -1.546875q1.0625 -0.8125 1.0625 -1.8125l0 -2.890625q-1.15625 -0.421875 -2.5 -0.6875q-1.34375 -0.265625 -2.59375 -0.265625q-2.484375 0 -4.078125 1.125q-1.578125 1.125 -1.578125 2.859375q0 1.625 1.25 2.71875q1.25 1.078125 3.0625 1.078125zm33.942688 2.921875q-1.296875 0.578125 -3.171875 1.15625q-1.875 0.578125 -3.9375 0.578125q-1.34375 0 -2.515625 -0.34375q-1.171875 -0.328125 -2.0625 -1.078125q-0.890625 -0.75 -1.421875 -1.921875q-0.515625 -1.171875 -0.515625 -2.859375l0 -14.4375l-3.3125 0l0 -4.953125l3.3125 0l0 -8.15625l6.421875 0l0 8.15625l5.28125 0l0 4.953125l-5.28125 0l0 12.28125q0 1.34375 0.6875 1.90625q0.703125 0.546875 1.71875 0.546875q1.0 0 1.953125 -0.328125q0.96875 -0.34375 1.546875 -0.59375l1.296875 5.09375zm3.3539124 1.296875l0 -25.15625l6.4375 0l0 25.15625l-6.4375 0zm0 -28.65625l0 -6.390625l6.4375 0l0 6.390625l-6.4375 0zm10.661896 16.078125q0 -2.640625 0.90625 -4.984375q0.921875 -2.359375 2.640625 -4.125q1.734375 -1.78125 4.171875 -2.828125q2.453125 -1.0625 5.53125 -1.0625q4.125 0 7.03125 1.78125q2.90625 1.765625 4.34375 4.640625l-6.28125 1.921875q-0.828125 -1.390625 -2.171875 -2.125q-1.34375 -0.75 -2.96875 -0.75q-1.390625 0 -2.59375 0.546875q-1.203125 0.546875 -2.09375 1.53125q-0.890625 0.984375 -1.390625 2.390625q-0.5 1.390625 -0.5 3.0625q0 1.6875 0.53125 3.078125q0.53125 1.390625 1.40625 2.40625q0.890625 1.0 2.09375 1.5625q1.203125 0.546875 2.546875 0.546875q1.71875 0 3.1875 -0.859375q1.46875 -0.875 2.046875 -2.125l6.28125 1.921875q-1.296875 2.875 -4.28125 4.703125q-2.96875 1.828125 -7.140625 1.828125q-3.078125 0 -5.53125 -1.046875q-2.4375 -1.0625 -4.171875 -2.859375q-1.71875 -1.8125 -2.65625 -4.1875q-0.9375 -2.375 -0.9375 -4.96875zm38.165802 13.0625q-3.171875 0 -6.203125 -1.0q-3.015625 -1.015625 -5.171875 -2.890625l2.390625 -4.03125q2.3125 1.625 4.484375 2.46875q2.1875 0.84375 4.34375 0.84375q1.921875 0 3.03125 -0.71875q1.109375 -0.71875 1.109375 -2.0625q0 -1.34375 -1.296875 -1.96875q-1.296875 -0.625 -4.234375 -1.4375q-2.4375 -0.671875 -4.171875 -1.296875q-1.734375 -0.625 -2.796875 -1.421875q-1.046875 -0.796875 -1.53125 -1.828125q-0.46875 -1.03125 -0.46875 -2.46875q0 -1.921875 0.734375 -3.453125q0.75 -1.53125 2.09375 -2.609375q1.34375 -1.09375 3.140625 -1.65625q1.8125 -0.578125 3.921875 -0.578125q2.828125 0 5.296875 0.8125q2.46875 0.8125 4.53125 2.640625l-2.578125 3.890625q-1.921875 -1.453125 -3.734375 -2.125q-1.796875 -0.671875 -3.5625 -0.671875q-1.640625 0 -2.75 0.671875q-1.09375 0.671875 -1.09375 2.171875q0 0.671875 0.265625 1.109375q0.265625 0.421875 0.828125 0.765625q0.578125 0.328125 1.515625 0.640625q0.9375 0.3125 2.328125 0.640625q2.59375 0.671875 4.4375 1.34375q1.859375 0.671875 3.03125 1.546875q1.171875 0.859375 1.71875 1.984375q0.5625 1.125 0.5625 2.71875q0 3.6875 -2.734375 5.828125q-2.734375 2.140625 -7.4375 2.140625zm25.860443 -0.484375l0 -25.15625l6.4375 0l0 25.15625l-6.4375 0zm0 -28.65625l0 -6.390625l6.4375 0l0 6.390625l-6.4375 0zm21.755646 29.140625q-3.171875 0 -6.203125 -1.0q-3.015625 -1.015625 -5.171875 -2.890625l2.390625 -4.03125q2.3125 1.625 4.484375 2.46875q2.1875 0.84375 4.34375 0.84375q1.921875 0 3.03125 -0.71875q1.109375 -0.71875 1.109375 -2.0625q0 -1.34375 -1.296875 -1.96875q-1.296875 -0.625 -4.234375 -1.4375q-2.4375 -0.671875 -4.171875 -1.296875q-1.734375 -0.625 -2.796875 -1.421875q-1.046875 -0.796875 -1.53125 -1.828125q-0.46875 -1.03125 -0.46875 -2.46875q0 -1.921875 0.734375 -3.453125q0.75 -1.53125 2.09375 -2.609375q1.34375 -1.09375 3.140625 -1.65625q1.8125 -0.578125 3.921875 -0.578125q2.828125 0 5.296875 0.8125q2.46875 0.8125 4.53125 2.640625l-2.578125 3.890625q-1.921875 -1.453125 -3.734375 -2.125q-1.796875 -0.671875 -3.5625 -0.671875q-1.640625 0 -2.75 0.671875q-1.09375 0.671875 -1.09375 2.171875q0 0.671875 0.265625 1.109375q0.265625 0.421875 0.828125 0.765625q0.578125 0.328125 1.515625 0.640625q0.9375 0.3125 2.328125 0.640625q2.59375 0.671875 4.4375 1.34375q1.859375 0.671875 3.03125 1.546875q1.171875 0.859375 1.71875 1.984375q0.5625 1.125 0.5625 2.71875q0 3.6875 -2.734375 5.828125q-2.734375 2.140625 -7.4375 2.140625zm33.547943 0q-3.890625 0 -5.90625 -2.5q-2.015625 -2.5 -2.015625 -7.390625l0 -15.75l6.4375 0l0 14.359375q0 5.8125 4.171875 5.8125q1.875 0 3.625 -1.125q1.75 -1.140625 2.859375 -3.4375l0 -15.609375l6.421875 0l0 17.765625q0 1.0 0.359375 1.4375q0.359375 0.4375 1.1875 0.484375l0 5.46875q-0.96875 0.1875 -1.625 0.234375q-0.640625 0.046875 -1.171875 0.046875q-1.71875 0 -2.796875 -0.78125q-1.078125 -0.796875 -1.28125 -2.1875l-0.140625 -2.015625q-1.671875 2.59375 -4.3125 3.890625q-2.640625 1.296875 -5.8125 1.296875zm45.351562 -0.484375l-6.421875 0l0 -14.109375q0 -3.03125 -1.0625 -4.421875q-1.046875 -1.390625 -2.921875 -1.390625q-0.96875 0 -1.984375 0.390625q-1.0 0.375 -1.890625 1.078125q-0.875 0.6875 -1.59375 1.65625q-0.71875 0.953125 -1.0625 2.109375l0 14.6875l-6.4375 0l0 -25.15625l5.8125 0l0 4.65625q1.390625 -2.390625 4.03125 -3.734375q2.640625 -1.34375 5.953125 -1.34375q2.359375 0 3.84375 0.859375q1.484375 0.859375 2.296875 2.25q0.828125 1.390625 1.125 3.171875q0.3125 1.78125 0.3125 3.59375l0 15.703125zm20.60144 -19.578125q-2.9375 0.046875 -5.234375 1.125q-2.296875 1.078125 -3.3125 3.234375l0 15.21875l-6.4375 0l0 -25.15625l5.90625 0l0 5.375q0.671875 -1.296875 1.578125 -2.328125q0.921875 -1.03125 1.96875 -1.796875q1.0625 -0.765625 2.140625 -1.171875q1.078125 -0.40625 2.09375 -0.40625q0.53125 0 0.78125 0q0.265625 0 0.515625 0.046875l0 5.859375zm15.26355 20.0625q-3.03125 0 -5.484375 -1.03125q-2.4375 -1.03125 -4.171875 -2.8125q-1.71875 -1.78125 -2.65625 -4.125q-0.9375 -2.359375 -0.9375 -4.953125q0 -2.6875 0.90625 -5.0625q0.921875 -2.375 2.640625 -4.171875q1.734375 -1.796875 4.203125 -2.84375q2.46875 -1.0625 5.546875 -1.0625q3.078125 0 5.5 1.0625q2.421875 1.046875 4.125 2.828125q1.703125 1.765625 2.59375 4.125q0.890625 2.34375 0.890625 4.890625q0 0.625 -0.03125 1.203125q-0.015625 0.578125 -0.125 0.953125l-19.4375 0q0.140625 1.484375 0.71875 2.640625q0.578125 1.15625 1.484375 1.96875q0.921875 0.8125 2.0625 1.25q1.15625 0.4375 2.40625 0.4375q1.921875 0 3.625 -0.9375q1.703125 -0.9375 2.328125 -2.46875l5.515625 1.53125q-1.390625 2.875 -4.4375 4.734375q-3.046875 1.84375 -7.265625 1.84375zm6.53125 -15.171875q-0.25 -2.828125 -2.09375 -4.53125q-1.84375 -1.703125 -4.484375 -1.703125q-1.296875 0 -2.4375 0.453125q-1.125 0.453125 -1.984375 1.265625q-0.859375 0.8125 -1.421875 1.96875q-0.546875 1.15625 -0.640625 2.546875l13.0625 0zm17.42395 15.171875q-1.828125 0 -3.421875 -0.59375q-1.578125 -0.609375 -2.734375 -1.6875q-1.140625 -1.078125 -1.796875 -2.515625q-0.640625 -1.453125 -0.640625 -3.171875q0 -1.78125 0.78125 -3.28125q0.796875 -1.515625 2.203125 -2.578125q1.421875 -1.0625 3.390625 -1.65625q1.96875 -0.59375 4.328125 -0.59375q1.671875 0 3.28125 0.28125q1.609375 0.28125 2.859375 0.8125l0 -1.4375q0 -2.5 -1.421875 -3.84375q-1.40625 -1.34375 -4.1875 -1.34375q-2.015625 0 -3.9375 0.71875q-1.921875 0.71875 -3.9375 2.125l-1.96875 -4.09375q4.84375 -3.203125 10.46875 -3.203125q5.421875 0 8.421875 2.671875q3.0 2.65625 3.0 7.6875l0 7.828125q0 1.0 0.359375 1.4375q0.359375 0.4375 1.171875 0.484375l0 5.46875q-1.625 0.34375 -2.828125 0.34375q-1.828125 0 -2.8125 -0.8125q-0.984375 -0.828125 -1.21875 -2.171875l-0.140625 -1.390625q-1.6875 2.203125 -4.09375 3.359375q-2.390625 1.15625 -5.125 1.15625zm1.8125 -4.703125q1.640625 0 3.09375 -0.578125q1.46875 -0.578125 2.28125 -1.546875q1.0625 -0.8125 1.0625 -1.8125l0 -2.890625q-1.15625 -0.421875 -2.5 -0.6875q-1.34375 -0.265625 -2.59375 -0.265625q-2.484375 0 -4.078125 1.125q-1.578125 1.125 -1.578125 2.859375q0 1.625 1.25 2.71875q1.25 1.078125 3.0625 1.078125zm28.380188 4.703125q-3.171875 0 -6.203125 -1.0q-3.015625 -1.015625 -5.171875 -2.890625l2.390625 -4.03125q2.3125 1.625 4.484375 2.46875q2.1875 0.84375 4.34375 0.84375q1.921875 0 3.03125 -0.71875q1.109375 -0.71875 1.109375 -2.0625q0 -1.34375 -1.296875 -1.96875q-1.296875 -0.625 -4.234375 -1.4375q-2.4375 -0.671875 -4.171875 -1.296875q-1.734375 -0.625 -2.796875 -1.421875q-1.046875 -0.796875 -1.53125 -1.828125q-0.46875 -1.03125 -0.46875 -2.46875q0 -1.921875 0.734375 -3.453125q0.75 -1.53125 2.09375 -2.609375q1.34375 -1.09375 3.140625 -1.65625q1.8125 -0.578125 3.921875 -0.578125q2.828125 0 5.296875 0.8125q2.46875 0.8125 4.53125 2.640625l-2.578125 3.890625q-1.921875 -1.453125 -3.734375 -2.125q-1.796875 -0.671875 -3.5625 -0.671875q-1.640625 0 -2.75 0.671875q-1.09375 0.671875 -1.09375 2.171875q0 0.671875 0.265625 1.109375q0.265625 0.421875 0.828125 0.765625q0.578125 0.328125 1.515625 0.640625q0.9375 0.3125 2.328125 0.640625q2.59375 0.671875 4.4375 1.34375q1.859375 0.671875 3.03125 1.546875q1.171875 0.859375 1.71875 1.984375q0.5625 1.125 0.5625 2.71875q0 3.6875 -2.734375 5.828125q-2.734375 2.140625 -7.4375 2.140625zm25.965393 0q-3.078125 0 -5.53125 -1.046875q-2.4375 -1.0625 -4.140625 -2.859375q-1.703125 -1.8125 -2.625 -4.15625q-0.90625 -2.359375 -0.90625 -4.953125q0 -2.640625 0.90625 -4.984375q0.921875 -2.359375 2.625 -4.15625q1.703125 -1.796875 4.140625 -2.84375q2.453125 -1.0625 5.53125 -1.0625q3.0625 0 5.484375 1.0625q2.4375 1.046875 4.140625 2.84375q1.703125 1.796875 2.609375 4.15625q0.921875 2.34375 0.921875 4.984375q0 2.59375 -0.921875 4.953125q-0.90625 2.34375 -2.59375 4.15625q-1.671875 1.796875 -4.125 2.859375q-2.453125 1.046875 -5.515625 1.046875zm-6.578125 -13.015625q0 1.6875 0.5 3.0625q0.5 1.359375 1.390625 2.375q0.890625 1.0 2.09375 1.5625q1.203125 0.546875 2.59375 0.546875q1.390625 0 2.59375 -0.546875q1.203125 -0.5625 2.078125 -1.5625q0.890625 -1.015625 1.390625 -2.40625q0.515625 -1.390625 0.515625 -3.078125q0 -1.625 -0.515625 -3.015625q-0.5 -1.390625 -1.390625 -2.40625q-0.875 -1.015625 -2.078125 -1.5625q-1.203125 -0.546875 -2.59375 -0.546875q-1.390625 0 -2.59375 0.578125q-1.203125 0.578125 -2.09375 1.59375q-0.890625 1.0 -1.390625 2.390625q-0.5 1.390625 -0.5 3.015625zm47.4162 12.53125l-6.421875 0l0 -14.109375q0 -3.03125 -1.0625 -4.421875q-1.046875 -1.390625 -2.921875 -1.390625q-0.96875 0 -1.984375 0.390625q-1.0 0.375 -1.890625 1.078125q-0.875 0.6875 -1.59375 1.65625q-0.71875 0.953125 -1.0625 2.109375l0 14.6875l-6.4375 0l0 -25.15625l5.8125 0l0 4.65625q1.390625 -2.390625 4.03125 -3.734375q2.640625 -1.34375 5.953125 -1.34375q2.359375 0 3.84375 0.859375q1.484375 0.859375 2.296875 2.25q0.828125 1.390625 1.125 3.171875q0.3125 1.78125 0.3125 3.59375l0 15.703125zm12.492065 0.484375q-1.828125 0 -3.421875 -0.59375q-1.578125 -0.609375 -2.734375 -1.6875q-1.140625 -1.078125 -1.796875 -2.515625q-0.640625 -1.453125 -0.640625 -3.171875q0 -1.78125 0.78125 -3.28125q0.796875 -1.515625 2.203125 -2.578125q1.421875 -1.0625 3.390625 -1.65625q1.96875 -0.59375 4.328125 -0.59375q1.671875 0 3.28125 0.28125q1.609375 0.28125 2.859375 0.8125l0 -1.4375q0 -2.5 -1.421875 -3.84375q-1.40625 -1.34375 -4.1875 -1.34375q-2.015625 0 -3.9375 0.71875q-1.921875 0.71875 -3.9375 2.125l-1.96875 -4.09375q4.84375 -3.203125 10.46875 -3.203125q5.421875 0 8.421875 2.671875q3.0 2.65625 3.0 7.6875l0 7.828125q0 1.0 0.359375 1.4375q0.359375 0.4375 1.171875 0.484375l0 5.46875q-1.625 0.34375 -2.828125 0.34375q-1.828125 0 -2.8125 -0.8125q-0.984375 -0.828125 -1.21875 -2.171875l-0.140625 -1.390625q-1.6875 2.203125 -4.09375 3.359375q-2.390625 1.15625 -5.125 1.15625zm1.8125 -4.703125q1.640625 0 3.09375 -0.578125q1.46875 -0.578125 2.28125 -1.546875q1.0625 -0.8125 1.0625 -1.8125l0 -2.890625q-1.15625 -0.421875 -2.5 -0.6875q-1.34375 -0.265625 -2.59375 -0.265625q-2.484375 0 -4.078125 1.125q-1.578125 1.125 -1.578125 2.859375q0 1.625 1.25 2.71875q1.25 1.078125 3.0625 1.078125zm33.177063 4.703125q-2.875 0 -5.140625 -1.296875q-2.25 -1.296875 -3.546875 -3.5625l0 4.375l-5.625 0l0 -35.046875l6.4375 0l0 14.3125q1.34375 -2.3125 3.53125 -3.578125q2.1875 -1.265625 5.109375 -1.265625q2.453125 0 4.46875 1.0625q2.015625 1.046875 3.46875 2.828125q1.46875 1.765625 2.25 4.171875q0.796875 2.390625 0.796875 5.03125q0 2.734375 -0.890625 5.09375q-0.875 2.34375 -2.46875 4.109375q-1.578125 1.75 -3.734375 2.765625q-2.15625 1.0 -4.65625 1.0zm-1.78125 -5.46875q1.53125 0 2.828125 -0.59375q1.296875 -0.609375 2.203125 -1.609375q0.921875 -1.015625 1.421875 -2.359375q0.515625 -1.34375 0.515625 -2.890625q0 -1.53125 -0.484375 -2.921875q-0.484375 -1.390625 -1.375 -2.4375q-0.875 -1.0625 -2.078125 -1.6875q-1.203125 -0.625 -2.640625 -0.625q-2.15625 0 -3.875 1.421875q-1.703125 1.40625 -2.609375 3.46875l0 6.0q0.34375 0.96875 0.984375 1.734375q0.640625 0.765625 1.453125 1.328125q0.828125 0.546875 1.78125 0.859375q0.96875 0.3125 1.875 0.3125zm17.853943 -30.0625l6.4375 0l0 26.984375q0 1.390625 0.671875 2.15625q0.671875 0.765625 1.921875 0.765625q0.578125 0 1.265625 -0.1875q0.703125 -0.1875 1.328125 -0.484375l0.859375 4.90625q-1.296875 0.625 -3.03125 0.953125q-1.71875 0.34375 -3.109375 0.34375q-3.03125 0 -4.6875 -1.609375q-1.65625 -1.609375 -1.65625 -4.59375l0 -29.234375zm15.794128 39.9375q0.8125 0.25 1.578125 0.359375q0.78125 0.125 1.3125 0.125q0.609375 0 1.140625 -0.25q0.53125 -0.234375 0.953125 -0.828125q0.4375 -0.59375 0.875 -1.65625q0.4375 -1.0625 0.90625 -2.640625l-9.9375 -25.15625l6.625 0l6.828125 19.59375l6.046875 -19.59375l6.046875 0l-10.5625 30.140625q-0.90625 2.640625 -3.125 4.3125q-2.203125 1.6875 -5.46875 1.6875q-0.765625 0 -1.5625 -0.125q-0.796875 -0.109375 -1.65625 -0.390625l0 -5.578125z" fill-rule="nonzero"/><path fill="#000000" d="m74.60425 242.06044q-3.03125 0 -5.484375 -1.03125q-2.4375 -1.03125 -4.171875 -2.8125q-1.71875 -1.78125 -2.65625 -4.125q-0.9375 -2.359375 -0.9375 -4.953125q0 -2.6875 0.90625 -5.0625q0.921875 -2.375 2.640625 -4.171875q1.734375 -1.796875 4.203125 -2.84375q2.46875 -1.0625 5.546875 -1.0625q3.078125 0 5.5 1.0625q2.421875 1.046875 4.125 2.828125q1.703125 1.765625 2.59375 4.125q0.890625 2.34375 0.890625 4.890625q0 0.625 -0.03125 1.203125q-0.015625 0.578125 -0.125 0.953125l-19.4375 0q0.140625 1.484375 0.71875 2.640625q0.578125 1.15625 1.484375 1.96875q0.921875 0.8125 2.0625 1.25q1.15625 0.4375 2.40625 0.4375q1.921875 0 3.625 -0.9375q1.703125 -0.9375 2.328125 -2.46875l5.515625 1.53125q-1.390625 2.875 -4.4375 4.734375q-3.046875 1.84375 -7.265625 1.84375zm6.53125 -15.171875q-0.25 -2.828125 -2.09375 -4.53125q-1.84375 -1.703125 -4.484375 -1.703125q-1.296875 0 -2.4375 0.453125q-1.125 0.453125 -1.984375 1.265625q-0.859375 0.8125 -1.421875 1.96875q-0.546875 1.15625 -0.640625 2.546875l13.0625 0zm12.09581 14.6875l0 -18.90625l-3.3125 0l0 -4.90625l3.3125 0l0 -1.53125q0 -4.703125 2.25 -7.4375q2.25 -2.734375 6.140625 -2.734375q3.078125 0 6.203125 1.484375l-1.296875 4.84375q-0.71875 -0.375 -1.703125 -0.640625q-0.984375 -0.265625 -1.8125 -0.265625q-3.359375 0 -3.359375 4.515625l0 1.765625l6.15625 0l0 4.90625l-6.15625 0l0 18.90625l-6.421875 0zm17.76004 0l0 -18.90625l-3.3125 0l0 -4.90625l3.3125 0l0 -1.53125q0 -4.703125 2.25 -7.4375q2.25 -2.734375 6.140625 -2.734375q3.078125 0 6.203125 1.484375l-1.296875 4.84375q-0.71875 -0.375 -1.703125 -0.640625q-0.984375 -0.265625 -1.8125 -0.265625q-3.359375 0 -3.359375 4.515625l0 1.765625l6.15625 0l0 4.90625l-6.15625 0l0 18.90625l-6.421875 0zm27.88504 0.484375q-3.03125 0 -5.484375 -1.03125q-2.4375 -1.03125 -4.171875 -2.8125q-1.71875 -1.78125 -2.65625 -4.125q-0.9375 -2.359375 -0.9375 -4.953125q0 -2.6875 0.90625 -5.0625q0.921875 -2.375 2.640625 -4.171875q1.734375 -1.796875 4.203125 -2.84375q2.46875 -1.0625 5.546875 -1.0625q3.078125 0 5.5 1.0625q2.421875 1.046875 4.125 2.828125q1.703125 1.765625 2.59375 4.125q0.890625 2.34375 0.890625 4.890625q0 0.625 -0.03125 1.203125q-0.015625 0.578125 -0.125 0.953125l-19.4375 0q0.140625 1.484375 0.71875 2.640625q0.578125 1.15625 1.484375 1.96875q0.921875 0.8125 2.0625 1.25q1.15625 0.4375 2.40625 0.4375q1.921875 0 3.625 -0.9375q1.703125 -0.9375 2.328125 -2.46875l5.515625 1.53125q-1.390625 2.875 -4.4375 4.734375q-3.046875 1.84375 -7.265625 1.84375zm6.53125 -15.171875q-0.25 -2.828125 -2.09375 -4.53125q-1.84375 -1.703125 -4.484375 -1.703125q-1.296875 0 -2.4375 0.453125q-1.125 0.453125 -1.984375 1.265625q-0.859375 0.8125 -1.421875 1.96875q-0.546875 1.15625 -0.640625 2.546875l13.0625 0zm8.97081 2.109375q0 -2.640625 0.90625 -4.984375q0.921875 -2.359375 2.640625 -4.125q1.734375 -1.78125 4.171875 -2.828125q2.453125 -1.0625 5.53125 -1.0625q4.125 0 7.03125 1.78125q2.90625 1.765625 4.34375 4.640625l-6.28125 1.921875q-0.828125 -1.390625 -2.171875 -2.125q-1.34375 -0.75 -2.96875 -0.75q-1.390625 0 -2.59375 0.546875q-1.203125 0.546875 -2.09375 1.53125q-0.890625 0.984375 -1.390625 2.390625q-0.5 1.390625 -0.5 3.0625q0 1.6875 0.53125 3.078125q0.53125 1.390625 1.40625 2.40625q0.890625 1.0 2.09375 1.5625q1.203125 0.546875 2.546875 0.546875q1.71875 0 3.1875 -0.859375q1.46875 -0.875 2.046875 -2.125l6.28125 1.921875q-1.296875 2.875 -4.28125 4.703125q-2.96875 1.828125 -7.140625 1.828125q-3.078125 0 -5.53125 -1.046875q-2.4375 -1.0625 -4.171875 -2.859375q-1.71875 -1.8125 -2.65625 -4.1875q-0.9375 -2.375 -0.9375 -4.96875zm43.728302 11.28125q-1.296875 0.578125 -3.171875 1.15625q-1.875 0.578125 -3.9375 0.578125q-1.34375 0 -2.515625 -0.34375q-1.171875 -0.328125 -2.0625 -1.078125q-0.890625 -0.75 -1.421875 -1.921875q-0.515625 -1.171875 -0.515625 -2.859375l0 -14.4375l-3.3125 0l0 -4.953125l3.3125 0l0 -8.15625l6.421875 0l0 8.15625l5.28125 0l0 4.953125l-5.28125 0l0 12.28125q0 1.34375 0.6875 1.90625q0.703125 0.546875 1.71875 0.546875q1.0 0 1.953125 -0.328125q0.96875 -0.34375 1.546875 -0.59375l1.296875 5.09375zm3.3539124 1.296875l0 -25.15625l6.4375 0l0 25.15625l-6.4375 0zm0 -28.65625l0 -6.390625l6.4375 0l0 6.390625l-6.4375 0zm19.02127 28.65625l-9.265625 -25.15625l6.625 0l6.375 19.921875l6.4375 -19.921875l6.046875 0l-9.265625 25.15625l-6.953125 0zm31.242676 0.484375q-3.03125 0 -5.484375 -1.03125q-2.4375 -1.03125 -4.171875 -2.8125q-1.71875 -1.78125 -2.65625 -4.125q-0.9375 -2.359375 -0.9375 -4.953125q0 -2.6875 0.90625 -5.0625q0.921875 -2.375 2.640625 -4.171875q1.734375 -1.796875 4.203125 -2.84375q2.46875 -1.0625 5.546875 -1.0625q3.078125 0 5.5 1.0625q2.421875 1.046875 4.125 2.828125q1.703125 1.765625 2.59375 4.125q0.890625 2.34375 0.890625 4.890625q0 0.625 -0.03125 1.203125q-0.015625 0.578125 -0.125 0.953125l-19.4375 0q0.140625 1.484375 0.71875 2.640625q0.578125 1.15625 1.484375 1.96875q0.921875 0.8125 2.0625 1.25q1.15625 0.4375 2.40625 0.4375q1.921875 0 3.625 -0.9375q1.703125 -0.9375 2.328125 -2.46875l5.515625 1.53125q-1.390625 2.875 -4.4375 4.734375q-3.046875 1.84375 -7.265625 1.84375zm6.53125 -15.171875q-0.25 -2.828125 -2.09375 -4.53125q-1.84375 -1.703125 -4.484375 -1.703125q-1.296875 0 -2.4375 0.453125q-1.125 0.453125 -1.984375 1.265625q-0.859375 0.8125 -1.421875 1.96875q-0.546875 1.15625 -0.640625 2.546875l13.0625 0zm28.94397 15.171875q-1.828125 0 -3.421875 -0.59375q-1.578125 -0.609375 -2.734375 -1.6875q-1.140625 -1.078125 -1.796875 -2.515625q-0.640625 -1.453125 -0.640625 -3.171875q0 -1.78125 0.78125 -3.28125q0.796875 -1.515625 2.203125 -2.578125q1.421875 -1.0625 3.390625 -1.65625q1.96875 -0.59375 4.328125 -0.59375q1.671875 0 3.28125 0.28125q1.609375 0.28125 2.859375 0.8125l0 -1.4375q0 -2.5 -1.421875 -3.84375q-1.40625 -1.34375 -4.1875 -1.34375q-2.015625 0 -3.9375 0.71875q-1.921875 0.71875 -3.9375 2.125l-1.96875 -4.09375q4.84375 -3.203125 10.46875 -3.203125q5.421875 0 8.421875 2.671875q3.0 2.65625 3.0 7.6875l0 7.828125q0 1.0 0.359375 1.4375q0.359375 0.4375 1.171875 0.484375l0 5.46875q-1.625 0.34375 -2.828125 0.34375q-1.828125 0 -2.8125 -0.8125q-0.984375 -0.828125 -1.21875 -2.171875l-0.140625 -1.390625q-1.6875 2.203125 -4.09375 3.359375q-2.390625 1.15625 -5.125 1.15625zm1.8125 -4.703125q1.640625 0 3.09375 -0.578125q1.46875 -0.578125 2.28125 -1.546875q1.0625 -0.8125 1.0625 -1.8125l0 -2.890625q-1.15625 -0.421875 -2.5 -0.6875q-1.34375 -0.265625 -2.59375 -0.265625q-2.484375 0 -4.078125 1.125q-1.578125 1.125 -1.578125 2.859375q0 1.625 1.25 2.71875q1.25 1.078125 3.0625 1.078125zm33.942688 2.921875q-1.296875 0.578125 -3.171875 1.15625q-1.875 0.578125 -3.9375 0.578125q-1.34375 0 -2.515625 -0.34375q-1.171875 -0.328125 -2.0625 -1.078125q-0.890625 -0.75 -1.421875 -1.921875q-0.515625 -1.171875 -0.515625 -2.859375l0 -14.4375l-3.3125 0l0 -4.953125l3.3125 0l0 -8.15625l6.421875 0l0 8.15625l5.28125 0l0 4.953125l-5.28125 0l0 12.28125q0 1.34375 0.6875 1.90625q0.703125 0.546875 1.71875 0.546875q1.0 0 1.953125 -0.328125q0.96875 -0.34375 1.546875 -0.59375l1.296875 5.09375zm25.295776 1.78125q-2.59375 0 -4.796875 -1.0q-2.203125 -1.015625 -3.796875 -2.796875q-1.578125 -1.78125 -2.46875 -4.15625q-0.890625 -2.375 -0.890625 -5.109375q0 -2.734375 0.84375 -5.078125q0.84375 -2.359375 2.328125 -4.125q1.484375 -1.78125 3.546875 -2.78125q2.0625 -1.015625 4.515625 -1.015625q2.78125 0 5.015625 1.34375q2.234375 1.34375 3.484375 3.5l0 -14.3125l6.421875 0l0 27.65625q0 1.0 0.328125 1.4375q0.34375 0.4375 1.171875 0.484375l0 5.46875q-1.6875 0.34375 -2.75 0.34375q-1.71875 0 -2.828125 -0.859375q-1.09375 -0.875 -1.25 -2.265625l-0.140625 -1.59375q-1.390625 2.40625 -3.765625 3.640625q-2.375 1.21875 -4.96875 1.21875zm1.6875 -5.46875q0.90625 0 1.859375 -0.3125q0.96875 -0.3125 1.78125 -0.890625q0.8125 -0.578125 1.453125 -1.34375q0.65625 -0.765625 1.0 -1.6875l0 -6.0q-0.390625 -1.046875 -1.09375 -1.9375q-0.6875 -0.890625 -1.578125 -1.53125q-0.890625 -0.65625 -1.875 -1.03125q-0.984375 -0.390625 -1.9375 -0.390625q-1.4375 0 -2.671875 0.625q-1.21875 0.625 -2.078125 1.703125q-0.859375 1.078125 -1.34375 2.46875q-0.484375 1.390625 -0.484375 2.875q0 1.59375 0.53125 2.9375q0.53125 1.34375 1.4375 2.359375q0.90625 1.0 2.171875 1.578125q1.28125 0.578125 2.828125 0.578125zm30.522583 5.46875q-3.03125 0 -5.484375 -1.03125q-2.4375 -1.03125 -4.171875 -2.8125q-1.71875 -1.78125 -2.65625 -4.125q-0.9375 -2.359375 -0.9375 -4.953125q0 -2.6875 0.90625 -5.0625q0.921875 -2.375 2.640625 -4.171875q1.734375 -1.796875 4.203125 -2.84375q2.46875 -1.0625 5.546875 -1.0625q3.078125 0 5.5 1.0625q2.421875 1.046875 4.125 2.828125q1.703125 1.765625 2.59375 4.125q0.890625 2.34375 0.890625 4.890625q0 0.625 -0.03125 1.203125q-0.015625 0.578125 -0.125 0.953125l-19.4375 0q0.140625 1.484375 0.71875 2.640625q0.578125 1.15625 1.484375 1.96875q0.921875 0.8125 2.0625 1.25q1.15625 0.4375 2.40625 0.4375q1.921875 0 3.625 -0.9375q1.703125 -0.9375 2.328125 -2.46875l5.515625 1.53125q-1.390625 2.875 -4.4375 4.734375q-3.046875 1.84375 -7.265625 1.84375zm6.53125 -15.171875q-0.25 -2.828125 -2.09375 -4.53125q-1.84375 -1.703125 -4.484375 -1.703125q-1.296875 0 -2.4375 0.453125q-1.125 0.453125 -1.984375 1.265625q-0.859375 0.8125 -1.421875 1.96875q-0.546875 1.15625 -0.640625 2.546875l13.0625 0zm20.064575 15.171875q-3.171875 0 -6.203125 -1.0q-3.015625 -1.015625 -5.171875 -2.890625l2.390625 -4.03125q2.3125 1.625 4.484375 2.46875q2.1875 0.84375 4.34375 0.84375q1.921875 0 3.03125 -0.71875q1.109375 -0.71875 1.109375 -2.0625q0 -1.34375 -1.296875 -1.96875q-1.296875 -0.625 -4.234375 -1.4375q-2.4375 -0.671875 -4.171875 -1.296875q-1.734375 -0.625 -2.796875 -1.421875q-1.046875 -0.796875 -1.53125 -1.828125q-0.46875 -1.03125 -0.46875 -2.46875q0 -1.921875 0.734375 -3.453125q0.75 -1.53125 2.09375 -2.609375q1.34375 -1.09375 3.140625 -1.65625q1.8125 -0.578125 3.921875 -0.578125q2.828125 0 5.296875 0.8125q2.46875 0.8125 4.53125 2.640625l-2.578125 3.890625q-1.921875 -1.453125 -3.734375 -2.125q-1.796875 -0.671875 -3.5625 -0.671875q-1.640625 0 -2.75 0.671875q-1.09375 0.671875 -1.09375 2.171875q0 0.671875 0.265625 1.109375q0.265625 0.421875 0.828125 0.765625q0.578125 0.328125 1.515625 0.640625q0.9375 0.3125 2.328125 0.640625q2.59375 0.671875 4.4375 1.34375q1.859375 0.671875 3.03125 1.546875q1.171875 0.859375 1.71875 1.984375q0.5625 1.125 0.5625 2.71875q0 3.6875 -2.734375 5.828125q-2.734375 2.140625 -7.4375 2.140625zm12.762299 -13.0625q0 -2.640625 0.90625 -4.984375q0.921875 -2.359375 2.640625 -4.125q1.734375 -1.78125 4.171875 -2.828125q2.453125 -1.0625 5.53125 -1.0625q4.125 0 7.03125 1.78125q2.90625 1.765625 4.34375 4.640625l-6.28125 1.921875q-0.828125 -1.390625 -2.171875 -2.125q-1.34375 -0.75 -2.96875 -0.75q-1.390625 0 -2.59375 0.546875q-1.203125 0.546875 -2.09375 1.53125q-0.890625 0.984375 -1.390625 2.390625q-0.5 1.390625 -0.5 3.0625q0 1.6875 0.53125 3.078125q0.53125 1.390625 1.40625 2.40625q0.890625 1.0 2.09375 1.5625q1.203125 0.546875 2.546875 0.546875q1.71875 0 3.1875 -0.859375q1.46875 -0.875 2.046875 -2.125l6.28125 1.921875q-1.296875 2.875 -4.28125 4.703125q-2.96875 1.828125 -7.140625 1.828125q-3.078125 0 -5.53125 -1.046875q-2.4375 -1.0625 -4.171875 -2.859375q-1.71875 -1.8125 -2.65625 -4.1875q-0.9375 -2.375 -0.9375 -4.96875zm43.634552 -7.0q-2.9375 0.046875 -5.234375 1.125q-2.296875 1.078125 -3.3125 3.234375l0 15.21875l-6.4375 0l0 -25.15625l5.90625 0l0 5.375q0.671875 -1.296875 1.578125 -2.328125q0.921875 -1.03125 1.96875 -1.796875q1.0625 -0.765625 2.140625 -1.171875q1.078125 -0.40625 2.09375 -0.40625q0.53125 0 0.78125 0q0.265625 0 0.515625 0.046875l0 5.859375zm3.5916748 19.578125l0 -25.15625l6.4375 0l0 25.15625l-6.4375 0zm0 -28.65625l0 -6.390625l6.4375 0l0 6.390625l-6.4375 0zm26.55252 29.140625q-2.875 0 -5.140625 -1.296875q-2.25 -1.296875 -3.546875 -3.5625l0 4.375l-5.625 0l0 -35.046875l6.4375 0l0 14.3125q1.34375 -2.3125 3.53125 -3.578125q2.1875 -1.265625 5.109375 -1.265625q2.453125 0 4.46875 1.0625q2.015625 1.046875 3.46875 2.828125q1.46875 1.765625 2.25 4.171875q0.796875 2.390625 0.796875 5.03125q0 2.734375 -0.890625 5.09375q-0.875 2.34375 -2.46875 4.109375q-1.578125 1.75 -3.734375 2.765625q-2.15625 1.0 -4.65625 1.0zm-1.78125 -5.46875q1.53125 0 2.828125 -0.59375q1.296875 -0.609375 2.203125 -1.609375q0.921875 -1.015625 1.421875 -2.359375q0.515625 -1.34375 0.515625 -2.890625q0 -1.53125 -0.484375 -2.921875q-0.484375 -1.390625 -1.375 -2.4375q-0.875 -1.0625 -2.078125 -1.6875q-1.203125 -0.625 -2.640625 -0.625q-2.15625 0 -3.875 1.421875q-1.703125 1.40625 -2.609375 3.46875l0 6.0q0.34375 0.96875 0.984375 1.734375q0.640625 0.765625 1.453125 1.328125q0.828125 0.546875 1.78125 0.859375q0.96875 0.3125 1.875 0.3125zm17.900818 4.984375l0 -25.15625l6.4375305 0l0 25.15625l-6.4375305 0zm0 -28.65625l0 -6.390625l6.4375305 0l0 6.390625l-6.4375305 0zm35.61502 28.65625l-6.421875 0l0 -14.109375q0 -3.03125 -1.0625 -4.421875q-1.046875 -1.390625 -2.921875 -1.390625q-0.96875 0 -1.984375 0.390625q-1.0 0.375 -1.890625 1.078125q-0.875 0.6875 -1.59375 1.65625q-0.71875 0.953125 -1.0625 2.109375l0 14.6875l-6.4375 0l0 -25.15625l5.8125 0l0 4.65625q1.390625 -2.390625 4.03125 -3.734375q2.640625 -1.34375 5.953125 -1.34375q2.359375 0 3.84375 0.859375q1.484375 0.859375 2.296875 2.25q0.828125 1.390625 1.125 3.171875q0.3125 1.78125 0.3125 3.59375l0 15.703125zm15.460815 0.140625q-2.546875 0 -4.609375 -1.0q-2.0625 -1.015625 -3.578125 -2.765625q-1.5 -1.75 -2.328125 -4.046875q-0.8125 -2.3125 -0.8125 -4.90625q0 -2.734375 0.859375 -5.078125q0.875 -2.359375 2.40625 -4.125q1.53125 -1.78125 3.6875 -2.78125q2.171875 -1.015625 4.765625 -1.015625q2.921875 0 5.125 1.328125q2.21875 1.3125 3.65625 3.515625l0 -4.421875l5.609375 0l0 23.953125q0 2.78125 -1.0625 4.984375q-1.046875 2.21875 -2.890625 3.75q-1.84375 1.546875 -4.421875 2.359375q-2.5625 0.8125 -5.59375 0.8125q-4.125 0 -6.9375 -1.375q-2.796875 -1.359375 -4.8125 -3.859375l3.5 -3.40625q1.4375 1.78125 3.625 2.78125q2.1875 1.015625 4.625 1.015625q1.5 0 2.859375 -0.40625q1.375 -0.40625 2.421875 -1.28125q1.0625 -0.859375 1.65625 -2.203125q0.609375 -1.34375 0.609375 -3.171875l0 -3.171875q-1.25 2.171875 -3.515625 3.34375q-2.25 1.171875 -4.84375 1.171875zm2.15625 -5.125q1.0625 0 2.015625 -0.328125q0.96875 -0.34375 1.78125 -0.921875q0.8125 -0.578125 1.4375 -1.34375q0.625 -0.78125 0.96875 -1.640625l0 -6.0q-0.875 -2.203125 -2.71875 -3.546875q-1.84375 -1.34375 -3.859375 -1.34375q-1.484375 0 -2.6875 0.65625q-1.203125 0.640625 -2.078125 1.71875q-0.859375 1.078125 -1.3125 2.46875q-0.453125 1.390625 -0.453125 2.875q0 1.546875 0.53125 2.890625q0.53125 1.34375 1.453125 2.359375q0.9375 1.0 2.1875 1.578125q1.25 0.578125 2.734375 0.578125zm45.030212 3.6875q-1.296875 0.578125 -3.171875 1.15625q-1.875 0.578125 -3.9375 0.578125q-1.34375 0 -2.515625 -0.34375q-1.171875 -0.328125 -2.0625 -1.078125q-0.890625 -0.75 -1.421875 -1.921875q-0.515625 -1.171875 -0.515625 -2.859375l0 -14.4375l-3.3125 0l0 -4.953125l3.3125 0l0 -8.15625l6.421875 0l0 8.15625l5.28125 0l0 4.953125l-5.28125 0l0 12.28125q0 1.34375 0.6875 1.90625q0.703125 0.546875 1.71875 0.546875q1.0 0 1.953125 -0.328125q0.96875 -0.34375 1.546875 -0.59375l1.296875 5.09375zm26.728882 1.296875l-6.421875 0l0 -14.109375q0 -2.984375 -1.109375 -4.390625q-1.109375 -1.421875 -3.125 -1.421875q-0.859375 0 -1.828125 0.390625q-0.953125 0.375 -1.8125 1.078125q-0.859375 0.6875 -1.578125 1.65625q-0.71875 0.953125 -1.0625 2.109375l0 14.6875l-6.4375 0l0 -35.046875l6.4375 0l0 14.546875q1.390625 -2.4375 3.765625 -3.75q2.375 -1.328125 5.265625 -1.328125q2.4375 0 3.96875 0.84375q1.546875 0.828125 2.40625 2.21875q0.859375 1.390625 1.1875 3.171875q0.34375 1.78125 0.34375 3.640625l0 15.703125zm17.28894 0.484375q-3.03125 0 -5.484375 -1.03125q-2.4375 -1.03125 -4.171875 -2.8125q-1.71875 -1.78125 -2.65625 -4.125q-0.9375 -2.359375 -0.9375 -4.953125q0 -2.6875 0.90625 -5.0625q0.921875 -2.375 2.640625 -4.171875q1.734375 -1.796875 4.203125 -2.84375q2.46875 -1.0625 5.546875 -1.0625q3.078125 0 5.5 1.0625q2.421875 1.046875 4.125 2.828125q1.703125 1.765625 2.59375 4.125q0.890625 2.34375 0.890625 4.890625q0 0.625 -0.03125 1.203125q-0.015625 0.578125 -0.125 0.953125l-19.4375 0q0.140625 1.484375 0.71875 2.640625q0.578125 1.15625 1.484375 1.96875q0.921875 0.8125 2.0625 1.25q1.15625 0.4375 2.40625 0.4375q1.921875 0 3.625 -0.9375q1.703125 -0.9375 2.328125 -2.46875l5.515625 1.53125q-1.390625 2.875 -4.4375 4.734375q-3.046875 1.84375 -7.265625 1.84375zm6.53125 -15.171875q-0.25 -2.828125 -2.09375 -4.53125q-1.84375 -1.703125 -4.484375 -1.703125q-1.296875 0 -2.4375 0.453125q-1.125 0.453125 -1.984375 1.265625q-0.859375 0.8125 -1.421875 1.96875q-0.546875 1.15625 -0.640625 2.546875l13.0625 0zm29.75647 15.171875q-3.890625 0 -5.90625 -2.5q-2.015625 -2.5 -2.015625 -7.390625l0 -15.75l6.4375 0l0 14.359375q0 5.8125 4.171875 5.8125q1.875 0 3.625 -1.125q1.75 -1.140625 2.859375 -3.4375l0 -15.609375l6.421875 0l0 17.765625q0 1.0 0.359375 1.4375q0.359375 0.4375 1.1875 0.484375l0 5.46875q-0.96875 0.1875 -1.625 0.234375q-0.640625 0.046875 -1.171875 0.046875q-1.71875 0 -2.796875 -0.78125q-1.078125 -0.796875 -1.28125 -2.1875l-0.140625 -2.015625q-1.671875 2.59375 -4.3125 3.890625q-2.640625 1.296875 -5.8125 1.296875zm45.351562 -0.484375l-6.421875 0l0 -14.109375q0 -3.03125 -1.0625 -4.421875q-1.046875 -1.390625 -2.921875 -1.390625q-0.96875 0 -1.984375 0.390625q-1.0 0.375 -1.890625 1.078125q-0.875 0.6875 -1.59375 1.65625q-0.71875 0.953125 -1.0625 2.109375l0 14.6875l-6.4375 0l0 -25.15625l5.8125 0l0 4.65625q1.390625 -2.390625 4.03125 -3.734375q2.640625 -1.34375 5.953125 -1.34375q2.359375 0 3.84375 0.859375q1.484375 0.859375 2.296875 2.25q0.828125 1.390625 1.125 3.171875q0.3125 1.78125 0.3125 3.59375l0 15.703125zm5.6170654 0l0 -25.15625l6.4375 0l0 25.15625l-6.4375 0zm0 -28.65625l0 -6.390625l6.4375 0l0 6.390625l-6.4375 0zm19.02124 28.65625l-9.265625 -25.15625l6.625 0l6.375 19.921875l6.4375 -19.921875l6.046875 0l-9.265625 25.15625l-6.953125 0zm31.242676 0.484375q-3.03125 0 -5.484375 -1.03125q-2.4375 -1.03125 -4.171875 -2.8125q-1.71875 -1.78125 -2.65625 -4.125q-0.9375 -2.359375 -0.9375 -4.953125q0 -2.6875 0.90625 -5.0625q0.921875 -2.375 2.640625 -4.171875q1.734375 -1.796875 4.203125 -2.84375q2.46875 -1.0625 5.546875 -1.0625q3.078125 0 5.5 1.0625q2.421875 1.046875 4.125 2.828125q1.703125 1.765625 2.59375 4.125q0.890625 2.34375 0.890625 4.890625q0 0.625 -0.03125 1.203125q-0.015625 0.578125 -0.125 0.953125l-19.4375 0q0.140625 1.484375 0.71875 2.640625q0.578125 1.15625 1.484375 1.96875q0.921875 0.8125 2.0625 1.25q1.15625 0.4375 2.40625 0.4375q1.921875 0 3.625 -0.9375q1.703125 -0.9375 2.328125 -2.46875l5.515625 1.53125q-1.390625 2.875 -4.4375 4.734375q-3.046875 1.84375 -7.265625 1.84375zm6.53125 -15.171875q-0.25 -2.828125 -2.09375 -4.53125q-1.84375 -1.703125 -4.484375 -1.703125q-1.296875 0 -2.4375 0.453125q-1.125 0.453125 -1.984375 1.265625q-0.859375 0.8125 -1.421875 1.96875q-0.546875 1.15625 -0.640625 2.546875l13.0625 0zm25.533325 -4.890625q-2.9375 0.046875 -5.234375 1.125q-2.296875 1.078125 -3.3125 3.234375l0 15.21875l-6.4375 0l0 -25.15625l5.90625 0l0 5.375q0.671875 -1.296875 1.578125 -2.328125q0.921875 -1.03125 1.96875 -1.796875q1.0625 -0.765625 2.140625 -1.171875q1.078125 -0.40625 2.09375 -0.40625q0.53125 0 0.78125 0q0.265625 0 0.515625 0.046875l0 5.859375zm13.1073 20.0625q-3.171875 0 -6.203125 -1.0q-3.015625 -1.015625 -5.171875 -2.890625l2.390625 -4.03125q2.3125 1.625 4.484375 2.46875q2.1875 0.84375 4.34375 0.84375q1.921875 0 3.03125 -0.71875q1.109375 -0.71875 1.109375 -2.0625q0 -1.34375 -1.296875 -1.96875q-1.296875 -0.625 -4.234375 -1.4375q-2.4375 -0.671875 -4.171875 -1.296875q-1.734375 -0.625 -2.796875 -1.421875q-1.046875 -0.796875 -1.53125 -1.828125q-0.46875 -1.03125 -0.46875 -2.46875q0 -1.921875 0.734375 -3.453125q0.75 -1.53125 2.09375 -2.609375q1.34375 -1.09375 3.140625 -1.65625q1.8125 -0.578125 3.921875 -0.578125q2.828125 0 5.296875 0.8125q2.46875 0.8125 4.53125 2.640625l-2.578125 3.890625q-1.921875 -1.453125 -3.734375 -2.125q-1.796875 -0.671875 -3.5625 -0.671875q-1.640625 0 -2.75 0.671875q-1.09375 0.671875 -1.09375 2.171875q0 0.671875 0.265625 1.109375q0.265625 0.421875 0.828125 0.765625q0.578125 0.328125 1.515625 0.640625q0.9375 0.3125 2.328125 0.640625q2.59375 0.671875 4.4375 1.34375q1.859375 0.671875 3.03125 1.546875q1.171875 0.859375 1.71875 1.984375q0.5625 1.125 0.5625 2.71875q0 3.6875 -2.734375 5.828125q-2.734375 2.140625 -7.4375 2.140625zm26.01233 0q-3.03125 0 -5.484375 -1.03125q-2.4375 -1.03125 -4.171875 -2.8125q-1.71875 -1.78125 -2.65625 -4.125q-0.9375 -2.359375 -0.9375 -4.953125q0 -2.6875 0.90625 -5.0625q0.921875 -2.375 2.640625 -4.171875q1.734375 -1.796875 4.203125 -2.84375q2.46875 -1.0625 5.546875 -1.0625q3.078125 0 5.5 1.0625q2.421875 1.046875 4.125 2.828125q1.703125 1.765625 2.59375 4.125q0.890625 2.34375 0.890625 4.890625q0 0.625 -0.03125 1.203125q-0.015625 0.578125 -0.125 0.953125l-19.4375 0q0.140625 1.484375 0.71875 2.640625q0.578125 1.15625 1.484375 1.96875q0.921875 0.8125 2.0625 1.25q1.15625 0.4375 2.40625 0.4375q1.921875 0 3.625 -0.9375q1.703125 -0.9375 2.328125 -2.46875l5.515625 1.53125q-1.390625 2.875 -4.4375 4.734375q-3.046875 1.84375 -7.265625 1.84375zm6.53125 -15.171875q-0.25 -2.828125 -2.09375 -4.53125q-1.84375 -1.703125 -4.484375 -1.703125q-1.296875 0 -2.4375 0.453125q-1.125 0.453125 -1.984375 1.265625q-0.859375 0.8125 -1.421875 1.96875q-0.546875 1.15625 -0.640625 2.546875l13.0625 0z" fill-rule="nonzero"/><path fill="#000000" fill-opacity="0.0" d="m68.81628 300.43045l859.1811 0l0 127.49606l-859.1811 0z" fill-rule="evenodd"/><path fill="#ffffff" d="m95.05065 349.49088q-2.875 0 -5.140625 -1.296875q-2.25 -1.296875 -3.546875 -3.5625l0 4.375l-5.625 0l0 -35.046875l6.4375 0l0 14.3125q1.34375 -2.3125 3.53125 -3.578125q2.1875 -1.265625 5.109375 -1.265625q2.453125 0 4.46875 1.0625q2.015625 1.046875 3.46875 2.828125q1.46875 1.765625 2.25 4.171875q0.796875 2.390625 0.796875 5.03125q0 2.734375 -0.890625 5.09375q-0.875 2.34375 -2.46875 4.109375q-1.578125 1.75 -3.734375 2.765625q-2.15625 1.0 -4.65625 1.0zm-1.78125 -5.46875q1.53125 0 2.828125 -0.59375q1.296875 -0.609375 2.203125 -1.609375q0.921875 -1.015625 1.421875 -2.359375q0.515625 -1.34375 0.515625 -2.890625q0 -1.53125 -0.484375 -2.921875q-0.484375 -1.390625 -1.375 -2.4375q-0.875 -1.0625 -2.078125 -1.6875q-1.203125 -0.625 -2.640625 -0.625q-2.15625 0 -3.875 1.421875q-1.703125 1.40625 -2.609375 3.46875l0 6.0q0.34375 0.96875 0.984375 1.734375q0.640625 0.765625 1.453125 1.328125q0.828125 0.546875 1.78125 0.859375q0.96875 0.3125 1.875 0.3125zm29.572693 5.46875q-3.03125 0 -5.484375 -1.03125q-2.4375 -1.03125 -4.171875 -2.8125q-1.71875 -1.78125 -2.65625 -4.125q-0.9375 -2.359375 -0.9375 -4.953125q0 -2.6875 0.90625 -5.0625q0.921875 -2.375 2.640625 -4.171875q1.734375 -1.796875 4.203125 -2.84375q2.46875 -1.0625 5.546875 -1.0625q3.078125 0 5.4999924 1.0625q2.421875 1.046875 4.125 2.828125q1.703125 1.765625 2.59375 4.125q0.890625 2.34375 0.890625 4.890625q0 0.625 -0.03125 1.203125q-0.015625 0.578125 -0.125 0.953125l-19.437492 0q0.140625 1.484375 0.71875 2.640625q0.578125 1.15625 1.484375 1.96875q0.921875 0.8125 2.0625 1.25q1.15625 0.4375 2.40625 0.4375q1.921875 0 3.625 -0.9375q1.7031174 -0.9375 2.3281174 -2.46875l5.515625 1.53125q-1.390625 2.875 -4.4375 4.734375q-3.0468674 1.84375 -7.2656174 1.84375zm6.5312424 -15.171875q-0.25 -2.828125 -2.0937424 -4.53125q-1.84375 -1.703125 -4.484375 -1.703125q-1.296875 0 -2.4375 0.453125q-1.125 0.453125 -1.984375 1.265625q-0.859375 0.8125 -1.421875 1.96875q-0.546875 1.15625 -0.640625 2.546875l13.062492 0zm8.97081 2.109375q0 -2.640625 0.90625 -4.984375q0.921875 -2.359375 2.640625 -4.125q1.734375 -1.78125 4.171875 -2.828125q2.453125 -1.0625 5.53125 -1.0625q4.125 0 7.03125 1.78125q2.90625 1.765625 4.34375 4.640625l-6.28125 1.921875q-0.828125 -1.390625 -2.171875 -2.125q-1.34375 -0.75 -2.96875 -0.75q-1.390625 0 -2.59375 0.546875q-1.203125 0.546875 -2.09375 1.53125q-0.890625 0.984375 -1.390625 2.390625q-0.5 1.390625 -0.5 3.0625q0 1.6875 0.53125 3.078125q0.53125 1.390625 1.40625 2.40625q0.890625 1.0 2.09375 1.5625q1.203125 0.546875 2.546875 0.546875q1.71875 0 3.1875 -0.859375q1.46875 -0.875 2.046875 -2.125l6.28125 1.921875q-1.296875 2.875 -4.28125 4.703125q-2.96875 1.828125 -7.140625 1.828125q-3.078125 0 -5.53125 -1.046875q-2.4375 -1.0625 -4.171875 -2.859375q-1.71875 -1.8125 -2.65625 -4.1875q-0.9375 -2.375 -0.9375 -4.96875zm35.525177 13.0625q-1.828125 0 -3.421875 -0.59375q-1.578125 -0.609375 -2.734375 -1.6875q-1.140625 -1.078125 -1.796875 -2.515625q-0.640625 -1.453125 -0.640625 -3.171875q0 -1.78125 0.78125 -3.28125q0.796875 -1.515625 2.203125 -2.578125q1.421875 -1.0625 3.390625 -1.65625q1.96875 -0.59375 4.328125 -0.59375q1.671875 0 3.28125 0.28125q1.609375 0.28125 2.859375 0.8125l0 -1.4375q0 -2.5 -1.421875 -3.84375q-1.40625 -1.34375 -4.1875 -1.34375q-2.015625 0 -3.9375 0.71875q-1.921875 0.71875 -3.9375 2.125l-1.96875 -4.09375q4.84375 -3.203125 10.46875 -3.203125q5.421875 0 8.421875 2.671875q3.0 2.65625 3.0 7.6875l0 7.828125q0 1.0 0.359375 1.4375q0.359375 0.4375 1.171875 0.484375l0 5.46875q-1.625 0.34375 -2.828125 0.34375q-1.828125 0 -2.8125 -0.8125q-0.984375 -0.828125 -1.21875 -2.171875l-0.140625 -1.390625q-1.6875 2.203125 -4.09375 3.359375q-2.390625 1.15625 -5.125 1.15625zm1.8125 -4.703125q1.640625 0 3.09375 -0.578125q1.46875 -0.578125 2.28125 -1.546875q1.0625 -0.8125 1.0625 -1.8125l0 -2.890625q-1.15625 -0.421875 -2.5 -0.6875q-1.34375 -0.265625 -2.59375 -0.265625q-2.484375 0 -4.078125 1.125q-1.578125 1.125 -1.578125 2.859375q0 1.625 1.25 2.71875q1.25 1.078125 3.0625 1.078125zm26.552063 4.703125q-3.890625 0 -5.90625 -2.5q-2.015625 -2.5 -2.015625 -7.390625l0 -15.75l6.4375 0l0 14.359375q0 5.8125 4.171875 5.8125q1.875 0 3.625 -1.125q1.75 -1.140625 2.859375 -3.4375l0 -15.609375l6.421875 0l0 17.765625q0 1.0 0.359375 1.4375q0.359375 0.4375 1.1875 0.484375l0 5.46875q-0.96875 0.1875 -1.625 0.234375q-0.640625 0.046875 -1.171875 0.046875q-1.71875 0 -2.796875 -0.78125q-1.078125 -0.796875 -1.28125 -2.1875l-0.140625 -2.015625q-1.671875 2.59375 -4.3125 3.890625q-2.640625 1.296875 -5.8125 1.296875zm31.492188 0q-3.171875 0 -6.203125 -1.0q-3.015625 -1.015625 -5.171875 -2.890625l2.390625 -4.03125q2.3125 1.625 4.484375 2.46875q2.1875 0.84375 4.34375 0.84375q1.921875 0 3.03125 -0.71875q1.109375 -0.71875 1.109375 -2.0625q0 -1.34375 -1.296875 -1.96875q-1.296875 -0.625 -4.234375 -1.4375q-2.4375 -0.671875 -4.171875 -1.296875q-1.734375 -0.625 -2.796875 -1.421875q-1.046875 -0.796875 -1.53125 -1.828125q-0.46875 -1.03125 -0.46875 -2.46875q0 -1.921875 0.734375 -3.453125q0.75 -1.53125 2.09375 -2.609375q1.34375 -1.09375 3.140625 -1.65625q1.8125 -0.578125 3.921875 -0.578125q2.828125 0 5.296875 0.8125q2.46875 0.8125 4.53125 2.640625l-2.578125 3.890625q-1.921875 -1.453125 -3.734375 -2.125q-1.796875 -0.671875 -3.5625 -0.671875q-1.640625 0 -2.75 0.671875q-1.09375 0.671875 -1.09375 2.171875q0 0.671875 0.265625 1.109375q0.265625 0.421875 0.828125 0.765625q0.578125 0.328125 1.515625 0.640625q0.9375 0.3125 2.328125 0.640625q2.59375 0.671875 4.4375 1.34375q1.859375 0.671875 3.03125 1.546875q1.171875 0.859375 1.71875 1.984375q0.5625 1.125 0.5625 2.71875q0 3.6875 -2.734375 5.828125q-2.734375 2.140625 -7.4375 2.140625zm26.012299 0q-3.03125 0 -5.484375 -1.03125q-2.4375 -1.03125 -4.171875 -2.8125q-1.71875 -1.78125 -2.65625 -4.125q-0.9375 -2.359375 -0.9375 -4.953125q0 -2.6875 0.90625 -5.0625q0.921875 -2.375 2.640625 -4.171875q1.734375 -1.796875 4.203125 -2.84375q2.46875 -1.0625 5.546875 -1.0625q3.078125 0 5.5 1.0625q2.421875 1.046875 4.125 2.828125q1.703125 1.765625 2.59375 4.125q0.890625 2.34375 0.890625 4.890625q0 0.625 -0.03125 1.203125q-0.015625 0.578125 -0.125 0.953125l-19.4375 0q0.140625 1.484375 0.71875 2.640625q0.578125 1.15625 1.484375 1.96875q0.921875 0.8125 2.0625 1.25q1.15625 0.4375 2.40625 0.4375q1.921875 0 3.625 -0.9375q1.703125 -0.9375 2.328125 -2.46875l5.515625 1.53125q-1.390625 2.875 -4.4375 4.734375q-3.046875 1.84375 -7.265625 1.84375zm6.53125 -15.171875q-0.25 -2.828125 -2.09375 -4.53125q-1.84375 -1.703125 -4.484375 -1.703125q-1.296875 0 -2.4375 0.453125q-1.125 0.453125 -1.984375 1.265625q-0.859375 0.8125 -1.421875 1.96875q-0.546875 1.15625 -0.640625 2.546875l13.0625 0zm33.69397 15.171875q-3.078125 0 -5.53125 -1.046875q-2.4375 -1.0625 -4.140625 -2.859375q-1.703125 -1.8125 -2.625 -4.15625q-0.90625 -2.359375 -0.90625 -4.953125q0 -2.640625 0.90625 -4.984375q0.921875 -2.359375 2.625 -4.15625q1.703125 -1.796875 4.140625 -2.84375q2.453125 -1.0625 5.53125 -1.0625q3.0625 0 5.484375 1.0625q2.4375 1.046875 4.140625 2.84375q1.703125 1.796875 2.609375 4.15625q0.921875 2.34375 0.921875 4.984375q0 2.59375 -0.921875 4.953125q-0.90625 2.34375 -2.59375 4.15625q-1.671875 1.796875 -4.125 2.859375q-2.453125 1.046875 -5.515625 1.046875zm-6.578125 -13.015625q0 1.6875 0.5 3.0625q0.5 1.359375 1.390625 2.375q0.890625 1.0 2.09375 1.5625q1.203125 0.546875 2.59375 0.546875q1.390625 0 2.59375 -0.546875q1.203125 -0.5625 2.078125 -1.5625q0.890625 -1.015625 1.390625 -2.40625q0.515625 -1.390625 0.515625 -3.078125q0 -1.625 -0.515625 -3.015625q-0.5 -1.390625 -1.390625 -2.40625q-0.875 -1.015625 -2.078125 -1.5625q-1.203125 -0.546875 -2.59375 -0.546875q-1.390625 0 -2.59375 0.578125q-1.203125 0.578125 -2.09375 1.59375q-0.890625 1.0 -1.390625 2.390625q-0.5 1.390625 -0.5 3.015625zm31.728668 13.015625q-3.890625 0 -5.90625 -2.5q-2.015625 -2.5 -2.015625 -7.390625l0 -15.75l6.4375 0l0 14.359375q0 5.8125 4.171875 5.8125q1.875 0 3.625 -1.125q1.75 -1.140625 2.859375 -3.4375l0 -15.609375l6.421875 0l0 17.765625q0 1.0 0.359375 1.4375q0.359375 0.4375 1.1875 0.484375l0 5.46875q-0.96875 0.1875 -1.625 0.234375q-0.640625 0.046875 -1.171875 0.046875q-1.71875 0 -2.796875 -0.78125q-1.078125 -0.796875 -1.28125 -2.1875l-0.140625 -2.015625q-1.671875 2.59375 -4.3125 3.890625q-2.640625 1.296875 -5.8125 1.296875zm36.960938 -20.0625q-2.9375 0.046875 -5.234375 1.125q-2.296875 1.078125 -3.3125 3.234375l0 15.21875l-6.4375 0l0 -25.15625l5.90625 0l0 5.375q0.671875 -1.296875 1.578125 -2.328125q0.921875 -1.03125 1.96875 -1.796875q1.0625 -0.765625 2.140625 -1.171875q1.078125 -0.40625 2.09375 -0.40625q0.53125 0 0.78125 0q0.265625 0 0.515625 0.046875l0 5.859375zm29.424194 20.0625q-2.875 0 -5.140625 -1.296875q-2.25 -1.296875 -3.546875 -3.5625l0 4.375l-5.625 0l0 -35.046875l6.4375 0l0 14.3125q1.34375 -2.3125 3.53125 -3.578125q2.1875 -1.265625 5.109375 -1.265625q2.453125 0 4.46875 1.0625q2.015625 1.046875 3.46875 2.828125q1.46875 1.765625 2.25 4.171875q0.796875 2.390625 0.796875 5.03125q0 2.734375 -0.890625 5.09375q-0.875 2.34375 -2.46875 4.109375q-1.578125 1.75 -3.734375 2.765625q-2.15625 1.0 -4.65625 1.0zm-1.78125 -5.46875q1.53125 0 2.828125 -0.59375q1.296875 -0.609375 2.203125 -1.609375q0.921875 -1.015625 1.421875 -2.359375q0.515625 -1.34375 0.515625 -2.890625q0 -1.53125 -0.484375 -2.921875q-0.484375 -1.390625 -1.375 -2.4375q-0.875 -1.0625 -2.078125 -1.6875q-1.203125 -0.625 -2.640625 -0.625q-2.15625 0 -3.875 1.421875q-1.703125 1.40625 -2.609375 3.46875l0 6.0q0.34375 0.96875 0.984375 1.734375q0.640625 0.765625 1.453125 1.328125q0.828125 0.546875 1.78125 0.859375q0.96875 0.3125 1.875 0.3125zm32.885193 -14.59375q-2.9375 0.046875 -5.234375 1.125q-2.296875 1.078125 -3.3125 3.234375l0 15.21875l-6.4375 0l0 -25.15625l5.90625 0l0 5.375q0.671875 -1.296875 1.578125 -2.328125q0.921875 -1.03125 1.96875 -1.796875q1.0625 -0.765625 2.140625 -1.171875q1.078125 -0.40625 2.09375 -0.40625q0.53125 0 0.78125 0q0.265625 0 0.515625 0.046875l0 5.859375zm10.466675 20.0625q-1.828125 0 -3.421875 -0.59375q-1.578125 -0.609375 -2.734375 -1.6875q-1.140625 -1.078125 -1.796875 -2.515625q-0.640625 -1.453125 -0.640625 -3.171875q0 -1.78125 0.78125 -3.28125q0.796875 -1.515625 2.203125 -2.578125q1.421875 -1.0625 3.390625 -1.65625q1.96875 -0.59375 4.328125 -0.59375q1.671875 0 3.28125 0.28125q1.609375 0.28125 2.859375 0.8125l0 -1.4375q0 -2.5 -1.421875 -3.84375q-1.40625 -1.34375 -4.1875 -1.34375q-2.015625 0 -3.9375 0.71875q-1.921875 0.71875 -3.9375 2.125l-1.96875 -4.09375q4.84375 -3.203125 10.46875 -3.203125q5.421875 0 8.421875 2.671875q3.0 2.65625 3.0 7.6875l0 7.828125q0 1.0 0.359375 1.4375q0.359375 0.4375 1.171875 0.484375l0 5.46875q-1.625 0.34375 -2.828125 0.34375q-1.828125 0 -2.8125 -0.8125q-0.984375 -0.828125 -1.21875 -2.171875l-0.140625 -1.390625q-1.6875 2.203125 -4.09375 3.359375q-2.390625 1.15625 -5.125 1.15625zm1.8125 -4.703125q1.640625 0 3.09375 -0.578125q1.46875 -0.578125 2.28125 -1.546875q1.0625 -0.8125 1.0625 -1.8125l0 -2.890625q-1.15625 -0.421875 -2.5 -0.6875q-1.34375 -0.265625 -2.59375 -0.265625q-2.484375 0 -4.078125 1.125q-1.578125 1.125 -1.578125 2.859375q0 1.625 1.25 2.71875q1.25 1.078125 3.0625 1.078125zm18.864563 4.21875l0 -25.15625l6.4375 0l0 25.15625l-6.4375 0zm0 -28.65625l0 -6.390625l6.4375 0l0 6.390625l-6.4375 0zm35.61502 28.65625l-6.421875 0l0 -14.109375q0 -3.03125 -1.0625 -4.421875q-1.046875 -1.390625 -2.921875 -1.390625q-0.96875 0 -1.984375 0.390625q-1.0 0.375 -1.890625 1.078125q-0.875 0.6875 -1.59375 1.65625q-0.71875 0.953125 -1.0625 2.109375l0 14.6875l-6.4375 0l0 -25.15625l5.8125 0l0 4.65625q1.390625 -2.390625 4.03125 -3.734375q2.640625 -1.34375 5.953125 -1.34375q2.359375 0 3.84375 0.859375q1.484375 0.859375 2.296875 2.25q0.828125 1.390625 1.125 3.171875q0.3125 1.78125 0.3125 3.59375l0 15.703125zm15.13269 0.484375q-3.171875 0 -6.203125 -1.0q-3.015625 -1.015625 -5.171875 -2.890625l2.390625 -4.03125q2.3125 1.625 4.484375 2.46875q2.1875 0.84375 4.34375 0.84375q1.921875 0 3.03125 -0.71875q1.109375 -0.71875 1.109375 -2.0625q0 -1.34375 -1.296875 -1.96875q-1.296875 -0.625 -4.234375 -1.4375q-2.4375 -0.671875 -4.171875 -1.296875q-1.734375 -0.625 -2.796875 -1.421875q-1.046875 -0.796875 -1.53125 -1.828125q-0.46875 -1.03125 -0.46875 -2.46875q0 -1.921875 0.734375 -3.453125q0.75 -1.53125 2.09375 -2.609375q1.34375 -1.09375 3.140625 -1.65625q1.8125 -0.578125 3.921875 -0.578125q2.828125 0 5.296875 0.8125q2.46875 0.8125 4.5312195 2.640625l-2.5780945 3.890625q-1.921875 -1.453125 -3.734375 -2.125q-1.796875 -0.671875 -3.5625 -0.671875q-1.640625 0 -2.75 0.671875q-1.09375 0.671875 -1.09375 2.171875q0 0.671875 0.265625 1.109375q0.265625 0.421875 0.828125 0.765625q0.578125 0.328125 1.515625 0.640625q0.9375 0.3125 2.328125 0.640625q2.59375 0.671875 4.4375 1.34375q1.859375 0.671875 3.0312195 1.546875q1.171875 0.859375 1.71875 1.984375q0.5625 1.125 0.5625 2.71875q0 3.6875 -2.7343445 5.828125q-2.734375 2.140625 -7.4375 2.140625zm32.735443 0q-1.828125 0 -3.421875 -0.59375q-1.578125 -0.609375 -2.734375 -1.6875q-1.140625 -1.078125 -1.796875 -2.515625q-0.640625 -1.453125 -0.640625 -3.171875q0 -1.78125 0.78125 -3.28125q0.796875 -1.515625 2.203125 -2.578125q1.421875 -1.0625 3.390625 -1.65625q1.96875 -0.59375 4.328125 -0.59375q1.671875 0 3.28125 0.28125q1.609375 0.28125 2.859375 0.8125l0 -1.4375q0 -2.5 -1.421875 -3.84375q-1.40625 -1.34375 -4.1875 -1.34375q-2.015625 0 -3.9375 0.71875q-1.921875 0.71875 -3.9375 2.125l-1.96875 -4.09375q4.84375 -3.203125 10.46875 -3.203125q5.421875 0 8.421875 2.671875q3.0 2.65625 3.0 7.6875l0 7.828125q0 1.0 0.359375 1.4375q0.359375 0.4375 1.171875 0.484375l0 5.46875q-1.625 0.34375 -2.828125 0.34375q-1.828125 0 -2.8125 -0.8125q-0.984375 -0.828125 -1.21875 -2.171875l-0.140625 -1.390625q-1.6875 2.203125 -4.09375 3.359375q-2.390625 1.15625 -5.125 1.15625zm1.8125 -4.703125q1.640625 0 3.09375 -0.578125q1.46875 -0.578125 2.28125 -1.546875q1.0625 -0.8125 1.0625 -1.8125l0 -2.890625q-1.15625 -0.421875 -2.5 -0.6875q-1.34375 -0.265625 -2.59375 -0.265625q-2.484375 0 -4.078125 1.125q-1.578125 1.125 -1.578125 2.859375q0 1.625 1.25 2.71875q1.25 1.078125 3.0625 1.078125zm33.848938 -15.359375q-2.9375 0.046875 -5.234375 1.125q-2.296875 1.078125 -3.3125 3.234375l0 15.21875l-6.4375 0l0 -25.15625l5.90625 0l0 5.375q0.671875 -1.296875 1.578125 -2.328125q0.921875 -1.03125 1.96875 -1.796875q1.0625 -0.765625 2.140625 -1.171875q1.078125 -0.40625 2.09375 -0.40625q0.53125 0 0.78125 0q0.265625 0 0.515625 0.046875l0 5.859375zm15.26355 20.0625q-3.03125 0 -5.484375 -1.03125q-2.4375 -1.03125 -4.171875 -2.8125q-1.71875 -1.78125 -2.65625 -4.125q-0.9375 -2.359375 -0.9375 -4.953125q0 -2.6875 0.90625 -5.0625q0.921875 -2.375 2.640625 -4.171875q1.734375 -1.796875 4.203125 -2.84375q2.46875 -1.0625 5.546875 -1.0625q3.078125 0 5.5 1.0625q2.421875 1.046875 4.125 2.828125q1.703125 1.765625 2.59375 4.125q0.890625 2.34375 0.890625 4.890625q0 0.625 -0.03125 1.203125q-0.015625 0.578125 -0.125 0.953125l-19.4375 0q0.140625 1.484375 0.71875 2.640625q0.578125 1.15625 1.484375 1.96875q0.921875 0.8125 2.0625 1.25q1.15625 0.4375 2.40625 0.4375q1.921875 0 3.625 -0.9375q1.703125 -0.9375 2.328125 -2.46875l5.515625 1.53125q-1.390625 2.875 -4.4375 4.734375q-3.046875 1.84375 -7.265625 1.84375zm6.53125 -15.171875q-0.25 -2.828125 -2.09375 -4.53125q-1.84375 -1.703125 -4.484375 -1.703125q-1.296875 0 -2.4375 0.453125q-1.125 0.453125 -1.984375 1.265625q-0.859375 0.8125 -1.421875 1.96875q-0.546875 1.15625 -0.640625 2.546875l13.0625 0z" fill-rule="nonzero"/><path fill="#ffffff" d="m88.42565 407.49088q-3.890625 0 -5.90625 -2.5q-2.015625 -2.5 -2.015625 -7.390625l0 -15.75l6.4375 0l0 14.359375q0 5.8125 4.171875 5.8125q1.875 0 3.625 -1.125q1.75 -1.140625 2.859375 -3.4375l0 -15.609375l6.421875 0l0 17.765625q0 1.0 0.359375 1.4375q0.359375 0.4375 1.1875 0.484375l0 5.46875q-0.96875 0.1875 -1.625 0.234375q-0.640625 0.046875 -1.171875 0.046875q-1.71875 0 -2.796875 -0.78125q-1.078125 -0.796875 -1.28125 -2.1875l-0.140625 -2.015625q-1.671875 2.59375 -4.3125 3.890625q-2.640625 1.296875 -5.8125 1.296875zm45.351555 -0.484375l-6.4218674 0l0 -14.109375q0 -3.03125 -1.0625 -4.421875q-1.046875 -1.390625 -2.921875 -1.390625q-0.96875 0 -1.984375 0.390625q-1.0 0.375 -1.890625 1.078125q-0.875 0.6875 -1.59375 1.65625q-0.71875 0.953125 -1.0625 2.109375l0 14.6875l-6.4375 0l0 -25.15625l5.8125 0l0 4.65625q1.390625 -2.390625 4.03125 -3.734375q2.640625 -1.34375 5.953125 -1.34375q2.3593674 0 3.8437424 0.859375q1.484375 0.859375 2.296875 2.25q0.828125 1.390625 1.125 3.171875q0.3125 1.78125 0.3125 3.59375l0 15.703125zm20.60144 -19.578125q-2.9375 0.046875 -5.234375 1.125q-2.296875 1.078125 -3.3125 3.234375l0 15.21875l-6.4375 0l0 -25.15625l5.90625 0l0 5.375q0.671875 -1.296875 1.578125 -2.328125q0.921875 -1.03125 1.96875 -1.796875q1.0625 -0.765625 2.140625 -1.171875q1.078125 -0.40625 2.09375 -0.40625q0.53125 0 0.78125 0q0.265625 0 0.515625 0.046875l0 5.859375zm15.263535 20.0625q-3.03125 0 -5.484375 -1.03125q-2.4375 -1.03125 -4.171875 -2.8125q-1.71875 -1.78125 -2.65625 -4.125q-0.9375 -2.359375 -0.9375 -4.953125q0 -2.6875 0.90625 -5.0625q0.921875 -2.375 2.640625 -4.171875q1.734375 -1.796875 4.203125 -2.84375q2.46875 -1.0625 5.546875 -1.0625q3.078125 0 5.5 1.0625q2.421875 1.046875 4.125 2.828125q1.703125 1.765625 2.59375 4.125q0.890625 2.34375 0.890625 4.890625q0 0.625 -0.03125 1.203125q-0.015625 0.578125 -0.125 0.953125l-19.4375 0q0.140625 1.484375 0.71875 2.640625q0.578125 1.15625 1.484375 1.96875q0.921875 0.8125 2.0625 1.25q1.15625 0.4375 2.40625 0.4375q1.921875 0 3.625 -0.9375q1.703125 -0.9375 2.328125 -2.46875l5.515625 1.53125q-1.390625 2.875 -4.4375 4.734375q-3.046875 1.84375 -7.265625 1.84375zm6.53125 -15.171875q-0.25 -2.828125 -2.09375 -4.53125q-1.84375 -1.703125 -4.484375 -1.703125q-1.296875 0 -2.4375 0.453125q-1.125 0.453125 -1.984375 1.265625q-0.859375 0.8125 -1.421875 1.96875q-0.546875 1.15625 -0.640625 2.546875l13.0625 0zm17.423935 15.171875q-1.828125 0 -3.421875 -0.59375q-1.578125 -0.609375 -2.734375 -1.6875q-1.140625 -1.078125 -1.796875 -2.515625q-0.640625 -1.453125 -0.640625 -3.171875q0 -1.78125 0.78125 -3.28125q0.796875 -1.515625 2.203125 -2.578125q1.421875 -1.0625 3.390625 -1.65625q1.96875 -0.59375 4.328125 -0.59375q1.671875 0 3.28125 0.28125q1.609375 0.28125 2.859375 0.8125l0 -1.4375q0 -2.5 -1.421875 -3.84375q-1.40625 -1.34375 -4.1875 -1.34375q-2.015625 0 -3.9375 0.71875q-1.921875 0.71875 -3.9375 2.125l-1.96875 -4.09375q4.84375 -3.203125 10.46875 -3.203125q5.421875 0 8.421875 2.671875q3.0 2.65625 3.0 7.6875l0 7.828125q0 1.0 0.359375 1.4375q0.359375 0.4375 1.171875 0.484375l0 5.46875q-1.625 0.34375 -2.828125 0.34375q-1.828125 0 -2.8125 -0.8125q-0.984375 -0.828125 -1.21875 -2.171875l-0.140625 -1.390625q-1.6875 2.203125 -4.09375 3.359375q-2.390625 1.15625 -5.125 1.15625zm1.8125 -4.703125q1.640625 0 3.09375 -0.578125q1.46875 -0.578125 2.28125 -1.546875q1.0625 -0.8125 1.0625 -1.8125l0 -2.890625q-1.15625 -0.421875 -2.5 -0.6875q-1.34375 -0.265625 -2.59375 -0.265625q-2.484375 0 -4.078125 1.125q-1.578125 1.125 -1.578125 2.859375q0 1.625 1.25 2.71875q1.25 1.078125 3.0625 1.078125zm28.380188 4.703125q-3.171875 0 -6.203125 -1.0q-3.015625 -1.015625 -5.171875 -2.890625l2.390625 -4.03125q2.3125 1.625 4.484375 2.46875q2.1875 0.84375 4.34375 0.84375q1.921875 0 3.03125 -0.71875q1.109375 -0.71875 1.109375 -2.0625q0 -1.34375 -1.296875 -1.96875q-1.296875 -0.625 -4.234375 -1.4375q-2.4375 -0.671875 -4.171875 -1.296875q-1.734375 -0.625 -2.796875 -1.421875q-1.046875 -0.796875 -1.53125 -1.828125q-0.46875 -1.03125 -0.46875 -2.46875q0 -1.921875 0.734375 -3.453125q0.75 -1.53125 2.09375 -2.609375q1.34375 -1.09375 3.140625 -1.65625q1.8125 -0.578125 3.921875 -0.578125q2.828125 0 5.296875 0.8125q2.46875 0.8125 4.53125 2.640625l-2.578125 3.890625q-1.921875 -1.453125 -3.734375 -2.125q-1.796875 -0.671875 -3.5625 -0.671875q-1.640625 0 -2.75 0.671875q-1.09375 0.671875 -1.09375 2.171875q0 0.671875 0.265625 1.109375q0.265625 0.421875 0.828125 0.765625q0.578125 0.328125 1.515625 0.640625q0.9375 0.3125 2.328125 0.640625q2.59375 0.671875 4.4375 1.34375q1.859375 0.671875 3.03125 1.546875q1.171875 0.859375 1.71875 1.984375q0.5625 1.125 0.5625 2.71875q0 3.6875 -2.734375 5.828125q-2.734375 2.140625 -7.4375 2.140625zm25.965424 0q-3.078125 0 -5.53125 -1.046875q-2.4375 -1.0625 -4.140625 -2.859375q-1.703125 -1.8125 -2.625 -4.15625q-0.90625 -2.359375 -0.90625 -4.953125q0 -2.640625 0.90625 -4.984375q0.921875 -2.359375 2.625 -4.15625q1.703125 -1.796875 4.140625 -2.84375q2.453125 -1.0625 5.53125 -1.0625q3.0625 0 5.484375 1.0625q2.4375153 1.046875 4.1406403 2.84375q1.703125 1.796875 2.609375 4.15625q0.921875 2.34375 0.921875 4.984375q0 2.59375 -0.921875 4.953125q-0.90625 2.34375 -2.59375 4.15625q-1.671875 1.796875 -4.1250153 2.859375q-2.453125 1.046875 -5.515625 1.046875zm-6.578125 -13.015625q0 1.6875 0.5 3.0625q0.5 1.359375 1.390625 2.375q0.890625 1.0 2.09375 1.5625q1.203125 0.546875 2.59375 0.546875q1.390625 0 2.59375 -0.546875q1.203125 -0.5625 2.078125 -1.5625q0.890625 -1.015625 1.390625 -2.40625q0.51564026 -1.390625 0.51564026 -3.078125q0 -1.625 -0.51564026 -3.015625q-0.5 -1.390625 -1.390625 -2.40625q-0.875 -1.015625 -2.078125 -1.5625q-1.203125 -0.546875 -2.59375 -0.546875q-1.390625 0 -2.59375 0.578125q-1.203125 0.578125 -2.09375 1.59375q-0.890625 1.0 -1.390625 2.390625q-0.5 1.390625 -0.5 3.015625zm47.416183 12.53125l-6.421875 0l0 -14.109375q0 -3.03125 -1.0625 -4.421875q-1.046875 -1.390625 -2.921875 -1.390625q-0.96875 0 -1.984375 0.390625q-1.0 0.375 -1.890625 1.078125q-0.875 0.6875 -1.59375 1.65625q-0.71875 0.953125 -1.0625 2.109375l0 14.6875l-6.4375 0l0 -25.15625l5.8125 0l0 4.65625q1.390625 -2.390625 4.03125 -3.734375q2.640625 -1.34375 5.953125 -1.34375q2.359375 0 3.84375 0.859375q1.484375 0.859375 2.296875 2.25q0.828125 1.390625 1.125 3.171875q0.3125 1.78125 0.3125 3.59375l0 15.703125zm12.492065 0.484375q-1.828125 0 -3.421875 -0.59375q-1.578125 -0.609375 -2.734375 -1.6875q-1.140625 -1.078125 -1.796875 -2.515625q-0.640625 -1.453125 -0.640625 -3.171875q0 -1.78125 0.78125 -3.28125q0.796875 -1.515625 2.203125 -2.578125q1.421875 -1.0625 3.390625 -1.65625q1.96875 -0.59375 4.328125 -0.59375q1.671875 0 3.28125 0.28125q1.609375 0.28125 2.859375 0.8125l0 -1.4375q0 -2.5 -1.421875 -3.84375q-1.40625 -1.34375 -4.1875 -1.34375q-2.015625 0 -3.9375 0.71875q-1.921875 0.71875 -3.9375 2.125l-1.96875 -4.09375q4.84375 -3.203125 10.46875 -3.203125q5.421875 0 8.421875 2.671875q3.0 2.65625 3.0 7.6875l0 7.828125q0 1.0 0.359375 1.4375q0.359375 0.4375 1.171875 0.484375l0 5.46875q-1.625 0.34375 -2.828125 0.34375q-1.828125 0 -2.8125 -0.8125q-0.984375 -0.828125 -1.21875 -2.171875l-0.140625 -1.390625q-1.6875 2.203125 -4.09375 3.359375q-2.390625 1.15625 -5.125 1.15625zm1.8125 -4.703125q1.640625 0 3.09375 -0.578125q1.46875 -0.578125 2.28125 -1.546875q1.0625 -0.8125 1.0625 -1.8125l0 -2.890625q-1.15625 -0.421875 -2.5 -0.6875q-1.34375 -0.265625 -2.59375 -0.265625q-2.484375 0 -4.078125 1.125q-1.578125 1.125 -1.578125 2.859375q0 1.625 1.25 2.71875q1.25 1.078125 3.0625 1.078125zm33.177094 4.703125q-2.875 0 -5.140625 -1.296875q-2.25 -1.296875 -3.546875 -3.5625l0 4.375l-5.6250305 0l0 -35.046875l6.4375305 0l0 14.3125q1.34375 -2.3125 3.53125 -3.578125q2.1875 -1.265625 5.109375 -1.265625q2.453125 0 4.46875 1.0625q2.015625 1.046875 3.46875 2.828125q1.46875 1.765625 2.25 4.171875q0.796875 2.390625 0.796875 5.03125q0 2.734375 -0.890625 5.09375q-0.875 2.34375 -2.46875 4.109375q-1.578125 1.75 -3.734375 2.765625q-2.15625 1.0 -4.65625 1.0zm-1.78125 -5.46875q1.53125 0 2.828125 -0.59375q1.296875 -0.609375 2.203125 -1.609375q0.921875 -1.015625 1.421875 -2.359375q0.515625 -1.34375 0.515625 -2.890625q0 -1.53125 -0.484375 -2.921875q-0.484375 -1.390625 -1.375 -2.4375q-0.875 -1.0625 -2.078125 -1.6875q-1.203125 -0.625 -2.640625 -0.625q-2.15625 0 -3.875 1.421875q-1.703125 1.40625 -2.609375 3.46875l0 6.0q0.34375 0.96875 0.984375 1.734375q0.640625 0.765625 1.453125 1.328125q0.828125 0.546875 1.78125 0.859375q0.96875 0.3125 1.875 0.3125zm17.853943 -30.0625l6.4375 0l0 26.984375q0 1.390625 0.671875 2.15625q0.671875 0.765625 1.921875 0.765625q0.578125 0 1.265625 -0.1875q0.703125 -0.1875 1.328125 -0.484375l0.859375 4.90625q-1.296875 0.625 -3.03125 0.953125q-1.71875 0.34375 -3.109375 0.34375q-3.03125 0 -4.6875 -1.609375q-1.65625 -1.609375 -1.65625 -4.59375l0 -29.234375zm15.794159 39.9375q0.8125 0.25 1.578125 0.359375q0.78125 0.125 1.3125 0.125q0.609375 0 1.140625 -0.25q0.53125 -0.234375 0.953125 -0.828125q0.4375 -0.59375 0.875 -1.65625q0.4375 -1.0625 0.90625 -2.640625l-9.9375 -25.15625l6.625 0l6.828125 19.59375l6.046875 -19.59375l6.046875 0l-10.5625 30.140625q-0.90625 2.640625 -3.125 4.3125q-2.203125 1.6875 -5.46875 1.6875q-0.765625 0 -1.5625 -0.125q-0.796875 -0.109375 -1.65625 -0.390625l0 -5.578125zm47.232574 -4.75q-2.546875 0 -4.609375 -1.0q-2.0625 -1.015625 -3.578125 -2.765625q-1.5 -1.75 -2.328125 -4.046875q-0.8125 -2.3125 -0.8125 -4.90625q0 -2.734375 0.859375 -5.078125q0.875 -2.359375 2.40625 -4.125q1.53125 -1.78125 3.6875 -2.78125q2.171875 -1.015625 4.765625 -1.015625q2.921875 0 5.125 1.328125q2.21875 1.3125 3.65625 3.515625l0 -4.421875l5.609375 0l0 23.953125q0 2.78125 -1.0625 4.984375q-1.046875 2.21875 -2.890625 3.75q-1.84375 1.546875 -4.421875 2.359375q-2.5625 0.8125 -5.59375 0.8125q-4.125 0 -6.9375 -1.375q-2.796875 -1.359375 -4.8125 -3.859375l3.5 -3.40625q1.4375 1.78125 3.625 2.78125q2.1875 1.015625 4.625 1.015625q1.5 0 2.859375 -0.40625q1.375 -0.40625 2.421875 -1.28125q1.0625 -0.859375 1.65625 -2.203125q0.609375 -1.34375 0.609375 -3.171875l0 -3.171875q-1.25 2.171875 -3.515625 3.34375q-2.25 1.171875 -4.84375 1.171875zm2.15625 -5.125q1.0625 0 2.015625 -0.328125q0.96875 -0.34375 1.78125 -0.921875q0.8125 -0.578125 1.4375 -1.34375q0.625 -0.78125 0.96875 -1.640625l0 -6.0q-0.875 -2.203125 -2.71875 -3.546875q-1.84375 -1.34375 -3.859375 -1.34375q-1.484375 0 -2.6875 0.65625q-1.203125 0.640625 -2.078125 1.71875q-0.859375 1.078125 -1.3125 2.46875q-0.453125 1.390625 -0.453125 2.875q0 1.546875 0.53125 2.890625q0.53125 1.34375 1.453125 2.359375q0.9375 1.0 2.1875 1.578125q1.25 0.578125 2.734375 0.578125zm30.057068 5.46875q-3.078125 0 -5.53125 -1.046875q-2.4375 -1.0625 -4.140625 -2.859375q-1.703125 -1.8125 -2.625 -4.15625q-0.90625 -2.359375 -0.90625 -4.953125q0 -2.640625 0.90625 -4.984375q0.921875 -2.359375 2.625 -4.15625q1.703125 -1.796875 4.140625 -2.84375q2.453125 -1.0625 5.53125 -1.0625q3.0625 0 5.484375 1.0625q2.4375 1.046875 4.140625 2.84375q1.703125 1.796875 2.609375 4.15625q0.921875 2.34375 0.921875 4.984375q0 2.59375 -0.921875 4.953125q-0.90625 2.34375 -2.59375 4.15625q-1.671875 1.796875 -4.125 2.859375q-2.453125 1.046875 -5.515625 1.046875zm-6.578125 -13.015625q0 1.6875 0.5 3.0625q0.5 1.359375 1.390625 2.375q0.890625 1.0 2.09375 1.5625q1.203125 0.546875 2.59375 0.546875q1.390625 0 2.59375 -0.546875q1.203125 -0.5625 2.078125 -1.5625q0.890625 -1.015625 1.390625 -2.40625q0.515625 -1.390625 0.515625 -3.078125q0 -1.625 -0.515625 -3.015625q-0.5 -1.390625 -1.390625 -2.40625q-0.875 -1.015625 -2.078125 -1.5625q-1.203125 -0.546875 -2.59375 -0.546875q-1.390625 0 -2.59375 0.578125q-1.203125 0.578125 -2.09375 1.59375q-0.890625 1.0 -1.390625 2.390625q-0.5 1.390625 -0.5 3.015625zm35.6662 13.015625q-3.078125 0 -5.53125 -1.046875q-2.4375 -1.0625 -4.140625 -2.859375q-1.703125 -1.8125 -2.625 -4.15625q-0.90625 -2.359375 -0.90625 -4.953125q0 -2.640625 0.90625 -4.984375q0.921875 -2.359375 2.625 -4.15625q1.703125 -1.796875 4.140625 -2.84375q2.453125 -1.0625 5.53125 -1.0625q3.0625 0 5.484375 1.0625q2.4375 1.046875 4.140625 2.84375q1.703125 1.796875 2.609375 4.15625q0.921875 2.34375 0.921875 4.984375q0 2.59375 -0.921875 4.953125q-0.90625 2.34375 -2.59375 4.15625q-1.671875 1.796875 -4.125 2.859375q-2.453125 1.046875 -5.515625 1.046875zm-6.578125 -13.015625q0 1.6875 0.5 3.0625q0.5 1.359375 1.390625 2.375q0.890625 1.0 2.09375 1.5625q1.203125 0.546875 2.59375 0.546875q1.390625 0 2.59375 -0.546875q1.203125 -0.5625 2.078125 -1.5625q0.890625 -1.015625 1.390625 -2.40625q0.515625 -1.390625 0.515625 -3.078125q0 -1.625 -0.515625 -3.015625q-0.5 -1.390625 -1.390625 -2.40625q-0.875 -1.015625 -2.078125 -1.5625q-1.203125 -0.546875 -2.59375 -0.546875q-1.390625 0 -2.59375 0.578125q-1.203125 0.578125 -2.09375 1.59375q-0.890625 1.0 -1.390625 2.390625q-0.5 1.390625 -0.5 3.015625zm34.463074 13.015625q-2.59375 0 -4.796875 -1.0q-2.203125 -1.015625 -3.796875 -2.796875q-1.578125 -1.78125 -2.46875 -4.15625q-0.890625 -2.375 -0.890625 -5.109375q0 -2.734375 0.84375 -5.078125q0.84375 -2.359375 2.328125 -4.125q1.484375 -1.78125 3.546875 -2.78125q2.0625 -1.015625 4.515625 -1.015625q2.78125 0 5.015625 1.34375q2.234375 1.34375 3.484375 3.5l0 -14.3125l6.421875 0l0 27.65625q0 1.0 0.328125 1.4375q0.34375 0.4375 1.171875 0.484375l0 5.46875q-1.6875 0.34375 -2.75 0.34375q-1.71875 0 -2.828125 -0.859375q-1.09375 -0.875 -1.25 -2.265625l-0.140625 -1.59375q-1.390625 2.40625 -3.765625 3.640625q-2.375 1.21875 -4.96875 1.21875zm1.6875 -5.46875q0.90625 0 1.859375 -0.3125q0.96875 -0.3125 1.78125 -0.890625q0.8125 -0.578125 1.453125 -1.34375q0.65625 -0.765625 1.0 -1.6875l0 -6.0q-0.390625 -1.046875 -1.09375 -1.9375q-0.6875 -0.890625 -1.578125 -1.53125q-0.890625 -0.65625 -1.875 -1.03125q-0.984375 -0.390625 -1.9375 -0.390625q-1.4375 0 -2.671875 0.625q-1.21875 0.625 -2.078125 1.703125q-0.859375 1.078125 -1.34375 2.46875q-0.484375 1.390625 -0.484375 2.875q0 1.59375 0.53125 2.9375q0.53125 1.34375 1.4375 2.359375q0.90625 1.0 2.171875 1.578125q1.28125 0.578125 2.828125 0.578125zm37.245728 5.46875q-1.828125 0 -3.421875 -0.59375q-1.578125 -0.609375 -2.734375 -1.6875q-1.140625 -1.078125 -1.796875 -2.515625q-0.640625 -1.453125 -0.640625 -3.171875q0 -1.78125 0.78125 -3.28125q0.796875 -1.515625 2.203125 -2.578125q1.421875 -1.0625 3.390625 -1.65625q1.96875 -0.59375 4.328125 -0.59375q1.671875 0 3.28125 0.28125q1.609375 0.28125 2.859375 0.8125l0 -1.4375q0 -2.5 -1.421875 -3.84375q-1.40625 -1.34375 -4.1875 -1.34375q-2.015625 0 -3.9375 0.71875q-1.921875 0.71875 -3.9375 2.125l-1.96875 -4.09375q4.84375 -3.203125 10.46875 -3.203125q5.421875 0 8.421875 2.671875q3.0 2.65625 3.0 7.6875l0 7.828125q0 1.0 0.359375 1.4375q0.359375 0.4375 1.171875 0.484375l0 5.46875q-1.625 0.34375 -2.828125 0.34375q-1.828125 0 -2.8125 -0.8125q-0.984375 -0.828125 -1.21875 -2.171875l-0.140625 -1.390625q-1.6875 2.203125 -4.09375 3.359375q-2.390625 1.15625 -5.125 1.15625zm1.8125 -4.703125q1.640625 0 3.09375 -0.578125q1.46875 -0.578125 2.28125 -1.546875q1.0625 -0.8125 1.0625 -1.8125l0 -2.890625q-1.15625 -0.421875 -2.5 -0.6875q-1.34375 -0.265625 -2.59375 -0.265625q-2.484375 0 -4.078125 1.125q-1.578125 1.125 -1.578125 2.859375q0 1.625 1.25 2.71875q1.25 1.078125 3.0625 1.078125zm33.942688 2.921875q-1.296875 0.578125 -3.171875 1.15625q-1.875 0.578125 -3.9375 0.578125q-1.34375 0 -2.515625 -0.34375q-1.171875 -0.328125 -2.0625 -1.078125q-0.890625 -0.75 -1.421875 -1.921875q-0.515625 -1.171875 -0.515625 -2.859375l0 -14.4375l-3.3125 0l0 -4.953125l3.3125 0l0 -8.15625l6.421875 0l0 8.15625l5.28125 0l0 4.953125l-5.28125 0l0 12.28125q0 1.34375 0.6875 1.90625q0.703125 0.546875 1.71875 0.546875q1.0 0 1.953125 -0.328125q0.96875 -0.34375 1.546875 -0.59375l1.296875 5.09375zm53.952087 1.296875l-6.4375 0l0 -14.109375q0 -3.03125 -1.03125 -4.421875q-1.03125 -1.390625 -2.84375 -1.390625q-1.921875 0 -3.609375 1.46875q-1.671875 1.46875 -2.390625 3.8125l0 14.640625l-6.4375 0l0 -14.109375q0 -3.03125 -1.03125 -4.421875q-1.03125 -1.390625 -2.859375 -1.390625q-1.875 0 -3.578125 1.4375q-1.703125 1.4375 -2.421875 3.796875l0 14.6875l-6.4375 0l0 -25.15625l5.8125 0l0 4.65625q1.390625 -2.4375 3.8125 -3.75q2.421875 -1.328125 5.546875 -1.328125q3.171875 0 4.890625 1.53125q1.734375 1.53125 2.21875 3.796875q1.53125 -2.59375 3.875 -3.953125q2.359375 -1.375 5.390625 -1.375q2.296875 0 3.78125 0.859375q1.5 0.859375 2.3125 2.25q0.8125 1.390625 1.125 3.171875q0.3125 1.78125 0.3125 3.59375l0 15.703125zm17.28186 0.484375q-3.03125 0 -5.484375 -1.03125q-2.4375 -1.03125 -4.171875 -2.8125q-1.71875 -1.78125 -2.65625 -4.125q-0.9375 -2.359375 -0.9375 -4.953125q0 -2.6875 0.90625 -5.0625q0.921875 -2.375 2.640625 -4.171875q1.734375 -1.796875 4.203125 -2.84375q2.46875 -1.0625 5.546875 -1.0625q3.078125 0 5.5 1.0625q2.421875 1.046875 4.125 2.828125q1.703125 1.765625 2.59375 4.125q0.890625 2.34375 0.890625 4.890625q0 0.625 -0.03125 1.203125q-0.015625 0.578125 -0.125 0.953125l-19.4375 0q0.140625 1.484375 0.71875 2.640625q0.578125 1.15625 1.484375 1.96875q0.921875 0.8125 2.0625 1.25q1.15625 0.4375 2.40625 0.4375q1.921875 0 3.625 -0.9375q1.703125 -0.9375 2.328125 -2.46875l5.515625 1.53125q-1.390625 2.875 -4.4375 4.734375q-3.046875 1.84375 -7.265625 1.84375zm6.53125 -15.171875q-0.25 -2.828125 -2.09375 -4.53125q-1.84375 -1.703125 -4.484375 -1.703125q-1.296875 0 -2.4375 0.453125q-1.125 0.453125 -1.984375 1.265625q-0.859375 0.8125 -1.421875 1.96875q-0.546875 1.15625 -0.640625 2.546875l13.0625 0zm25.627075 13.390625q-1.296875 0.578125 -3.171875 1.15625q-1.875 0.578125 -3.9375 0.578125q-1.34375 0 -2.515625 -0.34375q-1.171875 -0.328125 -2.0625 -1.078125q-0.890625 -0.75 -1.421875 -1.921875q-0.515625 -1.171875 -0.515625 -2.859375l0 -14.4375l-3.3125 0l0 -4.953125l3.3125 0l0 -8.15625l6.421875 0l0 8.15625l5.28125 0l0 4.953125l-5.28125 0l0 12.28125q0 1.34375 0.6875 1.90625q0.703125 0.546875 1.71875 0.546875q1.0 0 1.953125 -0.328125q0.96875 -0.34375 1.546875 -0.59375l1.296875 5.09375zm10.228882 1.78125q-1.828125 0 -3.421875 -0.59375q-1.578125 -0.609375 -2.734375 -1.6875q-1.140625 -1.078125 -1.796875 -2.515625q-0.640625 -1.453125 -0.640625 -3.171875q0 -1.78125 0.78125 -3.28125q0.796875 -1.515625 2.203125 -2.578125q1.421875 -1.0625 3.390625 -1.65625q1.96875 -0.59375 4.328125 -0.59375q1.671875 0 3.28125 0.28125q1.609375 0.28125 2.859375 0.8125l0 -1.4375q0 -2.5 -1.421875 -3.84375q-1.40625 -1.34375 -4.1875 -1.34375q-2.015625 0 -3.9375 0.71875q-1.921875 0.71875 -3.9375 2.125l-1.96875 -4.09375q4.84375 -3.203125 10.46875 -3.203125q5.421875 0 8.421875 2.671875q3.0 2.65625 3.0 7.6875l0 7.828125q0 1.0 0.359375 1.4375q0.359375 0.4375 1.171875 0.484375l0 5.46875q-1.625 0.34375 -2.828125 0.34375q-1.828125 0 -2.8125 -0.8125q-0.984375 -0.828125 -1.21875 -2.171875l-0.140625 -1.390625q-1.6875 2.203125 -4.09375 3.359375q-2.390625 1.15625 -5.125 1.15625zm1.8125 -4.703125q1.640625 0 3.09375 -0.578125q1.46875 -0.578125 2.28125 -1.546875q1.0625 -0.8125 1.0625 -1.8125l0 -2.890625q-1.15625 -0.421875 -2.5 -0.6875q-1.34375 -0.265625 -2.59375 -0.265625q-2.484375 0 -4.078125 1.125q-1.578125 1.125 -1.578125 2.859375q0 1.625 1.25 2.71875q1.25 1.078125 3.0625 1.078125zm33.942688 4.703125q-2.96875 0 -5.1875 -1.3125q-2.203125 -1.328125 -3.453125 -3.59375l0 14.640625l-6.4375 0l0 -35.375l5.625 0l0 4.328125q1.390625 -2.21875 3.59375 -3.484375q2.21875 -1.265625 5.09375 -1.265625q2.546875 0 4.703125 1.03125q2.15625 1.03125 3.71875 2.78125q1.5625 1.75 2.4375 4.125q0.890625 2.375 0.890625 5.015625q0 2.734375 -0.8125 5.140625q-0.8125 2.390625 -2.28125 4.171875q-1.453125 1.78125 -3.46875 2.796875q-2.015625 1.0 -4.421875 1.0zm-2.15625 -5.46875q1.4375 0 2.65625 -0.625q1.234375 -0.625 2.09375 -1.6875q0.859375 -1.0625 1.34375 -2.453125q0.484375 -1.390625 0.484375 -2.875q0 -1.578125 -0.53125 -2.9375q-0.53125 -1.375 -1.46875 -2.375q-0.9375 -1.015625 -2.21875 -1.59375q-1.265625 -0.578125 -2.75 -0.578125q-0.90625 0 -1.875 0.3125q-0.953125 0.3125 -1.78125 0.890625q-0.8125 0.5625 -1.453125 1.34375q-0.640625 0.765625 -0.984375 1.671875l0 5.90625q0.859375 2.15625 2.640625 3.578125q1.78125 1.421875 3.84375 1.421875zm40.885193 4.984375l-6.421875 0l0 -14.109375q0 -2.984375 -1.109375 -4.390625q-1.109375 -1.421875 -3.125 -1.421875q-0.859375 0 -1.828125 0.390625q-0.953125 0.375 -1.8125 1.078125q-0.859375 0.6875 -1.578125 1.65625q-0.71875 0.953125 -1.0625 2.109375l0 14.6875l-6.4375 0l0 -35.046875l6.4375 0l0 14.546875q1.390625 -2.4375 3.765625 -3.75q2.375 -1.328125 5.265625 -1.328125q2.4375 0 3.96875 0.84375q1.546875 0.828125 2.40625 2.21875q0.859375 1.390625 1.1875 3.171875q0.34375 1.78125 0.34375 3.640625l0 15.703125zm17.242065 0.484375q-3.078125 0 -5.53125 -1.046875q-2.4375 -1.0625 -4.140625 -2.859375q-1.703125 -1.8125 -2.625 -4.15625q-0.90625 -2.359375 -0.90625 -4.953125q0 -2.640625 0.90625 -4.984375q0.921875 -2.359375 2.625 -4.15625q1.703125 -1.796875 4.140625 -2.84375q2.453125 -1.0625 5.53125 -1.0625q3.0625 0 5.484375 1.0625q2.4375 1.046875 4.140625 2.84375q1.703125 1.796875 2.609375 4.15625q0.921875 2.34375 0.921875 4.984375q0 2.59375 -0.921875 4.953125q-0.90625 2.34375 -2.59375 4.15625q-1.671875 1.796875 -4.125 2.859375q-2.453125 1.046875 -5.515625 1.046875zm-6.578125 -13.015625q0 1.6875 0.5 3.0625q0.5 1.359375 1.390625 2.375q0.890625 1.0 2.09375 1.5625q1.203125 0.546875 2.59375 0.546875q1.390625 0 2.59375 -0.546875q1.203125 -0.5625 2.078125 -1.5625q0.890625 -1.015625 1.390625 -2.40625q0.515625 -1.390625 0.515625 -3.078125q0 -1.625 -0.515625 -3.015625q-0.5 -1.390625 -1.390625 -2.40625q-0.875 -1.015625 -2.078125 -1.5625q-1.203125 -0.546875 -2.59375 -0.546875q-1.390625 0 -2.59375 0.578125q-1.203125 0.578125 -2.09375 1.59375q-0.890625 1.0 -1.390625 2.390625q-0.5 1.390625 -0.5 3.015625zm39.025574 -7.046875q-2.9375 0.046875 -5.234375 1.125q-2.296875 1.078125 -3.3125 3.234375l0 15.21875l-6.4375 0l0 -25.15625l5.90625 0l0 5.375q0.671875 -1.296875 1.578125 -2.328125q0.921875 -1.03125 1.96875 -1.796875q1.0625 -0.765625 2.140625 -1.171875q1.078125 -0.40625 2.09375 -0.40625q0.53125 0 0.78125 0q0.265625 0 0.515625 0.046875l0 5.859375zm3.4510498 19.578125l0 -6.90625l5.28125 0l0 6.90625l-5.28125 0z" fill-rule="nonzero"/></g></svg>