<svg version="1.1" viewBox="0.0 0.0 960.0 540.0" fill="none" stroke="none" stroke-linecap="square" stroke-miterlimit="10" xmlns:xlink="http://www.w3.org/1999/xlink" xmlns="http://www.w3.org/2000/svg"><clipPath id="g3ffa094804_0_155.0"><path d="m0 0l960.0 0l0 540.0l-960.0 0l0 -540.0z" clip-rule="nonzero"/></clipPath><g clip-path="url(#g3ffa094804_0_155.0)"><path fill="#ffffff" d="m0 0l960.0 0l0 540.0l-960.0 0z" fill-rule="evenodd"/><path fill="#5e2b97" d="m486.80316 8.472441l464.72443 0l0 523.0552l-464.72443 0z" fill-rule="evenodd"/><path fill="#000000" fill-opacity="0.0" d="m528.04987 471.9685l49.165344 0" fill-rule="evenodd"/><path stroke="#ffffff" stroke-width="2.0" stroke-linejoin="round" stroke-linecap="butt" d="m528.04987 471.9685l49.165344 0" fill-rule="evenodd"/><path fill="#000000" fill-opacity="0.0" d="m26.52231 190.23622l424.6929 0l0 159.52757l-424.6929 0z" fill-rule="evenodd"/><path fill="#000000" d="m95.40529 202.76628l7.8125 0l17.28125 45.4375l-9.09375 0l-4.21875 -11.328125l-15.875 0l-4.15625 11.328125l-9.09375 0l17.34375 -45.4375zm10.1875 27.90625l-6.28125 -17.859375l-6.515625 17.859375l12.796875 0zm39.039185 -8.578125q-3.90625 0.0625 -6.984375 1.5q-3.0625 1.4375 -4.40625 4.328125l0 20.28125l-8.578125 0l0 -33.53125l7.875 0l0 7.15625q0.890625 -1.71875 2.109375 -3.09375q1.21875 -1.375 2.625 -2.390625q1.40625 -1.03125 2.84375 -1.578125q1.4375 -0.546875 2.78125 -0.546875q0.703125 0 1.046875 0q0.359375 0 0.6875 0.0625l0 7.8125zm4.7992096 26.109375l0 -33.53125l8.578125 0l0 33.53125l-8.578125 0zm0 -38.203125l0 -8.515625l8.578125 0l0 8.515625l-8.578125 0zm36.413727 36.46875q-1.734375 0.78125 -4.234375 1.546875q-2.484375 0.765625 -5.234375 0.765625q-1.796875 0 -3.375 -0.453125q-1.5625 -0.4375 -2.75 -1.421875q-1.171875 -1.0 -1.875 -2.5625q-0.703125 -1.578125 -0.703125 -3.828125l0 -19.25l-4.421875 0l0 -6.59375l4.421875 0l0 -10.890625l8.578125 0l0 10.890625l7.03125 0l0 6.59375l-7.03125 0l0 16.375q0 1.796875 0.921875 2.53125q0.921875 0.734375 2.265625 0.734375q1.34375 0 2.625 -0.4375q1.28125 -0.453125 2.046875 -0.78125l1.734375 6.78125zm35.654083 1.734375l-8.578125 0l0 -18.8125q0 -3.96875 -1.484375 -5.859375q-1.46875 -1.890625 -4.15625 -1.890625q-1.140625 0 -2.421875 0.515625q-1.28125 0.515625 -2.4375 1.4375q-1.15625 0.921875 -2.125 2.203125q-0.953125 1.28125 -1.390625 2.828125l0 19.578125l-8.578125 0l0 -46.71875l8.578125 0l0 19.390625q1.859375 -3.265625 5.015625 -5.015625q3.171875 -1.765625 7.015625 -1.765625q3.265625 0 5.3125 1.125q2.046875 1.109375 3.1875 2.96875q1.15625 1.859375 1.609375 4.234375q0.453125 2.359375 0.453125 4.859375l0 20.921875zm59.57782 0l-8.578125 0l0 -18.8125q0 -4.03125 -1.375 -5.890625q-1.375 -1.859375 -3.8125 -1.859375q-2.546875 0 -4.796875 1.953125q-2.234375 1.953125 -3.203125 5.09375l0 19.515625l-8.57814 0l0 -18.8125q0 -4.03125 -1.375 -5.890625q-1.375 -1.859375 -3.796875 -1.859375q-2.5 0 -4.78125 1.921875q-2.265625 1.921875 -3.21875 5.0625l0 19.578125l-8.578125 0l0 -33.53125l7.734375 0l0 6.203125q1.859375 -3.265625 5.09375 -5.015625q3.234375 -1.765625 7.390625 -1.765625q4.234375 0 6.53125 2.046875q2.2968903 2.046875 2.9375153 5.046875q2.046875 -3.453125 5.1875 -5.265625q3.140625 -1.828125 7.171875 -1.828125q3.078125 0 5.046875 1.15625q1.984375 1.140625 3.078125 3.0q1.09375 1.859375 1.5 4.234375q0.421875 2.359375 0.421875 4.796875l0 20.921875zm23.036987 0.640625q-4.03125 0 -7.296875 -1.375q-3.265625 -1.375 -5.578125 -3.734375q-2.296875 -2.375 -3.546875 -5.515625q-1.234375 -3.140625 -1.234375 -6.59375q0 -3.578125 1.203125 -6.75q1.21875 -3.171875 3.515625 -5.5625q2.3125 -2.40625 5.609375 -3.8125q3.296875 -1.40625 7.390625 -1.40625q4.09375 0 7.328125 1.40625q3.234375 1.40625 5.5 3.78125q2.28125 2.359375 3.453125 5.5q1.1875 3.140625 1.1875 6.53125q0 0.828125 -0.03125 1.59375q-0.03125 0.765625 -0.15625 1.28125l-25.921875 0q0.203125 1.984375 0.96875 3.53125q0.765625 1.53125 1.984375 2.625q1.21875 1.078125 2.75 1.65625q1.53125 0.578125 3.203125 0.578125q2.5625 0 4.828125 -1.25q2.265625 -1.25 3.109375 -3.296875l7.359375 2.046875q-1.859375 3.84375 -5.921875 6.3125q-4.0625 2.453125 -9.703125 2.453125zm8.703125 -20.21875q-0.3125 -3.78125 -2.78125 -6.046875q-2.46875 -2.28125 -5.984375 -2.28125q-1.734375 0 -3.234375 0.609375q-1.5 0.609375 -2.65625 1.703125q-1.140625 1.078125 -1.890625 2.625q-0.734375 1.53125 -0.859375 3.390625l17.40625 0zm34.179688 17.84375q-1.734375 0.78125 -4.234375 1.546875q-2.484375 0.765625 -5.234375 0.765625q-1.796875 0 -3.375 -0.453125q-1.5625 -0.4375 -2.75 -1.421875q-1.171875 -1.0 -1.875 -2.5625q-0.703125 -1.578125 -0.703125 -3.828125l0 -19.25l-4.421875 0l0 -6.59375l4.421875 0l0 -10.890625l8.578125 0l0 10.890625l7.03125 0l0 6.59375l-7.03125 0l0 16.375q0 1.796875 0.921875 2.53125q0.921875 0.734375 2.265625 0.734375q1.34375 0 2.625 -0.4375q1.28125 -0.453125 2.046875 -0.78125l1.734375 6.78125zm4.482239 1.734375l0 -33.53125l8.578125 0l0 33.53125l-8.578125 0zm0 -38.203125l0 -8.515625l8.578125 0l0 8.515625l-8.578125 0zm14.210571 21.4375q0 -3.515625 1.203125 -6.65625q1.21875 -3.140625 3.515625 -5.5q2.3125 -2.375 5.578125 -3.78125q3.265625 -1.40625 7.359375 -1.40625q5.5 0 9.375 2.375q3.875 2.359375 5.796875 6.203125l-8.390625 2.5625q-1.078125 -1.859375 -2.875 -2.84375q-1.796875 -1.0 -3.96875 -1.0q-1.859375 0 -3.453125 0.734375q-1.59375 0.734375 -2.78125 2.046875q-1.1875 1.3125 -1.859375 3.171875q-0.671875 1.84375 -0.671875 4.09375q0 2.234375 0.703125 4.09375q0.703125 1.859375 1.890625 3.203125q1.1875 1.34375 2.78125 2.078125q1.59375 0.734375 3.390625 0.734375q2.3125 0 4.25 -1.140625q1.953125 -1.15625 2.734375 -2.828125l8.375 2.5625q-1.71875 3.84375 -5.6875 6.28125q-3.96875 2.421875 -9.546875 2.421875q-4.09375 0 -7.359375 -1.40625q-3.265625 -1.40625 -5.578125 -3.796875q-2.296875 -2.40625 -3.546875 -5.578125q-1.234375 -3.171875 -1.234375 -6.625z" fill-rule="nonzero"/><path fill="#000000" d="m115.865906 325.20377l0 -30.078125l-11.71875 22.390625l-4.796875 0l-11.71875 -22.390625l0 30.078125l-8.828125 0l0 -45.4375l9.46875 0l13.4375 25.859375l13.578125 -25.859375l9.40625 0l0 45.4375l-8.828125 0zm33.01616 0.640625q-4.03125 0 -7.296875 -1.375q-3.265625 -1.375 -5.578125 -3.734375q-2.296875 -2.375 -3.546875 -5.515625q-1.234375 -3.140625 -1.234375 -6.59375q0 -3.578125 1.203125 -6.75q1.21875 -3.171875 3.515625 -5.5625q2.3125 -2.40625 5.609375 -3.8125q3.296875 -1.40625 7.390625 -1.40625q4.09375 0 7.328125 1.40625q3.234375 1.40625 5.5 3.78125q2.28125 2.359375 3.453125 5.5q1.1875 3.140625 1.1875 6.53125q0 0.828125 -0.03125 1.59375q-0.03125 0.765625 -0.15625 1.28125l-25.921875 0q0.203125 1.984375 0.96875 3.53125q0.765625 1.53125 1.984375 2.625q1.21875 1.078125 2.75 1.65625q1.53125 0.578125 3.203125 0.578125q2.5625 0 4.828125 -1.25q2.265625 -1.25 3.109375 -3.296875l7.359375 2.046875q-1.859375 3.84375 -5.921875 6.3125q-4.0625 2.453125 -9.703125 2.453125zm8.703125 -20.21875q-0.3125 -3.78125 -2.78125 -6.046875q-2.46875 -2.28125 -5.984375 -2.28125q-1.734375 0 -3.234375 0.609375q-1.5 0.609375 -2.65625 1.703125q-1.140625 1.078125 -1.890625 2.625q-0.734375 1.53125 -0.859375 3.390625l17.40625 0zm34.179688 17.84375q-1.734375 0.78125 -4.234375 1.546875q-2.484375 0.765625 -5.234375 0.765625q-1.796875 0 -3.375 -0.453125q-1.5625 -0.4375 -2.75 -1.421875q-1.171875 -1.0 -1.875 -2.5625q-0.703125 -1.578125 -0.703125 -3.828125l0 -19.25l-4.421875 0l0 -6.59375l4.421875 0l0 -10.890625l8.578125 0l0 10.890625l7.03125 0l0 6.59375l-7.03125 0l0 16.375q0 1.796875 0.921875 2.53125q0.921875 0.734375 2.265625 0.734375q1.34375 0 2.625 -0.4375q1.28125 -0.453125 2.046875 -0.78125l1.734375 6.78125zm13.638458 2.375q-2.4375 0 -4.546875 -0.796875q-2.109375 -0.796875 -3.65625 -2.234375q-1.53125 -1.453125 -2.40625 -3.375q-0.859375 -1.921875 -0.859375 -4.21875q0 -2.375 1.0625 -4.390625q1.0625 -2.015625 2.9375 -3.421875q1.890625 -1.40625 4.515625 -2.203125q2.625 -0.796875 5.765625 -0.796875q2.234375 0 4.375 0.390625q2.15625 0.375 3.8125 1.078125l0 -1.921875q0 -3.328125 -1.890625 -5.109375q-1.890625 -1.796875 -5.59375 -1.796875q-2.6875 0 -5.25 0.96875q-2.5625 0.953125 -5.25 2.796875l-2.625 -5.4375q6.46875 -4.28125 13.953125 -4.28125q7.234375 0 11.234375 3.546875q4.0 3.546875 4.0 10.28125l0 10.421875q0 1.34375 0.46875 1.921875q0.484375 0.578125 1.578125 0.640625l0 7.296875q-2.171875 0.453125 -3.78125 0.453125q-2.421875 0 -3.734375 -1.09375q-1.3125 -1.09375 -1.640625 -2.875l-0.1875 -1.859375q-2.234375 2.9375 -5.4375 4.484375q-3.203125 1.53125 -6.84375 1.53125zm2.421875 -6.265625q2.171875 0 4.125 -0.765625q1.953125 -0.78125 3.046875 -2.0625q1.40625 -1.078125 1.40625 -2.421875l0 -3.84375q-1.53125 -0.578125 -3.328125 -0.921875q-1.796875 -0.359375 -3.453125 -0.359375q-3.328125 0 -5.4375 1.515625q-2.109375 1.5 -2.109375 3.796875q0 2.171875 1.65625 3.625q1.671875 1.4375 4.09375 1.4375zm45.251556 6.265625q-3.96875 0 -6.921875 -1.75q-2.9375 -1.765625 -4.59375 -4.78125l0 19.515625l-8.578125 0l0 -47.15625l7.484375 0l0 5.75q1.859375 -2.9375 4.796875 -4.625q2.953125 -1.703125 6.78125 -1.703125q3.40625 0 6.2812653 1.375q2.875 1.375 4.953125 3.71875q2.078125 2.328125 3.265625 5.5q1.1875 3.15625 1.1875 6.6875q0 3.640625 -1.09375 6.84375q-1.078125 3.203125 -3.03125 5.578125q-1.953125 2.359375 -4.640625 3.703125q-2.6875 1.34375 -5.8906403 1.34375zm-2.875 -7.296875q1.921875 0 3.546875 -0.828125q1.625 -0.828125 2.7812653 -2.234375q1.15625 -1.421875 1.796875 -3.265625q0.640625 -1.859375 0.640625 -3.84375q0 -2.109375 -0.703125 -3.9375q-0.703125 -1.828125 -1.953125 -3.171875q-1.2500153 -1.34375 -2.9531403 -2.109375q-1.6875 -0.765625 -3.671875 -0.765625q-1.21875 0 -2.5 0.421875q-1.28125 0.40625 -2.375 1.171875q-1.078125 0.765625 -1.953125 1.796875q-0.859375 1.015625 -1.296875 2.234375l0 7.875q1.140625 2.875 3.515625 4.765625q2.375 1.890625 5.125 1.890625zm54.529037 6.65625l-8.578125 0l0 -18.8125q0 -3.96875 -1.484375 -5.859375q-1.46875 -1.890625 -4.15625 -1.890625q-1.140625 0 -2.421875 0.515625q-1.28125 0.515625 -2.4375 1.4375q-1.15625 0.921875 -2.125 2.203125q-0.953125 1.28125 -1.3905945 2.828125l0 19.578125l-8.578125 0l0 -46.71875l8.578125 0l0 19.390625q1.8593445 -3.265625 5.0155945 -5.015625q3.171875 -1.765625 7.015625 -1.765625q3.265625 0 5.3125 1.125q2.046875 1.109375 3.1875 2.96875q1.15625 1.859375 1.609375 4.234375q0.453125 2.359375 0.453125 4.859375l0 20.921875zm22.968445 0.640625q-4.09375 0 -7.359375 -1.40625q-3.265625 -1.40625 -5.546875 -3.796875q-2.265625 -2.40625 -3.484375 -5.546875q-1.203125 -3.140625 -1.203125 -6.59375q0 -3.515625 1.203125 -6.65625q1.21875 -3.140625 3.484375 -5.53125q2.28125 -2.40625 5.546875 -3.8125q3.265625 -1.40625 7.359375 -1.40625q4.09375 0 7.328125 1.40625q3.234375 1.40625 5.5 3.8125q2.28125 2.390625 3.484375 5.53125q1.21875 3.140625 1.21875 6.65625q0 3.453125 -1.21875 6.59375q-1.203125 3.140625 -3.453125 5.546875q-2.234375 2.390625 -5.5 3.796875q-3.265625 1.40625 -7.359375 1.40625zm-8.765625 -17.34375q0 2.234375 0.671875 4.0625q0.671875 1.828125 1.859375 3.171875q1.1875 1.34375 2.78125 2.078125q1.59375 0.734375 3.453125 0.734375q1.859375 0 3.453125 -0.734375q1.609375 -0.734375 2.78125 -2.078125q1.1875 -1.34375 1.859375 -3.203125q0.671875 -1.859375 0.671875 -4.09375q0 -2.171875 -0.671875 -4.03125q-0.671875 -1.859375 -1.859375 -3.203125q-1.171875 -1.34375 -2.78125 -2.078125q-1.59375 -0.734375 -3.453125 -0.734375q-1.859375 0 -3.453125 0.765625q-1.59375 0.765625 -2.78125 2.109375q-1.1875 1.34375 -1.859375 3.203125q-0.671875 1.859375 -0.671875 4.03125zm52.033936 -9.40625q-3.90625 0.0625 -6.984375 1.5q-3.0625 1.4375 -4.40625 4.328125l0 20.28125l-8.578125 0l0 -33.53125l7.875 0l0 7.15625q0.890625 -1.71875 2.109375 -3.09375q1.21875 -1.375 2.625 -2.390625q1.40625 -1.03125 2.84375 -1.578125q1.4375 -0.546875 2.78125 -0.546875q0.703125 0 1.046875 0q0.359375 0 0.6875 0.0625l0 7.8125zm17.4711 26.75q-4.21875 0 -8.265625 -1.34375q-4.03125 -1.34375 -6.90625 -3.84375l3.203125 -5.375q3.078125 2.171875 5.984375 3.296875q2.90625 1.125 5.796875 1.125q2.546875 0 4.015625 -0.953125q1.484375 -0.96875 1.484375 -2.765625q0 -1.796875 -1.734375 -2.625q-1.71875 -0.828125 -5.625 -1.921875q-3.265625 -0.890625 -5.578125 -1.71875q-2.296875 -0.828125 -3.703125 -1.890625q-1.40625 -1.0625 -2.046875 -2.4375q-0.640625 -1.375 -0.640625 -3.296875q0 -2.546875 0.984375 -4.59375q1.0 -2.0625 2.78125 -3.5q1.796875 -1.4375 4.1875 -2.203125q2.40625 -0.765625 5.234375 -0.765625q3.765625 0 7.0625 1.09375q3.296875 1.078125 6.046875 3.515625l-3.453125 5.171875q-2.5625 -1.90625 -4.96875 -2.796875q-2.390625 -0.90625 -4.75 -0.90625q-2.1875 0 -3.65625 0.90625q-1.46875 0.890625 -1.46875 2.875q0 0.890625 0.34375 1.46875q0.359375 0.578125 1.125 1.03125q0.765625 0.4375 2.015625 0.859375q1.25 0.40625 3.109375 0.859375q3.453125 0.890625 5.90625 1.796875q2.46875 0.890625 4.03125 2.046875q1.578125 1.140625 2.3125 2.65625q0.734375 1.5 0.734375 3.609375q0 4.921875 -3.65625 7.78125q-3.640625 2.84375 -9.90625 2.84375z" fill-rule="nonzero"/><path fill="#000000" fill-opacity="0.0" d="m518.5827 76.031494l402.8346 0l0 387.937l-402.8346 0z" fill-rule="evenodd"/><path fill="#ffffff" d="m541.92645 164.31375q1.71875 0 3.375 0.890625q1.65625 0.890625 2.578125 2.546875q0.921875 1.65625 0.921875 3.4375q0 2.859375 -2.015625 4.875q-2.015625 2.015625 -4.859375 2.015625q-2.859375 0 -4.875 -2.015625q-2.015625 -2.015625 -2.015625 -4.875q0 -1.796875 0.921875 -3.4375q0.921875 -1.65625 2.578125 -2.546875q1.65625 -0.890625 3.390625 -0.890625z" fill-rule="nonzero"/><path fill="#ffffff" d="m593.7233 177.6575q-2.71875 2.71875 -6.328125 2.71875q-2.25 0 -4.21875 -0.890625q-1.96875 -0.890625 -3.421875 -2.453125q-1.453125 -1.578125 -2.296875 -3.703125q-0.84375 -2.140625 -0.84375 -4.59375q0 -2.34375 0.84375 -4.40625q0.84375 -2.0625 2.328125 -3.609375q1.5 -1.5625 3.515625 -2.46875q2.015625 -0.90625 4.375 -0.90625q3.203125 0 5.484375 1.34375q2.296875 1.34375 3.453125 3.609375l-3.296875 2.4375q-0.875 -1.703125 -2.421875 -2.59375q-1.546875 -0.890625 -3.375 -0.890625q-1.4375 0 -2.640625 0.609375q-1.203125 0.59375 -2.046875 1.65625q-0.84375 1.0625 -1.3125 2.4375q-0.46875 1.375 -0.46875 2.90625q0 1.59375 0.515625 3.0q0.515625 1.390625 1.40625 2.421875q0.890625 1.015625 2.125 1.609375q1.234375 0.578125 2.671875 0.578125q3.296875 0 5.953125 -3.09375l0 -1.609375l-4.578125 0l0 -3.234375l8.234375 0l0 11.6875l-3.65625 0l0 -2.5625zm16.996887 -10.5q-1.953125 0.03125 -3.5 0.765625q-1.53125 0.71875 -2.203125 2.15625l0 10.140625l-4.28125 0l0 -16.765625l3.9375 0l0 3.578125q0.453125 -0.859375 1.046875 -1.546875q0.609375 -0.6875 1.3125 -1.203125q0.703125 -0.515625 1.421875 -0.78125q0.734375 -0.265625 1.40625 -0.265625q0.34375 0 0.515625 0q0.1875 0 0.34375 0.03125l0 3.890625zm10.149658 13.375q-2.0625 0 -3.6875 -0.703125q-1.625 -0.703125 -2.765625 -1.890625q-1.140625 -1.203125 -1.75 -2.765625q-0.609375 -1.578125 -0.609375 -3.3125q0 -1.75 0.609375 -3.3125q0.609375 -1.578125 1.75 -2.765625q1.140625 -1.203125 2.765625 -1.90625q1.625 -0.71875 3.6875 -0.71875q2.046875 0 3.65625 0.71875q1.609375 0.703125 2.75 1.90625q1.140625 1.1875 1.75 2.765625q0.609375 1.5625 0.609375 3.3125q0 1.734375 -0.609375 3.3125q-0.609375 1.5625 -1.734375 2.765625q-1.109375 1.1875 -2.75 1.890625q-1.625 0.703125 -3.671875 0.703125zm-4.390625 -8.671875q0 1.125 0.328125 2.046875q0.34375 0.90625 0.9375 1.578125q0.59375 0.671875 1.390625 1.046875q0.796875 0.359375 1.734375 0.359375q0.921875 0 1.71875 -0.359375q0.796875 -0.375 1.390625 -1.046875q0.59375 -0.671875 0.921875 -1.59375q0.34375 -0.9375 0.34375 -2.0625q0 -1.078125 -0.34375 -2.0q-0.328125 -0.9375 -0.921875 -1.609375q-0.59375 -0.671875 -1.390625 -1.03125q-0.796875 -0.375 -1.71875 -0.375q-0.9375 0 -1.734375 0.390625q-0.796875 0.375 -1.390625 1.046875q-0.59375 0.671875 -0.9375 1.609375q-0.328125 0.921875 -0.328125 2.0zm21.157654 8.671875q-2.59375 0 -3.9375 -1.65625q-1.34375 -1.671875 -1.34375 -4.921875l0 -10.5l4.28125 0l0 9.5625q0 3.875 2.78125 3.875q1.25 0 2.421875 -0.75q1.171875 -0.75 1.90625 -2.296875l0 -10.390625l4.28125 0l0 11.84375q0 0.671875 0.234375 0.953125q0.25 0.28125 0.796875 0.328125l0 3.640625q-0.640625 0.125 -1.078125 0.15625q-0.4375 0.03125 -0.78125 0.03125q-1.15625 0 -1.875 -0.515625q-0.71875 -0.53125 -0.84375 -1.46875l-0.09375 -1.34375q-1.125 1.734375 -2.890625 2.59375q-1.75 0.859375 -3.859375 0.859375zm30.229187 -0.3125l-4.28125 0l0 -9.40625q0 -2.015625 -0.703125 -2.9375q-0.703125 -0.9375 -1.953125 -0.9375q-0.640625 0 -1.3125 0.265625q-0.671875 0.25 -1.265625 0.71875q-0.59375 0.453125 -1.078125 1.09375q-0.46875 0.640625 -0.703125 1.40625l0 9.796875l-4.28125 0l0 -16.765625l3.875 0l0 3.109375q0.921875 -1.609375 2.671875 -2.5q1.765625 -0.90625 3.984375 -0.90625q1.5625 0 2.546875 0.578125q1.0 0.578125 1.546875 1.515625q0.546875 0.921875 0.75 2.109375q0.203125 1.171875 0.203125 2.390625l0 10.46875zm10.687378 0.3125q-1.71875 0 -3.203125 -0.671875q-1.46875 -0.671875 -2.53125 -1.84375q-1.046875 -1.1875 -1.640625 -2.765625q-0.59375 -1.59375 -0.59375 -3.421875q0 -1.8125 0.5625 -3.375q0.5625 -1.578125 1.546875 -2.765625q1.0 -1.1875 2.375 -1.859375q1.375 -0.671875 3.015625 -0.671875q1.84375 0 3.328125 0.90625q1.5 0.890625 2.328125 2.328125l0 -9.53125l4.296875 0l0 18.4375q0 0.671875 0.21875 0.953125q0.21875 0.28125 0.765625 0.328125l0 3.640625q-1.125 0.21875 -1.828125 0.21875q-1.140625 0 -1.890625 -0.5625q-0.734375 -0.578125 -0.828125 -1.515625l-0.09375 -1.046875q-0.921875 1.59375 -2.515625 2.40625q-1.578125 0.8125 -3.3125 0.8125zm1.125 -3.640625q0.609375 0 1.25 -0.203125q0.640625 -0.21875 1.171875 -0.59375q0.546875 -0.390625 0.984375 -0.890625q0.4375 -0.515625 0.65625 -1.125l0 -4.0q-0.25 -0.703125 -0.71875 -1.296875q-0.46875 -0.59375 -1.0625 -1.015625q-0.578125 -0.4375 -1.234375 -0.6875q-0.65625 -0.265625 -1.296875 -0.265625q-0.96875 0 -1.78125 0.421875q-0.8125 0.40625 -1.390625 1.125q-0.578125 0.71875 -0.90625 1.65625q-0.3125 0.921875 -0.3125 1.921875q0 1.046875 0.34375 1.953125q0.359375 0.890625 0.96875 1.5625q0.609375 0.671875 1.453125 1.0625q0.84375 0.375 1.875 0.375zm12.577576 3.328125l0 -16.765625l4.28125 0l0 16.765625l-4.28125 0zm0 -19.109375l0 -4.25l4.28125 0l0 4.25l-4.28125 0zm23.73816 19.109375l-4.28125 0l0 -9.40625q0 -2.015625 -0.703125 -2.9375q-0.703125 -0.9375 -1.953125 -0.9375q-0.640625 0 -1.3125 0.265625q-0.671875 0.25 -1.265625 0.71875q-0.59375 0.453125 -1.078125 1.09375q-0.46875 0.640625 -0.703125 1.40625l0 9.796875l-4.28125 0l0 -16.765625l3.875 0l0 3.109375q0.921875 -1.609375 2.671875 -2.5q1.765625 -0.90625 3.984375 -0.90625q1.5625 0 2.546875 0.578125q1.0 0.578125 1.546875 1.515625q0.546875 0.921875 0.75 2.109375q0.203125 1.171875 0.203125 2.390625l0 10.46875zm10.312378 0.09375q-1.703125 0 -3.078125 -0.671875q-1.375 -0.671875 -2.390625 -1.828125q-1.0 -1.171875 -1.546875 -2.703125q-0.546875 -1.546875 -0.546875 -3.28125q0 -1.8125 0.578125 -3.375q0.578125 -1.578125 1.59375 -2.765625q1.03125 -1.1875 2.46875 -1.859375q1.453125 -0.671875 3.171875 -0.671875q1.953125 0 3.421875 0.890625q1.46875 0.875 2.4375 2.34375l0 -2.9375l3.75 0l0 15.96875q0 1.859375 -0.71875 3.328125q-0.703125 1.46875 -1.9375 2.484375q-1.21875 1.03125 -2.9375 1.578125q-1.703125 0.546875 -3.71875 0.546875q-2.765625 0 -4.640625 -0.921875q-1.859375 -0.90625 -3.203125 -2.578125l2.328125 -2.265625q0.96875 1.1875 2.421875 1.859375q1.453125 0.671875 3.09375 0.671875q0.984375 0 1.890625 -0.28125q0.921875 -0.265625 1.625 -0.84375q0.703125 -0.578125 1.09375 -1.46875q0.40625 -0.890625 0.40625 -2.109375l0 -2.109375q-0.828125 1.4375 -2.34375 2.21875q-1.5 0.78125 -3.21875 0.78125zm1.4375 -3.421875q0.703125 0 1.34375 -0.21875q0.640625 -0.234375 1.1875 -0.609375q0.546875 -0.390625 0.953125 -0.890625q0.421875 -0.515625 0.640625 -1.09375l0 -4.0q-0.578125 -1.46875 -1.8125 -2.359375q-1.21875 -0.90625 -2.5625 -0.90625q-1.0 0 -1.796875 0.4375q-0.796875 0.421875 -1.375 1.140625q-0.578125 0.71875 -0.890625 1.65625q-0.296875 0.921875 -0.296875 1.921875q0 1.015625 0.34375 1.921875q0.359375 0.890625 0.984375 1.5625q0.625 0.671875 1.453125 1.0625q0.828125 0.375 1.828125 0.375z" fill-rule="nonzero"/><path fill="#ffffff" d="m603.5827 224.22l-4.28125 0l0 -9.40625q0 -2.015625 -0.6875 -2.9375q-0.6875 -0.9375 -1.90625 -0.9375q-1.28125 0 -2.40625 0.984375q-1.125 0.96875 -1.59375 2.53125l0 9.765625l-4.296875 0l0 -9.40625q0 -2.015625 -0.6875 -2.9375q-0.6875 -0.9375 -1.90625 -0.9375q-1.25 0 -2.390625 0.96875q-1.125 0.953125 -1.609375 2.515625l0 9.796875l-4.28125 0l0 -16.765625l3.875 0l0 3.109375q0.921875 -1.640625 2.53125 -2.515625q1.625 -0.890625 3.703125 -0.890625q2.109375 0 3.265625 1.03125q1.15625 1.015625 1.46875 2.53125q1.03125 -1.734375 2.59375 -2.640625q1.5625 -0.921875 3.578125 -0.921875q1.546875 0 2.53125 0.578125q1.0 0.578125 1.53125 1.515625q0.546875 0.921875 0.75 2.109375q0.21875 1.171875 0.21875 2.390625l0 10.46875zm11.526428 0.3125q-2.015625 0 -3.65625 -0.6875q-1.625 -0.6875 -2.78125 -1.859375q-1.15625 -1.1875 -1.78125 -2.75q-0.625 -1.578125 -0.625 -3.296875q0 -1.796875 0.609375 -3.375q0.609375 -1.59375 1.765625 -2.78125q1.15625 -1.203125 2.796875 -1.90625q1.65625 -0.71875 3.703125 -0.71875q2.046875 0 3.65625 0.71875q1.625 0.703125 2.75 1.890625q1.140625 1.171875 1.734375 2.75q0.59375 1.5625 0.59375 3.25q0 0.421875 -0.015625 0.8125q-0.015625 0.375 -0.078125 0.625l-12.96875 0q0.09375 1.0 0.46875 1.765625q0.390625 0.765625 1.0 1.3125q0.609375 0.546875 1.375 0.84375q0.78125 0.28125 1.609375 0.28125q1.28125 0 2.40625 -0.625q1.140625 -0.625 1.5625 -1.65625l3.671875 1.03125q-0.921875 1.921875 -2.953125 3.15625q-2.03125 1.21875 -4.84375 1.21875zm4.34375 -10.109375q-0.15625 -1.890625 -1.390625 -3.015625q-1.234375 -1.140625 -2.984375 -1.140625q-0.875 0 -1.625 0.3125q-0.75 0.296875 -1.328125 0.84375q-0.578125 0.546875 -0.953125 1.3125q-0.359375 0.765625 -0.421875 1.6875l8.703125 0zm17.089905 8.9375q-0.859375 0.375 -2.109375 0.765625q-1.25 0.375 -2.625 0.375q-0.890625 0 -1.6875 -0.21875q-0.78125 -0.21875 -1.375 -0.71875q-0.59375 -0.5 -0.953125 -1.28125q-0.34375 -0.78125 -0.34375 -1.90625l0 -9.625l-2.203125 0l0 -3.296875l2.203125 0l0 -5.4375l4.296875 0l0 5.4375l3.515625 0l0 3.296875l-3.515625 0l0 8.1875q0 0.890625 0.453125 1.265625q0.46875 0.375 1.140625 0.375q0.671875 0 1.3125 -0.21875q0.640625 -0.234375 1.03125 -0.390625l0.859375 3.390625zm6.819275 1.171875q-1.21875 0 -2.28125 -0.390625q-1.046875 -0.40625 -1.828125 -1.125q-0.765625 -0.71875 -1.203125 -1.671875q-0.421875 -0.96875 -0.421875 -2.109375q0 -1.1875 0.53125 -2.1875q0.53125 -1.015625 1.46875 -1.71875q0.953125 -0.703125 2.265625 -1.109375q1.3125 -0.40625 2.875 -0.40625q1.125 0 2.1875 0.203125q1.078125 0.1875 1.90625 0.546875l0 -0.96875q0 -1.65625 -0.953125 -2.546875q-0.9375 -0.90625 -2.796875 -0.90625q-1.34375 0 -2.625 0.484375q-1.265625 0.46875 -2.609375 1.40625l-1.3125 -2.71875q3.21875 -2.15625 6.96875 -2.15625q3.609375 0 5.609375 1.78125q2.0 1.78125 2.0 5.140625l0 5.21875q0 0.671875 0.234375 0.953125q0.25 0.28125 0.796875 0.328125l0 3.640625q-1.09375 0.21875 -1.890625 0.21875q-1.21875 0 -1.875 -0.53125q-0.65625 -0.546875 -0.8125 -1.453125l-0.09375 -0.921875q-1.125 1.46875 -2.71875 2.234375q-1.59375 0.765625 -3.421875 0.765625zm1.21875 -3.125q1.078125 0 2.046875 -0.375q0.984375 -0.390625 1.53125 -1.03125q0.703125 -0.546875 0.703125 -1.21875l0 -1.921875q-0.765625 -0.28125 -1.671875 -0.453125q-0.890625 -0.1875 -1.71875 -0.1875q-1.671875 0 -2.734375 0.75q-1.046875 0.75 -1.046875 1.90625q0 1.09375 0.828125 1.8125q0.84375 0.71875 2.0625 0.71875zm22.618042 3.125q-1.984375 0 -3.453125 -0.875q-1.46875 -0.875 -2.3125 -2.375l0 9.75l-4.28125 0l0 -23.578125l3.75 0l0 2.875q0.921875 -1.46875 2.390625 -2.3125q1.46875 -0.859375 3.390625 -0.859375q1.703125 0 3.140625 0.6875q1.4375 0.6875 2.46875 1.859375q1.046875 1.171875 1.640625 2.765625q0.59375 1.578125 0.59375 3.328125q0 1.828125 -0.546875 3.4375q-0.546875 1.59375 -1.53125 2.78125q-0.96875 1.171875 -2.3125 1.84375q-1.34375 0.671875 -2.9375 0.671875zm-1.4375 -3.640625q0.953125 0 1.765625 -0.40625q0.828125 -0.421875 1.390625 -1.125q0.578125 -0.703125 0.890625 -1.625q0.328125 -0.9375 0.328125 -1.9375q0 -1.046875 -0.359375 -1.953125q-0.34375 -0.921875 -0.96875 -1.59375q-0.625 -0.671875 -1.46875 -1.046875q-0.84375 -0.390625 -1.84375 -0.390625q-0.59375 0 -1.234375 0.21875q-0.640625 0.203125 -1.1875 0.59375q-0.546875 0.375 -0.984375 0.890625q-0.421875 0.5 -0.65625 1.109375l0 3.9375q0.578125 1.4375 1.765625 2.390625q1.1875 0.9375 2.5625 0.9375zm27.256775 3.328125l-4.28125 0l0 -9.40625q0 -1.984375 -0.734375 -2.921875q-0.734375 -0.953125 -2.078125 -0.953125q-0.578125 0 -1.21875 0.265625q-0.640625 0.25 -1.21875 0.71875q-0.578125 0.453125 -1.0625 1.09375q-0.46875 0.640625 -0.703125 1.40625l0 9.796875l-4.28125 0l0 -23.359375l4.28125 0l0 9.703125q0.9375 -1.640625 2.515625 -2.515625q1.59375 -0.890625 3.5 -0.890625q1.640625 0 2.65625 0.5625q1.03125 0.5625 1.609375 1.5q0.578125 0.921875 0.796875 2.109375q0.21875 1.171875 0.21875 2.421875l0 10.46875zm11.499939 0.3125q-2.0625 0 -3.6875 -0.703125q-1.625 -0.703125 -2.765625 -1.890625q-1.140625 -1.203125 -1.75 -2.765625q-0.609375 -1.578125 -0.609375 -3.3125q0 -1.75 0.609375 -3.3125q0.609375 -1.578125 1.75 -2.765625q1.140625 -1.203125 2.765625 -1.90625q1.625 -0.71875 3.6875 -0.71875q2.046875 0 3.65625 0.71875q1.609375 0.703125 2.75 1.90625q1.140625 1.1875 1.75 2.765625q0.609375 1.5625 0.609375 3.3125q0 1.734375 -0.609375 3.3125q-0.609375 1.5625 -1.734375 2.765625q-1.109375 1.1875 -2.75 1.890625q-1.625 0.703125 -3.671875 0.703125zm-4.390625 -8.671875q0 1.125 0.328125 2.046875q0.34375 0.90625 0.9375 1.578125q0.59375 0.671875 1.390625 1.046875q0.796875 0.359375 1.734375 0.359375q0.921875 0 1.71875 -0.359375q0.796875 -0.375 1.390625 -1.046875q0.59375 -0.671875 0.921875 -1.59375q0.34375 -0.9375 0.34375 -2.0625q0 -1.078125 -0.34375 -2.0q-0.328125 -0.9375 -0.921875 -1.609375q-0.59375 -0.671875 -1.390625 -1.03125q-0.796875 -0.375 -1.71875 -0.375q-0.9375 0 -1.734375 0.390625q-0.796875 0.375 -1.390625 1.046875q-0.59375 0.671875 -0.9375 1.609375q-0.328125 0.921875 -0.328125 2.0zm26.017029 -4.703125q-1.953125 0.03125 -3.5 0.765625q-1.53125 0.71875 -2.203125 2.15625l0 10.140625l-4.28125 0l0 -16.765625l3.9375 0l0 3.578125q0.453125 -0.859375 1.046875 -1.546875q0.609375 -0.6875 1.3125 -1.203125q0.703125 -0.515625 1.421875 -0.78125q0.734375 -0.265625 1.40625 -0.265625q0.34375 0 0.515625 0q0.1875 0 0.34375 0.03125l0 3.890625zm8.727783 13.375q-2.109375 0 -4.125 -0.671875q-2.015625 -0.671875 -3.453125 -1.90625l1.59375 -2.6875q1.546875 1.078125 3.0 1.640625q1.453125 0.5625 2.890625 0.5625q1.28125 0 2.015625 -0.484375q0.734375 -0.484375 0.734375 -1.375q0 -0.890625 -0.859375 -1.3125q-0.859375 -0.421875 -2.8125 -0.953125q-1.640625 -0.453125 -2.796875 -0.859375q-1.140625 -0.421875 -1.84375 -0.953125q-0.703125 -0.53125 -1.03125 -1.21875q-0.3125 -0.6875 -0.3125 -1.640625q0 -1.28125 0.484375 -2.296875q0.5 -1.03125 1.390625 -1.75q0.90625 -0.71875 2.109375 -1.109375q1.203125 -0.390625 2.609375 -0.390625q1.890625 0 3.53125 0.546875q1.65625 0.546875 3.03125 1.765625l-1.734375 2.59375q-1.28125 -0.96875 -2.484375 -1.40625q-1.1875 -0.453125 -2.375 -0.453125q-1.09375 0 -1.828125 0.453125q-0.734375 0.4375 -0.734375 1.4375q0 0.4375 0.171875 0.734375q0.171875 0.28125 0.5625 0.515625q0.390625 0.21875 1.0 0.4375q0.625 0.203125 1.5625 0.421875q1.71875 0.453125 2.953125 0.90625q1.234375 0.4375 2.015625 1.015625q0.796875 0.578125 1.15625 1.328125q0.375 0.75 0.375 1.8125q0 2.453125 -1.828125 3.875q-1.828125 1.421875 -4.96875 1.421875z" fill-rule="nonzero"/><path fill="#ffffff" d="m541.92645 252.31375q1.71875 0 3.375 0.890625q1.65625 0.890625 2.578125 2.546875q0.921875 1.65625 0.921875 3.4375q0 2.859375 -2.015625 4.875q-2.015625 2.015625 -4.859375 2.015625q-2.859375 0 -4.875 -2.015625q-2.015625 -2.015625 -2.015625 -4.875q0 -1.796875 0.921875 -3.4375q0.921875 -1.65625 2.578125 -2.546875q1.65625 -0.890625 3.390625 -0.890625z" fill-rule="nonzero"/><path fill="#ffffff" d="m577.9577 268.22l0 -22.71875l4.40625 0l0 18.84375l11.59375 0l0 3.875l-16.0 0zm18.266113 0l0 -16.765625l4.28125 0l0 16.765625l-4.28125 0zm0 -19.109375l0 -4.25l4.28125 0l0 4.25l-4.28125 0zm23.73816 19.109375l-4.28125 0l0 -9.40625q0 -2.015625 -0.703125 -2.9375q-0.703125 -0.9375 -1.953125 -0.9375q-0.640625 0 -1.3125 0.265625q-0.671875 0.25 -1.265625 0.71875q-0.59375 0.453125 -1.078125 1.09375q-0.46875 0.640625 -0.703125 1.40625l0 9.796875l-4.28125 0l0 -16.765625l3.875 0l0 3.109375q0.921875 -1.609375 2.671875 -2.5q1.765625 -0.90625 3.984375 -0.90625q1.5625 0 2.546875 0.578125q1.0 0.578125 1.546875 1.515625q0.546875 0.921875 0.75 2.109375q0.203125 1.171875 0.203125 2.390625l0 10.46875zm15.203064 0l-4.859375 -7.265625l-2.3125 2.28125l0 4.984375l-4.28125 0l0 -23.359375l4.28125 0l0 14.171875l6.71875 -7.546875l4.578125 0l-6.234375 7.109375l6.6875 9.625l-4.578125 0zm6.402893 0l0 -16.765625l4.28125 0l0 16.765625l-4.28125 0zm0 -19.109375l0 -4.25l4.28125 0l0 4.25l-4.28125 0zm23.73816 19.109375l-4.28125 0l0 -9.40625q0 -2.015625 -0.703125 -2.9375q-0.703125 -0.9375 -1.953125 -0.9375q-0.640625 0 -1.3125 0.265625q-0.671875 0.25 -1.265625 0.71875q-0.59375 0.453125 -1.078125 1.09375q-0.46875 0.640625 -0.703125 1.40625l0 9.796875l-4.28125 0l0 -16.765625l3.875 0l0 3.109375q0.921875 -1.609375 2.671875 -2.5q1.765625 -0.90625 3.984375 -0.90625q1.5625 0 2.546875 0.578125q1.0 0.578125 1.546875 1.515625q0.546875 0.921875 0.75 2.109375q0.203125 1.171875 0.203125 2.390625l0 10.46875zm10.312378 0.09375q-1.703125 0 -3.078125 -0.671875q-1.375 -0.671875 -2.390625 -1.828125q-1.0 -1.171875 -1.546875 -2.703125q-0.546875 -1.546875 -0.546875 -3.28125q0 -1.8125 0.578125 -3.375q0.578125 -1.578125 1.59375 -2.765625q1.03125 -1.1875 2.46875 -1.859375q1.453125 -0.671875 3.171875 -0.671875q1.953125 0 3.421875 0.890625q1.46875 0.875 2.4375 2.34375l0 -2.9375l3.75 0l0 15.96875q0 1.859375 -0.71875 3.328125q-0.703125 1.46875 -1.9375 2.484375q-1.21875 1.03125 -2.9375 1.578125q-1.703125 0.546875 -3.71875 0.546875q-2.765625 0 -4.640625 -0.921875q-1.859375 -0.90625 -3.203125 -2.578125l2.328125 -2.265625q0.96875 1.1875 2.421875 1.859375q1.453125 0.671875 3.09375 0.671875q0.984375 0 1.890625 -0.28125q0.921875 -0.265625 1.625 -0.84375q0.703125 -0.578125 1.09375 -1.46875q0.40625 -0.890625 0.40625 -2.109375l0 -2.109375q-0.828125 1.4375 -2.34375 2.21875q-1.5 0.78125 -3.21875 0.78125zm1.4375 -3.421875q0.703125 0 1.34375 -0.21875q0.640625 -0.234375 1.1875 -0.609375q0.546875 -0.390625 0.953125 -0.890625q0.421875 -0.515625 0.640625 -1.09375l0 -4.0q-0.578125 -1.46875 -1.8125 -2.359375q-1.21875 -0.90625 -2.5625 -0.90625q-1.0 0 -1.796875 0.4375q-0.796875 0.421875 -1.375 1.140625q-0.578125 0.71875 -0.890625 1.65625q-0.296875 0.921875 -0.296875 1.921875q0 1.015625 0.34375 1.921875q0.359375 0.890625 0.984375 1.5625q0.625 0.671875 1.453125 1.0625q0.828125 0.375 1.828125 0.375zm46.014954 3.328125l-4.28125 0l0 -9.40625q0 -2.015625 -0.6875 -2.9375q-0.6875 -0.9375 -1.90625 -0.9375q-1.28125 0 -2.40625 0.984375q-1.125 0.96875 -1.59375 2.53125l0 9.765625l-4.296875 0l0 -9.40625q0 -2.015625 -0.6875 -2.9375q-0.6875 -0.9375 -1.90625 -0.9375q-1.25 0 -2.390625 0.96875q-1.125 0.953125 -1.609375 2.515625l0 9.796875l-4.28125 0l0 -16.765625l3.875 0l0 3.109375q0.921875 -1.640625 2.53125 -2.515625q1.625 -0.890625 3.703125 -0.890625q2.109375 0 3.265625 1.03125q1.15625 1.015625 1.46875 2.53125q1.03125 -1.734375 2.59375 -2.640625q1.5625 -0.921875 3.578125 -0.921875q1.546875 0 2.53125 0.578125q1.0 0.578125 1.53125 1.515625q0.546875 0.921875 0.75 2.109375q0.21875 1.171875 0.21875 2.390625l0 10.46875zm11.526428 0.3125q-2.015625 0 -3.65625 -0.6875q-1.625 -0.6875 -2.78125 -1.859375q-1.15625 -1.1875 -1.78125 -2.75q-0.625 -1.578125 -0.625 -3.296875q0 -1.796875 0.609375 -3.375q0.609375 -1.59375 1.765625 -2.78125q1.15625 -1.203125 2.796875 -1.90625q1.65625 -0.71875 3.703125 -0.71875q2.046875 0 3.65625 0.71875q1.625 0.703125 2.75 1.890625q1.140625 1.171875 1.734375 2.75q0.59375 1.5625 0.59375 3.25q0 0.421875 -0.015625 0.8125q-0.015625 0.375 -0.078125 0.625l-12.96875 0q0.09375 1.0 0.46875 1.765625q0.390625 0.765625 1.0 1.3125q0.609375 0.546875 1.375 0.84375q0.78125 0.28125 1.609375 0.28125q1.28125 0 2.40625 -0.625q1.140625 -0.625 1.5625 -1.65625l3.671875 1.03125q-0.921875 1.921875 -2.953125 3.15625q-2.03125 1.21875 -4.84375 1.21875zm4.34375 -10.109375q-0.15625 -1.890625 -1.390625 -3.015625q-1.234375 -1.140625 -2.984375 -1.140625q-0.875 0 -1.625 0.3125q-0.75 0.296875 -1.328125 0.84375q-0.578125 0.546875 -0.953125 1.3125q-0.359375 0.765625 -0.421875 1.6875l8.703125 0zm17.089905 8.9375q-0.859375 0.375 -2.109375 0.765625q-1.25 0.375 -2.625 0.375q-0.890625 0 -1.6875 -0.21875q-0.78125 -0.21875 -1.375 -0.71875q-0.59375 -0.5 -0.953125 -1.28125q-0.34375 -0.78125 -0.34375 -1.90625l0 -9.625l-2.203125 0l0 -3.296875l2.203125 0l0 -5.4375l4.296875 0l0 5.4375l3.515625 0l0 3.296875l-3.515625 0l0 8.1875q0 0.890625 0.453125 1.265625q0.46875 0.375 1.140625 0.375q0.671875 0 1.3125 -0.21875q0.640625 -0.234375 1.03125 -0.390625l0.859375 3.390625zm6.819275 1.171875q-1.21875 0 -2.28125 -0.390625q-1.046875 -0.40625 -1.828125 -1.125q-0.765625 -0.71875 -1.203125 -1.671875q-0.421875 -0.96875 -0.421875 -2.109375q0 -1.1875 0.53125 -2.1875q0.53125 -1.015625 1.46875 -1.71875q0.953125 -0.703125 2.265625 -1.109375q1.3125 -0.40625 2.875 -0.40625q1.125 0 2.1875 0.203125q1.078125 0.1875 1.90625 0.546875l0 -0.96875q0 -1.65625 -0.953125 -2.546875q-0.9375 -0.90625 -2.796875 -0.90625q-1.34375 0 -2.625 0.484375q-1.265625 0.46875 -2.609375 1.40625l-1.3125 -2.71875q3.21875 -2.15625 6.96875 -2.15625q3.609375 0 5.609375 1.78125q2.0 1.78125 2.0 5.140625l0 5.21875q0 0.671875 0.234375 0.953125q0.25 0.28125 0.796875 0.328125l0 3.640625q-1.09375 0.21875 -1.890625 0.21875q-1.21875 0 -1.875 -0.53125q-0.65625 -0.546875 -0.8125 -1.453125l-0.09375 -0.921875q-1.125 1.46875 -2.71875 2.234375q-1.59375 0.765625 -3.421875 0.765625zm1.21875 -3.125q1.078125 0 2.046875 -0.375q0.984375 -0.390625 1.53125 -1.03125q0.703125 -0.546875 0.703125 -1.21875l0 -1.921875q-0.765625 -0.28125 -1.671875 -0.453125q-0.890625 -0.1875 -1.71875 -0.1875q-1.671875 0 -2.734375 0.75q-1.046875 0.75 -1.046875 1.90625q0 1.09375 0.828125 1.8125q0.84375 0.71875 2.0625 0.71875zm22.618042 3.125q-1.984375 0 -3.453125 -0.875q-1.46875 -0.875 -2.3125 -2.375l0 9.75l-4.28125 0l0 -23.578125l3.75 0l0 2.875q0.921875 -1.46875 2.390625 -2.3125q1.46875 -0.859375 3.390625 -0.859375q1.703125 0 3.140625 0.6875q1.4375 0.6875 2.46875 1.859375q1.046875 1.171875 1.640625 2.765625q0.59375 1.578125 0.59375 3.328125q0 1.828125 -0.546875 3.4375q-0.546875 1.59375 -1.53125 2.78125q-0.96875 1.171875 -2.3125 1.84375q-1.34375 0.671875 -2.9375 0.671875zm-1.4375 -3.640625q0.953125 0 1.765625 -0.40625q0.828125 -0.421875 1.390625 -1.125q0.578125 -0.703125 0.890625 -1.625q0.328125 -0.9375 0.328125 -1.9375q0 -1.046875 -0.359375 -1.953125q-0.34375 -0.921875 -0.96875 -1.59375q-0.625 -0.671875 -1.46875 -1.046875q-0.84375 -0.390625 -1.84375 -0.390625q-0.59375 0 -1.234375 0.21875q-0.640625 0.203125 -1.1875 0.59375q-0.546875 0.375 -0.984375 0.890625q-0.421875 0.5 -0.65625 1.109375l0 3.9375q0.578125 1.4375 1.765625 2.390625q1.1875 0.9375 2.5625 0.9375zm27.256836 3.328125l-4.28125 0l0 -9.40625q0 -1.984375 -0.734375 -2.921875q-0.734375 -0.953125 -2.078125 -0.953125q-0.578125 0 -1.21875 0.265625q-0.640625 0.25 -1.21875 0.71875q-0.578125 0.453125 -1.0625 1.09375q-0.46875 0.640625 -0.703125 1.40625l0 9.796875l-4.28125 0l0 -23.359375l4.28125 0l0 9.703125q0.9375 -1.640625 2.515625 -2.515625q1.59375 -0.890625 3.5 -0.890625q1.640625 0 2.65625 0.5625q1.03125 0.5625 1.609375 1.5q0.578125 0.921875 0.796875 2.109375q0.21875 1.171875 0.21875 2.421875l0 10.46875zm11.499878 0.3125q-2.0625 0 -3.6875 -0.703125q-1.625 -0.703125 -2.765625 -1.890625q-1.140625 -1.203125 -1.75 -2.765625q-0.609375 -1.578125 -0.609375 -3.3125q0 -1.75 0.609375 -3.3125q0.609375 -1.578125 1.75 -2.765625q1.140625 -1.203125 2.765625 -1.90625q1.625 -0.71875 3.6875 -0.71875q2.046875 0 3.65625 0.71875q1.609375 0.703125 2.75 1.90625q1.140625 1.1875 1.75 2.765625q0.609375 1.5625 0.609375 3.3125q0 1.734375 -0.609375 3.3125q-0.609375 1.5625 -1.734375 2.765625q-1.109375 1.1875 -2.75 1.890625q-1.625 0.703125 -3.671875 0.703125zm-4.390625 -8.671875q0 1.125 0.328125 2.046875q0.34375 0.90625 0.9375 1.578125q0.59375 0.671875 1.390625 1.046875q0.796875 0.359375 1.734375 0.359375q0.921875 0 1.71875 -0.359375q0.796875 -0.375 1.390625 -1.046875q0.59375 -0.671875 0.921875 -1.59375q0.34375 -0.9375 0.34375 -2.0625q0 -1.078125 -0.34375 -2.0q-0.328125 -0.9375 -0.921875 -1.609375q-0.59375 -0.671875 -1.390625 -1.03125q-0.796875 -0.375 -1.71875 -0.375q-0.9375 0 -1.734375 0.390625q-0.796875 0.375 -1.390625 1.046875q-0.59375 0.671875 -0.9375 1.609375q-0.328125 0.921875 -0.328125 2.0zm26.017029 -4.703125q-1.953125 0.03125 -3.5 0.765625q-1.53125 0.71875 -2.203125 2.15625l0 10.140625l-4.28125 0l0 -16.765625l3.9375 0l0 3.578125q0.453125 -0.859375 1.046875 -1.546875q0.609375 -0.6875 1.3125 -1.203125q0.703125 -0.515625 1.421875 -0.78125q0.734375 -0.265625 1.40625 -0.265625q0.34375 0 0.515625 0q0.1875 0 0.34375 0.03125l0 3.890625zm8.727783 13.375q-2.109375 0 -4.125 -0.671875q-2.015625 -0.671875 -3.453125 -1.90625l1.59375 -2.6875q1.546875 1.078125 3.0 1.640625q1.453125 0.5625 2.890625 0.5625q1.28125 0 2.015625 -0.484375q0.734375 -0.484375 0.734375 -1.375q0 -0.890625 -0.859375 -1.3125q-0.859375 -0.421875 -2.8125 -0.953125q-1.640625 -0.453125 -2.796875 -0.859375q-1.140625 -0.421875 -1.84375 -0.953125q-0.703125 -0.53125 -1.03125 -1.21875q-0.3125 -0.6875 -0.3125 -1.640625q0 -1.28125 0.484375 -2.296875q0.5 -1.03125 1.390625 -1.75q0.90625 -0.71875 2.109375 -1.109375q1.203125 -0.390625 2.609375 -0.390625q1.890625 0 3.53125 0.546875q1.65625 0.546875 3.03125 1.765625l-1.734375 2.59375q-1.28125 -0.96875 -2.484375 -1.40625q-1.1875 -0.453125 -2.375 -0.453125q-1.09375 0 -1.828125 0.453125q-0.734375 0.4375 -0.734375 1.4375q0 0.4375 0.171875 0.734375q0.171875 0.28125 0.5625 0.515625q0.390625 0.21875 1.0 0.4375q0.625 0.203125 1.5625 0.421875q1.71875 0.453125 2.953125 0.90625q1.234375 0.4375 2.015625 1.015625q0.796875 0.578125 1.15625 1.328125q0.375 0.75 0.375 1.8125q0 2.453125 -1.828125 3.875q-1.828125 1.421875 -4.96875 1.421875z" fill-rule="nonzero"/><path fill="#ffffff" d="m541.92645 296.31375q1.71875 0 3.375 0.890625q1.65625 0.890625 2.578125 2.546875q0.921875 1.65625 0.921875 3.4375q0 2.859375 -2.015625 4.875q-2.015625 2.015625 -4.859375 2.015625q-2.859375 0 -4.875 -2.015625q-2.015625 -2.015625 -2.015625 -4.875q0 -1.796875 0.921875 -3.4375q0.921875 -1.65625 2.578125 -2.546875q1.65625 -0.890625 3.390625 -0.890625z" fill-rule="nonzero"/><path fill="#ffffff" d="m593.7233 308.345l0 3.875l-15.765625 0l0 -22.71875l15.484375 0l0 3.875l-11.078125 0l0 5.46875l9.578125 0l0 3.578125l-9.578125 0l0 5.921875l11.359375 0zm5.7007446 -12.890625l3.609375 5.25l0.265625 0.578125l0.3125 -0.578125l3.59375 -5.25l4.40625 0l-5.984375 8.40625l6.078125 8.359375l-4.40625 0l-3.71875 -5.21875l-0.28125 -0.546875l-0.265625 0.546875l-3.671875 5.21875l-4.421875 0l6.046875 -8.359375l-5.953125 -8.40625l4.390625 0zm24.38269 15.90625q-0.859375 0.375 -2.109375 0.765625q-1.25 0.375 -2.625 0.375q-0.890625 0 -1.6875 -0.21875q-0.78125 -0.21875 -1.375 -0.71875q-0.59375 -0.5 -0.953125 -1.28125q-0.34375 -0.78125 -0.34375 -1.90625l0 -9.625l-2.203125 0l0 -3.296875l2.203125 0l0 -5.4375l4.296875 0l0 5.4375l3.515625 0l0 3.296875l-3.515625 0l0 8.1875q0 0.890625 0.453125 1.265625q0.46875 0.375 1.140625 0.375q0.671875 0 1.3125 -0.21875q0.640625 -0.234375 1.03125 -0.390625l0.859375 3.390625zm12.225525 -12.203125q-1.953125 0.03125 -3.5 0.765625q-1.53125 0.71875 -2.203125 2.15625l0 10.140625l-4.28125 0l0 -16.765625l3.9375 0l0 3.578125q0.453125 -0.859375 1.046875 -1.546875q0.609375 -0.6875 1.3125 -1.203125q0.703125 -0.515625 1.421875 -0.78125q0.734375 -0.265625 1.40625 -0.265625q0.34375 0 0.515625 0q0.1875 0 0.34375 0.03125l0 3.890625zm6.977783 13.375q-1.21875 0 -2.28125 -0.390625q-1.046875 -0.40625 -1.828125 -1.125q-0.765625 -0.71875 -1.203125 -1.671875q-0.421875 -0.96875 -0.421875 -2.109375q0 -1.1875 0.53125 -2.1875q0.53125 -1.015625 1.46875 -1.71875q0.953125 -0.703125 2.265625 -1.109375q1.3125 -0.40625 2.875 -0.40625q1.125 0 2.1875 0.203125q1.078125 0.1875 1.90625 0.546875l0 -0.96875q0 -1.65625 -0.953125 -2.546875q-0.9375 -0.90625 -2.796875 -0.90625q-1.34375 0 -2.625 0.484375q-1.265625 0.46875 -2.609375 1.40625l-1.3125 -2.71875q3.21875 -2.15625 6.96875 -2.15625q3.609375 0 5.609375 1.78125q2.0 1.78125 2.0 5.140625l0 5.21875q0 0.671875 0.234375 0.953125q0.25 0.28125 0.796875 0.328125l0 3.640625q-1.09375 0.21875 -1.890625 0.21875q-1.21875 0 -1.875 -0.53125q-0.65625 -0.546875 -0.8125 -1.453125l-0.09375 -0.921875q-1.125 1.46875 -2.71875 2.234375q-1.59375 0.765625 -3.421875 0.765625zm1.21875 -3.125q1.078125 0 2.046875 -0.375q0.984375 -0.390625 1.53125 -1.03125q0.703125 -0.546875 0.703125 -1.21875l0 -1.921875q-0.765625 -0.28125 -1.671875 -0.453125q-0.890625 -0.1875 -1.71875 -0.1875q-1.671875 0 -2.734375 0.75q-1.046875 0.75 -1.046875 1.90625q0 1.09375 0.828125 1.8125q0.84375 0.71875 2.0625 0.71875zm28.149292 2.8125l-4.28125 0l0 -9.40625q0 -2.015625 -0.703125 -2.9375q-0.703125 -0.9375 -1.953125 -0.9375q-0.640625 0 -1.3125 0.265625q-0.671875 0.25 -1.265625 0.71875q-0.59375 0.453125 -1.078125 1.09375q-0.46875 0.640625 -0.703125 1.40625l0 9.796875l-4.28125 0l0 -16.765625l3.875 0l0 3.109375q0.921875 -1.609375 2.671875 -2.5q1.765625 -0.90625 3.984375 -0.90625q1.5625 0 2.546875 0.578125q1.0 0.578125 1.546875 1.515625q0.546875 0.921875 0.75 2.109375q0.203125 1.171875 0.203125 2.390625l0 10.46875zm11.531128 0.3125q-2.015625 0 -3.65625 -0.6875q-1.625 -0.6875 -2.78125 -1.859375q-1.15625 -1.1875 -1.78125 -2.75q-0.625 -1.578125 -0.625 -3.296875q0 -1.796875 0.609375 -3.375q0.609375 -1.59375 1.765625 -2.78125q1.15625 -1.203125 2.796875 -1.90625q1.65625 -0.71875 3.703125 -0.71875q2.046875 0 3.65625 0.71875q1.625 0.703125 2.75 1.890625q1.140625 1.171875 1.734375 2.75q0.59375 1.5625 0.59375 3.25q0 0.421875 -0.015625 0.8125q-0.015625 0.375 -0.078125 0.625l-12.96875 0q0.09375 1.0 0.46875 1.765625q0.390625 0.765625 1.0 1.3125q0.609375 0.546875 1.375 0.84375q0.78125 0.28125 1.609375 0.28125q1.28125 0 2.40625 -0.625q1.140625 -0.625 1.5625 -1.65625l3.671875 1.03125q-0.921875 1.921875 -2.953125 3.15625q-2.03125 1.21875 -4.84375 1.21875zm4.34375 -10.109375q-0.15625 -1.890625 -1.390625 -3.015625q-1.234375 -1.140625 -2.984375 -1.140625q-0.875 0 -1.625 0.3125q-0.75 0.296875 -1.328125 0.84375q-0.578125 0.546875 -0.953125 1.3125q-0.359375 0.765625 -0.421875 1.6875l8.703125 0zm14.79303 10.109375q-2.0625 0 -3.6875 -0.703125q-1.625 -0.703125 -2.765625 -1.890625q-1.140625 -1.203125 -1.75 -2.765625q-0.609375 -1.578125 -0.609375 -3.3125q0 -1.75 0.609375 -3.3125q0.609375 -1.578125 1.75 -2.765625q1.140625 -1.203125 2.765625 -1.90625q1.625 -0.71875 3.6875 -0.71875q2.046875 0 3.65625 0.71875q1.609375 0.703125 2.75 1.90625q1.140625 1.1875 1.75 2.765625q0.609375 1.5625 0.609375 3.3125q0 1.734375 -0.609375 3.3125q-0.609375 1.5625 -1.734375 2.765625q-1.109375 1.1875 -2.75 1.890625q-1.625 0.703125 -3.671875 0.703125zm-4.390625 -8.671875q0 1.125 0.328125 2.046875q0.34375 0.90625 0.9375 1.578125q0.59375 0.671875 1.390625 1.046875q0.796875 0.359375 1.734375 0.359375q0.921875 0 1.71875 -0.359375q0.796875 -0.375 1.390625 -1.046875q0.59375 -0.671875 0.921875 -1.59375q0.34375 -0.9375 0.34375 -2.0625q0 -1.078125 -0.34375 -2.0q-0.328125 -0.9375 -0.921875 -1.609375q-0.59375 -0.671875 -1.390625 -1.03125q-0.796875 -0.375 -1.71875 -0.375q-0.9375 0 -1.734375 0.390625q-0.796875 0.375 -1.390625 1.046875q-0.59375 0.671875 -0.9375 1.609375q-0.328125 0.921875 -0.328125 2.0zm21.157715 8.671875q-2.59375 0 -3.9375 -1.65625q-1.34375 -1.671875 -1.34375 -4.921875l0 -10.5l4.28125 0l0 9.5625q0 3.875 2.78125 3.875q1.25 0 2.421875 -0.75q1.171875 -0.75 1.90625 -2.296875l0 -10.390625l4.28125 0l0 11.84375q0 0.671875 0.234375 0.953125q0.25 0.28125 0.796875 0.328125l0 3.640625q-0.640625 0.125 -1.078125 0.15625q-0.4375 0.03125 -0.78125 0.03125q-1.15625 0 -1.875 -0.515625q-0.71875 -0.53125 -0.84375 -1.46875l-0.09375 -1.34375q-1.125 1.734375 -2.890625 2.59375q-1.75 0.859375 -3.859375 0.859375zm20.979126 0q-2.109375 0 -4.125 -0.671875q-2.015625 -0.671875 -3.453125 -1.90625l1.59375 -2.6875q1.546875 1.078125 3.0 1.640625q1.453125 0.5625 2.890625 0.5625q1.28125 0 2.015625 -0.484375q0.734375 -0.484375 0.734375 -1.375q0 -0.890625 -0.859375 -1.3125q-0.859375 -0.421875 -2.8125 -0.953125q-1.640625 -0.453125 -2.796875 -0.859375q-1.140625 -0.421875 -1.84375 -0.953125q-0.703125 -0.53125 -1.03125 -1.21875q-0.3125 -0.6875 -0.3125 -1.640625q0 -1.28125 0.484375 -2.296875q0.5 -1.03125 1.390625 -1.75q0.90625 -0.71875 2.109375 -1.109375q1.203125 -0.390625 2.609375 -0.390625q1.890625 0 3.53125 0.546875q1.65625 0.546875 3.03125 1.765625l-1.734375 2.59375q-1.28125 -0.96875 -2.484375 -1.40625q-1.1875 -0.453125 -2.375 -0.453125q-1.09375 0 -1.828125 0.453125q-0.734375 0.4375 -0.734375 1.4375q0 0.4375 0.171875 0.734375q0.171875 0.28125 0.5625 0.515625q0.390625 0.21875 1.0 0.4375q0.625 0.203125 1.5625 0.421875q1.71875 0.453125 2.953125 0.90625q1.234375 0.4375 2.015625 1.015625q0.796875 0.578125 1.15625 1.328125q0.375 0.75 0.375 1.8125q0 2.453125 -1.828125 3.875q-1.828125 1.421875 -4.96875 1.421875z" fill-rule="nonzero"/><path fill="#ffffff" d="m603.5827 356.22l-4.28125 0l0 -9.40625q0 -2.015625 -0.6875 -2.9375q-0.6875 -0.9375 -1.90625 -0.9375q-1.28125 0 -2.40625 0.984375q-1.125 0.96875 -1.59375 2.53125l0 9.765625l-4.296875 0l0 -9.40625q0 -2.015625 -0.6875 -2.9375q-0.6875 -0.9375 -1.90625 -0.9375q-1.25 0 -2.390625 0.96875q-1.125 0.953125 -1.609375 2.515625l0 9.796875l-4.28125 0l0 -16.765625l3.875 0l0 3.109375q0.921875 -1.640625 2.53125 -2.515625q1.625 -0.890625 3.703125 -0.890625q2.109375 0 3.265625 1.03125q1.15625 1.015625 1.46875 2.53125q1.03125 -1.734375 2.59375 -2.640625q1.5625 -0.921875 3.578125 -0.921875q1.546875 0 2.53125 0.578125q1.0 0.578125 1.53125 1.515625q0.546875 0.921875 0.75 2.109375q0.21875 1.171875 0.21875 2.390625l0 10.46875zm11.526428 0.3125q-2.015625 0 -3.65625 -0.6875q-1.625 -0.6875 -2.78125 -1.859375q-1.15625 -1.1875 -1.78125 -2.75q-0.625 -1.578125 -0.625 -3.296875q0 -1.796875 0.609375 -3.375q0.609375 -1.59375 1.765625 -2.78125q1.15625 -1.203125 2.796875 -1.90625q1.65625 -0.71875 3.703125 -0.71875q2.046875 0 3.65625 0.71875q1.625 0.703125 2.75 1.890625q1.140625 1.171875 1.734375 2.75q0.59375 1.5625 0.59375 3.25q0 0.421875 -0.015625 0.8125q-0.015625 0.375 -0.078125 0.625l-12.96875 0q0.09375 1.0 0.46875 1.765625q0.390625 0.765625 1.0 1.3125q0.609375 0.546875 1.375 0.84375q0.78125 0.28125 1.609375 0.28125q1.28125 0 2.40625 -0.625q1.140625 -0.625 1.5625 -1.65625l3.671875 1.03125q-0.921875 1.921875 -2.953125 3.15625q-2.03125 1.21875 -4.84375 1.21875zm4.34375 -10.109375q-0.15625 -1.890625 -1.390625 -3.015625q-1.234375 -1.140625 -2.984375 -1.140625q-0.875 0 -1.625 0.3125q-0.75 0.296875 -1.328125 0.84375q-0.578125 0.546875 -0.953125 1.3125q-0.359375 0.765625 -0.421875 1.6875l8.703125 0zm17.089905 8.9375q-0.859375 0.375 -2.109375 0.765625q-1.25 0.375 -2.625 0.375q-0.890625 0 -1.6875 -0.21875q-0.78125 -0.21875 -1.375 -0.71875q-0.59375 -0.5 -0.953125 -1.28125q-0.34375 -0.78125 -0.34375 -1.90625l0 -9.625l-2.203125 0l0 -3.296875l2.203125 0l0 -5.4375l4.296875 0l0 5.4375l3.515625 0l0 3.296875l-3.515625 0l0 8.1875q0 0.890625 0.453125 1.265625q0.46875 0.375 1.140625 0.375q0.671875 0 1.3125 -0.21875q0.640625 -0.234375 1.03125 -0.390625l0.859375 3.390625zm6.819275 1.171875q-1.21875 0 -2.28125 -0.390625q-1.046875 -0.40625 -1.828125 -1.125q-0.765625 -0.71875 -1.203125 -1.671875q-0.421875 -0.96875 -0.421875 -2.109375q0 -1.1875 0.53125 -2.1875q0.53125 -1.015625 1.46875 -1.71875q0.953125 -0.703125 2.265625 -1.109375q1.3125 -0.40625 2.875 -0.40625q1.125 0 2.1875 0.203125q1.078125 0.1875 1.90625 0.546875l0 -0.96875q0 -1.65625 -0.953125 -2.546875q-0.9375 -0.90625 -2.796875 -0.90625q-1.34375 0 -2.625 0.484375q-1.265625 0.46875 -2.609375 1.40625l-1.3125 -2.71875q3.21875 -2.15625 6.96875 -2.15625q3.609375 0 5.609375 1.78125q2.0 1.78125 2.0 5.140625l0 5.21875q0 0.671875 0.234375 0.953125q0.25 0.28125 0.796875 0.328125l0 3.640625q-1.09375 0.21875 -1.890625 0.21875q-1.21875 0 -1.875 -0.53125q-0.65625 -0.546875 -0.8125 -1.453125l-0.09375 -0.921875q-1.125 1.46875 -2.71875 2.234375q-1.59375 0.765625 -3.421875 0.765625zm1.21875 -3.125q1.078125 0 2.046875 -0.375q0.984375 -0.390625 1.53125 -1.03125q0.703125 -0.546875 0.703125 -1.21875l0 -1.921875q-0.765625 -0.28125 -1.671875 -0.453125q-0.890625 -0.1875 -1.71875 -0.1875q-1.671875 0 -2.734375 0.75q-1.046875 0.75 -1.046875 1.90625q0 1.09375 0.828125 1.8125q0.84375 0.71875 2.0625 0.71875zm22.618042 3.125q-1.984375 0 -3.453125 -0.875q-1.46875 -0.875 -2.3125 -2.375l0 9.75l-4.28125 0l0 -23.578125l3.75 0l0 2.875q0.921875 -1.46875 2.390625 -2.3125q1.46875 -0.859375 3.390625 -0.859375q1.703125 0 3.140625 0.6875q1.4375 0.6875 2.46875 1.859375q1.046875 1.171875 1.640625 2.765625q0.59375 1.578125 0.59375 3.328125q0 1.828125 -0.546875 3.4375q-0.546875 1.59375 -1.53125 2.78125q-0.96875 1.171875 -2.3125 1.84375q-1.34375 0.671875 -2.9375 0.671875zm-1.4375 -3.640625q0.953125 0 1.765625 -0.40625q0.828125 -0.421875 1.390625 -1.125q0.578125 -0.703125 0.890625 -1.625q0.328125 -0.9375 0.328125 -1.9375q0 -1.046875 -0.359375 -1.953125q-0.34375 -0.921875 -0.96875 -1.59375q-0.625 -0.671875 -1.46875 -1.046875q-0.84375 -0.390625 -1.84375 -0.390625q-0.59375 0 -1.234375 0.21875q-0.640625 0.203125 -1.1875 0.59375q-0.546875 0.375 -0.984375 0.890625q-0.421875 0.5 -0.65625 1.109375l0 3.9375q0.578125 1.4375 1.765625 2.390625q1.1875 0.9375 2.5625 0.9375zm27.256775 3.328125l-4.28125 0l0 -9.40625q0 -1.984375 -0.734375 -2.921875q-0.734375 -0.953125 -2.078125 -0.953125q-0.578125 0 -1.21875 0.265625q-0.640625 0.25 -1.21875 0.71875q-0.578125 0.453125 -1.0625 1.09375q-0.46875 0.640625 -0.703125 1.40625l0 9.796875l-4.28125 0l0 -23.359375l4.28125 0l0 9.703125q0.9375 -1.640625 2.515625 -2.515625q1.59375 -0.890625 3.5 -0.890625q1.640625 0 2.65625 0.5625q1.03125 0.5625 1.609375 1.5q0.578125 0.921875 0.796875 2.109375q0.21875 1.171875 0.21875 2.421875l0 10.46875zm11.499939 0.3125q-2.0625 0 -3.6875 -0.703125q-1.625 -0.703125 -2.765625 -1.890625q-1.140625 -1.203125 -1.75 -2.765625q-0.609375 -1.578125 -0.609375 -3.3125q0 -1.75 0.609375 -3.3125q0.609375 -1.578125 1.75 -2.765625q1.140625 -1.203125 2.765625 -1.90625q1.625 -0.71875 3.6875 -0.71875q2.046875 0 3.65625 0.71875q1.609375 0.703125 2.75 1.90625q1.140625 1.1875 1.75 2.765625q0.609375 1.5625 0.609375 3.3125q0 1.734375 -0.609375 3.3125q-0.609375 1.5625 -1.734375 2.765625q-1.109375 1.1875 -2.75 1.890625q-1.625 0.703125 -3.671875 0.703125zm-4.390625 -8.671875q0 1.125 0.328125 2.046875q0.34375 0.90625 0.9375 1.578125q0.59375 0.671875 1.390625 1.046875q0.796875 0.359375 1.734375 0.359375q0.921875 0 1.71875 -0.359375q0.796875 -0.375 1.390625 -1.046875q0.59375 -0.671875 0.921875 -1.59375q0.34375 -0.9375 0.34375 -2.0625q0 -1.078125 -0.34375 -2.0q-0.328125 -0.9375 -0.921875 -1.609375q-0.59375 -0.671875 -1.390625 -1.03125q-0.796875 -0.375 -1.71875 -0.375q-0.9375 0 -1.734375 0.390625q-0.796875 0.375 -1.390625 1.046875q-0.59375 0.671875 -0.9375 1.609375q-0.328125 0.921875 -0.328125 2.0zm26.017029 -4.703125q-1.953125 0.03125 -3.5 0.765625q-1.53125 0.71875 -2.203125 2.15625l0 10.140625l-4.28125 0l0 -16.765625l3.9375 0l0 3.578125q0.453125 -0.859375 1.046875 -1.546875q0.609375 -0.6875 1.3125 -1.203125q0.703125 -0.515625 1.421875 -0.78125q0.734375 -0.265625 1.40625 -0.265625q0.34375 0 0.515625 0q0.1875 0 0.34375 0.03125l0 3.890625zm8.727783 13.375q-2.109375 0 -4.125 -0.671875q-2.015625 -0.671875 -3.453125 -1.90625l1.59375 -2.6875q1.546875 1.078125 3.0 1.640625q1.453125 0.5625 2.890625 0.5625q1.28125 0 2.015625 -0.484375q0.734375 -0.484375 0.734375 -1.375q0 -0.890625 -0.859375 -1.3125q-0.859375 -0.421875 -2.8125 -0.953125q-1.640625 -0.453125 -2.796875 -0.859375q-1.140625 -0.421875 -1.84375 -0.953125q-0.703125 -0.53125 -1.03125 -1.21875q-0.3125 -0.6875 -0.3125 -1.640625q0 -1.28125 0.484375 -2.296875q0.5 -1.03125 1.390625 -1.75q0.90625 -0.71875 2.109375 -1.109375q1.203125 -0.390625 2.609375 -0.390625q1.890625 0 3.53125 0.546875q1.65625 0.546875 3.03125 1.765625l-1.734375 2.59375q-1.28125 -0.96875 -2.484375 -1.40625q-1.1875 -0.453125 -2.375 -0.453125q-1.09375 0 -1.828125 0.453125q-0.734375 0.4375 -0.734375 1.4375q0 0.4375 0.171875 0.734375q0.171875 0.28125 0.5625 0.515625q0.390625 0.21875 1.0 0.4375q0.625 0.203125 1.5625 0.421875q1.71875 0.453125 2.953125 0.90625q1.234375 0.4375 2.015625 1.015625q0.796875 0.578125 1.15625 1.328125q0.375 0.75 0.375 1.8125q0 2.453125 -1.828125 3.875q-1.828125 1.421875 -4.96875 1.421875z" fill-rule="nonzero"/></g></svg>